<svg xmlns="http://www.w3.org/2000/svg" viewBox="0 0 237.35 342.38"><defs><style>.cls-1{fill:#231f20;}</style></defs><g id="Layer_2" data-name="Layer 2"><g id="Layer_1-2" data-name="Layer 1"><path class="cls-1" d="M86.67,21.88,74.25,57.21C72.2,63,70,68.85,68.13,74.74a37.44,37.44,0,0,0-1.86,8.68,22.06,22.06,0,0,0,1.17,8.45c.87,2.68,2,5.32,2.19,8.16a29,29,0,0,1-.86,8.75c-.65,2.88-1.49,5.71-2.13,8.6a67.94,67.94,0,0,0-1.24,7.9,81.91,81.91,0,0,0,3.51,31.6,126.28,126.28,0,0,0,13.61,29.55c.71,1.15,1.44,2.29,2.18,3.42s2.45.07,1.74-1A130.48,130.48,0,0,1,72,159.94a84.34,84.34,0,0,1-4.85-31.11,78.54,78.54,0,0,1,2.72-16.11c1.45-5.61,2.62-11.29,1-17-.77-2.62-1.9-5.15-2.37-7.86A21.83,21.83,0,0,1,69,79a85.85,85.85,0,0,1,2.68-8.47l3.11-8.83L87.07,26.84l1.55-4.42c.43-1.23-1.52-1.75-2-.54Z"/><path class="cls-1" d="M89.39,189.24c13.64-4.16,24.73-13.47,35.07-22.94,10.68-9.78,21.18-20.09,34.45-26.32a45.5,45.5,0,0,1,23.35-4.6c.58.05,1-.51,1-1a56.36,56.36,0,0,0-16.51-46,53.23,53.23,0,0,0-6.6-5.47c-2.67-1.89-5.47-3.61-8.09-5.58-8.88-6.7-13.36-17-17.8-26.86a113.64,113.64,0,0,0-7.34-14.32,49.23,49.23,0,0,0-10.43-11.68c-4-3.27-8.28-6.13-12.28-9.37C100.42,12,96.8,8.57,94.56,4.18A21.56,21.56,0,0,1,93.17.72,1,1,0,0,0,91.33.48,29.46,29.46,0,0,0,87,21.82c.23,1.28,2.17.74,1.94-.53A27.43,27.43,0,0,1,93.07,1.5l-1.84-.24c3,9.87,12,15.71,19.89,21.57A58.43,58.43,0,0,1,122.46,33.3a70.94,70.94,0,0,1,8,13.82C135,56.69,138.76,67,146.19,74.8c4.34,4.55,9.93,7.43,14.86,11.26A52,52,0,0,1,172.4,98.34a54.47,54.47,0,0,1,9.16,31.92c-.05,1.37-.15,2.74-.31,4.11l1-1c-14.69-1.31-28.39,5.77-39.74,14.43-11.5,8.76-21.17,19.65-32.73,28.33a68.61,68.61,0,0,1-20.93,11.17c-1.24.38-.71,2.33.53,2Z"/><path class="cls-1" d="M184.05,135.87a66.36,66.36,0,0,1,2.21,8.53,1,1,0,1,0,1.94-.53,65.9,65.9,0,0,0-2.2-8.53,1,1,0,0,0-1.95.53Z"/><path class="cls-1" d="M176.61,139l1,8.51,1.88-.51a49,49,0,0,0-3.47-5.83c-.56-.79-1.15-1.91-2.1-2.26a1.73,1.73,0,0,0-2.2.93,4.84,4.84,0,0,0-.1,2.72l.46,3.59.95,7.47,1.28-1c-1-.14-1.17-1.14-1.35-2a27.93,27.93,0,0,0-.72-3.62,11.38,11.38,0,0,0-5-6.17,1,1,0,0,0-1.48.61l-2,12c-.21,1.27,1.73,1.81,1.94.53l2-12-1.48.6a9.33,9.33,0,0,1,4.49,6.45c.35,2,.52,5.15,3.09,5.51.56.08,1.37-.25,1.28-1-.5-3.93-1-7.85-1.51-11.78a6.44,6.44,0,0,0,0-1c0-.08.06-.08,0-.12l-.22.13.16.17a5.1,5.1,0,0,0,.76,1l.75,1.1a47.51,47.51,0,0,1,2.8,4.84c.43.85,2,.49,1.88-.51l-1-8.51a1,1,0,0,0-1-1,1,1,0,0,0-1,1Z"/><path class="cls-1" d="M155.27,145.16l.38,17.84,1.88-.51c-2.77-4.19-1.73-10.07-5.63-13.67a1,1,0,0,0-1.69.45A124.35,124.35,0,0,0,148,169.36l2-.27-1.78-11.53c-.33-2.14-.37-7.31-3.66-7.12a1,1,0,0,0-1,1,157.39,157.39,0,0,1-2.87,15.84c-.3,1.26,1.65,1.8,1.94.54a159.63,159.63,0,0,0,2.94-16.38l-1,1c.93-.06,1.1,1.67,1.2,2.34.26,1.64.51,3.29.77,4.94l1.53,9.89c.18,1.16,1.95.83,2-.27a120.16,120.16,0,0,1,2.12-19.56l-1.69.45c1.8,1.65,2.38,4,2.9,6.33a20.44,20.44,0,0,0,2.42,6.93,1,1,0,0,0,1.88-.51l-.38-17.84a1,1,0,0,0-2,0Z"/><path class="cls-1" d="M139.26,155.58c-1.26,2.78-1.52,5.78-1.82,8.77s-.71,5.85-2.54,8.22l1.88.51-.66-9.85c-.13-1.91,0-5.93-3-5.42a1,1,0,0,0-.74,1,33.78,33.78,0,0,1-2.84,11.56l1.88.5.55-9c.09-1.32-1.85-1.24-2,0a27.39,27.39,0,0,1-14.58,20.54c-1.16.59-.14,2.34,1,1.75A29.43,29.43,0,0,0,132,161.83h-2l-.55,9c-.06,1,1.47,1.43,1.87.51a36.47,36.47,0,0,0,3.11-12.57l-.74,1c-.19,0-.07-.06,0,.12s.15.32.21.51a6.83,6.83,0,0,1,.15,1.36l.26,3.78.5,7.55a1,1,0,0,0,1.88.51c3.79-4.92,1.91-11.58,4.36-17,.53-1.17-1.2-2.2-1.74-1Z"/><path class="cls-1" d="M116.4,175.4a26.25,26.25,0,0,1-3.2,6.95,1,1,0,0,0,.36,1.38,1,1,0,0,0,1.38-.36,28.31,28.31,0,0,0,3.4-7.44,1,1,0,1,0-1.94-.53Z"/><path class="cls-1" d="M105.85,188.22c-.6,3.3-1.21,6.77-3.16,9.57-2.07,3-5.6,4.4-8.74,5.9-6,2.87-12.54,6.19-15.41,12.61a12.89,12.89,0,0,0-.37,10.46c.51,1.19,2.25.16,1.74-1a10.86,10.86,0,0,1,.59-8.88,18.41,18.41,0,0,1,6.47-7.1A69.47,69.47,0,0,1,96,205c3.07-1.47,6.14-3,8.22-5.82,2.22-3,3-6.78,3.6-10.37.23-1.27-1.72-1.81-2-.54Z"/><path class="cls-1" d="M85.94,190a28.11,28.11,0,0,0-8.63,23.28c.14,1.27,2.16,1.29,2,0a26.15,26.15,0,0,1,8-21.85c.94-.89-.48-2.31-1.43-1.43Z"/><path class="cls-1" d="M107.78,196.07c1.86,7.83-2.08,15.52-8.38,20.13-3.87,2.83-8.58,3.91-13.13,5.18-3.8,1.06-8,2-9.91,5.86s-1.18,8.12.82,11.62a1,1,0,0,0,1.74-1c-1.7-3-2.4-6.85-.63-9.95A6.94,6.94,0,0,1,82,224.82c2.25-.82,4.57-1.43,6.87-2.07a58.42,58.42,0,0,0,7.17-2.37,22.86,22.86,0,0,0,5.35-3.2,24.09,24.09,0,0,0,7.08-8.93,19.8,19.8,0,0,0,1.22-12.72c-.3-1.26-2.24-.73-1.94.54Z"/><path class="cls-1" d="M73.67,240.13a12.4,12.4,0,0,0-2.46,14.17c.57,1.16,2.31.14,1.74-1a10.35,10.35,0,0,1,2.15-11.73c.93-.9-.49-2.33-1.43-1.42Z"/><path class="cls-1" d="M101.63,219.52c-2.92,3.3-1.47,8.25-4.47,11.51-3.2,3.49-8.28,4-12.67,4.76a27,27,0,0,0-8,2.34c-1.16.59-.14,2.33,1,1.74,4.46-2.27,9.63-2.08,14.34-3.51,4.27-1.29,8.15-4,9.18-8.58.51-2.28.39-5,2-6.84.86-1-.56-2.4-1.43-1.42Z"/><path class="cls-1" d="M97,235.62c-2.09,2.45-.28,5.67-1.72,8.33-1.66,3.08-5.32,4.11-8.42,5.12-3.69,1.2-7.39,2.39-11.08,3.61-3.14,1-6.12,2.36-8.21,5A13,13,0,0,0,64.8,267c.12,1.28,2.14,1.29,2,0a11.17,11.17,0,0,1,2.28-8c2.07-2.66,5.17-3.72,8.26-4.73L88,250.8c3-1,6.18-2.08,8.2-4.66a7.53,7.53,0,0,0,1.67-4.47c0-1.42-.48-3.44.53-4.63.83-1-.59-2.41-1.43-1.42Z"/><path class="cls-1" d="M92.62,252c-.5,2.46-.58,5-1.37,7.42a8.36,8.36,0,0,1-5,5A27,27,0,0,1,78,266.79c-3,.24-5.94-.44-8.89.09a7.58,7.58,0,0,0-5.94,4.35,1,1,0,0,0,.7,1.24,1,1,0,0,0,1.24-.71c.88-2.1,3.48-2.93,5.57-3.05,3.06-.18,6.06.4,9.11-.14a31.47,31.47,0,0,0,8-2.58,10,10,0,0,0,5.11-5.06c1.12-2.66,1.16-5.59,1.73-8.39.26-1.26-1.69-1.8-1.94-.53Z"/><path class="cls-1" d="M82.91,269.23c-.72,4.67-5,7.25-9.36,8a16,16,0,0,1-7.16-.06c-1.93-.56-3.87-2.35-3.24-4.54a1,1,0,0,0-1.95-.53,5.7,5.7,0,0,0,3,6.33c2.61,1.44,5.91,1.3,8.77.92,5.33-.7,11-3.82,11.91-9.61.19-1.27-1.75-1.82-2-.54Z"/><path class="cls-1" d="M59,271.11c-16.23,3.07-34.1,6.7-45.89,19.29a50.42,50.42,0,0,0-8,11.54A46.39,46.39,0,0,0,.38,315.6c-1.32,8.26.68,17.3,7.35,22.85,3.48,2.89,8.73,5.12,13.18,3.22,4-1.7,5.92-6.07,7.38-9.88l-1.94-.54c-.72,2.95-4.3,3.78-6.92,3.94-3.11.19-7.28-.14-8.26-3.71a6.31,6.31,0,0,1,3.54-7.34c3.2-1.45,6.88-.55,9.69,1.31,3.06,2,5.58,4.75,9.09,6a16.27,16.27,0,0,0,9.22.4A23.7,23.7,0,0,0,57.79,320c4.24-7.82,4.91-16.92,5.49-25.61.09-1.3-1.92-1.29-2,0-.55,8.14-1.13,16.71-5,24.09-3.13,6-9.05,11.06-16,11.78a13.86,13.86,0,0,1-9.6-2.54c-3.14-2.22-5.87-5.12-9.76-6-3.36-.76-7.31-.15-9.76,2.45A8.33,8.33,0,0,0,9.6,333c1.75,3.93,6.58,4.49,10.38,4.13,3.39-.32,7.41-1.67,8.31-5.38a1,1,0,0,0-1.94-.54c-1.2,3.11-2.72,6.78-5.84,8.4-3.53,1.82-8.1-.09-11-2.33-6.39-5-8.42-13.49-7.19-21.19a44.23,44.23,0,0,1,4.4-12.91,49.48,49.48,0,0,1,7.19-10.75c5.29-5.89,12.22-10,19.56-12.79,8.39-3.21,17.24-5,26-6.63,1.27-.24.73-2.19-.54-1.94Z"/><path class="cls-1" d="M63,295.71a27.2,27.2,0,0,1,3.26-11.89c.62-1.14-1.12-2.16-1.74-1A29.48,29.48,0,0,0,61,295.71c-.05,1.29,2,1.29,2,0Z"/><path class="cls-1" d="M133.71,182.93c-.14.14.17-.1.06,0s-.15.09,0,0l.07,0c-.1,0-.06,0,.13,0h-.1s.28,0,.13,0,.1,0,.1,0l-.1,0c-.17-.11,0,0,0,0s-.22-.27-.12-.1-.06-.11-.08-.14.07.21,0,0,0,.2,0-.08,0,.07,0,.1,0-.09,0-.11c0-.19-.1.16,0,.05l.08-.13c.06-.12-.17.16,0,0l.1-.1.11-.1c-.2.09,0,0,0,0l.26-.14c.17-.09,0,0,0,0a1,1,0,0,1,.18-.06,5.68,5.68,0,0,1,.71-.18l.31,0h0l.2,0c.29,0,.57-.06.86-.07h.55c-.19,0,0,0,0,0l.39.1c.14,0-.18-.12,0,0l.07,0c.08.05.08.05,0,0l0,0,.09.09a.41.41,0,0,1,.09.1s-.13-.23,0-.05l.06.12c.1.17,0-.06,0-.06s0,.14.05.16-.07,0,0,0,0,.13,0,.16c0,.18-.07,0,0-.06a1,1,0,0,0,0,.12s.14-.2,0-.08.07,0,0-.06-.08.08-.08.09l.1-.08c-.09,0-.1,0,0,0s-.05,0-.07,0h-.07a19.19,19.19,0,0,1-2-.1l-2.18-.13.27,2a7.66,7.66,0,0,1,.82-.23l.44-.08h0l.25,0a8,8,0,0,1,.85,0l.4,0,.25,0c.18,0-.23,0,.08,0l-.44-1.68c.16-.14,0,0-.1.05l-.14.07s.2-.07,0,0-.28,0-.29.07.21,0,0,0h-.33c-.14,0,.17.05,0,0l-.28-.08c-.13,0,.14.08,0,0l-.13-.07s-.17-.09-.05,0,0,0-.07-.07a1,1,0,1,0-1.42,1.43,3.07,3.07,0,0,0,4.08.06,1,1,0,0,0-.44-1.68,9.19,9.19,0,0,0-4.2.3,1,1,0,0,0,.27,2l2.55.16a6.92,6.92,0,0,0,2.36,0,2.21,2.21,0,0,0,.6-3.73c-1.15-1.09-3-.84-4.4-.56s-2.93,1.15-2.81,2.7a2.54,2.54,0,0,0,1.14,1.92,1.71,1.71,0,0,0,2.18-.23,1,1,0,1,0-1.42-1.42Z"/><path class="cls-1" d="M179.67,151.79c-4.18,13-12,25.35-23.24,33.4a46.93,46.93,0,0,1-18.13,8,44.77,44.77,0,0,1-19.48-.39,37,37,0,0,1-18.53-10.74c-.88-1-2.3.47-1.43,1.42,9.29,10.16,23.74,14,37.11,12.14,14.15-1.94,26.28-10.57,34.7-21.84a73.1,73.1,0,0,0,10.94-21.49c.4-1.24-1.55-1.77-1.94-.54Z"/><path class="cls-1" d="M166.33,157.54V159a1.08,1.08,0,0,0,.29.72.79.79,0,0,0,.33.2.65.65,0,0,0,.38.09,1,1,0,0,0,1-1v-1.43a1,1,0,0,0-.29-.71.72.72,0,0,0-.33-.21.74.74,0,0,0-.39-.08,1,1,0,0,0-.71.29,1.05,1.05,0,0,0-.29.71Z"/><path class="cls-1" d="M167.28,162.78v2.86a1,1,0,0,0,1,1,1,1,0,0,0,1-1v-2.86a1,1,0,0,0-2,0Z"/><path class="cls-1" d="M167.61,169.14l-.77,3.38a1,1,0,0,0,.7,1.24,1,1,0,0,0,1.24-.7l.77-3.38a1,1,0,0,0-.7-1.24,1,1,0,0,0-1.24.7Z"/><path class="cls-1" d="M183.72,197.22c5.52-1.19,11.35-3.19,16.89-1,3.86,1.52,6.47,4.7,8.39,8.27s3.37,7.71,5.35,11.42a14.41,14.41,0,0,0,9.28,7.38,16.79,16.79,0,0,0,13.26-2c1.08-.71.07-2.45-1-1.74a14.74,14.74,0,0,1-11.4,1.89,13.13,13.13,0,0,1-5.18-2.46,14.06,14.06,0,0,1-3.61-4.88c-3.66-7.18-5.84-16.13-14-19.58-6.08-2.58-12.4-.53-18.52.78-1.26.27-.73,2.22.54,1.95Z"/><path class="cls-1" d="M190.31,228.91c4.74,2.39,10.07,2.12,15.18,1.37,2.8-.41,5.6-.93,8.39-1.41s5.47-.91,8.17-1.54a38.2,38.2,0,0,0,8.82-3.1c1.15-.59.13-2.33-1-1.74-4.69,2.4-9.94,3.31-15.08,4.19s-10.19,2.08-15.33,2.14a17.46,17.46,0,0,1-8.12-1.65c-1.15-.58-2.17,1.16-1,1.74Z"/><path class="cls-1" d="M120.81,194.76c-1.13-.54-2,.44-1.75,1.58s1.69,1.89,2.55,2.45a15.94,15.94,0,0,0,7,2.43A15.7,15.7,0,0,0,142,195.73c.83-1-.59-2.42-1.43-1.43a13.5,13.5,0,0,1-15.2,4.13,13.19,13.19,0,0,1-2.53-1.24,12.34,12.34,0,0,1-1.12-.77c-.21-.16-.4-.36-.62-.51-.39-.29,0-.09-.15.2l-.6.46.09,0-.78-.11.11.06c1.17.55,2.19-1.18,1-1.74Z"/><path class="cls-1" d="M105.82,217.74a30.55,30.55,0,0,1-3.5,11.36c-1.68,3.31-3.51,6.6-4.18,10.29-.23,1.27,1.71,1.82,2,.54.69-3.82,2.66-7.15,4.36-10.59a31.48,31.48,0,0,0,3.38-11.6c.11-1.3-1.91-1.29-2,0Z"/><path class="cls-1" d="M95.25,256.3a32.36,32.36,0,0,1,14.07,1.75c.68.25,1.21-.37,1.28-1a123.58,123.58,0,0,1,7.21-29.34c.46-1.21-1.49-1.74-2-.54a126.06,126.06,0,0,0-7.28,29.88l1.28-1a33.91,33.91,0,0,0-14.61-1.83c-1.28.12-1.29,2.14,0,2Z"/><path class="cls-1" d="M115.72,202.37a21.69,21.69,0,0,1-1.31,9.13,15.85,15.85,0,0,0-1,4.28,7.57,7.57,0,0,0,.88,3.87c.61,1.25,1.34,2.38,1.25,3.82a16,16,0,0,0-.18,4.26,17.57,17.57,0,0,0,1.37,3.64,9.76,9.76,0,0,1,.92,3.86c0,2.88-.68,5.91,1,8.5.69,1.1,2.44.09,1.75-1-1.37-2.18-.66-4.93-.68-7.35a10.58,10.58,0,0,0-.63-3.65c-.46-1.22-1.1-2.38-1.5-3.63a8.71,8.71,0,0,1,0-4,6.82,6.82,0,0,0-.68-3.87,10.31,10.31,0,0,1-1.41-3.69,11.05,11.05,0,0,1,.83-4,24,24,0,0,0,1.53-10.09c-.11-1.28-2.12-1.3-2,0Z"/><path class="cls-1" d="M94.61,258.31c.76,1,.15,2.55-.24,3.54-.57,1.45-1.32,2.83-1.8,4.31-.78,2.36-.79,5.26,1,7.17s4.78,1.8,6.92.58c2.39-1.36,3.64-4,4.46-6.55a39.27,39.27,0,0,0,1.87-10.69c0-1.3-2-1.3-2,0a36.86,36.86,0,0,1-1.33,8.6c-.64,2.31-1.46,5-3.44,6.53-1.57,1.21-4.25,1.54-5.41-.4-1.26-2.12-.2-4.74.71-6.76,1.09-2.41,2.58-5.35.7-7.75-.8-1-2.22.41-1.43,1.42Z"/><path class="cls-1" d="M123.89,245.67a16.61,16.61,0,0,0,13.65-3.6c1-.83-.44-2.25-1.43-1.42a14.43,14.43,0,0,1-11.69,3.08c-1.26-.23-1.81,1.71-.53,1.94Z"/><path class="cls-1" d="M161.94,232.24c.18.2.36.41.53.62l.12.16.06.08.24.32a16,16,0,0,1,.88,1.42,12.39,12.39,0,0,1,1.18,2.94,1,1,0,0,0,2-.53,16,16,0,0,0-3.53-6.43,1,1,0,0,0-1.43,0,1,1,0,0,0,0,1.42Z"/><path class="cls-1" d="M165.65,229.33a24,24,0,0,0,11.15-10.05,1,1,0,0,0-1.74-1,22.19,22.19,0,0,1-10.42,9.31,1,1,0,0,0-.37,1.38,1,1,0,0,0,1.38.37Z"/><path class="cls-1" d="M174.77,223.63a22.32,22.32,0,0,1,4.3,6.73,1,1,0,0,0,1.24.7,1,1,0,0,0,.71-1.24,24.88,24.88,0,0,0-4.82-7.61,1,1,0,0,0-1.43,1.42Z"/><path class="cls-1" d="M181,220.27a8.46,8.46,0,0,1,1.46,1.47l-.15-.21a8.86,8.86,0,0,1,1,1.7,1,1,0,0,0,.6.46,1,1,0,0,0,.78-.1,1,1,0,0,0,.46-.6,1.12,1.12,0,0,0-.1-.78,9,9,0,0,0-2.64-3.37,1.1,1.1,0,0,0-.71-.29,1,1,0,0,0-1,1,1,1,0,0,0,.3.71Z"/><path class="cls-1" d="M185.59,135.67c-1,2.18-.8,4.47-.33,6.76s1.17,4.45.66,6.68l.46-.6c.36.09.45.09.28,0a1.34,1.34,0,0,1-.2-.21,4,4,0,0,1-.39-.77l-.89-1.87c-.45-1-.84-2.14-1.86-2.65-1.21-.59-2,.36-2.32,1.42-.38,1.32-.74,2.65-1.1,4a1,1,0,0,0,1.94.53c.37-1.32.74-2.64,1.1-4a2.46,2.46,0,0,0,.09-.34c-.57,0-.74.09-.52.25a7,7,0,0,0,.38.63c.3.62.59,1.25.88,1.87.49,1,.88,2.32,1.94,2.91A1.47,1.47,0,0,0,188,149a17.87,17.87,0,0,0-.64-6.38c-.41-1.91-.88-4.05,0-5.9.55-1.17-1.19-2.19-1.74-1Z"/><path class="cls-1" d="M168.09,181.68c3.52,2,4.46,6.46,6,9.87,1.88,4.2,4.91,7.72,7.26,11.64,1.89,3.14,4.22,7.92,2,11.46-1.14,1.81-3.61,2.33-5.56,2.82a28.61,28.61,0,0,1-6.18.88c-4.6.14-9.31-1-12.72-4.25a1,1,0,0,0-1.42,1.43c3.43,3.65,9.33,2.93,12.58-.54,3.93-4.2,3.84-10.33,2.05-15.46-.43-1.22-2.37-.7-1.95.53,1.49,4.28,1.9,9.43-1.19,13.13-2.48,2.95-7.21,3.94-10.07.91l-1.42,1.43a18.68,18.68,0,0,0,12.27,4.83,29.44,29.44,0,0,0,6.88-.57c2.31-.44,5-1,6.94-2.45,3.73-2.81,2.9-8.18,1.27-11.91-2-4.68-5.55-8.49-8-13-2.32-4.23-3.11-10-7.68-12.54-1.14-.63-2.16,1.11-1,1.74Z"/><path class="cls-1" d="M170.19,202.14l-10.1-5.33c-1.63-.86-3.23-1.82-4.93-2.53-1.31-.54-3.31-1.08-4.63-.21-.53.36-.63,1.14-.77,1.73a17.22,17.22,0,0,0-.36,2.13,14,14,0,0,0,.17,4.14,9.73,9.73,0,0,0,4.28,6.54c1.57,1,3.31,1.63,4.86,2.65a23.17,23.17,0,0,1,4.34,3.69c.88,1,2.3-.47,1.42-1.42a24.61,24.61,0,0,0-5.22-4.32c-1.9-1.17-4.23-1.83-5.78-3.49-2.56-2.76-2.52-7.13-1.45-10.51l-.71.71c1.53-.62,3,.14,4.39.85l4.4,2.32,9.07,4.79c1.15.61,2.17-1.13,1-1.74Z"/><path class="cls-1" d="M178.16,195.15a1,1,0,0,0,0-2,1,1,0,0,0,0,2Z"/><path class="cls-1" d="M173.67,171.18a4.2,4.2,0,0,1,1.4,2.57,5.85,5.85,0,0,1-.61,2.91c-.67,2,.91,2.93,2.36,3.82.67.41.88.63.5,1.36-.48.92-1,1.75-.72,2.84s1.18,1.83,1.5,2.91a5.1,5.1,0,0,1-.24,3.44c-.49,1.2,1.46,1.72,1.94.54a6.79,6.79,0,0,0,.43-3.62,8.23,8.23,0,0,0-1.42-3.3,1,1,0,0,1,0-1.3,6.9,6.9,0,0,0,.69-1.42,2.49,2.49,0,0,0-.75-2.56c-.61-.56-1.4-.83-2.05-1.33s0-1.34.23-2.08a6.2,6.2,0,0,0-1.8-6.21c-1-.86-2.39.56-1.43,1.43Z"/></g></g></svg>