<svg xmlns="http://www.w3.org/2000/svg" xmlns:xlink="http://www.w3.org/1999/xlink" viewBox="0 0 1370.16 233.93"><defs><style>.cls-1{fill:none;}.cls-2{clip-path:url(#clip-path);}.cls-3{fill:#58595b;}.cls-4{clip-path:url(#clip-path-2);}.cls-5{clip-path:url(#clip-path-3);}.cls-6{fill:#fff;}.cls-7{fill:url(#New_Pattern_2);}.cls-8{fill:#ccf5f7;}.cls-9{fill:#211e1f;}</style><clipPath id="clip-path"><rect class="cls-1" x="-16.77" y="83.16" width="94" height="96"/></clipPath><clipPath id="clip-path-2"><rect class="cls-1" x="80.1" y="-9.95" width="94" height="96"/></clipPath><clipPath id="clip-path-3"><rect class="cls-1" x="-16.77" y="-9.95" width="94" height="96"/></clipPath><pattern id="New_Pattern_2" data-name="New Pattern 2" width="96.86" height="93.12" patternTransform="translate(193.73)" patternUnits="userSpaceOnUse" viewBox="0 0 96.86 93.12"><rect class="cls-1" width="96.86" height="93.12"/><g class="cls-2"><path class="cls-3" d="M22.48,85.27a1.93,1.93,0,0,1,.13,1.27.73.73,0,0,1-.14.26.48.48,0,0,1-.33.09.32.32,0,0,1-.27-.13.45.45,0,0,1,0-.11,2.27,2.27,0,0,1,.32-1.27.53.53,0,0,1,.2-.1Z"/><path class="cls-3" d="M6.68,88.53a1.89,1.89,0,0,1,.13,1.28.63.63,0,0,1-.14.25.42.42,0,0,1-.32.09A.3.3,0,0,1,6.08,90a.25.25,0,0,1,0-.11,2.36,2.36,0,0,1,.32-1.27.62.62,0,0,1,.2-.1Z"/><path class="cls-3" d="M40.34,86.11a.46.46,0,0,1,.27.4,1.84,1.84,0,0,1-.16,1.08s-.15.06-.24.07a.25.25,0,0,1-.16,0c-.12-.08-.2-.19-.17-.3.08-.36.18-.72.29-1.08C40.18,86.19,40.28,86.15,40.34,86.11Z"/><path class="cls-3" d="M67.06,93.78c-.08.24,0,.48-.17.7a.27.27,0,0,1-.2.09.37.37,0,0,1-.21-.09.35.35,0,0,1-.07-.21,2.62,2.62,0,0,1,.19-1.13s.11-.08.17-.12a1.57,1.57,0,0,1,.19.12A.86.86,0,0,1,67.06,93.78Z"/></g><g class="cls-4"><path class="cls-3" d="M86.93,54.34V55a.23.23,0,0,1-.13.25l-.23.08a.26.26,0,0,1-.23-.08.43.43,0,0,1-.11-.21,3.29,3.29,0,0,1,.24-1.5c0-.05.07-.14.24-.11s.21.09.21.16c0,.26,0,.51,0,.76Z"/><path class="cls-3" d="M76.72,58.72v.65a.23.23,0,0,1-.13.25.76.76,0,0,1-.24.07.22.22,0,0,1-.22-.07.45.45,0,0,1-.12-.21,3.29,3.29,0,0,1,.24-1.5.21.21,0,0,1,.25-.12c.13,0,.21.1.21.17,0,.25,0,.51,0,.76Z"/><path class="cls-3" d="M69.22,49.65c0,.16-.1.4-.17.63a.22.22,0,0,1-.22.08.52.52,0,0,1-.23-.08.37.37,0,0,1-.13-.2A1.57,1.57,0,0,1,68.79,49a.23.23,0,0,1,.14-.07.15.15,0,0,1,.17.09C69.25,49.18,69.21,49.38,69.22,49.65Z"/><path class="cls-3" d="M73.17,35c-.07.23,0,.48-.17.7a.31.31,0,0,1-.2.09.37.37,0,0,1-.21-.09.36.36,0,0,1-.07-.22,2.62,2.62,0,0,1,.19-1.13s.11-.07.17-.11a.88.88,0,0,1,.19.12A.82.82,0,0,1,73.17,35Z"/><path class="cls-3" d="M84,42.4a4.38,4.38,0,0,1,0,.52c0,.11-.12.2-.36.21s-.42-.08-.45-.23a2.11,2.11,0,0,1,.25-1.44s.08-.05.14-.06a.15.15,0,0,1,.2.07A2.76,2.76,0,0,1,84,42.4Z"/><path class="cls-3" d="M94.28,44.45a4.51,4.51,0,0,1,0,.52c0,.11-.13.2-.37.21s-.42-.08-.44-.23a2,2,0,0,1,.24-1.44s.09,0,.14-.07.18,0,.2.08A2.54,2.54,0,0,1,94.28,44.45Z"/><path class="cls-3" d="M87.21,28.61a1.9,1.9,0,0,1,.13,1.28.51.51,0,0,1-.14.26.41.41,0,0,1-.32.08.28.28,0,0,1-.27-.12.3.3,0,0,1,0-.11,2.36,2.36,0,0,1,.32-1.27c0-.05.13-.07.2-.11Z"/><path class="cls-3" d="M78.32,17.89a1.93,1.93,0,0,1,.13,1.27.73.73,0,0,1-.14.26.48.48,0,0,1-.33.09.32.32,0,0,1-.27-.13.45.45,0,0,1,0-.11A2.27,2.27,0,0,1,78,18a.56.56,0,0,1,.19-.1Z"/><path class="cls-3" d="M87.35,18.34a.46.46,0,0,1,.27.4,1.77,1.77,0,0,1-.17,1.08s-.14.06-.23.07a.25.25,0,0,1-.16-.05c-.12-.08-.2-.19-.17-.3.08-.36.18-.72.28-1.08C87.19,18.42,87.29,18.38,87.35,18.34Z"/><path class="cls-3" d="M96.44,27c0,.17-.1.4-.17.63a.2.2,0,0,1-.22.08.52.52,0,0,1-.23-.07.41.41,0,0,1-.13-.2A1.54,1.54,0,0,1,96,26.32a.24.24,0,0,1,.14-.08.15.15,0,0,1,.17.1C96.48,26.52,96.43,26.73,96.44,27Z"/><path class="cls-3" d="M77.93,67.78c0,.31-.08.62-.14.92a.49.49,0,0,1-.13.26.41.41,0,0,1-.32.1c-.15,0-.22-.07-.23-.15a3.22,3.22,0,0,1,.14-1.34c.07-.18.06-.37.25-.52a.29.29,0,0,1,.22-.08c.11,0,.17.06.17.11,0,.23,0,.47,0,.7Z"/><path class="cls-3" d="M68.66,66c0,.31-.09.62-.14.92a.71.71,0,0,1-.13.26.42.42,0,0,1-.32.1c-.15,0-.23-.07-.23-.15A3.21,3.21,0,0,1,68,65.74c.07-.18.07-.36.25-.52a.29.29,0,0,1,.22-.08c.12,0,.17.06.18.11V66Z"/><path class="cls-3" d="M93.79,69v.65a.23.23,0,0,1-.13.25.78.78,0,0,1-.23.08.26.26,0,0,1-.23-.08.37.37,0,0,1-.11-.2,3.38,3.38,0,0,1,.23-1.5.2.2,0,0,1,.25-.12c.13,0,.21.09.21.16,0,.26,0,.51,0,.76Z"/><path class="cls-3" d="M76.24,76.18a.44.44,0,0,1,.26.41,1.71,1.71,0,0,1-.16,1.08.52.52,0,0,1-.23.07.43.43,0,0,1-.16,0,.35.35,0,0,1-.18-.31c.09-.36.19-.71.29-1.07C76.08,76.26,76.18,76.23,76.24,76.18Z"/><path class="cls-3" d="M85.33,84.84c0,.16-.1.39-.18.62,0,.05-.1.1-.21.09a.44.44,0,0,1-.23-.08.35.35,0,0,1-.13-.2,1.57,1.57,0,0,1,.32-1.11.23.23,0,0,1,.14-.07c.11,0,.13,0,.17.09S85.32,84.57,85.33,84.84Z"/><path class="cls-3" d="M88.93,3.08a.46.46,0,0,1,.27.4A1.77,1.77,0,0,1,89,4.56s-.14.06-.23.07a.25.25,0,0,1-.16,0c-.12-.08-.2-.19-.17-.3.08-.36.18-.72.29-1.08C88.77,3.16,88.87,3.12,88.93,3.08Z"/></g><g class="cls-5"><path class="cls-3" d="M-9.93,54.34c0,.22,0,.43,0,.65s0,.18-.12.25l-.24.08a.24.24,0,0,1-.22-.08.45.45,0,0,1-.12-.21,3.29,3.29,0,0,1,.24-1.5c0-.05.08-.14.25-.11s.21.09.21.16c0,.26,0,.51,0,.76Z"/><path class="cls-3" d="M4.76,55.35c0,.17-.1.4-.18.63,0,.05-.1.1-.21.09A.56.56,0,0,1,4.14,56a.35.35,0,0,1-.13-.2,1.54,1.54,0,0,1,.32-1.11.19.19,0,0,1,.13-.07c.12,0,.14,0,.18.09S4.75,55.09,4.76,55.35Z"/><path class="cls-3" d="M38.76,31.35c0,.17-.1.4-.18.63,0,.05-.1.1-.21.09a.56.56,0,0,1-.23-.08.35.35,0,0,1-.13-.2,1.54,1.54,0,0,1,.32-1.11.19.19,0,0,1,.13-.07c.12,0,.14,0,.18.09S38.75,31.09,38.76,31.35Z"/><path class="cls-3" d="M-20.15,58.72c0,.21,0,.43,0,.65s0,.18-.12.25a.84.84,0,0,1-.24.07.23.23,0,0,1-.23-.07.43.43,0,0,1-.11-.21,3.29,3.29,0,0,1,.24-1.5c0-.06.08-.14.24-.12s.21.1.22.17v.76Z"/><path class="cls-3" d="M-27.64,49.65c-.05.16-.1.4-.18.63a.19.19,0,0,1-.21.08.44.44,0,0,1-.23-.08.32.32,0,0,1-.13-.2A1.57,1.57,0,0,1-28.07,49a.23.23,0,0,1,.13-.07c.12,0,.14.05.18.09S-27.65,49.38-27.64,49.65Z"/><path class="cls-3" d="M-23.69,35c-.08.23,0,.48-.17.7a.34.34,0,0,1-.2.09.32.32,0,0,1-.21-.09.37.37,0,0,1-.08-.22,2.62,2.62,0,0,1,.19-1.13s.12-.07.17-.11a.76.76,0,0,1,.2.12A.86.86,0,0,1-23.69,35Z"/><path class="cls-3" d="M-12.9,42.4a4.5,4.5,0,0,1,0,.52c0,.11-.13.2-.37.21s-.42-.08-.44-.23a2,2,0,0,1,.24-1.44.26.26,0,0,1,.14-.06.17.17,0,0,1,.21.07A2.73,2.73,0,0,1-12.9,42.4Z"/><path class="cls-3" d="M-2.58,44.45a4.42,4.42,0,0,1,0,.52c0,.11-.13.2-.36.21s-.42-.08-.45-.23a2.05,2.05,0,0,1,.25-1.44s.08,0,.14-.07a.15.15,0,0,1,.2.08A2.76,2.76,0,0,1-2.58,44.45Z"/><path class="cls-3" d="M3.92,36.45v.65a.23.23,0,0,1-.13.25l-.24.08a.25.25,0,0,1-.22-.08.45.45,0,0,1-.12-.21,3.29,3.29,0,0,1,.24-1.5.21.21,0,0,1,.25-.11c.13,0,.21.09.21.16,0,.25,0,.51,0,.76Z"/><path class="cls-3" d="M17.92,46.05v.64a.25.25,0,0,1-.13.26.76.76,0,0,1-.24.07.25.25,0,0,1-.22-.07.45.45,0,0,1-.12-.21,3.25,3.25,0,0,1,.24-1.5.2.2,0,0,1,.25-.12c.13,0,.21.09.21.17,0,.25,0,.5,0,.76Z"/><path class="cls-3" d="M-9.65,28.61a2,2,0,0,1,.13,1.28.73.73,0,0,1-.14.26.44.44,0,0,1-.33.08.29.29,0,0,1-.27-.12.61.61,0,0,1,0-.11A2.27,2.27,0,0,1-10,28.73c0-.05.13-.07.2-.11Z"/><path class="cls-3" d="M-18.55,17.89a1.87,1.87,0,0,1,.13,1.27.6.6,0,0,1-.14.26.45.45,0,0,1-.32.09.3.3,0,0,1-.27-.13.25.25,0,0,1,0-.11A2.36,2.36,0,0,1-18.87,18a.62.62,0,0,1,.2-.1Z"/><path class="cls-3" d="M-9.51,18.34a.45.45,0,0,1,.26.4,1.77,1.77,0,0,1-.16,1.08s-.15.06-.23.07a.22.22,0,0,1-.16-.05.32.32,0,0,1-.18-.3c.09-.36.18-.72.29-1.08C-9.68,18.42-9.58,18.38-9.51,18.34Z"/><path class="cls-3" d="M-.42,27c0,.17-.1.4-.18.63,0,.05-.1.1-.21.08A.45.45,0,0,1-1,27.63a.35.35,0,0,1-.13-.2,1.54,1.54,0,0,1,.32-1.11.24.24,0,0,1,.13-.08c.12,0,.14.05.18.1S-.43,26.73-.42,27Z"/><path class="cls-3" d="M3.74,17c-.08.23,0,.48-.17.7a.34.34,0,0,1-.2.09.28.28,0,0,1-.21-.1.34.34,0,0,1-.08-.21,2.62,2.62,0,0,1,.19-1.13s.12-.07.17-.11a.76.76,0,0,1,.2.12A.86.86,0,0,1,3.74,17Z"/><path class="cls-3" d="M18.62,11.05c-.08.23,0,.48-.17.7a.34.34,0,0,1-.2.09.32.32,0,0,1-.21-.09.38.38,0,0,1-.07-.22,2.48,2.48,0,0,1,.19-1.13s.11-.07.17-.11a.88.88,0,0,1,.19.12A.86.86,0,0,1,18.62,11.05Z"/><path class="cls-3" d="M49.46,15.43c-.07.24,0,.48-.17.7a.27.27,0,0,1-.2.09.37.37,0,0,1-.21-.09.33.33,0,0,1-.07-.21A2.62,2.62,0,0,1,49,14.79s.11-.08.17-.11a.86.86,0,0,1,.19.11A.82.82,0,0,1,49.46,15.43Z"/><path class="cls-3" d="M54.46,47.43c-.07.24,0,.48-.17.7a.27.27,0,0,1-.2.09.37.37,0,0,1-.21-.09.33.33,0,0,1-.07-.21A2.62,2.62,0,0,1,54,46.79s.11-.08.17-.11a.86.86,0,0,1,.19.11A.82.82,0,0,1,54.46,47.43Z"/><path class="cls-3" d="M12.83,24.88c0,.31-.08.61-.14.92a.58.58,0,0,1-.13.26.41.41,0,0,1-.32.09c-.15,0-.22-.06-.23-.14a3.28,3.28,0,0,1,.14-1.35c.07-.17.06-.36.25-.52a.26.26,0,0,1,.22-.07c.11,0,.17.05.17.11,0,.23,0,.47,0,.7Z"/><path class="cls-3" d="M25.83,26.88c0,.31-.08.61-.14.92a.58.58,0,0,1-.13.26.41.41,0,0,1-.32.09c-.15,0-.22-.06-.23-.14a3.28,3.28,0,0,1,.14-1.35c.07-.17.06-.36.25-.52a.26.26,0,0,1,.22-.07c.11,0,.17.05.17.11,0,.23,0,.47,0,.7Z"/><path class="cls-3" d="M32.83,10.88c0,.31-.08.61-.14.92a.58.58,0,0,1-.13.26.41.41,0,0,1-.32.09c-.15,0-.22-.06-.23-.14a3.28,3.28,0,0,1,.14-1.35c.07-.17.06-.36.25-.52a.26.26,0,0,1,.22-.07c.11,0,.17,0,.17.11,0,.23,0,.47,0,.7Z"/><path class="cls-3" d="M11.14,33.28a.43.43,0,0,1,.26.4,1.7,1.7,0,0,1-.16,1.08s-.15.06-.23.08a.43.43,0,0,1-.16-.05c-.12-.09-.2-.2-.17-.31.08-.36.18-.72.28-1.07C11,33.36,11.08,33.32,11.14,33.28Z"/><path class="cls-3" d="M-18.93,67.78c-.05.31-.09.62-.14.92a.71.71,0,0,1-.13.26.42.42,0,0,1-.32.1c-.15,0-.23-.07-.23-.15a3.39,3.39,0,0,1,.13-1.34c.07-.18.07-.37.25-.52a.32.32,0,0,1,.23-.08c.11,0,.17.06.17.11v.7Z"/><path class="cls-3" d="M-28.21,66c0,.31-.08.62-.14.92a.49.49,0,0,1-.13.26.41.41,0,0,1-.32.1c-.15,0-.22-.07-.23-.15a3.22,3.22,0,0,1,.14-1.34c.06-.18.06-.36.25-.52a.29.29,0,0,1,.22-.08c.11,0,.17.06.17.11,0,.23,0,.47,0,.7Z"/><path class="cls-3" d="M-3.08,69c0,.22,0,.43,0,.65s0,.18-.12.25a.85.85,0,0,1-.24.08.23.23,0,0,1-.22-.08.39.39,0,0,1-.12-.2,3.25,3.25,0,0,1,.24-1.5c0-.06.08-.15.25-.12a.23.23,0,0,1,.21.16c0,.26,0,.51,0,.76Z"/><path class="cls-3" d="M35.92,64.05c0,.21,0,.43,0,.64s0,.19-.12.26a.84.84,0,0,1-.24.07.23.23,0,0,1-.22-.07.45.45,0,0,1-.12-.21,3.25,3.25,0,0,1,.24-1.5c0-.06.08-.15.25-.12s.2.09.21.17c0,.25,0,.5,0,.76Z"/><path class="cls-3" d="M14.92,67.05c0,.21,0,.43,0,.64s0,.19-.12.26a.84.84,0,0,1-.24.07.23.23,0,0,1-.22-.07.45.45,0,0,1-.12-.21,3.25,3.25,0,0,1,.24-1.5c0-.06.08-.15.25-.12s.2.09.21.17c0,.25,0,.5,0,.76Z"/><path class="cls-3" d="M23.92,77.05c0,.21,0,.43,0,.64s0,.19-.12.26a.84.84,0,0,1-.24.07.23.23,0,0,1-.22-.07.45.45,0,0,1-.12-.21,3.25,3.25,0,0,1,.24-1.5c0-.06.08-.15.25-.12s.2.09.21.17c0,.25,0,.5,0,.76Z"/><path class="cls-3" d="M34.92,49.05c0,.21,0,.43,0,.64s0,.19-.12.26a.84.84,0,0,1-.24.07.23.23,0,0,1-.22-.07.45.45,0,0,1-.12-.21,3.25,3.25,0,0,1,.24-1.5c0-.06.08-.15.25-.12s.2.09.21.17c0,.25,0,.5,0,.76Z"/><path class="cls-3" d="M-20.63,76.18a.47.47,0,0,1,.27.41,1.85,1.85,0,0,1-.16,1.08.57.57,0,0,1-.24.07.38.38,0,0,1-.15,0c-.13-.09-.21-.2-.18-.31.08-.36.18-.71.29-1.07C-20.79,76.26-20.69,76.23-20.63,76.18Z"/><path class="cls-3" d="M-11.53,84.84c-.05.16-.1.39-.18.62a.22.22,0,0,1-.22.09.44.44,0,0,1-.22-.08.35.35,0,0,1-.13-.2A1.56,1.56,0,0,1-12,84.16a.26.26,0,0,1,.14-.07c.12,0,.14,0,.17.09S-11.54,84.57-11.53,84.84Z"/><path class="cls-3" d="M-12.54,95.58c-.07.24,0,.48-.17.7a.26.26,0,0,1-.19.09.32.32,0,0,1-.21-.09.31.31,0,0,1-.08-.21A2.62,2.62,0,0,1-13,94.94s.11-.08.17-.12a1,1,0,0,1,.19.12A.82.82,0,0,1-12.54,95.58Z"/><path class="cls-3" d="M86.34,43.75a4.21,4.21,0,0,1,0,.51c0,.12-.12.21-.36.21s-.42-.08-.45-.23a2.12,2.12,0,0,1,.25-1.44.26.26,0,0,1,.14-.06.15.15,0,0,1,.2.07A2.81,2.81,0,0,1,86.34,43.75Z"/><path class="cls-3" d="M74.35,39v.65a.23.23,0,0,1-.13.25A.78.78,0,0,1,74,40a.26.26,0,0,1-.23-.07.43.43,0,0,1-.11-.21,3.29,3.29,0,0,1,.24-1.5c0-.06.07-.15.24-.12s.21.1.21.17c0,.25,0,.5,0,.76Z"/><path class="cls-3" d="M65.14,25a1.87,1.87,0,0,1,.13,1.27.58.58,0,0,1-.13.26.5.5,0,0,1-.33.09.3.3,0,0,1-.27-.13s0-.07,0-.11a2.19,2.19,0,0,1,.32-1.27A.56.56,0,0,1,65,25Z"/><path class="cls-3" d="M53.14,31a1.87,1.87,0,0,1,.13,1.27.58.58,0,0,1-.13.26.5.5,0,0,1-.33.09.3.3,0,0,1-.27-.13s0-.07,0-.11a2.19,2.19,0,0,1,.32-1.27A.56.56,0,0,1,53,31Z"/><path class="cls-3" d="M22.48-7.85a1.93,1.93,0,0,1,.13,1.27.73.73,0,0,1-.14.26.48.48,0,0,1-.33.09.32.32,0,0,1-.27-.13.45.45,0,0,1,0-.11,2.27,2.27,0,0,1,.32-1.27.53.53,0,0,1,.2-.1Z"/><path class="cls-3" d="M6.68-4.59a1.89,1.89,0,0,1,.13,1.28.63.63,0,0,1-.14.25A.42.42,0,0,1,6.35-3a.3.3,0,0,1-.27-.13.21.21,0,0,1,0-.11,2.36,2.36,0,0,1,.32-1.27.62.62,0,0,1,.2-.1Z"/><path class="cls-3" d="M6.68,77.41a1.89,1.89,0,0,1,.13,1.28.63.63,0,0,1-.14.25.42.42,0,0,1-.32.09.3.3,0,0,1-.27-.13.21.21,0,0,1,0-.11,2.36,2.36,0,0,1,.32-1.27.62.62,0,0,1,.2-.1Z"/><path class="cls-3" d="M65.28,14.71a.47.47,0,0,1,.27.41,1.87,1.87,0,0,1-.16,1.08.57.57,0,0,1-.24.07.49.49,0,0,1-.16-.05c-.12-.09-.2-.2-.17-.31.08-.36.18-.72.29-1.07C65.12,14.79,65.22,14.75,65.28,14.71Z"/><path class="cls-3" d="M53.32.68a.46.46,0,0,1,.27.4,1.77,1.77,0,0,1-.17,1.08s-.14.06-.23.07a.25.25,0,0,1-.16,0c-.12-.08-.2-.19-.17-.3.08-.36.18-.72.29-1.08C53.16.76,53.26.72,53.32.68Z"/><path class="cls-3" d="M40.34-7a.46.46,0,0,1,.27.4,1.84,1.84,0,0,1-.16,1.08s-.15.06-.24.07a.32.32,0,0,1-.16,0c-.12-.09-.2-.2-.17-.31.08-.36.18-.72.29-1.08C40.18-6.93,40.28-7,40.34-7Z"/><path class="cls-3" d="M-7.93,3.08a.45.45,0,0,1,.26.4,1.77,1.77,0,0,1-.16,1.08s-.15.06-.23.07a.22.22,0,0,1-.16,0,.32.32,0,0,1-.18-.3c.09-.36.18-.72.29-1.08C-8.1,3.16-8,3.12-7.93,3.08Z"/><path class="cls-3" d="M74.38,23.36c0,.17-.1.4-.18.63a.22.22,0,0,1-.22.09.69.69,0,0,1-.23-.08.49.49,0,0,1-.13-.2,1.62,1.62,0,0,1,.32-1.11.21.21,0,0,1,.14-.07c.12,0,.14,0,.17.09S74.37,23.1,74.38,23.36Z"/><path class="cls-3" d="M78.53,13.38c-.07.23,0,.48-.17.7a.27.27,0,0,1-.4,0,.32.32,0,0,1-.08-.22,2.62,2.62,0,0,1,.19-1.13s.11-.07.17-.11a.69.69,0,0,1,.19.12A.82.82,0,0,1,78.53,13.38Z"/><path class="cls-3" d="M67.06.66c-.08.24,0,.48-.17.7a.27.27,0,0,1-.2.09.37.37,0,0,1-.21-.09.35.35,0,0,1-.07-.21A2.62,2.62,0,0,1,66.6,0s.11-.08.17-.11A.86.86,0,0,1,67,0,.86.86,0,0,1,67.06.66Z"/><path class="cls-3" d="M68.8,69.7a4.33,4.33,0,0,1,0,.51c0,.12-.13.21-.36.22S68,70.35,68,70.2a2,2,0,0,1,.24-1.44s.09-.05.14-.07a.17.17,0,0,1,.21.08A2.52,2.52,0,0,1,68.8,69.7Z"/><path class="cls-3" d="M51.8,65.7a4.33,4.33,0,0,1,0,.51c0,.12-.13.21-.36.22S51,66.35,51,66.2a2,2,0,0,1,.24-1.44s.09-.05.14-.07a.17.17,0,0,1,.21.08A2.52,2.52,0,0,1,51.8,65.7Z"/><path class="cls-3" d="M93.59,52.06a4.5,4.5,0,0,1,0,.52c0,.11-.13.2-.37.21s-.42-.08-.44-.23A2,2,0,0,1,93,51.12a.26.26,0,0,1,.14-.06.17.17,0,0,1,.21.07A2.73,2.73,0,0,1,93.59,52.06Z"/><path class="cls-3" d="M96.67,38.22a1.9,1.9,0,0,1,.13,1.28.5.5,0,0,1-.13.25.41.41,0,0,1-.33.09c-.15,0-.23-.05-.27-.13a.13.13,0,0,1,0-.1,2.22,2.22,0,0,1,.32-1.28.56.56,0,0,1,.19-.1Z"/><path class="cls-3" d="M81.44,62c0,.16-.1.4-.18.63a.19.19,0,0,1-.21.08.44.44,0,0,1-.23-.08.32.32,0,0,1-.13-.2A1.57,1.57,0,0,1,81,61.35s.08-.06.13-.07.14,0,.18.09C81.47,61.56,81.43,61.76,81.44,62Z"/><path class="cls-3" d="M70.21,53.93c0,.17-.1.4-.17.63a.2.2,0,0,1-.22.08.52.52,0,0,1-.23-.07.35.35,0,0,1-.13-.2,1.54,1.54,0,0,1,.32-1.11.19.19,0,0,1,.14-.07c.12,0,.13,0,.17.09S70.2,53.67,70.21,53.93Z"/><path class="cls-3" d="M84.56,76.33c-.08.24,0,.48-.17.7a.29.29,0,0,1-.2.09A.32.32,0,0,1,84,77a.46.46,0,0,1-.08-.21,2.63,2.63,0,0,1,.2-1.13s.11-.08.17-.12a1.57,1.57,0,0,1,.19.12A.86.86,0,0,1,84.56,76.33Z"/><path class="cls-3" d="M96.28,67.61c-.08.23,0,.48-.17.7a.28.28,0,0,1-.41,0,.36.36,0,0,1-.07-.22A2.48,2.48,0,0,1,95.82,67s.11-.07.17-.11a.88.88,0,0,1,.19.12A.86.86,0,0,1,96.28,67.61Z"/><path class="cls-3" d="M81.39,91.16c-.08.24,0,.48-.17.7A.29.29,0,0,1,81,92a.37.37,0,0,1-.21-.09.35.35,0,0,1-.07-.21,2.48,2.48,0,0,1,.19-1.13s.11-.08.17-.12a1.57,1.57,0,0,1,.19.12A.86.86,0,0,1,81.39,91.16Z"/><path class="cls-3" d="M65.14,81.06a1.9,1.9,0,0,1,.13,1.28.5.5,0,0,1-.13.25.41.41,0,0,1-.33.09c-.15,0-.23-.05-.27-.13a.13.13,0,0,1,0-.1,2.17,2.17,0,0,1,.32-1.27c0-.05.12-.08.19-.11Z"/><path class="cls-3" d="M44.14,78.06a1.9,1.9,0,0,1,.13,1.28.5.5,0,0,1-.13.25.41.41,0,0,1-.33.09c-.15,0-.23-.05-.27-.13a.13.13,0,0,1,0-.1,2.17,2.17,0,0,1,.32-1.27c0-.05.12-.08.19-.11Z"/><path class="cls-3" d="M88.28,27.34V28a.23.23,0,0,1-.13.25.75.75,0,0,1-.24.08.23.23,0,0,1-.22-.08.39.39,0,0,1-.12-.2,3.25,3.25,0,0,1,.24-1.5.2.2,0,0,1,.25-.12c.13,0,.21.09.21.16,0,.26,0,.51,0,.76Z"/><path class="cls-3" d="M83.94,17.88c0,.17-.1.4-.18.63,0,0-.1.1-.21.09a.56.56,0,0,1-.23-.08.35.35,0,0,1-.13-.2,1.57,1.57,0,0,1,.32-1.11.19.19,0,0,1,.13-.07c.12,0,.14,0,.18.09S83.93,17.62,83.94,17.88Z"/></g></pattern></defs><g id="Layer_2" data-name="Layer 2"><g id="Layer_1-2" data-name="Layer 1"><rect class="cls-6" x="2.98" width="1351.47" height="205.31"/><rect class="cls-7" y="0.57" width="1358.42" height="204.16"/><path class="cls-8" d="M1369.85,218.44c.7-.78.26-2.53-1.71-2.15l-1.35,3Z"/><path class="cls-8" d="M1356.43,213.17c-2.31,1.48-5,4.07-3.39,6.78,2.26-2.9,2.84-1.72,5.26-5.17,2-.39,3.47.89,3.16,2,.68-.78,3.09.6,4.12-1.29-2.62-2.26-5.89-2.29-9.26-.33C1355.57,214.51,1356.27,213.72,1356.43,213.17Z"/><path class="cls-8" d="M1162.78,211.9l1.25.33A3.11,3.11,0,0,0,1162.78,211.9Z"/><path class="cls-8" d="M1042.83,212c.91-.08,1.29-.38,1.33-.65C1043.32,211.52,1042.62,211.71,1042.83,212Z"/><path class="cls-8" d="M1022.32,208.93c.44.09.81.13,1.21.19C1023.06,208.85,1022.6,208.7,1022.32,208.93Z"/><path class="cls-8" d="M1162.78,211.9l-3.22-.89C1159.35,212,1161.21,211.71,1162.78,211.9Z"/><path class="cls-8" d="M1329.86,220.84a4.78,4.78,0,0,0,1.73-.82c-.55.14-1.08.26-1.63.35A4.4,4.4,0,0,1,1329.86,220.84Z"/><path class="cls-8" d="M1215.6,208.61l1,0a7.35,7.35,0,0,0,.79-1.22Z"/><path class="cls-8" d="M1256.17,207.45c-.92-.09-1.2,2.44-1.53,3.55a3,3,0,0,1,2-1.77A4.28,4.28,0,0,0,1256.17,207.45Z"/><path class="cls-8" d="M1320.58,210.75l1.14-.37C1321.42,210.5,1320.92,210.61,1320.58,210.75Z"/><path class="cls-8" d="M1186.56,208.54a2.17,2.17,0,0,0-.39-.89A1.51,1.51,0,0,0,1186.56,208.54Z"/><path class="cls-8" d="M50.76,202.9a2.42,2.42,0,0,0,.06-.45C50.55,202.67,50.45,202.84,50.76,202.9Z"/><path class="cls-8" d="M6.49,181.84h.67a9.66,9.66,0,0,0,.44-1.35Z"/><path class="cls-8" d="M984.82,206.1l.17.05C986,205.85,985.41,205.91,984.82,206.1Z"/><path class="cls-8" d="M641,208.21c3.87,2.29-6.37,2.84-.53,5.41C639.91,212.62,645.82,209.72,641,208.21Z"/><path class="cls-8" d="M1328.81,220.53c-.55,0-1.11.07-1.67.05A5.05,5.05,0,0,0,1328.81,220.53Z"/><path class="cls-8" d="M640.45,213.62v0l.6.24Z"/><path class="cls-8" d="M898.52,208.32a3.14,3.14,0,0,0,.89,1.1C899.38,209.16,899.18,208.84,898.52,208.32Z"/><path class="cls-8" d="M962.86,211.42l-1.6-.32A5.5,5.5,0,0,0,962.86,211.42Z"/><path class="cls-8" d="M865.15,212.07a3.4,3.4,0,0,0-2.34-.19,1.52,1.52,0,0,0,.36.31A1.79,1.79,0,0,1,865.15,212.07Z"/><path class="cls-8" d="M830.4,212.19a5.51,5.51,0,0,0,.64.51l1.1-.14Z"/><path class="cls-8" d="M156.94,212.56a7.33,7.33,0,0,1-1.45-2.37C155.9,212,150.74,212.32,156.94,212.56Z"/><path class="cls-8" d="M1329.82,219.42a1.4,1.4,0,0,1-1,1.11c.39,0,.78-.1,1.15-.16C1330.05,220,1330.07,219.63,1329.82,219.42Z"/><path class="cls-8" d="M863.82,232l-5.53-.35A37,37,0,0,0,863.82,232Z"/><path class="cls-8" d="M406.47,224l-1.28.26A1.6,1.6,0,0,0,406.47,224Z"/><path class="cls-8" d="M841.89,232.12a8.1,8.1,0,0,0-3.12-1.75,2.33,2.33,0,0,0-.64.65Z"/><path class="cls-8" d="M155.48,210.16a0,0,0,0,1,0,0A0,0,0,0,0,155.48,210.16Z"/><path class="cls-8" d="M118.51,213.37c5.29.52,2.76-3,4-4.84,6.37-.41,2.71,2.68,4.72,4.56,4-.54,7.27-3.38,10.19-3,.17.56.73.81,0,1.44,4.36-2.3,12.36.77,17.42-2.21a2,2,0,0,1,.58.86,8.4,8.4,0,0,1-.44-4.6c2.36.1,4.51-1.81,5.26.42-1.44-.16-1.62.71-2.34,1.34l2.53-.78c2,3.27-3.44.86-3.6,3.16,4.9-.68,10.68-2.9,14.31-1.8.59,3.1-8.7.49-3.94,3.51l-5.65-1.53c4.07,5.1-3.45-.57.23,4.84,7.49,1.37,8.53-1,16,.33,1.79-1.59-.41-2.54,1.38-4.13,10.84-2.41,7.94,8.17,16,4.53,2.15-1.93,3.16-5.74,8.62-3.4l-2.1,3.35c7.27.73,4.44-4.74,11.93-2-1.43,1.29-5.78.84-4.7,1.31,4.78,3,3.6-1.77,7.4-1.57l.61,3.1c7.79-.06,16.44-1.81,25-1.9-.52.88-2,1.76-.08,2.8a75.24,75.24,0,0,1,16.94.75c5.7.81,11.34,2,16.53,3.12l4.12-2.46c.92.07,1.66,1.27.63,1.73,4,1.19.29-1.66,2.3-2.61,2.32-.08,3,1.65,1.48,2.38,7.3-1.91,20.69-3.9,28.14-.73l-1.51.71c5.85,1.34,6.88-5.11,12.24-2.4l-1.07.42c12.75,1.77,27-.19,36.6,4.16,2-3.73,12.61,2.16,13.62-3.11,7.21,2.89,5.09,3.76,15.32,5.9,2.74.35,4.21-3.16,7.63-3.59v2.78l4.71-2.74,2.35,3.4,3.21-.59c-1.27-.21-2.66-1.35-2.44-2.14,5-1.05,12.07,2.34,12.15,3.76l11.86-2c-.3,1.11-2.28,1.43-3.86,2.1,6.37-2.65,1.05,2.95,6.89.52-.75-.65.47-1.63.62-2.19,2.82,1.76,9.36,2,14.22,1.39l-1,1.88c8.73.74,18.45-.38,28.26-.07-3.49-1-2.6-4.28.29-4.52l1.07,3c1.91-1.76-3-1.19.9-3.3,3.65.44,2.37,3.4.24,4.3l4.49-.89c.23.88-.82,1.31-1.12,2.42,1.87-1.76,7.62,3.15,10.33,0l.23.87c9.81.24,14.28-.68,22.28-.65.21-2.53,3.32-1.9,5.75-3.89,5.85.93,12.32,3.06,19.4,3,5-1.15,1.49-2.11,3.76-3.56.32,2.31,7.39,2.25,3.69,3.82a118.12,118.12,0,0,0,21.62-1.92c-1.15-1-2.45-1.39-1.76-2.17,2-.35,4.42,1,4.12,2.14l-.52.23c12.1-3.28,27.71,7.13,37.38,2.47l-.54.23,10-2.36c4.57.47-2.77,1.69.6,3.17,10.78-3.69,16.95.83,25.82-1.68,6.78,6.86,24.29-.26,33.49,4.16l-.52-1.61c2.4-1.54,2.88.95,4.64,1.33-.24-1.25-2.58-1.46-1.09-2.32,10.12-.88,20.55-.18,31,.89s21,2.5,31.42,3.26c7.59.46,4.33-8.27,13.88-4.41l-2.72,3c15.31-3.51,31.29.25,46.27-2.83-.89.69-.91,1.58-2.38,1.57,3.17,2.16,11.71.09,11.76-1.67,2.33.19.54,1.59,2,2.48,3.17,1.27,8-2.77,9.65-.62.29.35-.89.7-1.47.87,2.07-1,9.64.25,7.65-2.23,5.63,1.18,10.75-1.13,15.24.34,2.92-2.79,9.63,1.33,10.54-2.61-.38,4.08,9.87,3.24,13.42,1.3-1.19,1.24,3.09,1.26,1.71,3,4-.08,7.77-.85,7-2.94,7.5,4.83,15-4,19.24,2.21,12-2.25,23.18-3.79,34-4.81-.36,4.06-12,.47-11.48,4.73,10.27-1.72,16.17-5.25,26.37-4.37,2.65.53-1.48,1.78-2.37,2.48,10.26-1.77,19.87.18,29-2.11,0,.38-1,.8-1.94,1.12,1.8-.15,4.2.56,4-1.29l-1.75.52c-2.9-2.65,7.1-5.66,7.4-7.08-3,5.32,9,1.25,4.25,8,1.18-.36,2.66-1.24,2.38-2.47,1.76.34,2.33,1,.56,2.47,6.44-1.06,4.13-3,10-3,0,.89-1.19,1.25-1.78,2.3,2.94-1.76,5.9-3.54,10.84-2.82-.29.54.29,1.23-1.18,1.23,8.48-.36,14.4-4.81,23.73-3.24-2.7,3.92,3.18,1.24,3.71,4.59l5-1.06-2-1.61c4.39,0,8.23-2.49,12-1.43l-3.24,1.42,8.21-.74-4.67-1.21c4.42-1.79-.53-4.25,5.32-3.38-1.18.36,4.38,0,6.69,1.94h0c2.15-1.1,4.37-2.25,7.62-1.46.85,1.06-.63,3.72-.07,4.43,2.1-2.83,10.25-.9,12.92-3.93a2.74,2.74,0,0,0-.62,2.84l1.77-2.31c2,.7,2.34,1,2,2.46,6.11.33-2-4.23,5.27-2.5-.56.19-.29.53-1.47.89,7.3.85,14-1.65,20.75-.63,2,3.36-5.83.92-3.53,3.74,9.63-.76,19.91-4.35,29.25-3.69l-1.74-.35c1.22-4.79,7,2.26,11.67-.06-1.15.37-1.48,2.67-1.17,2.14,6.4.67,13.05-1.36,22.7-3l-1.18,1.25c3.79,1,9.93.47,14,1,1.19-1.25,3.52-1.09,2.07-2.85,12.66,6.78,23.87-4.13,35.09,1.5-1.33,0-3.15,1.13-2.09,1.12l9.46-1.29c-.79-2.07-1.27-1.24-3.28-2.83a9.61,9.61,0,0,1,6.18-2.29c-4.24,1.45.1,3.34,2,4.47-.32-.63.3-1.34.13-2,5,3.62.76-4.2,7.56-1.82l-.34,1.1c2.52-.61,4.83-2.09,7.56-1.83,1.18,2.39-2.67,1.17-2.81,3.15,3.83-.2,7.48-4.69,11-2.35-1.61.7-4,.75-5.57,1.45,3.83,2.75,4.25,2,7.06,2.43l-.27-.06,6.51,1.16-1.67-.73c4.69-6.36,9.75-1.32,16.14-5.54-6.21,4-1,2.27-1.44,5,1.67.73,4.19,1.53,3.49,2.31,3-2.25,5.13,1.64,9.38-1.65.21.88,3.27,0,2.62,2.25,4-.76-1-1.52-.65-2.62,6.06-3.11,14.45,3.38,23.17-.89,7.56-1.83,8.91-4.82,15.93-6.42,2.4,1.36-1.89,3.23-1.89,3.23a15.94,15.94,0,0,0,10.33-.14c-.71.78,0,1.42,1.17,2.38,2.9-.28,1.88-3.23,5.73-2a12.1,12.1,0,0,1-2.83,3.57c3.4-.87,6.75-2.57,10.27-3.42,1,1.51-2.09,2.36-3.32,3.38,4-.76,10.28-1.58,11.46-4l-2.57-.82c1.45-.14.79,2.07-.27,2.53-3.38,2-4.93-.75-5.14-1.63l2.51-.61c-2.69-5.1-10.11,1-15.19.81l2.05-3.78-5.15,3.2c-1.12-1-1.91-3,.58-3.64-3.67-1.78-3.19,1.39-6.36-.61-.35-.32-.19-.5.12-.66l-3.53,1.18c.68-.8-.64-2.63,1.55-2.13-6.41-2-10.23,3-12.68.2l.53-.24c-8.83,1.43-.81,2.77-7.39,6.11l-4.58-6.69-.82,2.76c-.92-.08-2.73-.26-2.41-1.36-3.37,1.94.6,1.18-1.34,3-4.44-2.42-12.1,1.39-13.16-3-1.54,2.11,4.23,1.53-.44,3.07-1.42-4.69-5.41.9-9.46-1.19,1.19-2.45,5-1.23,1-3.33-2.35,4.15-7.83-.76-11.2.08-.1,3.28-7.34,1.5-13,2.69.34-1.11-10.72-1.61-16-2.7l.15-.55c-1,3.32-6.43,2.79-10.39,3.54.12-2,.82-2.77,3-3.69l-3.73.07c-.86,1.08-2,1.66-4.43,2.07l.89-2.48c-5,.22-10,3.07-16.36,1.53-.33,2.31,5.18,6.33-1.55,8-.27-1.24-.55-3.37,1.21-3.91-.58.18-2,1.07-3.23.56l2.67-2.14c-2.93-.88-1.5,1.77-3.83,1.62,0-1.78-1.74-1.24-1.43-2.66.59-.18,2,.7,2.92,0-2.63-.28-5.81-1.28-6.88-2.61a2,2,0,0,1-1.88,2.66c-5,.21-1.74-2.11-4.65-3-1.18,1.26-4.37,0-4.41,2.69-1.45,0-1.74-1.23-2.31-1.94-2.55,1.22-12,.54-9.06,3.31l.66.18c-.12.06-.27.06-.42.12h0c-8.38,2.78-17.52-1.21-25.86,0v-.89c-5,1.09-11.1.77-14.63,2.73-1.48,0-3.51-1.57-2.89-2.64-3.81.72-4.22,1.73-9.75.34,3.81-1.61-1.34-1.35,3.91-1.19-5-.7-6.11-2.1-11.39.4,1.78-2.3-3.77-2.81-6.12-2.09l3.5,1.57a33.27,33.27,0,0,1-7.32.05l1.23-3c-10.19-3.5-18.2,6.48-26,.47-2.65,2.13,5.53,1.41,3.17,3.89-4.67-.35-9.59-4.59-11-4.58-6.41-1.58-5.91,4.45-12.61,3.4.87,1.05,1.72,3.89-3.27,5-4.67-.34-5.79-4.41-2.86-5.3,1.12-.1,1.67.23,1.62.59,1.51-.4,3.48-.89,1.62-2l-.6,1.07c-2.32-1.06-8.74-.87-7.26-2.64-3.51,1.06-1.48,1.77,1.13,2.29-6-1.47-9.35.07-15.52-.89,1,.58,1.9,1.82.93,1.82-9.06-1.21-4,2.07-10.08,2.62-3.5-1.59,1.2-3.91-5-2.47-3.77-1.05-.83-2.82.66-3.71-5.59,2.13-10.51-1.22-13.72-1.57l3-.89a15.35,15.35,0,0,1-4.69.53l1.71,2.12c-1.74-.35-3.21-.35-3.18-1.24-1.78,1.42,1.4,3.54-2.13,5.49-2.33-1.07-7,1.23-7.87-1.6,7.3.9-.83-2.84,5.33-3.35a9.08,9.08,0,0,1-4.38,0c-.27-.32.24-.59.71-.76-7-2.47-3.17,3.24-10.39,3.24.9-1.61-1.71-3-2.88-2.67,2.91,0,1.42,2.66-1.24,3.9-4.65-1.2-5,1-7.45.85l2.77.56c-.92,1.61-3.24,1.42-6.47,2-.28-1.24,2.93-.88,1.77-1.42-3.56,2.84-8.12-2.83-13.11-.89-2.32-1.06-.25-3-2.29-3.72-5.58,2.13-6.08-2.13-11.95-.36,1.71,2.13,2,1.6-2.13,3.73l9.67-1.6-6.19,3.18c2.93,0,6.16-1.4,7.91-1.06-2.94,1.78-2.64,1.25-1.23,3-4-3.18-7.91,1.95-12.55-.18l.1-5.32c-7-2.31-12.32,2.81-21.35,1.52l2.9.91c-1.19,2.12-5.56.33-8.48,1.2.26-1.78-1.57-2.41-2.82-3.51.16,1.31-6.6-.09-7.4,3.47l-4-2.32c-7.29-.92-8.29,5.11-15.3,4.54,2.11-1.94-1.08-3.18,3.6-4.59-2.34,0-4.44-.32-4.47.91-1.37-1.1-6.47,2.43-8.63.76-1,.78-1.3,2.65-3.92,2.51-.29-.35,0-.87,0-.87,0,.87-4.1,1.21-1.8,3.17-7.22-5.49-20.13.44-26.41-4.3-5.1.6-11.25,1.18-15.88,1.32.3-.54,0-.89.89-.71-6.39-1.64-3.92,5.11-11.19,3.28-3.72-2.87,3.86-1.56,1.54-2.65-1-5.84-8.77.81-13.67-2.59l1.19-.35c-3.74-2-9.13,2.23-15.24,1.82,0,0,.3-.52,0-.88-4.18,3-12.09,3.92-18,4.73,1.84-2.28,2.68-1.2,1.57-3.53-2.64.32.76,3.74-4.5,4.37-1.71-1.26-5.5-2.37-6-4.85l5-.12c-2.53-3.21-6.42.09-9-.47l.34-1.41c-7.6.43-7.72,4-15.89,3.69l.84,1.06c-4.48,3.49-3.74-2-8.2.61l-1.33-3.56c-3,.85-10.34,3.4-15.63,4,3-2.62,9.2-3.95,13-5.5-2.92,0-9.92.23-11.46,2,1.18-.34,2.67-1.21,3.83-.66-3.6,2.78-8.32,4.15-14.14,4,1.07-6.88-15.16-1.87-19.34-7.26-10.31,2.46-20.41-1.26-32.4-1,4.2,5.4-3.5.12-2.82,5.63-2.8.33-3.87.23-4.11-.13L632,210.28c-2-1.62,2.67-1.19,2.43-2.43-6.11-.48-2.54-2.36-6.57-3.87.81,2-2.16,2.79-5.63,2l4.87,2.61c-8.58,2.8-7.32-4.73-16-1.95l2.75-1.69c-4.43.95-16.3-.28-20.7,4.08-.77-.65-1.78-2.17.17-2.54-10.54-.82-23.58,4.36-31.75,1.51l.83-1.33c-2,.36-3.48,2.48-5.92,1.08.14-.55.82-1.32-.09-1.42-1.05.44-5.28,2.24-7.87,1.4l2.26-1.46c-10.27-2-15.88,3.34-24.54,4.08.1-4-8-5.42-12-6.15l.15-.56c-12-.74-20.44,2.85-31.59,4.16-6.78-4.49-23.3-2.46-34.31-5.19,1.67.77-.36,3.07-2.34,3.42-2.58-.88-7.27,2.54-6.75-1.08l.92.09c-1.85-3.62-7.22-2.82-11.39-3l-.83,4.73c-5.35-3.61-12.51-3.17-19.06-2.64s-12.49,1.08-15.36-2.12c-2.67,1.09-5.93,1-8.58,2.05l.23-2.54a102.43,102.43,0,0,0-19.93-1.09l1.9-1.75c-5.07-.35-6.69,7.1-11.39,7.08l-1.27-3.85c-8.87-.28-17.71-3.89-26.61-.87a2,2,0,0,1,1.91-1.72c-4.17-.29-16-3.3-14.74,2,.05-3.4-9.13-.74-14,.54l.86-2.47c-4.19,3-4.36,3.89-10,4.52-1.33-.38-1.08-2.05.67-1.33-4.4-1.52-3.59,2.21-8.93.64l2.09-1.51c-4.58-.4-4.26.47-6.87,2.22-2.94.88-8.68-1-9.24-3.31a5.5,5.5,0,0,1-6,2.31c-.33-.87.68-1.36,1.19-1.6-7.58-2.06-11.55,2.32-16.7-.42a1.82,1.82,0,0,0-.81-1.54c6.09.39,11,.79,10.52,1,.11-2.31-4.79-3-.72-6-4,1.53-11,4.95-15.71,3.6a2.63,2.63,0,0,1-.59-.83l.51-.23a5,5,0,0,0-3,.21,16.47,16.47,0,0,0-3.94-.91c-.46-1.94-5.58-1.34-8-1.56.07,2.54-3.12,2-.22,4.21-.38-.21.48-.28,2.11-.3a3.77,3.77,0,0,0,1.06-.2c-.05.06-.11.14-.18.21,1.62,0,3.72.07,6.11.16-2,1.18-4.09,2.15-6.73.6a51.48,51.48,0,0,1-3.64,3.89c-3.17-3.7-9.54-6-10.32-8.18-7.56,1-17.69,0-22.67,4.48-2.17.49-2.37-1.49-3.12-2.28,1.25-.41,2.71-.26,3.42-.91-4.34,1-12.64-.26-13.86,3-5.27-1.82,3.2-2.86-4.2-2.77l1.06-1c-7.08-3.09-13.09-1.35-19.3.17s-12.63,2.82-20.38-1.21c1.08.5,1.62.74,1.8,1.31-9-2.18-18.47-2.29-27.88-2.68S90.81,192,82.15,188.5c-5-1.58-5.78.48-9.09,1.66l-.75-2.84-5.72,2.39c-3.92.65-7-1.52-10.23-3.42s-6.81-3.66-11.89-2.29l.92,2c-3.35-.86-11-.8-10-2.77-.41.26-1.45,1.67-2.61.49l.15-1.41c-2.92.32-5.84.55-8.77.8-6.23-2.29,2.08-5.29-7.17-7.49-3.55-.21-10.74,1.92-9.66,3.13,1.39.37,3.4,1.64,3.2,3.05l-3.35,0c-1.49,4-5,7.61,2.4,12.19l6.09-1.3L17,195.08c-1.58-.26-3.15-.57-4.72-.86,2.27,2.45,4.31,1.14,6.43.36a3.87,3.87,0,0,0,1.9,2.66l6.24-2.85c.36,1.74-3.07,2.72.45,4.32,2.91-1.37-1.79-4.06,2.68-4.49,2.32,2.35,1.28,3.74,4.7,2.7.25,1.14-.53,1.7-1.86,1.94a19.6,19.6,0,0,1,5.11-.14c1.72,0,3.3-.08,4.2-1.06,2.41,2.77,9.53,1,8.65,4.79a16.53,16.53,0,0,1,8-2.12c-2.69,2-.29,2.43,2.54,3s6.09,1.09,5.13,3.53c4.06-3.73,12.88-.24,19.34-1.87-.39.3-1.14.9-1.66.63,3.43.73,4.3,2.13,6.45,3.18.84-3.46,6.34-3.65,9.47-5.54,3.92,3.81-3,3.86-2,7.24.08-2.86,7.71-2.09,6.49-4.6,3,2.42,2.7,1.29,4.11,4.36,1-4.34,3.11-.47,6.06-2.91,4.53,2.58.85,4.24,6.16,3.34C123.26,212.2,118.51,213.37,118.51,213.37Zm123.59.11v.05h-2.54Zm10.33.52c-1.25-.17-2.82-.27-4.47-.34-.32-.89.12-1.77,1.15-1.67C248.52,212.55,250.93,213.18,252.43,214Zm-20.91-18.68c1.65-.27,2.17.25,2.37.78-.78,0-1.68,0-2.87.15-.05.09-.16.2-.21.3A3.24,3.24,0,0,1,231.52,195.32Z"/><path class="cls-8" d="M228.41,198.47a3,3,0,0,1-.68.15,8,8,0,0,0,.94.62c.22-.26.43-.51.62-.76Z"/><path class="cls-8" d="M1164.25,212.28l-.22-.05a1.25,1.25,0,0,1,.46.35A1.84,1.84,0,0,1,1164.25,212.28Z"/><polygon class="cls-8" points="394.91 224.82 394.92 224.18 394 224.71 394.91 224.82"/><path class="cls-8" d="M1221.29,220a1.44,1.44,0,0,0,.76.64C1222,220.5,1221.68,220.28,1221.29,220Z"/><path class="cls-8" d="M1245.87,220.17l3.5.84A21.09,21.09,0,0,0,1245.87,220.17Z"/><path class="cls-8" d="M1264.79,221.09a3.14,3.14,0,0,0,.35-1.09l0,0Z"/><path class="cls-8" d="M964.31,228.34a2.93,2.93,0,0,0-.73.12C961.88,229,963,228.76,964.31,228.34Z"/><path class="cls-8" d="M1053.69,221.45a19.26,19.26,0,0,1-2.86,1.23C1052.42,222.85,1053.66,222.89,1053.69,221.45Z"/><path class="cls-8" d="M864.43,232.08s0,0,0-.05h-.62Z"/><path class="cls-8" d="M1046.67,222.68a6.92,6.92,0,0,0,4.16,0A10.41,10.41,0,0,0,1046.67,222.68Z"/><path class="cls-8" d="M1346.72,220.77l.91.08a.62.62,0,0,1,.1-.41Z"/><path class="cls-8" d="M1347.73,220.44l1-.31C1348.27,220.14,1347.87,220.16,1347.73,220.44Z"/><path class="cls-8" d="M1350.85,219.45l-2.12.68C1349.47,220.12,1350.38,220.18,1350.85,219.45Z"/><path class="cls-8" d="M1321.68,220.05l-.27.92A1.59,1.59,0,0,0,1321.68,220.05Z"/><path class="cls-8" d="M1314.08,220.45c1.82.18,4.59,1.88,7.11,1.26l.22-.74C1320.25,222.36,1315.78,218.88,1314.08,220.45Z"/><path class="cls-8" d="M1282.15,209.69l6.38.62c-1.13-1-2.62-2.25.28-2.53C1280.73,205,1290.5,209.93,1282.15,209.69Z"/><path class="cls-8" d="M1262.38,208.62c3.41-.52-.07-1.42.1-2C1260.33,207.57,1259.81,207.8,1262.38,208.62Z"/><path class="cls-8" d="M1119.66,211l.31-2.31C1117.34,209,1120,209.53,1119.66,211Z"/><polygon class="cls-8" points="1092.54 223.24 1095.13 224.63 1096.33 222.51 1092.54 223.24"/><polygon class="cls-8" points="1076.2 207.08 1077.35 206.73 1072.96 207.63 1076.2 207.08"/><path class="cls-8" d="M836.57,209.94l.81,2.84C839.16,212.27,839.52,209.08,836.57,209.94Z"/><path class="cls-8" d="M733.12,212.76c-1.12-1.42-4-2.35-5.82-1C729.62,212,731.94,213.12,733.12,212.76Z"/><polygon class="cls-8" points="423.09 202.99 425.19 202.1 421.25 202.78 423.09 202.99"/><path class="cls-9" d="M446.34,133.11h0a1,1,0,0,1-1.14-.26,7.42,7.42,0,0,0-1.5-1.13,24.48,24.48,0,0,1-5.62-5.72,43.32,43.32,0,0,1-5.07-8,2.78,2.78,0,0,1-.33-1.07.82.82,0,0,1,.45-.68,1.29,1.29,0,0,1,.16-.09.58.58,0,0,1,.61.08,14.07,14.07,0,0,1,1.83,3.2,34,34,0,0,0,3.44,5.59,28.78,28.78,0,0,0,4.37,4.5,2.56,2.56,0,0,0,.34.26,3.63,3.63,0,0,0,.53.39c.3.17.6.36.9.55l.21.19a3,3,0,0,0,1.7.88,1,1,0,0,1,0,.35A1.44,1.44,0,0,1,446.34,133.11Z"/><path class="cls-9" d="M459.44,132.21a12.11,12.11,0,0,0,3.59-.36h0a1.57,1.57,0,0,1,1.9.07c.53.36.56,1,.72,1.57,0,.08-.21.28-.36.37a.89.89,0,0,1-.89,0c-.54-.27-1.06-.57-1.59-.86l-5.22,1.16a4.37,4.37,0,0,1-1.53.46.51.51,0,0,0,.37.54,4.54,4.54,0,0,0,.9.13,16.64,16.64,0,0,1,3.6.62,7,7,0,0,1,1.18.46c.33.15.63.36.95.54-6.16-1.43-9.18-.61-9-.34h0a31.39,31.39,0,0,0,5,2.13,4.14,4.14,0,0,1,2.35,1.59,5.4,5.4,0,0,0,.95.81,8.74,8.74,0,0,1,1.26.23A1.5,1.5,0,0,1,464,144c-.3.18-.55.23-.64-.22a.35.35,0,0,0-.57-.21c-.54.41-.79.17-.92-.31s-.17-.93-.25-1.39c-1.13-1.72-7-4.12-8.21-3.37.33.47,1.6,3.48,2.12,4.37a7.2,7.2,0,0,0,2,2.14c.51,0,1.74-.84,1.88-.08.09.43.44.89-.09,1.26s-.89,0-1.26-.3c-.35-.07-.74-.23-.82.34a7.07,7.07,0,0,0-.12,1.2c0,.18,0,.34-.15.43a.44.44,0,0,1-.63-.18,5.11,5.11,0,0,1,.14-2.07c-.75-1.33-5.39-9.69-5.4-6.09,0,.58.05,1.15.08,1.72l.72,3.71c0,.14-.15.22-.25.14a16.42,16.42,0,0,1-1-3.7h0a26.91,26.91,0,0,1-.42-3.81,2.25,2.25,0,0,0-.7-.82s-.59,1.19-.75,1.64c-.53,1.54-1.15,6-1.5,6.69.51.56,1.08,1.08,1,1.92a.39.39,0,0,1-.5-.08c-.25-.21-.48-.35-.81-.15s-.4.4-.61.19a1.08,1.08,0,0,1-.2-.66,1.22,1.22,0,0,1,.59-1.07c.06-.8,1-6.57,2-8.52.23-.42,1.24-2.21,1.24-2.21A12.56,12.56,0,0,1,452.5,132a22.17,22.17,0,0,1,2.6-1.6h0c1.21-.77,2.4-1.55,3.63-2.3a12.54,12.54,0,0,1,1.34-.62,3.88,3.88,0,0,1,.49-.11,2.28,2.28,0,0,0,.64-.06c.15,0,.4,0,.44,0s-.07.32-.24.38-1.37.6-1.37.6a8.09,8.09,0,0,0-.84.4l-4.13,2.56a10.54,10.54,0,0,0-1.35,1.09c-.13.13-.23.32-.1.47a.77.77,0,0,0,.43.29,12.6,12.6,0,0,0,2.75-.57A15.12,15.12,0,0,1,459.44,132.21Z"/><path class="cls-9" d="M464.15,137.12c-.13-.7.36-1.22.67-1.79a.54.54,0,0,1,.9,0,3.35,3.35,0,0,1,.71,1.54,3.44,3.44,0,0,1-.4.76,1.16,1.16,0,0,1-1.27.43.85.85,0,0,1-.61-.92Z"/><path class="cls-9" d="M451.65,146.86h0c.34-.84.39-.85,1.06-.38a1.79,1.79,0,0,1,.25.23,2.8,2.8,0,0,1,.51.18c.71.47.69.94,0,1.32-1,.53-1.58.27-1.83-.83A1.87,1.87,0,0,1,451.65,146.86Z"/><path class="cls-9" d="M463.31,127.62a.69.69,0,0,1-.44.22.84.84,0,0,1-.5-.08.42.42,0,0,1-.11-.6.73.73,0,0,1,.46-.17c.1,0,.21.06.33.11S463.48,127.35,463.31,127.62Z"/><path class="cls-9" d="M451.06,131.56a3.82,3.82,0,0,1-1.4,1.15h0c-.39.34-1.05.52-.8,1.24.06.19,0,.32-.25.37-.5.14-.63.54-.72,1-.12.58-.22,1.16-.36,1.74,0,.12-.24.22-.37.32-.06-.15-.21-.31-.18-.45.19-.93.43-1.85.65-2.77a1,1,0,0,0-.53-.63l.38-.58a.72.72,0,0,1,.29,0,.81.81,0,0,1,.72-.37h0l1.19-.69c.36-.23.72-.47,1.09-.68a.35.35,0,0,1,.33,0A.31.31,0,0,1,451.06,131.56Z"/><path class="cls-9" d="M456.31,132.71l-.47.14"/><path class="cls-9" d="M513.76,56.66h0a.86.86,0,0,0,.34-1A5.76,5.76,0,0,1,514,54a22,22,0,0,0-1.69-6.94,39.4,39.4,0,0,0-3.67-7.6,2.85,2.85,0,0,0-.66-.76.72.72,0,0,0-.72,0,.53.53,0,0,0-.15.08.48.48,0,0,0-.22.5,12.07,12.07,0,0,0,1.56,2.88A31.39,31.39,0,0,1,511,47.42a26.79,26.79,0,0,1,1.36,5.43,2.53,2.53,0,0,1,0,.38,2.74,2.74,0,0,1,0,.58v.94l0,.25a2.71,2.71,0,0,1-.13,1.7.77.77,0,0,0,.28.14A1.29,1.29,0,0,0,513.76,56.66Z"/><path class="cls-9" d="M506.92,66.14a10.77,10.77,0,0,1-2,2.55h0a1.4,1.4,0,0,0-.84,1.47c0,.57.5.9.85,1.29,0,0,.31,0,.45-.1a.78.78,0,0,0,.41-.67c.05-.54.07-1.08.1-1.61l3.33-3.41a3.86,3.86,0,0,0,1.07-.94.45.45,0,0,1,.24.53,4.17,4.17,0,0,1-.33.75A14.5,14.5,0,0,0,509,69a7,7,0,0,0-.21,1.11c0,.32,0,.65,0,1,1.8-5.33,3.85-7.23,4-6.94h0A27.22,27.22,0,0,1,512,69a3.68,3.68,0,0,0,.1,2.53,4.86,4.86,0,0,1,.17,1.1,7.3,7.3,0,0,0-.42,1.06,1.19,1.19,0,0,0,1.39,1.57,1.25,1.25,0,0,0,.48-.11c.28-.14.44-.31.14-.59A.31.31,0,0,1,514,74c.56-.22.5-.52.19-.84a12.49,12.49,0,0,0-.93-.85c-.77-1.65.19-7.26,1.31-7.8.2.48,1.88,2.85,2.3,3.67a6.2,6.2,0,0,1,.69,2.52c-.25.39-1.46.92-1,1.39.29.27.47.75,1,.52s.38-.69.37-1.1.16-.66.64-.45a6.68,6.68,0,0,1,1,.47c.13.08.23.19.38.09a.41.41,0,0,0,.17-.57,4.59,4.59,0,0,0-1.64-.86c-.65-1.19-4.8-8.63-2.07-7,.44.27.85.58,1.27.87l2.47,2.29c.12,0,.23,0,.22-.13a15.34,15.34,0,0,0-2.33-2.5h0a24.87,24.87,0,0,0-2.68-2.11,2.13,2.13,0,0,1-.3-.91s1.18.11,1.6.2c1.41.32,5.06,1.93,5.76,2,.19.64.32,1.32,1,1.66.2-.09.19-.27.17-.42s0-.52.27-.67.49-.12.43-.38-.24-.33-.41-.46a1.09,1.09,0,0,0-1.09-.05,35.83,35.83,0,0,0-7.38-2.5l-2.26-.1a11.8,11.8,0,0,0-3.07.78A22.08,22.08,0,0,0,507.61,62h0c-1.15.55-2.3,1.09-3.44,1.67a13.14,13.14,0,0,0-1.11.72c-.11.1-.21.21-.31.32a2,2,0,0,1-.35.46c-.09.1-.22.28-.19.34s.27.09.39,0,1.11-.75,1.11-.75a7.4,7.4,0,0,1,.69-.45c1.29-.65,2.59-1.28,3.88-1.92a9.56,9.56,0,0,1,1.46-.51c.16,0,.35,0,.4.15a.67.67,0,0,1,0,.46,11.41,11.41,0,0,1-1.73,1.81A14.32,14.32,0,0,0,506.92,66.14Z"/><path class="cls-9" d="M508.42,72c-.47-.43-1.09-.31-1.67-.34a.48.48,0,0,0-.43.68,2.93,2.93,0,0,0,.83,1.25,3.26,3.26,0,0,0,.76.07,1.06,1.06,0,0,0,.92-.77.75.75,0,0,0-.4-.89Z"/><path class="cls-9" d="M521.67,67.13h0c-.8-.13-.83-.1-.79.62,0,.1,0,.2.06.3a2.08,2.08,0,0,0-.1.47c0,.76.39,1,1,.6.86-.51.94-1.08.22-1.78A1.58,1.58,0,0,0,521.67,67.13Z"/><path class="cls-9" d="M501.63,66.92a.65.65,0,0,0,.37-.23.77.77,0,0,0,.17-.42.36.36,0,0,0-.4-.36c-.12,0-.26.15-.35.26s0,.19-.07.3S501.34,66.92,501.63,66.92Z"/><path class="cls-9" d="M510.37,59.5a3.33,3.33,0,0,0,1.52-.52h0c.45-.14.9-.56,1.32,0,.11.14.26.12.4,0a.92.92,0,0,1,1.06-.1c.5.18,1,.39,1.49.54.11,0,.28-.07.42-.12-.09-.12-.15-.31-.26-.35-.8-.29-1.6-.55-2.41-.81a1,1,0,0,1-.23-.69h-.61a1,1,0,0,0-.12.23.71.71,0,0,0-.61.37h0l-1.08.58c-.34.16-.69.32-1,.5a.34.34,0,0,0-.12.27A.3.3,0,0,0,510.37,59.5Z"/><path class="cls-9" d="M508.77,64l.33-.29"/></g></g></svg>