<svg xmlns="http://www.w3.org/2000/svg" viewBox="0 0 344.77 473.4"><defs><style>.cls-1{fill:#231f20;}</style></defs><g id="Layer_2" data-name="Layer 2"><g id="Layer_1-2" data-name="Layer 1"><path class="cls-1" d="M125,16.84a140.63,140.63,0,0,1-5.1,51.62C115.18,84.34,107,98.9,102.08,114.69a71.61,71.61,0,0,0-3.51,26.7.66.66,0,0,0,1.32-.12c-1.26-16.56,5.11-32,11.46-46.92C114.62,86.66,118,79,120.46,71a136.87,136.87,0,0,0,5.39-25.32,144.19,144.19,0,0,0,.43-28.93.66.66,0,0,0-1.32.11Z"/><path class="cls-1" d="M127.52,13.46A15.61,15.61,0,0,1,129.12.93l-1,.23a275.72,275.72,0,0,1,23.54,17.1c7.51,6.07,14.74,12.5,21.72,19.17S187.11,51,193.7,58.12,206.86,72.59,213.27,80s12.62,14.7,18.9,22.07l2.32,2.73c.55.65,1.64-.11,1.08-.76-6.3-7.41-12.59-14.83-19-22.2S203.8,67.13,197.21,60,183.94,45.85,177,39.1s-14.15-13.3-21.62-19.49A280.23,280.23,0,0,0,132,2.13c-1-.67-2-1.33-3-2a.67.67,0,0,0-1,.23,16.9,16.9,0,0,0-1.64,13.55c.24.82,1.48.35,1.24-.46Z"/><path class="cls-1" d="M99.88,143.92a79.17,79.17,0,0,1,33.44-49.78,76.89,76.89,0,0,1,61.79-10.71c12.14,3.13,23.29,9.28,33.66,16.19q1.95,1.3,3.89,2.65c.69.48,1.55-.53.85-1C223.06,94,212,87.35,199.84,83.43a78.15,78.15,0,0,0-64,7.56A80.56,80.56,0,0,0,99.47,139.8c-.33,1.28-.63,2.58-.89,3.88-.18.84,1.13,1.07,1.3.24Z"/><path class="cls-1" d="M98.25,142.59c-1.6,6.78-2.33,14.14-.32,20.92a21.44,21.44,0,0,0,4.75,8.49,20.6,20.6,0,0,0,4.1,3.4c.83.53,1.77.91,2.58,1.47a15,15,0,0,1,1.88,1.68c9.38,9.3,9.53,25.68.72,35.41-6.54,7.22-16.63,8.87-24.75,13.61-.74.43,0,1.51.77,1.08,7.57-4.42,16.64-6.08,23.27-12.12a26.65,26.65,0,0,0,8.37-17A27.71,27.71,0,0,0,115,181a25.16,25.16,0,0,0-3.19-3.72,11.58,11.58,0,0,0-1.89-1.61c-.85-.52-1.78-.91-2.61-1.46a19.41,19.41,0,0,1-6.85-7.8c-3.48-7.28-2.68-15.92-.88-23.54.19-.83-1.11-1.07-1.31-.24Z"/><path class="cls-1" d="M101.86,170.85a22.92,22.92,0,0,0-8.67,7.59,25.16,25.16,0,0,0-3.73,10.09c-1.18,7.74.23,15.7,2,23.24,1,4.11,2.11,8.17,3.19,12.25.22.82,1.46.35,1.24-.46-1.89-7.14-4-14.26-5-21.59-1-7.08-1.05-14.83,2.44-21.28a21.29,21.29,0,0,1,9-8.6c.74-.39.29-1.64-.47-1.24Z"/><path class="cls-1" d="M87.91,189.69a26.15,26.15,0,0,0-15.38,15,39.39,39.39,0,0,0-1.66,22,43.85,43.85,0,0,0,4,11.82c.38.74,1.63.29,1.24-.47a43.63,43.63,0,0,1-4.77-20.82c.16-7,2.2-14.12,6.85-19.45a24.54,24.54,0,0,1,10.14-6.85.66.66,0,0,0-.46-1.24Z"/><path class="cls-1" d="M87.06,225.17a36.22,36.22,0,0,0-12.9,16.55A42.58,42.58,0,0,0,72,250.88a55.91,55.91,0,0,0-.78,9c0,3,.5,6.39,2.74,8.62.6.61,1.45-.42.85-1-1.85-1.85-2.18-4.8-2.26-7.28a49.09,49.09,0,0,1,.67-8.56A44.37,44.37,0,0,1,75.09,243a34.94,34.94,0,0,1,12.74-16.76.66.66,0,0,0-.77-1.08Z"/><path class="cls-1" d="M117.34,203.94A55.85,55.85,0,0,1,106,246.52a43.16,43.16,0,0,1-17.39,13.17,39.4,39.4,0,0,1-5.27,1.69c-.93.22-1.87.41-2.81.56s-1.76.44-2.66.64a17.33,17.33,0,0,1-11.73-1.72c-1.69-.89-3.68-2.06-4.72-3.72-.28-.46-.66-1.14,0-1.38a6.22,6.22,0,0,1,2.45-.37,6.45,6.45,0,0,1,4,2.38,31.62,31.62,0,0,1,3.31,4.65c.51.82,1,1.65,1.53,2.47l.65-1c-.38-.06-.16-.21-.35-.36-.6-.49-.71.13-.68.38a5.48,5.48,0,0,0,.3.86l.73-.88a2.23,2.23,0,0,1-2-2.42c0-.85-1.29-.73-1.32.12a3.51,3.51,0,0,0,3.11,3.6.67.67,0,0,0,.74-.88c-.16-.55-.37-1.4-1-1.67a.83.83,0,0,0-1.11.41,1.61,1.61,0,0,0,1.33,2.14.67.67,0,0,0,.66-1c-2-3.22-3.94-7.25-7.35-9.24a6.21,6.21,0,0,0-4.83-.52c-.75.17-1.49.37-1.81,1.15a2.36,2.36,0,0,0,.24,1.95c.89,1.75,2.69,2.94,4.32,3.93a19.4,19.4,0,0,0,6.44,2.54,18,18,0,0,0,6.16.15,26.89,26.89,0,0,0,2.82-.67c1-.27,2.11-.37,3.14-.6a42.09,42.09,0,0,0,20.36-11.36A53.58,53.58,0,0,0,116,231,57,57,0,0,0,119,206.84c-.1-1-.22-2-.38-3-.13-.84-1.45-.72-1.32.12Z"/><path class="cls-1" d="M59.5,250.69a63.72,63.72,0,0,1,2.73-9.38c1.21-3.08,2.8-6.33,5.37-8.5a8.22,8.22,0,0,1,4.62-2,.66.66,0,0,0-.12-1.32c-7.4.65-10.71,9.44-12.51,15.5-.54,1.81-1,3.63-1.4,5.46-.18.84,1.12,1.07,1.31.24Z"/><path class="cls-1" d="M59.89,260.6a41.88,41.88,0,0,0-20.47,13.83c-5.08,6.39-8.28,14-10.68,21.77-2.61,8.4-4.31,17.06-6.16,25.65s-3.79,17.24-6.93,25.48c-3,7.76-7.08,15.15-13.13,20.92-.73.7-1.49,1.37-2.27,2s.11,1.63.77,1.08C7.44,366,12.08,359,15.4,351.45c3.48-8,5.63-16.48,7.52-24.95s3.55-17.31,5.89-25.83c2.17-7.9,5-15.82,9.61-22.64a40.43,40.43,0,0,1,18.77-15.09c1-.4,2.09-.77,3.16-1.1.81-.26.35-1.5-.46-1.24Z"/><path class="cls-1" d="M73.71,267.74a64.74,64.74,0,0,1-3.57,22.75A92.32,92.32,0,0,1,59.7,311.2a168.81,168.81,0,0,1-14.83,19C39.47,336.24,33.78,342,28,347.77c-5.5,5.49-11.06,10.92-16.45,16.53-.65.67-1.29,1.35-1.93,2s.43,1.47,1,.85c5.34-5.65,10.89-11.09,16.4-16.58C32.9,344.8,38.7,339,44.22,332.87a178.94,178.94,0,0,0,15.27-19,97.64,97.64,0,0,0,11.09-20.72,67.72,67.72,0,0,0,4.47-22.54c0-1,0-2,0-3s-1.34-.73-1.32.12Z"/><path class="cls-1" d="M171,84c-6.44,3.91-12.8,8-19,12.29a187.63,187.63,0,0,0-18.16,14.35,118.69,118.69,0,0,0-15.5,16.74,78.5,78.5,0,0,0-10.73,19.25,63.9,63.9,0,0,0-4.11,22.13c0,1,0,2,0,2.95s1.36.73,1.32-.12a62.75,62.75,0,0,1,3.21-22.34,75.08,75.08,0,0,1,10.11-19.41c8.78-12.3,20.42-22.32,32.63-31.08,6.77-4.86,13.8-9.36,20.92-13.68.73-.44,0-1.52-.77-1.08Z"/><path class="cls-1" d="M135.39,109.57a82.23,82.23,0,0,0-4.62,13.05,123.06,123.06,0,0,0-3.33,16.57,95.35,95.35,0,0,0-.8,17.3,48.79,48.79,0,0,0,3,15.31A22,22,0,0,0,139,183.31c.74.42,1.3-.78.56-1.19-8.45-4.75-10.91-15.45-11.55-24.37-.8-11.07.79-22.37,3.54-33.07a83.9,83.9,0,0,1,5-14.55.66.66,0,0,0-1.2-.56Z"/><path class="cls-1" d="M106.33,174.61c5.47,5,12.45,7.78,18.31,12.24,2.39,1.82,4.27,4.16,6.56,6.1a18.72,18.72,0,0,0,7.3,4.17,7.4,7.4,0,0,0,7.95-3c.51-.68-.51-1.54-1-.85a6.11,6.11,0,0,1-6.69,2.56,17.81,17.81,0,0,1-7-4.17c-2.15-1.88-3.94-4.08-6.22-5.82a88.29,88.29,0,0,0-8.63-5.52,56.71,56.71,0,0,1-9.68-6.72c-.63-.57-1.48.45-.85,1Z"/><path class="cls-1" d="M115.74,134.34c-1.93,2-1.61,5.7-1.33,8.25A67,67,0,0,0,117.6,156a131.28,131.28,0,0,0,5.91,14.81,87.9,87.9,0,0,0,6.85,12.34,26.4,26.4,0,0,0,3.63,4.39,5.81,5.81,0,0,0,3.21,1.79c.84.07,1.08-1.23.23-1.3a4.36,4.36,0,0,1-2.39-1.32,21.82,21.82,0,0,1-3-3.5,76,76,0,0,1-6.61-11.47,133.85,133.85,0,0,1-5.89-14.17A78,78,0,0,1,116,144.27a24.06,24.06,0,0,1-.37-5.62,5.65,5.65,0,0,1,1.16-3.46c.58-.63-.44-1.47-1-.85Z"/><path class="cls-1" d="M138.61,147.17l-.07-.08c.09.1,0,0,0,0a1.15,1.15,0,0,1-.14-.17l-.14-.21-.06-.1c-.06-.11,0,0,0,0a4.27,4.27,0,0,1-.36-1c0,.13,0-.08,0-.12a2.51,2.51,0,0,1,0-.27,4.89,4.89,0,0,1,0-.54s0-.3,0-.14a1.64,1.64,0,0,1,0-.22,3.86,3.86,0,0,1,.09-.49c0-.17,0,0,0-.08a1.89,1.89,0,0,1,.09-.21.91.91,0,0,1,.09-.17c0-.08-.07.09,0,0l.09-.11.08-.09.12-.09.07,0s-.13,0,0,0l.22-.08c-.15,0,0,0,.07,0s.23,0,.09,0l.26,0s.26.06.17,0a1.57,1.57,0,0,1,.83.63,1.37,1.37,0,0,1,.13.2l.06.1c-.06-.11,0,0,0,0a1.67,1.67,0,0,1,.08.2c0,.05.07.3,0,.14a2,2,0,0,1,0,.42c0,.1,0-.16,0,0a.34.34,0,0,0,0,.1,2,2,0,0,1,0,.24.36.36,0,0,0,0,.1s0-.14,0,0-.05.13-.07.19l-.09.18a.22.22,0,0,0-.05.08c.08-.14,0,0,0,0l-.28.33a.46.46,0,0,1-.07.07c-.07.07.12-.1,0,0l-.18.14a3.61,3.61,0,0,1-.36.23l-.08,0-.23.09-.19.06c-.12,0,0,0,0,0l-.13,0-.19,0h-.32l-.22-.05-.1,0s.13.05,0,0l-.23-.11-.09-.05c.11.07,0,0,0,0l-.18-.13-.15-.14,0-.05-.1-.12a2.62,2.62,0,0,1-.3-.5.79.79,0,0,1-.08-.26c0-.05,0-.1,0-.15s0-.21,0-.11a1.79,1.79,0,0,1,.49-1.12,2.1,2.1,0,0,1,1-.68,1,1,0,0,1,.25-.05h.24a1.17,1.17,0,0,1,.59.21l-.26-.22a4.24,4.24,0,0,1,.39.72,3.82,3.82,0,0,1,.13.36.84.84,0,0,1,.05.17c.06.18,0-.07,0,.08s0,.2,0,.3a.76.76,0,0,0,0,.15c0,.09,0-.15,0,0a2.38,2.38,0,0,1,0,.26.37.37,0,1,0,0,.05c0-.11,0,0,0,.06l-.05.11s-.09.14,0,0,0,0,0,0l-.08.09s-.12.12,0,0,0,0,0,0l-.21.14c.16-.12,0,0-.07,0a1.55,1.55,0,0,0-.23.08s.17,0,0,0h-.11l-.24,0h-.09l-.24,0a.35.35,0,0,1-.11,0c.09,0,.11,0,0,0l-.24-.11-.1-.06s.11.09,0,0l-.22-.17,0,0c.08.08,0,0,0,0s-.11-.15-.16-.22-.05-.11,0,0c0-.05,0-.09,0-.13a1.45,1.45,0,0,1-.11-.29s0,0,0-.08,0,.15,0,.07l0-.15a2.16,2.16,0,0,1,0-.35V144c0-.11,0,.11,0-.05s0-.28.06-.41.06-.28.09-.42.06-.19.14-.4a4.7,4.7,0,0,1,1.08-1.69l.11-.11.11-.1.32-.25.15-.09.09,0,.09,0,.16-.07.16,0c.1,0-.15,0,0,0l.29,0h.06c-.12,0,0,0,0,0a1.1,1.1,0,0,1,.26.06s-.13-.06,0,0l.11,0,.11.06c.15.07,0,0,0,0l.21.16.09.09s.16.18,0,0a4.71,4.71,0,0,1,.33.45.75.75,0,0,1,.07.12c-.06-.1,0-.07,0,0l.13.28.09.28a1,1,0,0,1,0,.14s0,0,0,.06,0-.11,0,0a4.07,4.07,0,0,1,.08.61c0,.1,0,.2,0,.3v0c0,.06,0,.13,0,.19a4.11,4.11,0,0,1-.12.61c0,.07,0-.06,0-.06l0,.08a.58.58,0,0,0-.05.14l-.14.29-.08.13,0-.05-.05.07-.2.25a1.14,1.14,0,0,1-.11.11c-.08.09.09-.07,0,0a2.83,2.83,0,0,1-.28.2l-.16.1c-.11.07.1,0,0,0l-.37.15a2.26,2.26,0,0,1-.37.11l-.07,0-.24,0c-.07,0,0,0,0,0h-.12l-.2-.05h0l-.11,0s-.21-.12-.1-.05a1.89,1.89,0,0,1-.31-.25c.09.09,0,0-.06-.07a1.27,1.27,0,0,1-.13-.19s-.11-.18-.06-.08a1.08,1.08,0,0,1-.08-.19A1.88,1.88,0,0,1,138,144c0,.15,0-.08,0-.11s0-.11,0-.17v-.23c0,.15,0-.06,0-.1s0-.12,0-.19,0,0,0-.06.05-.11.08-.16,0,0,0,0l.08-.1s.14-.14,0,0l.14-.11c.06,0,0,0,0,0l.1,0,.22-.07-.65-.11a2.14,2.14,0,0,1-.33,3.26l.81,0a2.1,2.1,0,0,1-.57-2.11.68.68,0,0,0-.32-.88.66.66,0,0,0-.88.32,3.49,3.49,0,0,0,.92,3.69.67.67,0,0,0,.81,0,3.5,3.5,0,0,0,1.2-4.29,3,3,0,0,0-.74-1,1.06,1.06,0,0,0-1.3.1,2.15,2.15,0,0,0-.92,1.57,3.15,3.15,0,0,0,1.76,3.25,3.4,3.4,0,0,0,3.35-1,4.34,4.34,0,0,0,.41-5.21,2.88,2.88,0,0,0-2-1.42,3.44,3.44,0,0,0-2.83,1.24c-1.47,1.51-2.59,4.68-.66,6.31,1.21,1,3.43.86,4.05-.76a3.69,3.69,0,0,0-.5-3.07,1.54,1.54,0,0,0-.33-.47,1.78,1.78,0,0,0-.62-.3,2.45,2.45,0,0,0-1.17-.09,3.42,3.42,0,0,0-2,1.21,3,3,0,0,0-.75,2.28,3.24,3.24,0,0,0,1.08,2,3,3,0,0,0,3.22.45,3.56,3.56,0,0,0,2.08-2.55,3.07,3.07,0,0,0-1.84-3.25,2.63,2.63,0,0,0-1.91-.06,2.33,2.33,0,0,0-1.18,1.23,4.92,4.92,0,0,0,.05,3.62,4.11,4.11,0,0,0,1,1.53.66.66,0,0,0,.93-.08.67.67,0,0,0-.09-.93Z"/><path class="cls-1" d="M214.51,150.83a3.35,3.35,0,0,1-1.34-3.45,2.81,2.81,0,0,1,2.58-2.58,3.57,3.57,0,0,1,3.13,2.67,2.39,2.39,0,0,1-.29,1.9,2.28,2.28,0,0,1-1.46.92,3.43,3.43,0,0,1-3.4-1.3,2.12,2.12,0,0,1-.29-.78,2.37,2.37,0,0,1,0-1c0-.11,0,0,0-.08a2.29,2.29,0,0,1,.1-.23c0-.09,0,0,.06-.08a.93.93,0,0,1,.16-.18c.05-.06,0,0,0,0l.09-.08.17-.12s.19-.11.09-.06l.22-.09a1.78,1.78,0,0,1,1.43,0,1.23,1.23,0,0,1,.51.43.88.88,0,0,1,.17.31,1,1,0,0,1,.09.47,1.8,1.8,0,0,1-1.25,1.42,1.36,1.36,0,0,1-.87,0,.9.9,0,0,1-.37-.23.49.49,0,0,1-.09-.1s-.13-.22-.09-.14a1.87,1.87,0,0,1,.11-1.73,1.15,1.15,0,0,1,1.22-.67.74.74,0,0,1,.27.1l.13.09.09.09h0a1.67,1.67,0,0,1,.36.77c0-.1,0,.09,0,.12s0,.16,0,.24a1,1,0,0,1,0,.38,1.27,1.27,0,0,1-.27.67s-.15.16-.07.09a1.09,1.09,0,0,1-.17.13c-.06,0,0,0,0,0l-.11.06-.26.07.66.12a.84.84,0,0,1-.33-.67c0-.06,0-.08,0,0a.36.36,0,0,1,0-.11c0-.07,0,0,0,0s0,0,0,0,0-.06,0,0,0,0,0,0,.14,0,.13,0l-.3-.14c.16.11-.1-.17-.07-.3v0a.42.42,0,0,1,.55,0c-.66-.54-1.51.47-.85,1a1,1,0,0,0,1.6-.71,1,1,0,0,0-1.27-1.16c-1.3.21-1.24,1.92-.58,2.74a1,1,0,0,0,.91.47,1.9,1.9,0,0,0,.77-.33,2.38,2.38,0,0,0,.88-1.17,3.31,3.31,0,0,0-.37-3,2.28,2.28,0,0,0-2.87-.73,3.16,3.16,0,0,0-1.6,2.8,2.47,2.47,0,0,0,1.86,2.5,3.08,3.08,0,0,0,3.21-1.47,2.57,2.57,0,0,0-.44-3.22,3,3,0,0,0-2.62-.7,2.8,2.8,0,0,0-2.15,1.71,3.54,3.54,0,0,0,.42,3.14,4.68,4.68,0,0,0,5.69,1.43,3.43,3.43,0,0,0,1.88-2.7,4.54,4.54,0,0,0-1.12-3.34,4.59,4.59,0,0,0-3.09-1.7,3.77,3.77,0,0,0-3.12,1.3,5.12,5.12,0,0,0-.24,6.13,4.12,4.12,0,0,0,1.25,1.1.66.66,0,0,0,.57-1.2Z"/><path class="cls-1" d="M174.47,88.6a14.11,14.11,0,0,0,.1,7.07.68.68,0,0,0,.85.39.69.69,0,0,0,.39-.86,12.8,12.8,0,0,1,0-6.36.66.66,0,0,0-1.3-.24Z"/><path class="cls-1" d="M175.25,105.6a14.11,14.11,0,0,0,.1,7.07.66.66,0,0,0,.85.39.68.68,0,0,0,.39-.85,12.84,12.84,0,0,1,0-6.37.66.66,0,0,0-.53-.77.67.67,0,0,0-.77.53Z"/><path class="cls-1" d="M175.62,122.61a9.26,9.26,0,0,0-.54,7.24c.27.8,1.51.34,1.24-.47a7.91,7.91,0,0,1,.5-6.21c.4-.75-.8-1.31-1.2-.56Z"/><path class="cls-1" d="M176.24,138.61a6.77,6.77,0,0,0-.9,6.7c.33.79,1.57.33,1.24-.46a5.42,5.42,0,0,1,.67-5.39c.53-.67-.49-1.52-1-.85Z"/><path class="cls-1" d="M174.34,151.94l.26,2.94a.66.66,0,0,0,.72.6.68.68,0,0,0,.6-.72l-.27-2.94a.66.66,0,0,0-.71-.6.67.67,0,0,0-.6.72Z"/><path class="cls-1" d="M180.77,86c1.1,9.21,6.17,17,12.46,23.52S207,121.65,213.58,128c6.25,6,11.53,13.47,13.77,21.92a27,27,0,0,1,.51,12.29,25,25,0,0,1-6.09,11.68,31.57,31.57,0,0,1-27.67,9.91,29.62,29.62,0,0,1-3.69-.8c-.82-.23-1,1.08-.23,1.31a32.74,32.74,0,0,0,29-6.17A28.88,28.88,0,0,0,227.76,167a25.84,25.84,0,0,0,1.78-12.36c-.83-8.76-5.42-16.9-11.1-23.45-6.07-7-13.71-12.49-20.46-18.8s-13-13.65-15.26-22.84a34.06,34.06,0,0,1-.63-3.61c-.1-.85-1.42-.73-1.32.11Z"/><path class="cls-1" d="M138,182.73a24.32,24.32,0,0,0,23.74,4.41c.8-.28.33-1.53-.47-1.24a22.94,22.94,0,0,1-22.42-4.19.66.66,0,0,0-.85,1Z"/><path class="cls-1" d="M234.64,105.39a61.36,61.36,0,0,1,13.25,26.9,64.49,64.49,0,0,1-.77,29.5,68.3,68.3,0,0,1-6.4,15.91c-.41.75.79,1.31,1.2.56a68.44,68.44,0,0,0,8.55-29.42,63.72,63.72,0,0,0-5.37-29.37,63,63,0,0,0-9.38-14.85c-.55-.65-1.63.11-1.08.77Z"/><path class="cls-1" d="M206.75,199.57a30.28,30.28,0,0,0,16.06-6c4.72-3.43,8.69-7.78,12.69-12,2.33-2.45,4.68-4.9,7.21-7.16.63-.56-.13-1.64-.77-1.07-4.36,3.89-8.21,8.3-12.32,12.45-3.93,4-8.22,7.8-13.37,10.12a27.38,27.38,0,0,1-9.62,2.34c-.85.05-.73,1.37.12,1.32Z"/><path class="cls-1" d="M231.6,183.94c.33,5.51-3.81,10-6.35,14.51a19.48,19.48,0,0,0-2.41,6.93,26,26,0,0,0,0,7.26,32.76,32.76,0,0,0,5.34,13.9,28.16,28.16,0,0,0,4.86,5.53,23.66,23.66,0,0,0,2.85,2.12,12.14,12.14,0,0,0,3.83,1.52c7.24,1.74,14.76.66,22.11,1.22.84.06,1.09-1.24.24-1.31-6.42-.48-12.89.25-19.27-.67a30.12,30.12,0,0,1-4.52-1,11.42,11.42,0,0,1-3.24-1.95,25.69,25.69,0,0,1-4.94-5.05c-5.64-7.52-8.61-18.85-3.89-27.52,2.69-5,7.06-9.6,6.7-15.61,0-.85-1.37-.73-1.32.12Z"/><path class="cls-1" d="M243.08,177a15.91,15.91,0,0,1,14.38,10.68c2.45,6.22,2.35,13.32,1.25,19.82a52.8,52.8,0,0,1-1.21,5.41c-.24.85-.5,1.68-.79,2.52q-.21.62-.45,1.23a3.86,3.86,0,0,0-.17.55s-.09.21-.09.22l-.05,0c-.21.05-.09.2.37.45.51-.68-.5-1.53-1-.85s-.47,1.56.46,1.71,1.41-.63,1.64-1.39c.49-1.67,1.15-3.29,1.6-5a52.1,52.1,0,0,0,1.7-11.44c.26-7.09-1-15.06-6.18-20.32a17.75,17.75,0,0,0-11.21-4.93c-.84-.08-1.09,1.23-.24,1.3Z"/><path class="cls-1" d="M229.51,193.12c2.11,7,7.4,11.72,13.25,15.66s12.12,7.21,16.33,12.82a18.14,18.14,0,0,1,3.21,6.46,20.73,20.73,0,0,1,.05,9,.67.67,0,0,0,1.31.24,20.29,20.29,0,0,0-2.17-14.54,28.76,28.76,0,0,0-7-7.64c-5.54-4.39-12.06-7.45-17.24-12.31a23.19,23.19,0,0,1-6.51-10.19c-.24-.82-1.48-.35-1.24.46Z"/><path class="cls-1" d="M233.46,236.28c.32,9.44,8.13,15.65,16.38,18.66a65.9,65.9,0,0,0,7.83,2.21A39.58,39.58,0,0,0,267,258.4c2.46,0,5.78-.8,5.44-3.94a.66.66,0,0,0-1.32.12c.24,2.25-2.53,2.46-4.17,2.5a36.57,36.57,0,0,1-8.7-1.15c-6.26-1.39-12.62-3.37-17.53-7.67a16.7,16.7,0,0,1-6-12.09c0-.86-1.35-.74-1.32.11Z"/><path class="cls-1" d="M259.75,236.66c1.29,1.73,3.48,1.41,5.38,1.47a4.14,4.14,0,0,1,2.71,1.05,8.54,8.54,0,0,1,1.84,2.09c2.1,3.32,2.18,7.7,1.7,11.47a29.6,29.6,0,0,1-1.48,6.3c-.28.8.92,1.37,1.2.57a29.88,29.88,0,0,0,1.76-12.1c-.3-3.92-1.73-8-5.25-10.09a6.15,6.15,0,0,0-3.36-.62c-1.16,0-2.64.14-3.42-.91-.5-.68-1.59.09-1.08.77Z"/><path class="cls-1" d="M239,248.52A25.93,25.93,0,0,0,253.08,263a30.42,30.42,0,0,0,9.95,2.32,33.88,33.88,0,0,0,5.33-.08,36.36,36.36,0,0,1,4.88-.5,7.25,7.25,0,0,1,4.22,1.36,8.47,8.47,0,0,1,2.76,4.89c.2.83,1.44.36,1.24-.46-.76-3.13-2.56-5.82-5.76-6.75-3-.88-6.12.13-9.18.26A28.29,28.29,0,0,1,247,257.79a24.36,24.36,0,0,1-6.85-9.73.66.66,0,0,0-1.24.46Z"/><path class="cls-1" d="M268.78,259.54l4.07,4.54a.66.66,0,1,0,1.08-.77l-4.07-4.54a.7.7,0,0,0-.93-.15.67.67,0,0,0-.15.92Z"/><path class="cls-1" d="M279.76,269.85a32.28,32.28,0,0,1,8.66,7.21,42.31,42.31,0,0,1,3.29,4.37A26.73,26.73,0,0,1,294,286.1c2.49,6.06,4.5,12.29,6.47,18.53,3.88,12.33,7.62,24.93,14.56,36A61.61,61.61,0,0,0,330,357c.68.52,1.54-.5.85-1A60,60,0,0,1,317,341.23,90.17,90.17,0,0,1,308.31,324c-4.75-12.26-7.8-25.11-12.71-37.32a33.09,33.09,0,0,0-2.23-5.1,39.84,39.84,0,0,0-3.6-4.95,34.35,34.35,0,0,0-9.44-8c-.75-.41-1.31.79-.57,1.2Z"/><path class="cls-1" d="M257.19,266.46l2.55,6.7.11-.66c-4.58,7-5.6,15.28-3.84,23.33,2,9.05,6.81,17.32,12.45,24.57A113.46,113.46,0,0,0,291,342a103,103,0,0,0,26.59,14.41c7.62,2.66,16.15,4.45,24.18,2.71.87-.19,1.73-.41,2.57-.68s.35-1.51-.46-1.24c-7.68,2.47-16.21,1-23.73-1.33a97.91,97.91,0,0,1-26.64-13.69,114.25,114.25,0,0,1-23.2-21.58c-5.78-7.24-10.83-15.52-12.92-24.64a32.32,32.32,0,0,1-.58-12.08,26,26,0,0,1,1.55-5.73,25.63,25.63,0,0,1,1.29-2.76c.24-.45.49-.89.76-1.32.38-.63.72-.94.45-1.69-.74-2.15-1.62-4.27-2.43-6.4a.66.66,0,0,0-1.24.47Z"/><path class="cls-1" d="M157.36,187.3A161.15,161.15,0,0,1,155.09,207a.66.66,0,0,0,1.3.23,162.76,162.76,0,0,0,2.28-19.7c0-.84-1.26-1.09-1.31-.24Z"/><path class="cls-1" d="M169.15,182.26c-6.06-2.1-6.56-9.41-5.19-14.75a19,19,0,0,1,4.36-8.23c1.75-1.86,4.53-3.63,7.22-3.16,5.24.9,7.29,5.93,8.53,10.53,1.83,6.81,2.68,13.83,4.74,20.59,2.49,8.16,6.6,15.74,12.86,21.63.88.83,1.8,1.62,2.74,2.37.67.54,1.52-.48.85-1-7.29-5.84-12.11-13.73-14.93-22.56-2.25-7-3.1-14.37-5-21.48-1.33-5-3.67-10.18-9.21-11.31-2.86-.59-5.82.79-7.91,2.68a19,19,0,0,0-5.05,8.09c-1.82,5.48-2,13.33,3.46,16.85a8.92,8.92,0,0,0,2,1c.79.28,1.36-.92.56-1.2Z"/><path class="cls-1" d="M168.56,184.71c3.94,7.21,8.08,14.33,12.69,21.15A109.19,109.19,0,0,0,191.4,219a37.38,37.38,0,0,0,8.07,6.93,11.15,11.15,0,0,0,6,1.87c3.49-.13,5.53-3.14,6.21-6.28a15.49,15.49,0,0,0-1.42-10.38c-1.64-3-4.63-4.81-8.07-3.84a7.55,7.55,0,0,0-1.3.49c-.77.35-.32,1.6.46,1.24a6.71,6.71,0,0,1,2.36-.68,4.08,4.08,0,0,1,1,0,4.71,4.71,0,0,1,.52.09l.25.06.17,0a5.82,5.82,0,0,1,3.05,2.53,14,14,0,0,1,1.86,9.18,12.4,12.4,0,0,1-.5,2.2,7.72,7.72,0,0,1-.43,1,4,4,0,0,1-.24.46,2,2,0,0,1-.23.37,4.91,4.91,0,0,1-1.34,1.38,2.85,2.85,0,0,1-.78.43,3.8,3.8,0,0,1-.88.26,8.15,8.15,0,0,1-5.05-1.06,29.45,29.45,0,0,1-7.22-5.64,89.72,89.72,0,0,1-9.39-11.46c-4.2-5.92-8-12.13-11.6-18.44-1.1-1.93-2.19-3.88-3.25-5.84-.41-.74-1.49,0-1.08.77Z"/><path class="cls-1" d="M195.45,195.6c8-1.64,16,6.57,13.26,14.58-.28.8.92,1.37,1.2.56,3.06-8.85-5.44-18.33-14.58-16.46-.83.17-.72,1.49.12,1.32Z"/><path class="cls-1" d="M153.19,197.07c-1.86,2.45-4.31,5.72-4.08,9,.17,2.24,2,3.51,4,4a21.52,21.52,0,0,0,8.46-.09,62.7,62.7,0,0,0,9.92-2.52,41.88,41.88,0,0,0,8.72-3.84c.73-.45,0-1.53-.77-1.08a36.52,36.52,0,0,1-6.94,3.16,61.56,61.56,0,0,1-9.21,2.62,28.42,28.42,0,0,1-8.37.71c-1.71-.17-3.84-.67-4.38-2.41a5.31,5.31,0,0,1,.4-3.31,23,23,0,0,1,3.26-5.39c.51-.67-.5-1.53-1-.85Z"/><path class="cls-1" d="M153.08,196.61c-3.46-.86-7.39-1.24-10.7.38a11.64,11.64,0,0,0-5.53,6.45A31.85,31.85,0,0,0,135,213.49c-.18,3.76,0,7.52.14,11.28s.5,7.32.33,11c0,.84,1.27,1.08,1.31.23.3-6.7-.64-13.4-.54-20.1a39.87,39.87,0,0,1,1.19-10.1,12,12,0,0,1,4.38-6.94c3.21-2.21,7.4-1.8,11-.92.83.2,1.06-1.1.24-1.3Z"/><path class="cls-1" d="M133.55,214.61c-7.07,3.76-11.67,11.17-12.8,19-1,7.15,1,15.11,7.55,19,7,4.15,15.71,2.12,22.75-.72,5.73-2.31,15.36-7.56,12.45-15.26-1.75-4.63-6.48-7.23-11.2-7.76a17.28,17.28,0,0,0-14.44,5c-.79.85-1.92,3.13-3.29,2.71-.82-.24-1,1.06-.24,1.31,1.4.42,2.54-.68,3.34-1.69a16,16,0,0,1,2.68-2.83,15.7,15.7,0,0,1,6.77-3c4.74-.89,10.5.18,13.63,4.14,2.06,2.62,2.61,5.76.71,8.62s-5.33,5-8.49,6.47a45,45,0,0,1-10.91,3.58,20,20,0,0,1-10.78-.61,13.94,13.94,0,0,1-7.42-6.47,19.24,19.24,0,0,1-2-9.81,25,25,0,0,1,9.83-19,19.67,19.67,0,0,1,2.35-1.47c.74-.4.29-1.65-.46-1.25Z"/><path class="cls-1" d="M209.21,225.36c3.24,15.92,4.06,32.18,4.11,48.38s-.6,32.25-.24,48.38A259.33,259.33,0,0,0,215,349.41a.66.66,0,0,0,1.32-.12c-2.06-16.12-2.12-32.39-1.92-48.61s.66-32.23-.37-48.32a199.39,199.39,0,0,0-3.47-27.11c-.17-.83-1.49-.72-1.32.11Z"/><path class="cls-1" d="M131,254.62c-.5,12.94-.19,25.9-.43,38.84s-1,26.1-3.75,38.85a102.15,102.15,0,0,1-6.66,20.6.67.67,0,0,0,.66.94,229.72,229.72,0,0,1,39.9-2.75q10.05.18,20,1.25c5.66.61,11.31,1.48,17,1.39,5.9-.1,11.91-1.39,16.48-5.33.64-.56-.12-1.64-.77-1.08-8.57,7.4-21.11,5-31.36,3.84a231.06,231.06,0,0,0-39.36-1q-11.09.66-22.06,2.39l.66.94c5.35-11.85,8-24.68,9.32-37.57,1.32-13.09,1.3-26.26,1.33-39.39,0-7.34,0-14.68.31-22,0-.85-1.29-.72-1.32.12Z"/><path class="cls-1" d="M138.3,352.37c-.56,7.12-.36,14.26-.68,21.38a97.06,97.06,0,0,1-1.07,11c-.14.89-.3,1.77-.48,2.65-.15.72-.61,1.67-.21,2.34a9.47,9.47,0,0,0,2.63,2.57c4.37,3.11,10.28,3.5,15.42,2.53a27.64,27.64,0,0,0,3.9-1,6.67,6.67,0,0,0,1.81-.73c.32-.25.32-.7.4-1.07.1-.53.2-1.07.28-1.61a75.71,75.71,0,0,0,.91-11.65c.07-8.73-1-17.42-.82-26.15,0-.85-1.31-.73-1.32.12-.2,13.25,2.17,26.55-.49,39.7l.42-.5a24.62,24.62,0,0,1-12.16,1.94c-3.79-.39-7.62-1.82-10-5l.12.5c2.82-12.1,1.66-24.54,2.61-36.82.06-.84-1.24-1.09-1.3-.24Z"/><path class="cls-1" d="M177.86,353.5a199.81,199.81,0,0,1-.09,23.6c0,.91-.09,1.82-.14,2.74a6.34,6.34,0,0,0,.12,2.64,4.18,4.18,0,0,0,1.89,2.26,16.46,16.46,0,0,0,5,.84,36.7,36.7,0,0,0,5-.07c3.82-.3,7.58-1.05,11.37-1.5a.66.66,0,0,0,.56-.89c-.48-1.2-1.16-3.35-2.48-3.95-.87-.39-1.51.33-1.61,1.14A3.15,3.15,0,0,0,201.2,384a.66.66,0,0,0,.38-.85,56,56,0,0,1-3.48-27.23c.1-.84-1.21-1.08-1.31-.23a57.33,57.33,0,0,0,3.55,27.92l.39-.85c-1.24.31-2-1.06-1.93-2.13a.9.9,0,0,1,.06-.35s-.35.22-.3.13,0,0,.07.06a12.26,12.26,0,0,1,1.71,3.14l.56-.89c-6.3.74-12.76,2.44-19.12,1.21a7,7,0,0,1-1.69-.4,3.2,3.2,0,0,1-1-1.27,5.34,5.34,0,0,1-.13-2.64c0-.91.09-1.83.14-2.74.18-3.66.33-7.33.38-11,.06-4.16,0-8.32-.3-12.48a.66.66,0,0,0-1.32.12Z"/><path class="cls-1" d="M120.41,354.58c3.32,5.55,10.77,5.86,16.52,5.77.85,0,.73-1.34-.12-1.32-5.29.09-12.26-.1-15.32-5.22-.43-.73-1.51,0-1.08.77Z"/><path class="cls-1" d="M161.48,359.85a37.63,37.63,0,0,0,16.8,2.52.66.66,0,0,0-.12-1.32,36.08,36.08,0,0,1-16.12-2.4c-.79-.32-1.36.88-.56,1.2Z"/><path class="cls-1" d="M197.89,361.65a22.52,22.52,0,0,0,9.9-1.14c3.1-1,6.4-2.82,7.88-5.88a7.93,7.93,0,0,0,.38-5.61c-.23-.82-1.47-.35-1.24.47,1.87,6.94-6.57,10.1-11.94,10.79a18.35,18.35,0,0,1-4.74.06c-.84-.11-1.08,1.19-.24,1.31Z"/><path class="cls-1" d="M135.07,394.71c-.2,5-.82,9.86-1.15,14.8a.67.67,0,0,0,.88.74,36.44,36.44,0,0,1,11-1.59,74.2,74.2,0,0,1,10.5,1.11c1.75.27,4,.59,5.4-.76,1.77-1.7,1.37-5,1.16-7.13a100.54,100.54,0,0,0-2.4-12c-.18-.82-1.5-.71-1.31.12.74,3.33,1.63,6.64,2.14,10a28.58,28.58,0,0,1,.38,5,4.54,4.54,0,0,1-.8,3c-1.17,1.26-3.61.62-5.05.38a65.68,65.68,0,0,0-10-1A37.45,37.45,0,0,0,134.34,409l.88.74c.34-5.06,1-10.09,1.17-15.16,0-.85-1.29-.72-1.32.12Z"/><path class="cls-1" d="M177.7,387.25l.07,16.42c0,.56.65.7,1,.48,7.36-4,16.16-8.41,24.63-5.28a.67.67,0,0,0,.94-.65,60.85,60.85,0,0,0-3.27-14.15.66.66,0,0,0-1.24.46,59,59,0,0,1,3.19,13.8l1-.65c-9-3.34-18.13,1.17-26,5.4l1,.48L179,387.13c0-.85-1.32-.73-1.32.12Z"/><path class="cls-1" d="M132.77,413c6.39-6.66,17-5.74,25.21-4.08,2.39.48,4.76,1.07,7.11,1.72l-.12-1.27c-7.39,3.57-11.87,10.87-16.24,17.49-.89,1.35-1.79,2.69-2.79,4a10.38,10.38,0,0,1-2.57,2.55,2.77,2.77,0,0,1-1.09.43c-.72.11-1.69-.66-2.26-1.06a13.14,13.14,0,0,1-4.07-4.84c-2.28-4.47-2.87-9.61-3.5-14.52-.11-.84-1.43-.73-1.32.12.59,4.55,1.16,9.24,3,13.51a16.87,16.87,0,0,0,3.51,5.41,12.61,12.61,0,0,0,2.61,2,3.47,3.47,0,0,0,2.28.7c2.49-.39,4.28-3.07,5.61-5,2.28-3.22,4.3-6.62,6.66-9.8,2.88-3.87,6.27-7.61,10.69-9.74a.67.67,0,0,0-.12-1.27,78.34,78.34,0,0,0-13.65-2.71c-4.58-.42-9.39-.29-13.73,1.41a17.22,17.22,0,0,0-6.19,4.11c-.59.62.43,1.47,1,.85Z"/><path class="cls-1" d="M177.73,406.13a69.4,69.4,0,0,1,12.21-5.59c4.12-1.32,8.67-2.06,12.89-.78a14.3,14.3,0,0,1,6.42,4.19l.16-.92a45.77,45.77,0,0,0-12.9,19.39c-.27.78-.46,1.59-.78,2.36a3.11,3.11,0,0,1-.72,1.16c-.39.33-.6.21-1,0a46.43,46.43,0,0,1-4.52-2.65,31,31,0,0,1-7.91-7.19,14.79,14.79,0,0,1-3-11.16.67.67,0,0,0-1.31-.24c-1.23,7.84,4,14.3,10,18.64a46.81,46.81,0,0,0,4.8,3,7.77,7.77,0,0,0,2.25,1.12,2.27,2.27,0,0,0,2-1.05,6.73,6.73,0,0,0,1-2.11c.36-1.13.74-2.26,1.17-3.36a45.26,45.26,0,0,1,2.63-5.54,44.31,44.31,0,0,1,9.11-11.33.68.68,0,0,0,.15-.93,16.11,16.11,0,0,0-12.31-5.4c-4.84,0-9.59,1.66-14,3.64-2.43,1.1-4.78,2.34-7.1,3.63-.75.42,0,1.5.76,1.08Z"/><path class="cls-1" d="M176.36,411.32c-1.63,1.22-3.42,2.88-3.62,5a5.71,5.71,0,0,0,2.12,4.49,23.91,23.91,0,0,0,5.57,3.65c2.17,1.12,4.4,2.1,6.62,3.12a23.33,23.33,0,0,1,5.59,3.1l-.23-.45c.29,3.62-2.78,6.19-5.28,8.31-3.57,3-7.17,6-9.64,10a23.17,23.17,0,0,0-3.13,8.91l1.32.06A65.09,65.09,0,0,1,179,423.48c.3-.79-.9-1.36-1.2-.57a66.36,66.36,0,0,0-3.47,34.76c.11.69,1.2.84,1.31.06a23.63,23.63,0,0,1,7.47-13.94c2.92-2.81,6.65-5.06,9-8.4a7.88,7.88,0,0,0,1.59-4.74c0-1-.72-1.35-1.48-1.83a25,25,0,0,0-2.32-1.29c-4-2-8.31-3.54-12.07-6-1.47-1-3.35-2.3-3.76-4.14-.47-2.11,1.52-3.85,3-5,.68-.52-.09-1.6-.77-1.08Z"/><path class="cls-1" d="M215.2,446.1c.64-11.49-4.63-22-6.55-33.1-.15-.84-1.47-.72-1.32.12,1.89,11,7.2,21.42,6.57,32.75-.05.84,1.25,1.08,1.3.23Z"/><path class="cls-1" d="M207.61,412.72c-2,2.37-4.28,4.57-6.19,7A15,15,0,0,0,198,427c-.62,5.79,4.41,9.57,8,13.32a17.74,17.74,0,0,1,4.95,8.72c.16.83,1.48.72,1.32-.12a17.2,17.2,0,0,0-3.65-7.62c-1.67-2.06-3.66-3.83-5.49-5.75s-3.54-4.15-3.79-6.86,1.13-5.33,2.72-7.49c2-2.71,4.41-5.07,6.61-7.61.56-.65-.46-1.49-1-.85Z"/><path class="cls-1" d="M174.44,459a37.39,37.39,0,0,0,33.14-5,34.7,34.7,0,0,0,7.15-6.7c.53-.66-.49-1.51-1-.85a36,36,0,0,1-29.36,13,33.51,33.51,0,0,1-9.35-1.74c-.8-.28-1.37.92-.56,1.19Z"/><path class="cls-1" d="M176.13,458.93c-3.6,8.37,8.36,11.19,14.26,11.62a42.59,42.59,0,0,0,15.68-1.6c4.81-1.5,10.08-4.48,12.1-9.37,2.32-5.6-.45-11.66-3-16.65-.39-.74-1.64-.29-1.24.47,2.15,4.14,4.58,9,3.63,13.81s-5.68,8.15-10.08,9.86a38.27,38.27,0,0,1-14.5,2.28,31.74,31.74,0,0,1-10.45-1.79,10.75,10.75,0,0,1-4.7-3,4.76,4.76,0,0,1-.46-5.11c.33-.78-.87-1.35-1.2-.56Z"/><path class="cls-1" d="M183,436.6a54.27,54.27,0,0,1,12.24-1.47,37.12,37.12,0,0,1,12.22,1.59c.8.27,1.37-.93.56-1.2a38.55,38.55,0,0,0-12.63-1.71,55.72,55.72,0,0,0-12.86,1.55c-.82.21-.35,1.45.47,1.24Z"/><path class="cls-1" d="M174.74,432c10.3,1.07,20.77-3.33,30.92-.36.81.24,1-1.07.23-1.31-10.18-3-20.6,1.44-30.91.36-.85-.08-1.09,1.22-.24,1.31Z"/><path class="cls-1" d="M180,444.91a48.26,48.26,0,0,1,23.79-2.34c.84.13,1.08-1.18.24-1.31a49.63,49.63,0,0,0-24.49,2.41.66.66,0,0,0,.46,1.24Z"/><path class="cls-1" d="M130.38,417.4a10.33,10.33,0,0,0-4.36,3.84,10,10,0,0,0-1.24,5.08c0,3.81,1.36,7.5,2.3,11.15l.24-.77c-3.4,3.08-6.56,7.06-6.78,11.84-.18,4,1.85,7.55,4.64,10.26a27.18,27.18,0,0,0,5.57,4.07,19.06,19.06,0,0,0,6.48,2.5,25.79,25.79,0,0,0,11.67-1c7.4-2.32,14.07-7.8,17-15.05a21.46,21.46,0,0,0,1.34-11.72c-.77-4.56-2.12-9.2-2.08-13.85a12.38,12.38,0,0,1,1.83-6.71,30.31,30.31,0,0,1,2.39-2.56,7.43,7.43,0,0,0,1.4-2.48,3.79,3.79,0,0,0-.61-3.91c-1.09-1.05-2.69-.76-3.91-.11a10.74,10.74,0,0,0-2.62,2.13c-.58.62.44,1.46,1,.85.89-.94,2.76-2.82,4.26-2.14,1.11.49.87,2.13.52,3-.76,2-2.61,3-3.69,4.7a13.1,13.1,0,0,0-1.85,5.87c-.34,4.31.83,8.54,1.59,12.75.69,3.8,1,7.45,0,11.23-1.91,7.06-7.6,12.72-14.18,15.64a26.11,26.11,0,0,1-10.58,2.28,17.53,17.53,0,0,1-5.44-.7,26.56,26.56,0,0,1-6.2-3.3c-3.1-2.14-6-5-7-8.79-1-3.93.65-7.8,3.12-10.82a25.91,25.91,0,0,1,2.81-2.93.7.7,0,0,0,.23-.78c-.85-3.31-2-6.6-2.2-10.05a9.37,9.37,0,0,1,.8-4.59,8.51,8.51,0,0,1,3.92-3.72c.75-.38.3-1.62-.46-1.24Z"/><path class="cls-1" d="M145.16,433.3c-2,3.22-.88,6.7,1.21,9.55,2.42,3.28,5.61,5.88,8.27,8.95a12,12,0,0,1,2.92,4.9c.19.83,1.43.36,1.24-.46-.79-3.38-3.78-6.07-6.12-8.43-2.55-2.58-5.72-5.31-7-8.83a5.66,5.66,0,0,1,.63-5.11c.46-.72-.74-1.28-1.19-.57Z"/><path class="cls-1" d="M139.35,433.05c2.93,7.53-.34,16.3-5.69,21.89a20.22,20.22,0,0,1-5.24,4c-.74.39-.29,1.63.47,1.24a24.87,24.87,0,0,0,12.86-20.68,17.47,17.47,0,0,0-1.16-6.9.66.66,0,0,0-1.24.46Z"/><path class="cls-1" d="M132.31,445.92a35.78,35.78,0,0,0,3.72-.38c2.15-.25,4.3-.51,6.46-.73,2.36-.24,4.73-.44,7.11-.54a27.41,27.41,0,0,1,5.51.17,6.39,6.39,0,0,1,1,.24,2.25,2.25,0,0,1,.57.3c.06,0,.07.18.08.08a.87.87,0,0,1-.23.53c-.5.69.51,1.54,1,.85,2.48-3.37-4-3.53-5.75-3.53a121,121,0,0,0-14.6,1.16,49.38,49.38,0,0,1-5,.53c-.85,0-.73,1.33.12,1.32Z"/><path class="cls-1" d="M131.89,440.88a65.74,65.74,0,0,1,16.62-1.13,70.23,70.23,0,0,1,8.05,1c1.32.24,3.85,0,3.26-2-.24-.81-1.48-.35-1.24.47.14.44-1.75.23-1.93.19-1.18-.22-2.37-.4-3.55-.56a68.84,68.84,0,0,0-7-.53,66.46,66.46,0,0,0-14.29,1.23c-.83.16-.72,1.48.11,1.32Z"/><path class="cls-1" d="M131.58,437.3a114.56,114.56,0,0,1,25.06-2.2c.85,0,.73-1.3-.12-1.32a114.61,114.61,0,0,0-25.06,2.2c-.82.16-.71,1.48.12,1.32Z"/><path class="cls-1" d="M121.32,453.05c1,2.91.78,5.8.4,8.8a36.27,36.27,0,0,0-.36,4.17,4.57,4.57,0,0,0,.15,2c.28.5,1.22.81,1.72,1.06a40.17,40.17,0,0,0,16.58,4.25,61.54,61.54,0,0,0,17-1.79c2.79-.67,5.55-1.48,8.27-2.41l1.81-.65c.83-.3,1-.52,1.27-1.37a25.44,25.44,0,0,0,1.13-4.57c1.08-7.06-.42-14.19-1.06-21.22a.66.66,0,0,0-1.32.12c.77,8.54,3,17.61-.25,25.92l.37-.34c-11.09,4.1-23.44,6.7-35.15,3.88a36.83,36.83,0,0,1-9.55-3.79l.38.54a41.21,41.21,0,0,1,.51-7.6,17.13,17.13,0,0,0-.7-7.49.66.66,0,0,0-1.24.47Z"/><path class="cls-1" d="M107,103.82A64.44,64.44,0,0,1,122.8,85.25,72.57,72.57,0,0,1,144,73.44a76.41,76.41,0,0,1,23.9-4.4A71.26,71.26,0,0,1,192,72.63a65.69,65.69,0,0,1,24.74,15c.91.88,1.79,1.78,2.64,2.71.57.62,1.65-.14,1.08-.77a66.67,66.67,0,0,0-24.32-16.79,71.59,71.59,0,0,0-25-5,77.15,77.15,0,0,0-24.74,3.5,74.5,74.5,0,0,0-22.12,11.14,67,67,0,0,0-16.89,18.1q-.85,1.38-1.65,2.79c-.42.74.78,1.3,1.2.56Z"/><path class="cls-1" d="M114.32,94.79a57.76,57.76,0,0,0-.17,12.81.66.66,0,0,0,1.32-.11A56.43,56.43,0,0,1,115.62,95c.1-.85-1.2-1.09-1.3-.24Z"/><path class="cls-1" d="M121.53,86a45.67,45.67,0,0,0,1,14.46c.19.82,1.43.35,1.24-.47a43.86,43.86,0,0,1-.94-13.75c.07-.85-1.23-1.09-1.3-.24Z"/><path class="cls-1" d="M127,83.86a32.88,32.88,0,0,0-.3,11.45c.13.84,1.45.73,1.32-.11a31.6,31.6,0,0,1,.28-11.1c.18-.84-1.13-1.07-1.3-.24Z"/><path class="cls-1" d="M131.29,77.67a52.08,52.08,0,0,0,.53,13.49c.14.84,1.46.73,1.32-.11a50.32,50.32,0,0,1-.54-13.14c.08-.85-1.23-1.09-1.31-.24Z"/><path class="cls-1" d="M111.08,99.55a70,70,0,0,0-.1,16.5.66.66,0,0,0,1.32-.12,68.17,68.17,0,0,1,.09-16.15c.1-.84-1.2-1.08-1.31-.23Z"/><path class="cls-1" d="M106.35,104.67a69.61,69.61,0,0,0-.11,16.51.66.66,0,0,0,1.32-.12,68.16,68.16,0,0,1,.09-16.15c.11-.85-1.2-1.09-1.3-.24Z"/><path class="cls-1" d="M116.61,90.08a34.13,34.13,0,0,0,1.26,13.7c.24.81,1.49.35,1.24-.47a32.43,32.43,0,0,1-1.19-13c.09-.85-1.21-1.09-1.31-.24Z"/><path class="cls-1" d="M135.14,76.91l3.54,11.66c.24.81,1.48.35,1.24-.47l-3.54-11.66c-.25-.81-1.49-.34-1.24.47Z"/><path class="cls-1" d="M141,73a28.34,28.34,0,0,0,1.58,12.84.66.66,0,0,0,1.24-.47,26.65,26.65,0,0,1-1.51-12.13c.09-.85-1.22-1.09-1.31-.24Z"/><path class="cls-1" d="M148.35,71.65a38.94,38.94,0,0,0,1.14,13.72c.22.82,1.46.35,1.24-.47a37.08,37.08,0,0,1-1.08-13c.08-.84-1.22-1.08-1.3-.23Z"/><path class="cls-1" d="M155.12,71.05A21.83,21.83,0,0,0,155.76,84a.66.66,0,0,0,1.24-.46,20.67,20.67,0,0,1-.58-12.23c.22-.82-1.09-1-1.3-.23Z"/><path class="cls-1" d="M162.22,68.87a26.3,26.3,0,0,0-.47,13c.18.82,1.5.72,1.32-.12a25.34,25.34,0,0,1,.46-12.62c.24-.82-1.07-1-1.31-.24Z"/><path class="cls-1" d="M168.28,69.83c-.46,3.28-1.24,6.52-1.23,9.85,0,.86,1.32.73,1.32-.11,0-3.21.77-6.34,1.22-9.5.12-.84-1.19-1.08-1.31-.24Z"/><path class="cls-1" d="M178.93,70.26a25.82,25.82,0,0,0-1.43,8.4c0,.85,1.32.73,1.32-.12a23.89,23.89,0,0,1,1.31-7.72.68.68,0,0,0-.32-.88.67.67,0,0,0-.88.32Z"/><path class="cls-1" d="M182.76,74l0,4.12a.65.65,0,0,0,.72.6.68.68,0,0,0,.6-.71l0-4.13a.66.66,0,0,0-.72-.6.68.68,0,0,0-.6.72Z"/><path class="cls-1" d="M190.63,72.13a20.8,20.8,0,0,0-1.11,8.43.66.66,0,0,0,1.32-.12,19.06,19.06,0,0,1,1-7.75.69.69,0,0,0-.32-.88.67.67,0,0,0-.88.32Z"/><path class="cls-1" d="M197.29,76l-.91,5.31a.66.66,0,0,0,1.3.23l.91-5.3a.66.66,0,0,0-1.3-.24Z"/><path class="cls-1" d="M203.46,79.55a10,10,0,0,1-.13,5.62.66.66,0,1,0,1.3.23,11.23,11.23,0,0,0,.07-6.32.66.66,0,0,0-1.24.47Z"/><path class="cls-1" d="M209.58,83.88c.06.15.12.3.17.45a2.17,2.17,0,0,1,.07.24h0l0,.12a5.49,5.49,0,0,1,.07.91c0-.16,0,.09,0,.12l0,.24c0,.14,0,.28-.09.42s-.07.26,0,.13c0,.07,0,.15-.08.23a4.39,4.39,0,0,1-.21.44.66.66,0,1,0,1.2.56,5,5,0,0,0,.15-4.33A.67.67,0,0,0,210,83a.66.66,0,0,0-.39.85Z"/><path class="cls-1" d="M183.84,85.89c6.57,9.74,16.48,16.18,25.85,22.93,4.79,3.45,9.68,7,13.47,11.58a31.36,31.36,0,0,1,7,14.74c1.08,6.47,0,13.06-2.22,19.18-.29.8.91,1.36,1.19.56a41.34,41.34,0,0,0,2.66-17.36,31.71,31.71,0,0,0-5.43-15.13c-3.42-5-8.09-8.9-12.92-12.5S203.7,103.06,199,99.44a62.58,62.58,0,0,1-14.09-14.32c-.48-.7-1.56.06-1.08.77Z"/><path class="cls-1" d="M228.75,119.31a25.6,25.6,0,0,1,9.78,11.46,28.62,28.62,0,0,1,2,14.26,31.37,31.37,0,0,1-5.09,14.08,56,56,0,0,1-4.89,5.75c-1.77,2-3.31,4.17-4.88,6.31-3.45,4.7-7.3,9.83-13.28,11.24-.82.19-.35,1.43.47,1.24,5.44-1.28,9.28-5.58,12.52-9.87,1.7-2.24,3.29-4.56,5.06-6.74s3.63-3.81,5.21-5.94a32,32,0,0,0,4.68-29.26,26.89,26.89,0,0,0-10.77-13.55c-.7-.46-1.56.55-.85,1Z"/><path class="cls-1" d="M204.94,89c.33,5.06,5.07,8.66,8.23,12.12C216.68,105,220,109,223.6,112.75a78.84,78.84,0,0,0,6.44,6.09.66.66,0,0,0,.85-1,100.18,100.18,0,0,1-10.68-10.73c-1.66-1.86-3.3-3.75-5-5.61s-3.41-3.57-5.07-5.4c-1.85-2-3.73-4.31-3.91-7.16a.66.66,0,0,0-1.32.12Z"/></g></g></svg>