<svg xmlns="http://www.w3.org/2000/svg" 
xmlns:xlink="http://www.w3.org/1999/xlink"
 viewBox="0 0 1366 312.38"><defs><style>.cls-1
 {fill:none;}.cls-2{fill:url(#New_Pattern);}
 .cls-3{fill:#8ae9ec;}</style><pattern
  id="New_Pattern" data-name="New Pattern" width="50" height="50"
   patternUnits="userSpaceOnUse" viewBox="0 0 50 50">
   <rect class="cls-1" width="50" height="50"/>
   <path d="M25,24.8h0c.08.06,0,0,0,0l0,0s.07.11,0,0a.08.08,0,0,1,0,0s0,.13,0,.07l0-.08s0,.15,0,
   .08v0s0-.14,0,0,0,0,0,0l0-.09s-.06.13,0,.07,0,0,0,0a.56.56,0,0,0,.05-.08c.07-.09-.09.1,0,0l.06-
   .07,0,0s-.13.08-.06.05l.08-.05c.09-.05-.13,0,0,0l.09,0-.15,0h.12l-.14,0,.08,0s-.12-.06-.08,0l0,0-
   .25-.62c-.21.63-.41,1.26-.6,1.9a.56.56,0,0,0,.38.68.57.57,0,0,0,.69-.39c.2-.63.4-1.26.59-1.9a.56.
   56,0,0,0-.26-.62,1,1,0,0,0-1,0,1.3,1.3,0,0,0-.55.54,1.29,1.29,0,0,0-.17.74,1,1,0,0,0,.5.81A.51.51,0,0,0,25,
   24.8Z"/></pattern></defs>
   <g id="Layer_2" data-name="Layer 2"><g id="Layer_1-2" data-name="Layer 1">
   <rect class="cls-2" width="1366" height="312.38"/>
   <path class="cls-3" d="M896.37,131.79c4.17-7.49,8.2-15.07,12.48-22.51,4-6.89,8.52-13.
   66,11.77-20.92a17.61,17.61,0,0,0,1.78-9,8.54,8.54,0,0,0-3.31-6.22c.48.32-.29-.13-.32-
   .15a8.39,8.39,0,0,0-1-.45c.57.22-.23-.06-.3-.07-.34-.09-.68-.16-1-.22a4.76,4.76,0,0,0-1.41-
   .07,17,17,0,0,0-2.1.19,24.92,24.92,0,0,0-7.76,3.13c-6.42,3.77-12.35,9.54-14.2,17A4.58,4.58,0,0,1,
   887.35,96a4.76,4.76,0,0,1-4.63-2c-4.33-5.22-11.33-9.54-18.32-9.76-6.61-.2-13.28,3.15-16.33,9s-.67
   ,12.92,3.54,17.61c5.71,6.36,14.15,9.24,22.07,11.75,10.26,3.26,20.8,6.28,29,13.6,4.27,3.81-1.72,10.38-6
   ,6.57-7.78-6.95-18.27-9.23-27.9-12.45s-18.81-7.61-25-15.93c-5.38-7.29-7.19-16.84-3-25.13A26.29,26.29,0,0,1,862.5
   ,75.38c11.11-.63,21,5.38,27.91,13.71l-8.29,1.47c2.23-8.8,8.16-15.79,15.46-21,6.23-4.42,14.1-8.42,22-6.71,9.06,2,
   13.54,11,12.8,19.65-.77,9-6.54,16.81-11,24.32-5.78,9.62-11.8,19.08-17.73,28.6a4.15,4.15,0,0,1-5.44,1.78,4.09,4.09,
   0,0,1-1.77-5.45Z"/><path class="cls-3" d="M838.66,204.36a127.13,127.13,0,0,0,20.93-31.72c1.81-3.91,4.19-9,
   2.64-13a4.6,4.6,0,0,0-.51-.94c-.1-.16-.85-1.1-.44-.63a11.78,11.78,0,0,0-1.06-1.06s-.63-.49-.27-.25-.45-.23-.53-
   .27a3,3,0,0,0-1.25-.28,5.92,5.92,0,0,0-2.71,1.5c-5.12,4.41-7.84,11.34-10.54,17.35-1.26,2.8-5.07,2.57-6.66.3-2.87-4
   .08-7.54-8.06-12.77-8.22-4.31-.14-9,2.29-10,6.72-.87,4,1.33,8,3.88,11,3.29,3.87,7.61,6.52,11.75,9.37,6.06,4.18,11.7
   ,9,14.28,16.09,1.71,4.72-5.71,7-7.43,2.32-2.38-6.49-8.94-10.39-14.33-14.17-4.93-3.46-9.6-7.29-12.69-12.56-3-
   5.1-4.21-11-1.9-16.61,2.53-6.12,9.33-9.85,15.77-10,8.4-.18,15.61,5.11,19.9,12l-6.66.31c3-6.79,6.14-13.89,
   11.26-19.37,2.41-2.58,5.52-4.6,9.13-4.77a12.55,12.55,0,0,1,8.8,3.31c5.18,4.67,5.66,12.23,3.66,18.51-2.23,
   7-5.93,13.77-9.86,20A133.89,133.89,0,0,1,844.86,210c-3.72,3.9-9.84-1.64-6.2-5.67Z"/></g></g></svg>