<svg xmlns="http://www.w3.org/2000/svg" viewBox="0 0 467.98 324.96"><defs><style>.cls-1{fill:#8ae9ec;}</style></defs><g id="Layer_2" data-name="Layer 2"><g id="Layer_1-2" data-name="Layer 1"><path class="cls-1" d="M468,61.64V325H155.35a20.48,20.48,0,0,1-.07-3.34c41.45-25.19,74.69-68.7,69.45-119.08-5.33-60-61-107.53-123.34-99.78-59.94,10.13-102.66,68.14-85.33,128,17.36,62.28,94.42,88,146.89,46.74,33.38-26.71,37.81-70,20.69-105.84-19.48-31-55.65-47.54-91.56-35.22C63.35,146.32,42,175.32,44.69,208.91c2.59,21.59,14.78,43.1,34.08,52.53,31.33,14.14,69.63-.6,81.34-34.32,4.67-14.45-.25-28.82-5.16-40.78-12.19-21.51-38.67-28.48-60.17-16.28-12,7.3-21.43,21.79-18.88,38.58,2.51,12,7.35,16.75,17,23.87,19.31,11.83,40.78-5.16,35.79-26.73-2.49-9.58-16.94-14.26-21.66-4.61-2.36,4.82.09,9.6,4.91,12-9.52,9.69-19.23-2.23-16.91-11.86,4.67-14.45,26.2-24.24,38.31-12.34,4.87,7.16,14.51,11.88,12.22,23.91-4.53,31.25-38,46-62.16,31.75C66.51,232.74,56.76,216,61.37,194.36c4.57-26.45,30.82-45.89,57.25-43.72,38.44,2.06,62.76,37.87,55.89,76.35-6.91,33.68-37.93,55.56-71.57,53.45-43.24-2-74.79-40.17-72.74-81,4.42-43.27,40.15-77.2,83.34-80,36-.32,67.42,21,84.5,52.09,17.15,38.27,7.94,84-23,113.06-23.82,21.82-55,31.69-88.63,24.78-43.31-9.22-74.79-40.17-84.77-83.3-5.1-33.57,1.83-64.85,20.81-91.43,28.5-36.27,76.37-53.5,123-42.81,4.06-3.35,7.45-6.74,10.81-10.11A206.52,206.52,0,0,1,468,61.64Z"/></g></g></svg>