<svg xmlns="http://www.w3.org/2000/svg" viewBox="0 0 206.16 119.7"><defs><style>.cls-1{fill:#8ae9ec;}</style></defs><g id="Layer_2" data-name="Layer 2"><g id="Layer_1-2" data-name="Layer 1"><path class="cls-1" d="M65.9,52.43q17.89-1.73,35.61-4.84t35.14-7.67c6.55-1.71,13-3.6,19.53-5.58l-2.87-1.76A232.81,232.81,0,0,0,164,80.22q2.31,6.8,5,13.45l2.43-3.94c-13.77-.18-27.49,2.71-40.78,6.07-14.1,3.56-28.11,7.51-42.2,11.12-8.21,2.11-16.38,4.33-24.56,6.54l3.89,3.15a143.48,143.48,0,0,0-2.21-29,160.34,160.34,0,0,0-7.43-27.84,155.22,155.22,0,0,0-6.44-15.22l-2.65,3.23a78.34,78.34,0,0,0,31.66-.43c2.63-.58,1.66-4.66-1-4.07a68,68,0,0,1-14.71,1.7A72.89,72.89,0,0,1,50.4,43.41a2.3,2.3,0,0,0-2.66,3.23,141.3,141.3,0,0,1,9.51,26.41c1.13,4.55,2,9.16,2.75,13.8a130.8,130.8,0,0,1,1.42,13.54c.31,5.36.25,10.7.08,16.06a3.18,3.18,0,0,0,3.89,3.15c14.38-3.94,28.73-8,43.08-12.06,13.39-3.76,26.81-7.67,40.51-10.13a145.53,145.53,0,0,1,22.35-2.33,2.72,2.72,0,0,0,2.43-3.94A228.2,228.2,0,0,1,160.05,45q-1.26-6.72-2.1-13.5a2.39,2.39,0,0,0-2.88-1.77C143.8,33.65,132.32,37,120.76,40s-23.33,5.52-35.13,7.57q-9.93,1.72-19.92,3c-1,.14-.86,1.94.19,1.84Z"/><path class="cls-1" d="M148,37.49c-6,7.7-12.13,15.35-18.21,23-2.9,3.65-5.81,7.29-8.8,10.87a27.63,27.63,0,0,1-4.29,4.29,12.32,12.32,0,0,1-5,2.07,19.19,19.19,0,0,1-5.47.24c-.9-.07-1.79-.18-2.68-.31l-.39-.06-.52-.09c-.53-.1-1.05-.2-1.58-.32a84.55,84.55,0,0,1-10.68-3.08c-1.8-.65-3.56-1.37-5.31-2.14-.81-.35.64.31-.15-.07l-.47-.21-1.17-.56c-.93-.44-1.86-.9-2.78-1.38a64.49,64.49,0,0,1-9.31-5.91c-.41-.31-.81-.63-1.2-1-.13-.11-.28-.21-.4-.32.69.63-.15-.14-.29-.25-.77-.67-1.52-1.35-2.25-2a59.62,59.62,0,0,1-4.14-4.42c-.65-.77-1.27-1.56-1.87-2.37l-.45-.61c.51.73,0,0-.07-.11-.28-.42-.56-.84-.83-1.27-.55-.86-1.06-1.73-1.55-2.62A15.08,15.08,0,0,0,55.71,46a2.65,2.65,0,0,0-3.13-.53,2.74,2.74,0,0,0-1.3,2.9,10.18,10.18,0,0,0,.65,3.29,27.67,27.67,0,0,0,1.48,2.66,52,52,0,0,0,3.5,5.08,52.26,52.26,0,0,0,8.45,8.5A65.31,65.31,0,0,0,85.9,79.09a73.07,73.07,0,0,0,11.28,2.85,37.84,37.84,0,0,0,12.69.43,18.18,18.18,0,0,0,5.64-1.91,22.33,22.33,0,0,0,5.1-4.08,32.49,32.49,0,0,0,4-4.94c1.31-2.06,2.9-4,4.36-5.91,6.82-9.05,13.6-18.12,20.48-27.13.66-.87-.77-1.75-1.44-.91Z"/><path class="cls-1" d="M170.15,36.14c-1.61-10.8,3-21.84,11-29.07a32.52,32.52,0,0,1,3.06-2.42,10.62,10.62,0,0,1,3.81-2c2.57-.53,4.16,1.82,4.79,4a21.78,21.78,0,0,1,.32,8.4,42,42,0,0,1-2,9,46.29,46.29,0,0,1-4.33,9.37c-1.84,3.05-4.19,5.66-6.27,8.52-.91,1.27,1,2.78,2.08,1.73a17.72,17.72,0,0,1,9.91-4.73c3.1-.32,6.71.5,8.61,3.18a8.47,8.47,0,0,1,.9,7.38A6.46,6.46,0,0,1,201.4,51a7.73,7.73,0,0,1-1.06,1.52,9.87,9.87,0,0,1-3.4,2.43,12.11,12.11,0,0,1-2.19.69c-.44.09-.88.16-1.32.22a7.16,7.16,0,0,1-1,.09,15.88,15.88,0,0,1-2.67-.13l-.13,0c-.36-.07-.71-.13-1.07-.18a6.15,6.15,0,0,1-1.1-.21l-.63,3.94a8.42,8.42,0,0,1,7.07,2.55,9,9,0,0,1,2.5,5.58,7.09,7.09,0,0,1-1.71,5.33l-.61.55c-.28.23.07,0-.23.17s-.47.28-.71.4-.77.33-.43.2a7.5,7.5,0,0,1-1.39.37l-.41.06s.34,0,.08,0-.55,0-.83,0-.61,0-.92-.06c0,0-.38-.07-.09,0s-.27-.07-.28-.07a9.39,9.39,0,0,1-1.53-.49c.51.22-.12-.08-.29-.18s-.43-.3-.65-.45c.46.33-.19-.22-.3-.34s-.13-.16-.2-.23c-.43-.48.25.4-.1-.15a2.59,2.59,0,0,0-3.41-1,2.54,2.54,0,0,0-1,3.41,9.58,9.58,0,0,0,7.55,4.3,11,11,0,0,0,7.76-2.67c4.63-4.13,4.11-11.61.6-16.23A13.35,13.35,0,0,0,187,55.31a2,2,0,0,0-.64,3.94,15.28,15.28,0,0,0,2.52.9,18.79,18.79,0,0,0,3.26.35A15.71,15.71,0,0,0,198,59.38a12.62,12.62,0,0,0,6.64-17.92,11.29,11.29,0,0,0-10.3-5.23A17.78,17.78,0,0,0,187.52,38c-2.25,1-4.27,2.39-6.46,3.5l1.57,2.2a11.62,11.62,0,0,0,2-1.66c.6-.68,1.18-1.38,1.75-2.09a45.84,45.84,0,0,0,2.95-4.24,43.76,43.76,0,0,0,4.33-9.37,46.73,46.73,0,0,0,2.08-10.06,26.86,26.86,0,0,0-.42-9.46c-.73-2.71-2.14-5.23-4.84-6.34-3.07-1.25-6.42.46-8.93,2.18a33.79,33.79,0,0,0-11.65,13.93,35.91,35.91,0,0,0-3,20.38,1.7,1.7,0,0,0,2,1.24,1.72,1.72,0,0,0,1.24-2Z"/><path class="cls-1" d="M43.09,54.6c-6.63-4.25-14.7-5.48-22.34-6.71-3.47-.56-6.85-1.16-10.37-.61A11.7,11.7,0,0,0,2,52.65C-1.52,58.53-.17,66.08,4.23,71.09s11.19,7.67,17.62,8.75a42.89,42.89,0,0,0,12.08.29A35.72,35.72,0,0,0,39.45,79c.9-.26,1.8-.54,2.68-.86,1-.38,1.94-1,2.95-1.46l-1.53-2.86a50.81,50.81,0,0,0-9.37,5.69C31.51,81.63,28.64,84,27.1,87.1a8.06,8.06,0,0,0,.31,8.16,9.59,9.59,0,0,0,6.67,4c3.64.49,7.24-.87,10.32-2.7a.82.82,0,0,0-.78-1.45,14.88,14.88,0,0,0-3.29,1.38,14.17,14.17,0,0,0-2.75,2.37,7.68,7.68,0,0,0-2,6.31c1,5.3,7.18,6.26,11.61,6.29a47.34,47.34,0,0,0,10.28-1.06c1.58-.34,1-2.7-.58-2.43a54.41,54.41,0,0,1-10,.83c-2.38,0-5.12-.17-7.12-1.64a4,4,0,0,1-1-5.46,10.62,10.62,0,0,1,2.42-2.84,14.68,14.68,0,0,1,3.16-2.3l-.78-1.45c-4.45,3-11,4.81-15.15.18a6.23,6.23,0,0,1-.24-7.84c1.75-2.63,4.5-4.4,7.17-6a68.62,68.62,0,0,1,9.68-4.8c1.69-.67.58-3.66-1.14-3a16.38,16.38,0,0,1-2.17.54c-.82.18-1.62.47-2.44.68a38.6,38.6,0,0,1-13.57,1,35.56,35.56,0,0,1-8.82-2.07,21.42,21.42,0,0,1-3.63-1.69c-.61-.35-1.21-.72-1.79-1.12l-.85-.61c-.4-.31-.42-.32-.64-.51A20.39,20.39,0,0,1,8.54,68.5c-.23-.25-.46-.51-.68-.78A8.25,8.25,0,0,1,7.31,67a17.88,17.88,0,0,1-1-1.8c-.14-.29-.28-.59-.39-.89.16.42-.15-.51-.18-.62a13.07,13.07,0,0,1-.36-1.76c-.07-.51,0-.14,0,0,0-.16,0-.32,0-.48a11.81,11.81,0,0,1,0-1.19c0-.32.06-.64.09-.95,0-.13.13-.5,0,0,0-.15.06-.31.1-.46a17.48,17.48,0,0,1,.6-1.9c.14-.4-.22.42,0,0l.21-.41c.15-.27.3-.53.47-.79L7,55.41c0-.08.36-.45.12-.16s.07-.08.14-.15.26-.27.4-.4l.69-.61.36-.29c-.43.36-.14.1,0,0a10.27,10.27,0,0,1,.92-.51l.47-.22c.73-.32-.48.12.3-.1a15.72,15.72,0,0,1,2-.47l.52-.07c-.12,0-.46,0,.09,0l1.2-.06q2.23-.09,4.47-.06a71,71,0,0,1,11.66.74,32.73,32.73,0,0,1,11.13,4,1.48,1.48,0,0,0,1.58-2.51Z"/><path class="cls-1" d="M77.76,48.59a116.66,116.66,0,0,1,21.49-3.36"/><path class="cls-1" d="M79.92,43.94c-.55-.34-.2.87.44,1,10.44,1.18,20.92-1.18,31.16-3.53l35.23-8.07"/><path class="cls-1" d="M57.18,51.49a26.79,26.79,0,0,1,10.3-1.63"/></g></g></svg>