<svg xmlns="http://www.w3.org/2000/svg" viewBox="0 0 416.39 496.41"><defs><style>.cls-1{fill:#ebfbfc;}.cls-2{fill:#d8f8f9;}.cls-3{fill:#b1f0f2;}.cls-4{fill:#8ae9ec;}.cls-5{font-size:34.64px;font-family:PoiretOne-Regular, PoiretOne Regular;}.cls-6{fill:#fff;}.cls-7{fill:#221f1f;}.cls-8{fill:#59595c;}.cls-9{fill:none;}.cls-10{fill:#231f20;}</style></defs><g id="Layer_2" data-name="Layer 2"><g id="Selected"><circle class="cls-1" cx="208.38" cy="208.2" r="178"/><circle class="cls-2" cx="208.38" cy="208.2" r="164.69"/><circle class="cls-3" cx="208.38" cy="208.2" r="150.97"/><circle class="cls-4" cx="208.38" cy="208.2" r="132.25"/><text class="cls-5" transform="translate(127.16 400.38) rotate(19.63)">D</text><text class="cls-5" transform="translate(152.21 408.92) rotate(13.23)">a</text><text class="cls-5" transform="matrix(0.99, 0.13, -0.13, 0.99, 171.62, 413.39)">n</text><text class="cls-5" transform="translate(193.99 416.13) rotate(1.23)">d</text><text class="cls-5" transform="translate(216.81 416.4) rotate(-4.72)">e</text><text class="cls-5" transform="matrix(0.99, -0.16, 0.16, 0.99, 236.9, 414.46)">l</text><text class="cls-5" transform="translate(247.41 412.73) rotate(-11.93)">i</text><text class="cls-5" transform="translate(258.21 410.55) rotate(-16.48)">o</text><text class="cls-5" transform="translate(279.59 404.04) rotate(-22.7)">n</text><text class="cls-5" transform="translate(300.1 395.16) rotate(-28.13)">s</text></g><g id="Layer_1-2" data-name="Layer 1"><circle class="cls-4" cx="208.38" cy="208.2" r="130.39"/><ellipse class="cls-6" cx="208.38" cy="208.2" rx="113.19" ry="113.44"/><path class="cls-7" d="M128.23,142l-.58-.35.72-1.16.57.36C128.7,141.25,128.46,141.63,128.23,142Z"/><path class="cls-7" d="M201.35,313.14h-.06l-2.67,0,0-.68c.88,0,1.77,0,2.65,0Zm2.72,0,0-.67c.91,0,1.81-.06,2.71-.11l0,.68C205.89,313.05,205,313.08,204.07,313.1ZM195.9,313l-2.72-.17,0-.68c.9.07,1.8.12,2.71.17Zm13.61-.18,0-.68q1.35-.09,2.7-.24l.07.68C211.32,312.68,210.42,312.76,209.51,312.83Zm-19-.23-2.71-.31.09-.67c.89.11,1.79.21,2.69.3Zm24.46-.32-.08-.67c.9-.11,1.79-.24,2.68-.37l.1.67C216.74,312,215.84,312.17,214.93,312.28Zm-29.87-.37c-.9-.14-1.79-.29-2.68-.45l.11-.67c.89.16,1.78.31,2.68.45Zm35.26-.45-.12-.66c.89-.16,1.78-.33,2.66-.51l.14.66C222.11,311.13,221.22,311.3,220.32,311.46Zm-40.62-.52c-.89-.18-1.78-.38-2.66-.59l.16-.66c.87.21,1.75.4,2.64.59Zm46-.57-.15-.66c.88-.2,1.76-.4,2.64-.62l.16.66C227.43,310,226.54,310.17,225.66,310.37Zm-51.26-.68c-.88-.24-1.76-.48-2.63-.74l.19-.65c.87.26,1.74.5,2.61.73Zm56.55-.6-.17-.66c.87-.22,1.75-.46,2.62-.7l.18.65C232.7,308.63,231.83,308.86,231,309.09Zm-61.78-.95c-.87-.28-1.72-.57-2.58-.88l.23-.64c.85.31,1.7.6,2.56.88Zm67-.51L236,307c.87-.25,1.73-.52,2.59-.79l.21.65C237.93,307.11,237.06,307.38,236.19,307.63Zm-42.1-.24c-.9,0-1.81,0-2.72,0l0-.68c.9,0,1.8,0,2.71.05Zm2.73,0,0-.68c.91,0,1.81-.05,2.71-.09l0,.68C198.64,307.32,197.73,307.35,196.82,307.37Zm-8.17-.15c-.91-.05-1.82-.12-2.72-.2l.06-.68c.9.08,1.8.15,2.7.2Zm13.61-.1,0-.68c.9-.06,1.8-.13,2.7-.22l.07.68Zm-19-.39c-.9-.11-1.81-.24-2.7-.38l.1-.67c.89.14,1.79.27,2.68.38Zm24.46-.11-.07-.67c.9-.1,1.79-.21,2.69-.33l.09.67C209.49,306.41,208.59,306.52,207.68,306.62ZM164,306.3c-.85-.33-1.69-.67-2.53-1l.27-.62c.83.35,1.67.69,2.5,1Zm77.34-.3-.21-.65c.86-.28,1.71-.58,2.56-.88l.23.64C243.1,305.41,242.25,305.71,241.38,306Zm-28.3-.09-.1-.67,2.68-.43.11.67Zm-35.25,0c-.89-.17-1.78-.35-2.67-.55l.15-.66c.88.2,1.76.38,2.65.55Zm40.62-.88-.12-.66,2.66-.52.13.67Zm-45.94-.33c-.88-.23-1.76-.48-2.63-.74l.2-.65c.86.26,1.73.51,2.6.74Zm74-.5-.24-.63,2.53-1,.25.63Zm-87.49,0c-.82-.38-1.64-.77-2.45-1.18l.3-.6c.81.4,1.62.79,2.44,1.17Zm64.77-.22-.15-.66,2.65-.59.15.66Zm-56.5-.85c-.86-.3-1.72-.62-2.56-.95l.24-.63c.84.33,1.69.64,2.54.93Zm61.8-.35-.16-.66,1.07-.26,1.57-.39.16.66-1.57.39Zm22.48-.59-.26-.62c.83-.35,1.66-.71,2.48-1.08l.28.62C253.24,301.44,252.41,301.8,251.57,302.15Zm-97.42-.42-1.08-.6c-.44-.24-.87-.49-1.3-.74l.34-.58,1.29.73,1.07.59Zm80.22-.32-.18-.65,2.61-.73.19.65C236.12,300.93,235.25,301.18,234.37,301.41Zm-72.17-.31c-.85-.37-1.68-.75-2.48-1.14l.3-.61c.79.39,1.62.77,2.45,1.13Zm94.34-1.17-.29-.61c.82-.39,1.63-.78,2.44-1.19l.3.61Zm-16.94-.05-.21-.65c.85-.27,1.71-.56,2.56-.87l.23.64C241.32,299.31,240.46,299.6,239.6,299.88ZM149.44,299q-1.16-.74-2.28-1.5l.39-.56c.74.51,1.49,1,2.25,1.49Zm7.86-.26c-.8-.43-1.6-.88-2.37-1.35l.35-.58c.76.46,1.55.91,2.34,1.34Zm87.43-.69-.26-.63c.87-.36,1.68-.71,2.47-1.08l.29.62C246.43,297.3,245.61,297.66,244.73,298Zm16.68-.52-.31-.6,2.38-1.29.33.59Zm-108.79-1.6c-.77-.51-1.53-1-2.24-1.57l.4-.54c.71.52,1.45,1,2.21,1.55Zm-7.68,0c-.73-.54-1.46-1.09-2.17-1.65l.42-.53c.71.55,1.42,1.1,2.15,1.63Zm104.74-.17-.31-.6c.79-.42,1.58-.86,2.36-1.31l.34.59C251.28,294.86,250.49,295.3,249.68,295.72Zm16.49-.87-.34-.59c.78-.45,1.55-.92,2.32-1.4l.35.58C267.73,293.92,267,294.39,266.17,294.85ZM254.41,293l-.36-.57c.77-.48,1.53-1,2.29-1.46l.37.57C256,292,255.18,292.53,254.41,293Zm-106.19-.34c-.7-.57-1.4-1.17-2.08-1.78l.46-.5c.66.6,1.35,1.19,2.05,1.75Zm-7.58-.13q-1-.87-2.07-1.77l.45-.51c.68.6,1.36,1.18,2.06,1.76ZM270.8,292l-.37-.56c.75-.5,1.5-1,2.24-1.52l.39.56C272.31,291,271.56,291.48,270.8,292ZM259,290l-.38-.56,2.24-1.52.39.56Zm-114.82-1c-.63-.63-1.26-1.29-1.88-2l.5-.46c.61.67,1.24,1.33,1.86,1.95Zm-7.62-.06c-.67-.61-1.33-1.23-2-1.87l.47-.48,2,1.85Zm138.74-.07-.4-.54,2.17-1.63.41.54C276.74,287.79,276,288.34,275.28,288.87ZM263.47,287l-.39-.56,2.24-1.54.39.56Zm16.13-1.43-.43-.52q1.05-.86,2.07-1.74l.44.51C281,284.38,280.3,285,279.6,285.54Zm-147-.38c-.64-.64-1.28-1.29-1.9-2l.49-.46c.62.65,1.25,1.3,1.89,1.93Zm7.87-.2c-.57-.68-1.14-1.4-1.7-2.14l.54-.41c.55.73,1.12,1.44,1.68,2.12Zm127.44-1.09-.39-.55,2.22-1.58.39.56ZM283.72,282l-.46-.5c.67-.61,1.33-1.23,2-1.86l.48.49C285.05,280.74,284.39,281.37,283.72,282Zm-154.87-.75-1.83-2,.51-.45c.6.67,1.21,1.34,1.82,2Zm143.5-.54-.4-.54,2.17-1.62.41.54C273.81,279.61,273.08,280.16,272.35,280.69Zm-135.17-.07c-.52-.75-1-1.5-1.52-2.27l.57-.36c.49.75,1,1.5,1.5,2.24Zm150.46-2.43-.49-.48c.63-.64,1.25-1.3,1.86-2l.5.46C288.9,276.87,288.27,277.54,287.64,278.19Zm-10.95-.79-.42-.53,2.11-1.69.43.52C278.11,276.28,277.4,276.84,276.69,277.4Zm-151.45-.26c-.56-.7-1.1-1.45-1.61-2.22l.56-.37c.5.75,1,1.48,1.58,2.17Zm9-1.1c-.47-.78-.92-1.57-1.37-2.36l.59-.33c.44.79.9,1.57,1.36,2.34Zm157.11-1.87-.52-.44c.59-.68,1.17-1.37,1.75-2.07l.52.43C292.51,272.79,291.92,273.49,291.33,274.17ZM280.9,274l-.44-.51c.68-.59,1.36-1.18,2-1.79l.45.51C282.27,272.76,281.59,273.36,280.9,274Zm-158.68-1.38c-.43-.78-.85-1.6-1.24-2.44l.62-.29c.38.83.79,1.64,1.21,2.4Zm9.34-1.29c-.42-.8-.83-1.61-1.24-2.43l.61-.3c.4.81.81,1.62,1.23,2.42Zm153.38-1-.46-.49c.65-.62,1.29-1.25,1.93-1.89l.48.47C286.25,269,285.6,269.68,284.94,270.3Zm9.83-.35-.54-.42c.55-.71,1.09-1.44,1.62-2.17l.55.4C295.87,268.5,295.32,269.23,294.77,270Zm-174.86-2.34c-.33-.82-.65-1.68-1-2.56l.64-.22c.3.87.62,1.73.94,2.53Zm168.86-1.19-.5-.46c.61-.66,1.21-1.34,1.79-2l.52.44C290,265.07,289.39,265.75,288.77,266.42Zm-159.62,0c-.38-.82-.75-1.65-1.12-2.48l.62-.27c.36.83.74,1.65,1.12,2.47Zm168.8-.87-.56-.38c.5-.75,1-1.5,1.47-2.27l.58.36C299,264,298.46,264.77,298,265.52Zm-179.83-3.06c-.27-.87-.52-1.74-.77-2.62l.66-.18c.24.87.49,1.74.76,2.6Zm174.19-.19-.53-.42c.55-.71,1.1-1.43,1.62-2.16l.55.4C293.42,260.82,292.87,261.55,292.31,262.27ZM127,261.41c-.35-.83-.7-1.67-1-2.51l.63-.26c.34.84.68,1.68,1,2.51Zm173.9-.51-.58-.34c.45-.78.89-1.56,1.32-2.36l.6.33C301.76,259.33,301.31,260.12,300.85,260.9Zm-5.36-3.07-.56-.37c.48-.74,1-1.51,1.41-2.29l.59.34C296.47,256.3,296,257.08,295.49,257.83Zm-178.85-.61-.6-2.34-.08-.3.66-.17.07.3c.2.78.4,1.56.61,2.33Zm8.27-.85c-.34-.84-.66-1.69-1-2.53l.64-.25c.32.85.65,1.69,1,2.53Zm178.53-.26-.6-.3c.4-.81.79-1.62,1.16-2.44l.62.28C304.24,254.47,303.85,255.29,303.44,256.11Zm-5.17-3-.63-.25c.43-.84.82-1.64,1.18-2.44l.62.28C299.07,251.47,298.68,252.28,298.27,253.07Zm-183-1.12c-.23-.88-.47-1.75-.71-2.61l.65-.19c.25.87.48,1.75.71,2.63Zm7.68-.66-.94-2.55.63-.23c.32.85.63,1.7.95,2.54Zm182.75-.14-.63-.26c.35-.84.68-1.67,1-2.52l.64.24C306.39,249.46,306.06,250.31,305.71,251.15Zm-5.2-3-.63-.25c.33-.82.64-1.67.94-2.53l.64.22C301.16,246.45,300.84,247.31,300.51,248.14Zm-186.7-1.41c-.27-.89-.53-1.76-.79-2.59l.65-.2c.26.84.52,1.7.79,2.6Zm7.28-.54c-.31-.85-.62-1.71-.92-2.56l.64-.23c.3.86.61,1.71.91,2.56ZM307.62,246l-.65-.22q.43-1.27.81-2.58l.65.19C308.18,244.31,307.9,245.17,307.62,246ZM302.29,243l-.65-.19c.25-.86.49-1.73.71-2.61l.66.17C302.78,241.23,302.55,242.11,302.29,243Zm-190.07-1.43c-.28-.89-.56-1.75-.82-2.58l.64-.21c.27.83.54,1.69.83,2.59Zm7.06-.49c-.29-.86-.58-1.72-.86-2.58l.64-.21.86,2.57Zm189.87-.26-.66-.17c.22-.87.42-1.75.61-2.63l.66.14C309.58,239,309.37,239.92,309.15,240.8Zm-5.53-3.11-.66-.14c.18-.88.35-1.77.51-2.66l.66.12C304,235.91,303.81,236.8,303.62,237.69Zm-193-1.29-.85-2.58.65-.21.84,2.57Zm7-.51c-.28-.86-.55-1.73-.81-2.6l.65-.19c.26.86.53,1.72.8,2.59Zm192.69-.43-.67-.12.1-.59c.11-.69.21-1.38.3-2.08l.67.09q-.14,1.05-.3,2.1Zm-5.72-3.14-.68-.1c.13-.89.24-1.79.34-2.68l.67.07C304.79,230.51,304.68,231.42,304.56,232.32Zm-195.68-1.08c-.29-.9-.57-1.75-.83-2.58l.65-.2c.26.82.53,1.68.82,2.57Zm7.14-.56c-.25-.87-.49-1.75-.72-2.62l.65-.18q.35,1.31.72,2.61Zm195-.63-.68-.06c.09-.9.16-1.8.22-2.7l.68,0C311.16,228.24,311.08,229.15,311,230.05Zm-5.85-3.15-.67-.06c.07-.9.14-1.8.19-2.7l.67,0C305.29,225.09,305.23,226,305.15,226.9Zm-197.88-.84c-.26-.89-.5-1.76-.72-2.63l.66-.16c.22.86.45,1.72.71,2.6Zm7.35-.64c-.22-.88-.43-1.76-.64-2.65l.66-.15.63,2.64Zm196.74-.81-.68,0c0-.91.06-1.81.07-2.71h.68C311.41,222.8,311.39,223.7,311.36,224.61Zm-5.89-3.15-.68,0c0-.9.06-1.8.07-2.71h.68C305.53,219.64,305.5,220.55,305.47,221.46Zm-199.54-.68q-.27-1.29-.51-2.67l.67-.12c.16.92.32,1.79.5,2.65Zm7.48-.67c-.19-.89-.36-1.78-.53-2.67l.67-.12c.16.89.34,1.77.52,2.65Zm197.34-.94c0-.9,0-1.81,0-2.71l.67,0c0,.91,0,1.82.05,2.72ZM304.88,216c0-.9,0-1.8,0-2.71h.68c0,.91,0,1.81,0,2.72ZM105,215.41c-.11-.85-.22-1.75-.31-2.7l.67-.07c.1.94.2,1.83.31,2.69Zm7.4-.66c-.14-.89-.28-1.79-.4-2.69l.67-.09c.12.89.26,1.79.4,2.68Zm198.2-1,0-.39c0-.77-.07-1.55-.11-2.32l.67,0c0,.77.08,1.55.12,2.32v.39Zm-5.82-3.16-.09-2.71.67,0c0,.91.07,1.82.1,2.72ZM104.46,210c-.06-.87-.12-1.77-.18-2.71l.67,0c.06.94.12,1.84.19,2.69Zm7.23-.65c-.09-.91-.18-1.81-.25-2.72l.67,0c.08.9.16,1.8.26,2.69Zm198.63-1c-.06-.9-.13-1.8-.2-2.7l.67,0c.07.9.14,1.8.2,2.71Zm-5.74-3.16c0-.9-.09-1.8-.14-2.71l.68,0c.05.91.1,1.81.14,2.72Zm-200.45-.58c0-.87-.08-1.77-.11-2.72l.67,0q.06,1.41.12,2.7Zm7.13-.67c-.05-.91-.08-1.81-.1-2.72l.68,0c0,.91,0,1.81.1,2.71Zm198.61-1c-.09-.9-.18-1.8-.28-2.7l.67-.07c.1.9.2,1.8.29,2.71Zm-5.6-3.18q-.09-1.35-.21-2.7l.68-.06c.08.91.14,1.81.21,2.72Zm-200.35-.59,0-1.15c0-.48,0-1,.08-1.61l.68.06c-.05.57-.08,1.09-.08,1.55l0,1.13Zm7.9-.68h-.67c0-.91,0-1.82.07-2.72l.67,0C111.86,196.67,111.83,197.57,111.82,198.48Zm197.44-.94c-.11-.89-.23-1.79-.36-2.68l.67-.1c.13.9.25,1.8.37,2.7Zm-5.45-3.19c-.09-.9-.19-1.8-.3-2.69l.67-.09c.11.91.21,1.81.31,2.71ZM105,193.79l-.67-.11c.14-.84.3-1.74.49-2.69l.66.13Q105.2,192.53,105,193.79Zm7.06-.72-.67,0c.07-.91.15-1.81.25-2.71l.67.07C112.21,191.28,112.12,192.17,112.05,193.07Zm196.44-.89-.45-2.67.66-.12c.16.89.31,1.78.46,2.68ZM303.16,189c-.13-.89-.27-1.79-.42-2.67l.67-.12q.22,1.35.42,2.7ZM106,188.47l-.66-.15c.19-.86.4-1.75.62-2.65l.66.16C106.44,186.73,106.23,187.61,106,188.47Zm6.61-.77-.67-.1c.13-.9.29-1.8.45-2.69l.67.12Q112.85,186.36,112.65,187.7Zm194.89-.86c-.18-.88-.36-1.77-.55-2.65l.66-.14c.2.88.38,1.77.55,2.66Zm-5.29-3.2c-.18-.89-.36-1.77-.57-2.65l.66-.15c.21.88.4,1.77.57,2.66Zm-194.93-.44-.65-.17c.22-.87.46-1.75.7-2.63l.65.17C107.78,181.45,107.55,182.33,107.32,183.2Zm6.33-.81-.66-.15c.2-.89.42-1.77.66-2.65l.66.18C114.07,180.64,113.85,181.51,113.65,182.39Zm192.75-.85c-.21-.88-.42-1.75-.64-2.63l.65-.16c.23.87.44,1.76.65,2.64ZM301,178.36c-.23-.87-.48-1.73-.74-2.59l.65-.2c.26.86.51,1.74.75,2.62ZM108.75,178l-.65-.19q.38-1.32.75-2.61l.65.19C109.25,176.2,109,177.08,108.75,178Zm6.32-.78-.64-.21c.27-.87.57-1.73.88-2.58l.64.23C115.64,175.46,115.35,176.32,115.07,177.18Zm190-.89c-.23-.87-.48-1.74-.74-2.6l.65-.19c.26.87.51,1.74.75,2.62Zm-5.62-3.09c-.29-.84-.61-1.69-.94-2.53l.62-.25c.34.85.67,1.71,1,2.56Zm-189.16-.46-.65-.19.81-2.6.64.2C110.83,171,110.56,171.85,110.28,172.74Zm6.66-.63-.63-.26.17-.38c.3-.71.62-1.42,1-2.12l.61.3c-.32.69-.64,1.38-.94,2.09Zm186.59-1c-.28-.86-.56-1.72-.85-2.57l.64-.22c.29.86.58,1.72.85,2.58Zm-6.1-2.91c-.38-.83-.78-1.64-1.19-2.42l.61-.31c.4.78.81,1.61,1.2,2.45Zm-185.51-.63-.65-.21c.31-.93.6-1.8.87-2.58l.64.22C112.51,165.77,112.22,166.63,111.92,167.56Zm7.33-.33-.6-.32c.42-.8.86-1.6,1.32-2.39l.58.34C120.11,165.64,119.67,166.43,119.25,167.23ZM301.78,166c-.31-.84-.63-1.69-1-2.53l.63-.25q.49,1.27,1,2.55Zm-6.85-2.56c-.45-.76-.94-1.53-1.44-2.28l.57-.37c.5.75,1,1.53,1.46,2.31Zm-173-.88-.58-.35c.47-.77,1-1.54,1.46-2.3l.57.37C122.89,161,122.41,161.77,121.94,162.53Zm-8.23-.08-.63-.25a23.51,23.51,0,0,1,1.19-2.49l.6.33A21.37,21.37,0,0,0,113.71,162.45Zm186.09-1.52c-.34-.83-.7-1.66-1.07-2.49l.62-.27c.37.83.73,1.66,1.08,2.5Zm-7.88-2c-.49-.65-1-1.34-1.68-2.11l.52-.43c.65.77,1.21,1.47,1.71,2.13Zm-167-.93-.56-.39c.52-.75,1-1.49,1.57-2.22l.55.39C125.94,156.53,125.41,157.26,124.9,158Zm-8.66-.29-.57-.36c.47-.75,1-1.51,1.51-2.28l.56.38C117.21,156.22,116.71,157,116.24,157.72ZM297.6,156c-.38-.81-.78-1.63-1.18-2.43l.6-.31c.41.81.81,1.63,1.2,2.45Zm-9.12-1.21-.39-.44-1.39-1.62.52-.44,1.38,1.61.39.45ZM128.06,153.6l-.54-.4c.54-.73,1.09-1.45,1.64-2.17l.54.41Zm-8.75-.34-.55-.4c.54-.74,1.09-1.47,1.64-2.18l.54.41C120.39,151.8,119.84,152.53,119.31,153.26Zm175.86-2.12c-.38-.71-.76-1.41-1.16-2.11l-.14-.26.58-.34.15.27c.4.7.79,1.41,1.17,2.12ZM285,150.6c-.44-.56-.87-1.13-1.29-1.72l-.33-.48.55-.38.33.47c.41.57.84,1.14,1.27,1.69Zm-153.62-1.31-.54-.42,1.67-2.14.54.41C132.46,147.86,131.9,148.57,131.35,149.29Zm-8.74-.33-.53-.42c.6-.74,1.17-1.44,1.73-2.11l.52.43Zm169.89-2.53c-.47-.77-.95-1.53-1.43-2.29l.57-.37c.49.76,1,1.54,1.44,2.31Zm-10.63-.33c-.44-.74-.89-1.51-1.35-2.37l.59-.33c.46.85.9,1.62,1.34,2.35ZM134.69,145l-.54-.42,1.68-2.13.53.42Zm154.88-3.12c-.5-.75-1-1.49-1.55-2.22l.55-.4c.53.74,1.05,1.48,1.57,2.23Zm-10.32-.56-1-1.88-.28-.55.61-.3.28.55,1,1.87Zm-141.19-.57-.53-.43,1.71-2.11.53.43C139.19,139.34,138.62,140,138.06,140.75Zm-7.61-2.12-.56-.39c.52-.74,1.07-1.47,1.64-2.19l.53.42C131.5,137.18,131,137.9,130.45,138.63Zm156-1.14q-.82-1.08-1.68-2.13l.53-.43c.57.71,1.13,1.42,1.68,2.14Zm-144.91-.93-.51-.44c.58-.69,1.18-1.38,1.77-2.06l.51.45Zm135.27-.08c-.42-.8-.84-1.59-1.29-2.38l.59-.33c.45.79.88,1.59,1.3,2.4Zm-143-2.09-.51-.45c.6-.69,1.22-1.36,1.85-2l.48.47C135,133,134.37,133.71,133.78,134.39ZM283,133.28c-.59-.69-1.18-1.36-1.79-2l.5-.46c.61.68,1.21,1.36,1.81,2.05Zm-137.92-.79-.5-.46c.61-.67,1.23-1.33,1.86-2l.49.47C146.31,131.16,145.69,131.82,145.08,132.49Zm129-.7c-.23-.37-.47-.73-.71-1.09s-.53-.77-.8-1.14l.55-.4c.28.38.55.77.81,1.16s.49.73.72,1.1ZM137.52,130.5l-.46-.49c.65-.62,1.33-1.23,2-1.83l.44.51C138.84,129.28,138.16,129.89,137.52,130.5Zm141.85-1.23c-.63-.65-1.26-1.29-1.91-1.92l.48-.49c.65.64,1.29,1.28,1.91,1.94Zm-130.54-.69-.48-.48c.65-.64,1.31-1.27,2-1.88l.47.49C150.12,127.33,149.47,128,148.83,128.58Zm122.1-1.14c-.57-.68-1.17-1.36-1.79-2l.49-.47c.63.66,1.24,1.35,1.82,2ZM141.62,127l-.42-.53c.7-.56,1.44-1.11,2.18-1.64l.4.55C143,125.89,142.31,126.43,141.62,127Zm133.88-1.5c-.66-.61-1.33-1.22-2-1.81l.45-.51,2,1.82Zm-122.7-.57-.44-.52c.68-.59,1.38-1.17,2.09-1.74l.43.53C154.17,123.74,153.48,124.32,152.8,124.91ZM146,123.83l-.38-.57c.78-.5,1.55-1,2.32-1.45l.35.58C147.54,122.85,146.77,123.33,146,123.83Zm121.21-.29c-.66-.6-1.34-1.2-2-1.77l.43-.52c.71.57,1.4,1.18,2.07,1.79Zm4.2-1.61c-.69-.57-1.4-1.13-2.11-1.68l.41-.54c.72.55,1.43,1.12,2.13,1.69Zm-114.4-.4-.4-.54c.74-.55,1.5-1.08,2.23-1.57l.38.56C158.5,120.47,157.76,121,157,121.53Zm-6.38-.49-.33-.59c.81-.45,1.62-.88,2.41-1.29l.3.61C152.24,120.17,151.44,120.59,150.64,121Zm112.41-.92c-.72-.52-1.47-1-2.22-1.52l.36-.57c.77.49,1.53,1,2.26,1.54Zm4.08-1.48c-.73-.53-1.47-1-2.22-1.55l.38-.56c.75.51,1.5,1,2.24,1.56Zm-111.68-.07-.29-.61,2.48-1.14.27.62Zm6.06,0-.35-.58c.38-.23.77-.46,1.17-.68l1.2-.67.32.6c-.4.21-.79.43-1.19.66Zm97-1.34c-.76-.45-1.56-.88-2.37-1.29l.31-.61c.82.42,1.62.86,2.4,1.31Zm-98.12-.82-.26-.62.13-.06c.77-.32,1.6-.62,2.45-.89l.2.65c-.83.26-1.63.55-2.39.87Zm5.86-.39-.29-.61c.82-.39,1.65-.77,2.49-1.13l.26.63C167.9,115.22,167.07,115.59,166.26,116Zm96.38-.35c-.76-.48-1.54-.94-2.32-1.39l.34-.59c.79.45,1.57.92,2.34,1.4Zm-97.12-.88-.15-.66c.83-.2,1.71-.37,2.68-.54l.11.66C167.21,114.38,166.34,114.56,165.52,114.75Zm88.2,0c-.81-.36-1.65-.72-2.48-1.06l.25-.63c.85.34,1.69.7,2.51,1.08Zm-82.49-.87,0-.1-.35,0-.1-.67.71-.1,2.09-.76.22.64-.29.1.05.44-1.9.24Zm5-.73-.08-.68,2.69-.33.08.67Zm81.74-.19c-.8-.43-1.6-.83-2.41-1.23l.29-.61c.82.4,1.63.81,2.44,1.24Zm-9.25-.22c-.85-.3-1.71-.58-2.57-.84l.2-.65c.87.27,1.74.55,2.6.85Zm-67.1-.27-.08-.67,2.69-.33.09.67Zm-5.28-.4-.21-.65c.86-.28,1.73-.55,2.6-.81l.19.65Q177.62,111.62,176.33,112Zm10.67-.27-.08-.67,2.69-.33.09.67Zm56.54-.64c-.87-.22-1.75-.44-2.63-.63l.15-.66c.89.19,1.77.41,2.65.64Zm-51.15,0-.08-.67,2.69-.33.09.67Zm60.71-.54c-.83-.36-1.66-.71-2.5-1l.26-.63c.84.34,1.68.69,2.51,1.06Zm-71.59-.1-.18-.65.83-.24,1.79-.49.18.65-1.79.5Zm16.27,0-.08-.67,2.7-.32.08.67Zm40.48-.47-1.85-.31-.82-.12.1-.67.82.12,1.87.31Zm-35.09-.15-.07-.67,2.7-.28.07.67Zm5.4-.53-.06-.67c.91-.08,1.81-.16,2.72-.22l.05.67Zm24.34-.08c-.9-.1-1.79-.19-2.69-.26l.05-.67c.91.07,1.81.15,2.71.25ZM186.74,109l-.17-.66,2.64-.66.16.65ZM214,108.9l0-.68,2.72-.14,0,.68C215.78,108.8,214.88,108.84,214,108.9Zm13.54-.12c-.91,0-1.81-.08-2.71-.1l0-.68c.91,0,1.81.06,2.72.1Zm-8.12-.11,0-.67c.89,0,1.82,0,2.67,0l0,.68Zm28.68-.12c-.85-.3-1.71-.59-2.57-.86l.21-.64c.87.27,1.73.56,2.58.86ZM192,107.74l-.15-.66c.88-.21,1.77-.4,2.65-.59l.15.66Zm50.91-.81c-.87-.24-1.74-.46-2.62-.67l.15-.66c.89.21,1.77.43,2.65.67Zm-45.61-.32-.13-.67,2.68-.5.12.67C199.09,106.27,198.2,106.43,197.31,106.61Zm40.34-.92c-.88-.18-1.77-.33-2.66-.48l.11-.67c.9.15,1.79.31,2.69.49Zm-35,0-.11-.67c.9-.14,1.8-.28,2.7-.4l.09.67C204.44,105.38,203.54,105.51,202.65,105.66Zm5.37-.74-.08-.68,2.71-.29.06.68C209.81,104.71,208.91,104.81,208,104.92Zm24.3-.09c-.9-.12-1.79-.22-2.69-.3l.06-.68c.91.09,1.81.19,2.71.3Zm-18.91-.43,0-.67c.91-.07,1.81-.12,2.72-.17l0,.68C215.21,104.28,214.31,104.34,213.41,104.4Zm13.53-.09c-.91-.06-1.81-.1-2.71-.13l0-.68c.91,0,1.82.08,2.73.14Zm-8.12-.16,0-.68,2.16,0h.57v.68H221C220.25,104.13,219.53,104.13,218.82,104.15Z"/><path class="cls-7" d="M126.28,144.59l-.5-.45.9-1,.5.45Z"/><path class="cls-8" d="M154.29,146.81a2.19,2.19,0,0,1,.15,1.42.8.8,0,0,1-.16.28.46.46,0,0,1-.36.1.33.33,0,0,1-.3-.15.25.25,0,0,1,0-.11,2.64,2.64,0,0,1,.36-1.42.64.64,0,0,1,.22-.11Z"/><path class="cls-8" d="M153.09,190.75a2.12,2.12,0,0,1,.14,1.42.7.7,0,0,1-.15.28.47.47,0,0,1-.36.1c-.17,0-.26-.06-.3-.14a.28.28,0,0,1,0-.12,2.5,2.5,0,0,1,.36-1.41s.13-.08.21-.12Z"/><path class="cls-8" d="M166.5,205.19a2.09,2.09,0,0,1,.14,1.41.62.62,0,0,1-.15.29.46.46,0,0,1-.36.09c-.16,0-.26-.06-.3-.14a.28.28,0,0,1,0-.12,2.54,2.54,0,0,1,.36-1.41c0-.05.14-.08.21-.11Z"/><path class="cls-8" d="M140.81,210.1a2.12,2.12,0,0,1,.14,1.42.77.77,0,0,1-.15.28.46.46,0,0,1-.36.1q-.24,0-.3-.15a.21.21,0,0,1,0-.11,2.5,2.5,0,0,1,.36-1.41s.14-.08.21-.12Z"/><path class="cls-8" d="M266.22,236.44a2.19,2.19,0,0,1,.15,1.42.66.66,0,0,1-.16.28.46.46,0,0,1-.36.1.35.35,0,0,1-.3-.14.28.28,0,0,1,0-.12,2.5,2.5,0,0,1,.36-1.41s.14-.08.22-.12Z"/><path class="cls-8" d="M273.66,201.84a2.17,2.17,0,0,1,.15,1.41.76.76,0,0,1-.16.29.46.46,0,0,1-.36.09.32.32,0,0,1-.3-.14.28.28,0,0,1,0-.12,2.54,2.54,0,0,1,.36-1.41.64.64,0,0,1,.22-.11Z"/><path class="cls-8" d="M276.29,179.26a2.12,2.12,0,0,1,.14,1.42.73.73,0,0,1-.15.29.47.47,0,0,1-.36.09c-.17,0-.26-.06-.3-.14a.28.28,0,0,1,0-.12,2.57,2.57,0,0,1,.35-1.41.57.57,0,0,1,.22-.11Z"/><path class="cls-8" d="M170.58,233.91a2.12,2.12,0,0,1,.14,1.42.64.64,0,0,1-.15.28.47.47,0,0,1-.36.1c-.17,0-.26-.06-.3-.14a.28.28,0,0,1,0-.12,2.57,2.57,0,0,1,.35-1.41.75.75,0,0,1,.22-.12Z"/><path class="cls-8" d="M155,221.19a2.09,2.09,0,0,1,.15,1.41.89.89,0,0,1-.15.29.5.5,0,0,1-.37.09c-.16,0-.25-.06-.29-.14s-.05-.08,0-.12a2.53,2.53,0,0,1,.35-1.41.57.57,0,0,1,.22-.11Z"/><path class="cls-8" d="M233.48,223.79a2.12,2.12,0,0,1,.14,1.42.77.77,0,0,1-.15.28.5.5,0,0,1-.37.1c-.16,0-.25-.06-.29-.15s-.05-.07,0-.11a2.49,2.49,0,0,1,.35-1.41.75.75,0,0,1,.22-.12Z"/><path class="cls-8" d="M253.82,202a2.18,2.18,0,0,1,.14,1.42.64.64,0,0,1-.15.28.5.5,0,0,1-.37.1c-.16,0-.25-.06-.29-.14s-.05-.08,0-.12a2.49,2.49,0,0,1,.35-1.41.75.75,0,0,1,.22-.12Z"/><path class="cls-8" d="M180.64,219a2.12,2.12,0,0,1,.14,1.42.64.64,0,0,1-.15.28.46.46,0,0,1-.36.1c-.16,0-.26-.06-.3-.14a.28.28,0,0,1,0-.12,2.5,2.5,0,0,1,.36-1.41c0-.05.14-.08.21-.12Z"/><path class="cls-8" d="M190.47,235.07a2.12,2.12,0,0,1,.14,1.42.77.77,0,0,1-.15.28.52.52,0,0,1-.36.1.32.32,0,0,1-.3-.15.28.28,0,0,1,0-.12,2.54,2.54,0,0,1,.36-1.41.58.58,0,0,1,.21-.11Z"/><path class="cls-8" d="M240.92,241.65a2.12,2.12,0,0,1,.14,1.42.7.7,0,0,1-.15.28.47.47,0,0,1-.36.1c-.17,0-.26-.06-.3-.14a.28.28,0,0,1,0-.12,2.5,2.5,0,0,1,.36-1.41c0-.05.13-.08.21-.12Z"/><path class="cls-8" d="M258.28,221.38a2.19,2.19,0,0,1,.15,1.42.66.66,0,0,1-.16.28.46.46,0,0,1-.36.1.35.35,0,0,1-.3-.14.28.28,0,0,1,0-.12,2.5,2.5,0,0,1,.36-1.41s.14-.08.22-.12Z"/><path class="cls-8" d="M154.22,242.77a2.17,2.17,0,0,1,.15,1.41.76.76,0,0,1-.16.29.46.46,0,0,1-.36.09.32.32,0,0,1-.3-.14.28.28,0,0,1,0-.12,2.54,2.54,0,0,1,.36-1.41.64.64,0,0,1,.22-.11Z"/><path class="cls-8" d="M211.7,134c0,.18-.11.44-.19.7a.23.23,0,0,1-.24.09.44.44,0,0,1-.25-.09.35.35,0,0,1-.15-.22,1.8,1.8,0,0,1,.35-1.23.27.27,0,0,1,.16-.08c.13,0,.15,0,.19.1C211.74,133.46,211.69,133.68,211.7,134Z"/><path class="cls-8" d="M179,145.84c-.08.25,0,.52-.18.77a.35.35,0,0,1-.23.1.41.41,0,0,1-.23-.1.46.46,0,0,1-.08-.24,2.87,2.87,0,0,1,.21-1.25c0-.05.12-.09.19-.13s.17.08.21.13A.92.92,0,0,1,179,145.84Z"/><path class="cls-8" d="M195.54,139.22c-.09.26,0,.53-.19.78a.41.41,0,0,1-.22.1.34.34,0,0,1-.23-.11.35.35,0,0,1-.09-.23,3.07,3.07,0,0,1,.21-1.26,1,1,0,0,1,.19-.12.69.69,0,0,1,.21.13A.91.91,0,0,1,195.54,139.22Z"/><path class="cls-8" d="M199.82,118.24a2.12,2.12,0,0,1,.14,1.42.55.55,0,0,1-.15.28.46.46,0,0,1-.36.1c-.16,0-.26-.06-.3-.14a.28.28,0,0,1,0-.12,2.5,2.5,0,0,1,.36-1.41c0-.05.14-.08.21-.11S199.75,118.25,199.82,118.24Z"/><path class="cls-8" d="M182.29,121.86a2.19,2.19,0,0,1,.15,1.42.66.66,0,0,1-.16.28.46.46,0,0,1-.36.1.35.35,0,0,1-.3-.14.28.28,0,0,1,0-.12,2.5,2.5,0,0,1,.36-1.41s.14-.08.22-.11S182.23,121.87,182.29,121.86Z"/><path class="cls-8" d="M247.32,143.28a.52.52,0,0,1,.3.45,2,2,0,0,1-.18,1.2.53.53,0,0,1-.26.08A.3.3,0,0,1,247,145c-.13-.09-.22-.21-.19-.33.09-.4.2-.8.32-1.2C247.14,143.37,247.25,143.33,247.32,143.28Z"/><path class="cls-8" d="M234.05,127.71a.49.49,0,0,1,.29.45,1.94,1.94,0,0,1-.18,1.2s-.16.07-.26.08a.27.27,0,0,1-.17-.06.35.35,0,0,1-.2-.33c.1-.4.2-.8.32-1.2C233.87,127.8,234,127.76,234.05,127.71Z"/><path class="cls-8" d="M219.65,120c.23.06.29.14.29.23a.62.62,0,0,1-.18.62,1,1,0,0,1-.26,0l-.17,0c-.14,0-.23-.11-.2-.18a6,6,0,0,1,.32-.61S219.58,120,219.65,120Z"/><path class="cls-8" d="M166.07,130.38a.51.51,0,0,1,.3.44,2,2,0,0,1-.18,1.2.53.53,0,0,1-.26.08.37.37,0,0,1-.18,0c-.13-.1-.22-.22-.19-.34.09-.4.2-.8.32-1.2C165.89,130.46,166,130.42,166.07,130.38Z"/><path class="cls-8" d="M249.29,127.7c-.08.26,0,.52-.18.77a.3.3,0,0,1-.22.1.41.41,0,0,1-.24-.1.43.43,0,0,1-.08-.24,2.87,2.87,0,0,1,.21-1.25s.12-.09.19-.13.17.08.21.14A.86.86,0,0,1,249.29,127.7Z"/><ellipse class="cls-9" cx="208.98" cy="227.33" rx="92.01" ry="92.22"/><path class="cls-7" d="M257.39,152.08h0a.28.28,0,0,1,.31.07,1.89,1.89,0,0,0,.39.3,6.26,6.26,0,0,1,1.49,1.52,11.13,11.13,0,0,1,1.35,2.12.78.78,0,0,1,.09.28.21.21,0,0,1-.12.18l0,0a.2.2,0,0,1-.17,0,4.22,4.22,0,0,1-.48-.85,10.1,10.1,0,0,0-.91-1.49,8.09,8.09,0,0,0-1.16-1.19l-.09-.07-.14-.1-.24-.15-.06-.05a.78.78,0,0,0-.45-.23.2.2,0,0,1,0-.09A.39.39,0,0,1,257.39,152.08Z"/><path class="cls-7" d="M253.92,152.32a3,3,0,0,0-.95.1h0a.42.42,0,0,1-.5,0c-.15-.1-.15-.27-.2-.42s.06-.07.1-.1a.24.24,0,0,1,.23,0l.43.23,1.38-.31a1.48,1.48,0,0,1,.41-.12.13.13,0,0,0-.1-.14l-.24,0a3.93,3.93,0,0,1-1-.16,2,2,0,0,1-.31-.12l-.25-.14c1.63.38,2.44.16,2.38.09h0a8.19,8.19,0,0,0-1.33-.57,1.13,1.13,0,0,1-.63-.42,1.07,1.07,0,0,0-.25-.22,1.75,1.75,0,0,1-.33-.06.35.35,0,0,1-.18-.6.32.32,0,0,1,.1-.1c.08,0,.15-.06.17.06a.09.09,0,0,0,.15.05c.15-.11.21,0,.25.09s0,.24.06.37c.3.45,1.87,1.09,2.18.89-.09-.13-.42-.92-.56-1.16a1.93,1.93,0,0,0-.53-.57c-.14,0-.47.22-.5,0s-.12-.23,0-.33.24,0,.34.08.19.06.21-.09a1.87,1.87,0,0,0,0-.32s0-.09,0-.11a.12.12,0,0,1,.17,0,1.35,1.35,0,0,1,0,.55c.2.36,1.43,2.57,1.44,1.62,0-.16,0-.31,0-.46l-.19-1s0-.06.07,0a4.52,4.52,0,0,1,.27,1h0a8.66,8.66,0,0,1,.11,1,.63.63,0,0,0,.18.22s.16-.32.2-.44c.14-.4.31-1.58.4-1.77-.13-.15-.29-.29-.27-.51.06,0,.1,0,.14,0s.12.1.21,0,.11-.1.16-.05a.35.35,0,0,1,.06.18.33.33,0,0,1-.16.28,10.91,10.91,0,0,1-.53,2.26l-.33.59a3.45,3.45,0,0,1-.68.65,5.05,5.05,0,0,1-.69.42h0l-1,.61a4,4,0,0,1-.36.17l-.13,0a1,1,0,0,0-.17,0s-.1,0-.11,0,0-.08.06-.1l.36-.16a1.63,1.63,0,0,0,.23-.11l1.09-.68a2.23,2.23,0,0,0,.36-.28s.06-.09,0-.13a.32.32,0,0,0-.12-.08,3.39,3.39,0,0,0-.73.16A4.88,4.88,0,0,1,253.92,152.32Z"/><path class="cls-7" d="M252.67,151c0,.19-.09.32-.18.47a.14.14,0,0,1-.24,0,.89.89,0,0,1-.18-.41.75.75,0,0,1,.1-.2.34.34,0,0,1,.34-.12.23.23,0,0,1,.16.25Z"/><path class="cls-7" d="M256,148.44h0c-.09.22-.11.22-.28.1l-.07-.06-.13,0c-.19-.13-.19-.25,0-.35s.42-.07.49.22A.71.71,0,0,1,256,148.44Z"/><path class="cls-7" d="M252.89,153.54a.23.23,0,0,1,.12-.06.27.27,0,0,1,.13,0,.11.11,0,0,1,0,.16s-.08,0-.12.05l-.09,0S252.85,153.61,252.89,153.54Z"/><path class="cls-7" d="M256.14,152.49c.12-.11.21-.25.37-.3h0c.11-.09.28-.14.22-.33s0-.08.06-.1.17-.14.19-.25.06-.31.1-.46.06-.06.1-.09.05.08.05.12l-.18.74a.28.28,0,0,0,.14.16l-.1.16H257a.22.22,0,0,1-.19.1h0l-.31.18-.29.18a.13.13,0,0,1-.09,0A.1.1,0,0,1,256.14,152.49Z"/><path class="cls-7" d="M254.75,152.19l.12,0"/><path class="cls-7" d="M231.82,207.37h0a.23.23,0,0,0-.09.26,1.59,1.59,0,0,1,0,.44,5.93,5.93,0,0,0,.45,1.84,10,10,0,0,0,1,2,.61.61,0,0,0,.17.2.19.19,0,0,0,.19,0l0,0a.12.12,0,0,0,.06-.13,3.54,3.54,0,0,0-.41-.77,7.87,7.87,0,0,1-.7-1.39,7.29,7.29,0,0,1-.36-1.43s0-.07,0-.11,0-.1,0-.15v-.32a.68.68,0,0,1,0-.45l-.08,0A.32.32,0,0,0,231.82,207.37Z"/><path class="cls-7" d="M233.64,204.85a2.8,2.8,0,0,1,.52-.68h0a.36.36,0,0,0,.22-.39c0-.15-.13-.24-.23-.34s-.08,0-.11,0a.17.17,0,0,0-.11.18c0,.14,0,.28,0,.42L233,205a1.16,1.16,0,0,0-.29.25s-.08-.08-.06-.14a.72.72,0,0,1,.09-.2,4.18,4.18,0,0,0,.32-.8c0-.1,0-.2.06-.29s0-.18,0-.26c-.48,1.41-1,1.92-1.05,1.84h0a6.83,6.83,0,0,1,.19-1.27,1,1,0,0,0,0-.68,1.25,1.25,0,0,1-.05-.29,2.36,2.36,0,0,0,.12-.28.32.32,0,0,0-.37-.42l-.13,0c-.08,0-.12.09,0,.16a.08.08,0,0,1,0,.14c-.15.06-.13.14-.05.23l.25.22a2.79,2.79,0,0,1-.35,2.07c-.05-.13-.5-.76-.61-1a1.76,1.76,0,0,1-.18-.67c.06-.11.39-.25.25-.37s-.12-.2-.26-.14-.11.18-.1.29-.05.18-.17.12a2.06,2.06,0,0,1-.26-.12s-.06-.05-.1,0-.08.11,0,.15a1.06,1.06,0,0,0,.43.23c.17.32,1.27,2.29.55,1.85l-.34-.24-.65-.6s-.06,0-.06,0a3.3,3.3,0,0,0,.62.66h0a5.46,5.46,0,0,0,.71.56.61.61,0,0,1,.08.25,4.17,4.17,0,0,1-.43-.06c-.37-.08-1.34-.51-1.53-.53s-.08-.35-.26-.44-.05.07,0,.11,0,.14-.07.18-.13,0-.12.1.07.09.11.12a.3.3,0,0,0,.29,0,10.06,10.06,0,0,0,2,.66l.6,0a2.92,2.92,0,0,0,.81-.2,5.58,5.58,0,0,0,.64-.33h0l.92-.44c.1-.05.19-.13.29-.19l.08-.08a.64.64,0,0,1,.1-.13s.06-.07,0-.09-.07,0-.11,0l-.29.19-.18.12-1,.51a2.39,2.39,0,0,1-.39.14s-.09,0-.11,0a.17.17,0,0,1,0-.12,2.69,2.69,0,0,1,.46-.48A3.9,3.9,0,0,0,233.64,204.85Z"/><path class="cls-7" d="M233.24,203.29c.12.12.29.08.44.09a.13.13,0,0,0,.12-.18.83.83,0,0,0-.22-.33.71.71,0,0,0-.2,0,.29.29,0,0,0-.25.2.2.2,0,0,0,.11.24Z"/><path class="cls-7" d="M229.73,204.59h0c.21,0,.22,0,.2-.17a.25.25,0,0,0,0-.08.53.53,0,0,0,0-.12c0-.2-.11-.26-.27-.16s-.25.29-.06.47C229.64,204.56,229.69,204.57,229.73,204.59Z"/><path class="cls-7" d="M235,204.64s-.07,0-.1.07a.21.21,0,0,0,0,.11.08.08,0,0,0,.1.09s.07,0,.1-.07a.19.19,0,0,0,0-.08S235.12,204.64,235,204.64Z"/><path class="cls-7" d="M232.72,206.61a1,1,0,0,0-.4.14h0c-.12,0-.24.15-.35,0s-.07,0-.11,0a.26.26,0,0,1-.28,0l-.39-.15s-.08,0-.11,0,0,.08.07.09l.63.21a.22.22,0,0,1,.06.19H232a.33.33,0,0,0,0-.06.19.19,0,0,0,.16-.1h0l.29-.15.27-.14a.07.07,0,0,0,0-.07S232.74,206.61,232.72,206.61Z"/><path class="cls-7" d="M233.15,205.42l-.09.07"/><path class="cls-7" d="M163.76,156.28h0a.27.27,0,0,1,.08-.31,2.21,2.21,0,0,0,.31-.41,6.57,6.57,0,0,1,1.56-1.55,12.92,12.92,0,0,1,2.2-1.4.85.85,0,0,1,.3-.09.23.23,0,0,1,.18.13.08.08,0,0,1,0,0,.15.15,0,0,1,0,.17,3.78,3.78,0,0,1-.87.5,9.5,9.5,0,0,0-1.54.95,8.14,8.14,0,0,0-1.23,1.2.61.61,0,0,0-.07.1.76.76,0,0,0-.11.14l-.15.25,0,.06a.88.88,0,0,0-.25.46H164A.41.41,0,0,1,163.76,156.28Z"/><path class="cls-7" d="M164,159.88a3.34,3.34,0,0,0,.1,1h0a.42.42,0,0,1,0,.52c-.1.15-.28.15-.43.2s-.08-.06-.1-.1a.23.23,0,0,1,0-.24c.07-.15.15-.3.23-.44l-.32-1.43a1.26,1.26,0,0,1-.13-.43c-.07,0-.13,0-.14.11a1,1,0,0,0,0,.24,4.11,4.11,0,0,1-.17,1,1.85,1.85,0,0,1-.12.33l-.15.26c.39-1.69.16-2.52.09-2.46h0a8.43,8.43,0,0,0-.59,1.38,1.09,1.09,0,0,1-.43.64,1.78,1.78,0,0,0-.22.26,2,2,0,0,1-.07.35.37.37,0,0,1-.62.19.35.35,0,0,1-.1-.11c-.06-.08-.07-.15.06-.18a.09.09,0,0,0,.05-.15c-.11-.15,0-.22.09-.26l.38-.07c.47-.31,1.13-1.93.92-2.25-.13.09-.95.44-1.2.58a2,2,0,0,0-.58.55c0,.15.23.48,0,.52s-.25.12-.35,0,0-.25.08-.35.07-.2-.09-.22a1.86,1.86,0,0,0-.33,0c-.05,0-.09,0-.12,0a.12.12,0,0,1,.05-.17,1.29,1.29,0,0,1,.57,0c.37-.21,2.66-1.49,1.67-1.49l-.47,0-1,.2s-.06,0,0-.07a5.2,5.2,0,0,1,1-.28h0a9.17,9.17,0,0,1,1-.11.69.69,0,0,0,.23-.19s-.33-.17-.45-.21c-.43-.14-1.64-.31-1.84-.41-.15.14-.3.3-.53.28,0-.06,0-.1,0-.14s.1-.13,0-.22-.11-.11,0-.17a.27.27,0,0,1,.18-.05.34.34,0,0,1,.3.16,11.09,11.09,0,0,1,2.34.54l.61.34a3.77,3.77,0,0,1,.68.71,6.67,6.67,0,0,1,.44.71h0l.63,1c.07.12.11.25.17.37l0,.14a.47.47,0,0,0,0,.17s0,.11,0,.12-.08,0-.1-.06-.17-.38-.17-.38a1.2,1.2,0,0,0-.11-.23l-.7-1.13a3.49,3.49,0,0,0-.3-.37s-.09-.07-.13,0a.18.18,0,0,0-.08.12,3.6,3.6,0,0,0,.16.76A4.52,4.52,0,0,1,164,159.88Z"/><path class="cls-7" d="M162.67,161.18c.19,0,.34.1.49.18a.15.15,0,0,1,0,.25.85.85,0,0,1-.42.19.81.81,0,0,1-.21-.1.32.32,0,0,1-.12-.35.22.22,0,0,1,.25-.17Z"/><path class="cls-7" d="M160,157.75h0c.23.09.23.11.11.29l-.07.07a.34.34,0,0,1-.05.14c-.13.19-.26.19-.36,0s-.08-.44.23-.5A.34.34,0,0,1,160,157.75Z"/><path class="cls-7" d="M165.28,160.94a.2.2,0,0,1-.06-.12.19.19,0,0,1,0-.13.12.12,0,0,1,.17,0,.16.16,0,0,1,0,.12s0,.06,0,.09S165.36,161,165.28,160.94Z"/><path class="cls-7" d="M164.19,157.58c-.11-.12-.26-.21-.31-.38h0c-.1-.11-.15-.29-.35-.22s-.08,0-.1-.07-.15-.18-.26-.2l-.48-.1s-.06-.06-.09-.1.09-.06.13,0l.76.18a.28.28,0,0,0,.17-.15l.16.11a.25.25,0,0,1,0,.08.25.25,0,0,1,.11.19h0l.19.32c.07.1.13.2.19.3s0,.08,0,.09A.08.08,0,0,1,164.19,157.58Z"/><path class="cls-7" d="M163.88,159l0-.13"/><path class="cls-7" d="M254.14,185.46h0a.25.25,0,0,1-.31-.05,2.2,2.2,0,0,0-.43-.29,6.72,6.72,0,0,1-1.64-1.47,12,12,0,0,1-1.52-2.12,1,1,0,0,1-.11-.28.24.24,0,0,1,.12-.2l0,0a.15.15,0,0,1,.17,0,4.27,4.27,0,0,1,.55.84,9.08,9.08,0,0,0,1,1.48,8.57,8.57,0,0,0,1.28,1.17l.1.06a.56.56,0,0,0,.15.1l.25.13.06.05a.9.9,0,0,0,.48.22s0,.07,0,.09A.37.37,0,0,1,254.14,185.46Z"/><path class="cls-7" d="M257.72,185a3.3,3.3,0,0,0,1-.16h0a.44.44,0,0,1,.52,0c.15.09.17.27.23.42s-.06.08-.1.11a.23.23,0,0,1-.24,0c-.15-.06-.3-.14-.45-.21l-1.41.41a1.5,1.5,0,0,1-.42.15c0,.07,0,.13.11.14l.25,0a4.2,4.2,0,0,1,1,.11,1.42,1.42,0,0,1,.33.11c.09,0,.18.09.27.13-1.71-.29-2.53,0-2.46.05h0a8.45,8.45,0,0,0,1.41.51,1.13,1.13,0,0,1,.67.39,1.39,1.39,0,0,0,.27.21,2,2,0,0,1,.35,0,.37.37,0,0,1,.23.61.63.63,0,0,1-.11.12c-.08.05-.14.07-.18,0a.09.09,0,0,0-.16-.05c-.14.12-.21.06-.25-.07s-.06-.26-.09-.38c-.34-.45-2-1-2.31-.79.1.12.49.93.65,1.16a2.1,2.1,0,0,0,.59.56c.14,0,.46-.26.51,0s.14.23,0,.34-.25,0-.35-.06-.21-.05-.22.11,0,.22,0,.33,0,.09,0,.12a.13.13,0,0,1-.18,0,1.43,1.43,0,0,1,0-.57c-.23-.35-1.64-2.57-1.58-1.58,0,.15,0,.31.05.47l.26,1s0,.06-.07,0a5.44,5.44,0,0,1-.34-1h0a7.27,7.27,0,0,1-.17-1,.73.73,0,0,0-.21-.22s-.14.34-.18.47c-.12.43-.22,1.65-.3,1.86a.71.71,0,0,1,.31.51.1.1,0,0,1-.14,0c-.07-.05-.14-.09-.22,0s-.11.11-.17.06a.35.35,0,0,1-.06-.18.33.33,0,0,1,.14-.3,11.2,11.2,0,0,1,.41-2.37l.3-.63a3.57,3.57,0,0,1,.67-.72,8,8,0,0,1,.68-.48h0l1-.69c.11-.07.24-.13.36-.19l.13,0a1.1,1.1,0,0,0,.18,0,.27.27,0,0,1,.12,0c0,.05,0,.09-.06.11s-.37.19-.37.19a2.39,2.39,0,0,0-.22.12l-1.09.77a3,3,0,0,0-.36.32s-.06.09,0,.13.08.07.13.07a3,3,0,0,0,.74-.2A4.77,4.77,0,0,1,257.72,185Z"/><path class="cls-7" d="M259.09,186.27c0-.19.08-.34.16-.5a.15.15,0,0,1,.25,0,.89.89,0,0,1,.21.41.78.78,0,0,1-.09.21.31.31,0,0,1-.34.14.23.23,0,0,1-.19-.24Z"/><path class="cls-7" d="M255.83,189.15h0c.08-.24.09-.25.28-.13l.07.06.14,0c.2.12.21.25,0,.37s-.42.1-.51-.2A.32.32,0,0,1,255.83,189.15Z"/><path class="cls-7" d="M258.71,183.68a.17.17,0,0,1-.12.06.23.23,0,0,1-.14,0,.11.11,0,0,1,0-.16.23.23,0,0,1,.13-.06l.09,0S258.75,183.6,258.71,183.68Z"/><path class="cls-7" d="M255.41,185c-.11.12-.19.27-.36.34h0c-.1.1-.28.16-.2.35s0,.09-.06.11-.17.15-.19.27,0,.32-.07.48-.06.07-.09.1-.07-.09-.06-.12c0-.26.09-.52.13-.77a.26.26,0,0,0-.15-.17l.09-.16h.08a.23.23,0,0,1,.19-.11h0l.31-.21.29-.21s.08,0,.09,0A.08.08,0,0,1,255.41,185Z"/><path class="cls-7" d="M256.87,185.19l-.12.05"/><path class="cls-7" d="M183.6,204.3h0a.27.27,0,0,1-.32-.06,2.27,2.27,0,0,0-.43-.28,7,7,0,0,1-1.64-1.48,11.64,11.64,0,0,1-1.52-2.11,1.1,1.1,0,0,1-.11-.29.23.23,0,0,1,.12-.19l0,0a.15.15,0,0,1,.17,0,4.71,4.71,0,0,1,.55.85,9.36,9.36,0,0,0,1,1.48,8.47,8.47,0,0,0,1.27,1.16.33.33,0,0,0,.1.06.56.56,0,0,0,.15.1l.25.14.07.05a.82.82,0,0,0,.47.21.16.16,0,0,1,0,.1A.4.4,0,0,1,183.6,204.3Z"/><path class="cls-7" d="M187.17,203.83a3.24,3.24,0,0,0,1-.15h0a.42.42,0,0,1,.52,0c.15.09.17.26.23.41s-.06.08-.1.11a.23.23,0,0,1-.24,0l-.45-.21-1.41.4a1.24,1.24,0,0,1-.42.15c0,.07,0,.13.11.14a1.1,1.1,0,0,0,.25,0,5.47,5.47,0,0,1,1,.11l.33.11.27.13c-1.71-.29-2.53,0-2.46.06h0a8.42,8.42,0,0,0,1.41.5,1.14,1.14,0,0,1,.67.4,1.18,1.18,0,0,0,.28.2c.11,0,.23,0,.35.05a.37.37,0,0,1,.22.61.38.38,0,0,1-.11.11c-.07,0-.14.07-.17-.05a.1.1,0,0,0-.16-.05c-.15.12-.22.06-.26-.07s-.06-.25-.09-.38a3.28,3.28,0,0,0-2.31-.79c.1.13.5.93.65,1.17a2.06,2.06,0,0,0,.59.55c.14,0,.46-.26.51-.05s.14.24,0,.35-.24,0-.35-.07-.21,0-.22.11a1.82,1.82,0,0,0,0,.33c0,.05,0,.09,0,.12a.11.11,0,0,1-.17,0,1.31,1.31,0,0,1,0-.57c-.23-.35-1.63-2.57-1.58-1.58,0,.16,0,.31,0,.47l.26,1s0,.06-.07,0a4.91,4.91,0,0,1-.33-1h0a7.29,7.29,0,0,1-.18-1,.6.6,0,0,0-.21-.21s-.14.33-.18.46c-.12.43-.21,1.66-.3,1.86.15.14.32.28.31.51-.06,0-.1,0-.14,0s-.14-.09-.22,0-.11.11-.17.06a.32.32,0,0,1-.06-.18.34.34,0,0,1,.14-.3,11.2,11.2,0,0,1,.41-2.37l.31-.63a3.22,3.22,0,0,1,.66-.71,5.87,5.87,0,0,1,.68-.48h0l1-.69c.11-.08.24-.13.36-.2l.13,0a.57.57,0,0,0,.18,0s.11,0,.12,0,0,.08-.06.1l-.37.19-.22.12-1.09.77a4.19,4.19,0,0,0-.36.32.11.11,0,0,0,0,.14.19.19,0,0,0,.12.07,3.55,3.55,0,0,0,.74-.2A3.59,3.59,0,0,1,187.17,203.83Z"/><path class="cls-7" d="M188.54,205.11a.78.78,0,0,1,.16-.51.15.15,0,0,1,.25,0,1,1,0,0,1,.21.41.85.85,0,0,1-.09.22.32.32,0,0,1-.34.14.24.24,0,0,1-.19-.24Z"/><path class="cls-7" d="M185.28,208h0c.08-.24.09-.24.28-.12,0,0,.05,0,.07.06a.33.33,0,0,1,.14,0c.21.11.21.24,0,.36s-.43.1-.52-.2A.34.34,0,0,1,185.28,208Z"/><path class="cls-7" d="M188.16,202.51a.16.16,0,0,1-.12.07.23.23,0,0,1-.14,0,.13.13,0,0,1,0-.17s.08,0,.13-.05.06,0,.09,0S188.2,202.43,188.16,202.51Z"/><path class="cls-7" d="M184.86,203.79c-.11.13-.19.28-.36.34h0c-.1.1-.28.16-.2.35s0,.09-.06.11a.27.27,0,0,0-.18.27c0,.16-.05.33-.08.49s-.06.06-.09.09-.06-.08-.06-.12c0-.26.09-.51.13-.77a.26.26,0,0,0-.15-.16l.09-.17H184a.25.25,0,0,1,.19-.11h0l.31-.21.29-.2a.1.1,0,0,1,.09,0A.08.08,0,0,1,184.86,203.79Z"/><path class="cls-7" d="M186.32,204l-.12,0"/><path class="cls-7" d="M146.8,184.1h0a.29.29,0,0,1-.32,0,1.63,1.63,0,0,0-.43-.29,6.59,6.59,0,0,1-1.63-1.48,11.64,11.64,0,0,1-1.52-2.11.76.76,0,0,1-.11-.29.26.26,0,0,1,.11-.19l0,0a.13.13,0,0,1,.16,0s.16.15.56.84a9.08,9.08,0,0,0,1,1.48,7.53,7.53,0,0,0,1.27,1.16l.1.07.15.1.26.13.06,0a.87.87,0,0,0,.48.22.26.26,0,0,1,0,.09A.39.39,0,0,1,146.8,184.1Z"/><path class="cls-7" d="M150.38,183.64a3.3,3.3,0,0,0,1-.16h0a.42.42,0,0,1,.52,0c.15.09.17.27.22.42s0,.08-.09.11a.26.26,0,0,1-.24,0l-.45-.21-1.42.4a1,1,0,0,1-.41.15.16.16,0,0,0,.11.15l.25,0a4.2,4.2,0,0,1,1,.11,1.42,1.42,0,0,1,.33.11,1.66,1.66,0,0,1,.27.13c-1.71-.29-2.53,0-2.46,0h0a7.62,7.62,0,0,0,1.41.5,1.14,1.14,0,0,1,.67.4,1.39,1.39,0,0,0,.27.21,2,2,0,0,1,.35,0,.37.37,0,0,1,.22.61.35.35,0,0,1-.1.11c-.08.06-.15.08-.18,0a.1.1,0,0,0-.16-.05c-.14.13-.21.06-.26-.07s-.06-.25-.09-.37c-.33-.46-2-1-2.3-.79.09.12.49.93.65,1.16a2.06,2.06,0,0,0,.58.56c.15,0,.47-.26.52-.06s.14.24,0,.35-.24,0-.35-.06-.2,0-.21.1a2,2,0,0,0,0,.34c0,.05,0,.09,0,.12a.15.15,0,0,1-.18,0,1.43,1.43,0,0,1,0-.57c-.23-.36-1.64-2.57-1.58-1.58,0,.15,0,.31.05.47l.26,1s0,.06-.07,0a3.94,3.94,0,0,1-.34-1h0a9,9,0,0,1-.18-1,.59.59,0,0,0-.2-.22s-.14.34-.18.47c-.12.43-.22,1.65-.3,1.85.15.15.31.28.3.51a.08.08,0,0,1-.13,0c-.07-.05-.14-.09-.23,0s-.1.12-.16.07a.29.29,0,0,1-.07-.18.34.34,0,0,1,.15-.31,10.69,10.69,0,0,1,.41-2.37l.3-.62a3.56,3.56,0,0,1,.66-.72,6.41,6.41,0,0,1,.69-.48h0l1-.69c.11-.07.24-.13.36-.19l.13,0a.47.47,0,0,0,.17,0s.11,0,.12,0,0,.09-.06.11-.36.19-.36.19a1.67,1.67,0,0,0-.23.12l-1.09.77a3,3,0,0,0-.35.32s-.06.09,0,.13a.21.21,0,0,0,.12.07,3.68,3.68,0,0,0,.75-.2A3.76,3.76,0,0,1,150.38,183.64Z"/><path class="cls-7" d="M151.75,184.91c-.05-.19.08-.34.16-.5a.14.14,0,0,1,.24,0,.78.78,0,0,1,.22.41,1.33,1.33,0,0,1-.09.21.35.35,0,0,1-.35.14.24.24,0,0,1-.18-.24Z"/><path class="cls-7" d="M148.48,187.78h0c.08-.23.09-.24.29-.12l.07.06.14,0c.2.12.2.25,0,.36s-.43.1-.51-.19A.38.38,0,0,1,148.48,187.78Z"/><path class="cls-7" d="M151.37,182.32a.23.23,0,0,1-.12.06.22.22,0,0,1-.14,0,.11.11,0,0,1,0-.16.23.23,0,0,1,.12-.06l.1,0S151.41,182.24,151.37,182.32Z"/><path class="cls-7" d="M148.07,183.6a1,1,0,0,1-.37.33h0c-.1.1-.28.17-.2.36s0,.09-.06.1-.16.16-.18.28,0,.32-.07.48-.06.06-.1.1-.06-.09-.05-.13c0-.25.08-.51.13-.77,0-.08-.09-.12-.15-.16l.09-.16h.08a.22.22,0,0,1,.19-.12h0l.32-.2.29-.21a.06.06,0,0,1,.08.1Z"/><path class="cls-7" d="M149.53,183.83l-.13,0"/><path class="cls-7" d="M275.11,165.52h0a.26.26,0,0,1-.08.31,2.15,2.15,0,0,0-.32.41,6.66,6.66,0,0,1-1.61,1.5,11.62,11.62,0,0,1-2.23,1.35.79.79,0,0,1-.29.08.21.21,0,0,1-.19-.13s0,0,0,0a.17.17,0,0,1,0-.17,3.73,3.73,0,0,1,.89-.48,8.93,8.93,0,0,0,1.55-.91,8.08,8.08,0,0,0,1.27-1.17l.07-.09a.83.83,0,0,0,.11-.15c0-.08.1-.16.16-.24l.05-.06a.79.79,0,0,0,.25-.46h.1A.39.39,0,0,1,275.11,165.52Z"/><path class="cls-7" d="M274.94,161.92a3.31,3.31,0,0,0-.07-1h0a.42.42,0,0,1,0-.52c.1-.14.28-.15.43-.19s.08.06.1.1a.23.23,0,0,1,0,.24l-.25.44.29,1.44a1.24,1.24,0,0,1,.11.42.13.13,0,0,0,.15-.1,1,1,0,0,0,0-.24,4.13,4.13,0,0,1,.19-1,1.79,1.79,0,0,1,.13-.32l.16-.26c-.44,1.69-.23,2.52-.15,2.46h0a7.94,7.94,0,0,0,.61-1.36,1.13,1.13,0,0,1,.45-.64,1.09,1.09,0,0,0,.23-.25c0-.12,0-.24.07-.35a.37.37,0,0,1,.63-.17l.11.11c0,.08.06.15-.07.18a.09.09,0,0,0-.06.15c.11.15,0,.22-.09.25s-.26,0-.39.06c-.47.3-1.17,1.91-1,2.24.13-.09,1-.42,1.21-.56a1.94,1.94,0,0,0,.6-.54c0-.14-.22-.48,0-.52s.25-.11.35,0,0,.24-.09.34-.07.2.09.23a1.75,1.75,0,0,0,.32,0s.1,0,.12,0a.13.13,0,0,1-.05.18,1.37,1.37,0,0,1-.57-.06c-.37.2-2.7,1.42-1.71,1.45h.48l1-.18s.06,0,0,.07a4.44,4.44,0,0,1-1,.26h0a9.1,9.1,0,0,1-1,.09.67.67,0,0,0-.23.19l.45.21c.42.16,1.63.36,1.83.45a.72.72,0,0,1,.53-.26.1.1,0,0,1,0,.14.17.17,0,0,0-.05.22c0,.05.11.11.05.17s-.12,0-.18,0a.32.32,0,0,1-.29-.17,11,11,0,0,1-2.33-.6l-.6-.36a3.4,3.4,0,0,1-.66-.72,5.46,5.46,0,0,1-.42-.72h0l-.61-1a2.54,2.54,0,0,1-.16-.38l0-.13a1.09,1.09,0,0,0,0-.18.24.24,0,0,1,0-.12c.05,0,.09,0,.1.07s.16.38.16.38a1.63,1.63,0,0,0,.11.23c.22.39.45.77.67,1.15a3.22,3.22,0,0,0,.29.38s.09.07.13,0a.23.23,0,0,0,.09-.11,3.72,3.72,0,0,0-.15-.76A4.28,4.28,0,0,1,274.94,161.92Z"/><path class="cls-7" d="M276.32,160.66c-.19,0-.33-.11-.49-.2a.15.15,0,0,1,0-.25.93.93,0,0,1,.42-.18,1.39,1.39,0,0,1,.21.11.34.34,0,0,1,.11.35.24.24,0,0,1-.26.17Z"/><path class="cls-7" d="M278.92,164.15h0c-.23-.1-.23-.11-.1-.29l.06-.07a.59.59,0,0,1,.06-.14c.13-.19.26-.18.36,0s.06.44-.24.5A.34.34,0,0,1,278.92,164.15Z"/><path class="cls-7" d="M273.71,160.83a.17.17,0,0,1,.05.12.23.23,0,0,1,0,.14.12.12,0,0,1-.17,0,.16.16,0,0,1,0-.12.54.54,0,0,1,0-.1S273.63,160.78,273.71,160.83Z"/><path class="cls-7" d="M274.71,164.22c.12.12.26.21.31.39h0c.09.11.14.29.33.23s.09,0,.11.07.14.17.25.2l.48.11s.06.07.09.1-.09.06-.13.05l-.76-.2a.28.28,0,0,0-.17.15l-.16-.11a.19.19,0,0,1,0-.08.22.22,0,0,1-.1-.2h0l-.18-.34-.18-.3a.13.13,0,0,1,0-.09S274.7,164.2,274.71,164.22Z"/><path class="cls-7" d="M275.06,162.78l0,.13"/><path class="cls-10" d="M212.1,152.64a.21.21,0,0,1,0-.11s0,0,0,0h0s0,0,0,0h0s0,0,0,0,0,0,0,0a.21.21,0,0,1,0,.06s0,0,0,0,0,0,0,0,0,0,0,0l0,0,0,0h0l0,0,.09,0h.06l.09,0h.3l.18.08-.1-.12v0s0,0,0,0v0s0,0,0,0a.23.23,0,0,1,0,0h0s0,0,0,0,0,0,0,0l0,0,0,0s0,0,0,0l0,0h0s0,0,0,0h-.17s0,0,0,0h0l0,0s0,0,0,0v0s0,0,0,0v0h0v0h0v0s0-.05,0-.06v0s0,0,0,0,0,0,0,0v0a0,0,0,0,0,0,0h0l0,0h0l0,0,0,0h.11s0,0,0,0h.06s0,0,0,0h0s0,0,0,0h0v0s0,0,0,0v0s0-.08,0,0v0h0s0,0,0,0,0,0,0,0v0h0s0,0,0,0l0,0h0s0,0,0,0l0,0,0,0s0,0,0,0l-.05,0h0l-.12,0s0,0,0,0h-.12s0,0,0,0l-.06,0h0l0,0h0l0,0s0,0,0,0a0,0,0,0,1,0,0l0,0h0v-.06s0,0,0,0v0a.1.1,0,0,1,0,0s0,0,0,0v0s0-.07,0,0l0,0,0,0,.05,0,.05,0h0l.05,0s0,0,0,0h.22s0,0,0,0l0,0h0s0,0,0,0,0,0,0,0,0,.06,0,0v0h0v0s0,0,0,0l0,.07h0l0,0,0,0s0,0,0,0l0,0a.1.1,0,0,1-.05,0s0,0,0,0h0s0,0,0,0h-.08a.05.05,0,0,1,0,0,.17.17,0,0,0-.21.09.16.16,0,0,0,.08.21.59.59,0,0,0,.78-.48.58.58,0,0,0,0-.26.46.46,0,0,0-.2-.19.67.67,0,0,0-.9.74.59.59,0,0,0,.7.34.72.72,0,0,0,.38-.21.43.43,0,0,0,.1-.44.54.54,0,0,0-.8-.12.49.49,0,0,0-.21.4.43.43,0,0,0,.25.36.61.61,0,0,0,.74-.2.45.45,0,0,0,.07-.25.19.19,0,0,0-.1-.17.38.38,0,0,0-.13-.06,1,1,0,0,0-.63-.05.61.61,0,0,0-.52.37.26.26,0,0,0,.13.31.31.31,0,0,0,.28,0,.22.22,0,0,0,.05-.3.16.16,0,1,0-.26.2Z"/><path class="cls-10" d="M213.12,152.36v0s0,0,0,0h0s0,0,0,0h0v0h0s0,.06,0,0,0,0,0,.05h0l0,0s0,0,0,0l0,0h0l0,0h-.14l0,0s0,0,0,0h0v0s0,0,0,0l0,0h0v-.1s0,0,0,0l0,0s0,0,0,0v0h0s0,0,0,0h0s0,0,0,0h.07s0,0,0,0l0,0s0,0,0,0v0s0,0,0,0a.1.1,0,0,1,0,0s0,0,0,0v0s0,0,0,0h0l.09-.08-.24.09h-.23l0,0h0l0,0s0,0,0,0l0,0s0,0,0,0h0v0s0,0,0,0,0,0,0,0l0,0h0l0,0h.14a.82.82,0,0,0,.38-.06l-.2-.08s0,0,0,0v0h0v0s0,0,0,.06h0v0l0,0h0l0,0s0,0,0,0h0s0,0,0,0,0,0,0,0h0s0,0,0,0h-.12s0,0,0,0l-.06,0h0l0,0,0,0s0,0,0,0l0-.05a.16.16,0,1,0-.25.19.56.56,0,0,0,.69.2.57.57,0,0,0,.29-.68.15.15,0,0,0-.21-.08l0,0h-.13l-.21,0a.38.38,0,0,0-.36.39.48.48,0,0,0,.38.43.82.82,0,0,0,.35,0l.14,0a.37.37,0,0,0,.17-.1.29.29,0,0,0,0-.18.5.5,0,0,0,0-.13A.43.43,0,0,0,213,152a.38.38,0,0,0-.5.17.44.44,0,0,0,0,.5.48.48,0,0,0,.54.13.44.44,0,0,0,.27-.58.33.33,0,0,0-.3-.17.3.3,0,0,0-.26.18.16.16,0,0,0,.08.21.16.16,0,0,0,.21-.08Z"/><path class="cls-10" d="M212.79,152.14l.12.19v-.19l0,0h0s0,0,0,0l0,0,0,0,0,0h0l-.05,0h0s0,0,0,0h-.17s0,0,0,0h0s0,0,0,0,0,0,0,0v.06s0,0,0,0v0s0,0,0,0v0h0l0,0s0,0,0,0h0s0,0,0,0h.07l.07,0c-.05,0,0,0,0,0h0l0,0s0,0,0,0v0s0,0,0,0,0,0,0,0v-.05s0,0,0,0v0s0,0,0,0,0,0,0,0h0v0s0,0,0,0l0,0h0l0,0s0,0,0,0h0s0,0,0,0h0s0,0,0,0,0,0,0,0v-.07l0-.11a.13.13,0,0,0-.06-.1.17.17,0,0,0-.12,0,.17.17,0,0,0-.1.06s-.05.08,0,.12,0,.13,0,.19a.28.28,0,0,0,.11.17.34.34,0,0,0,.28.06.51.51,0,0,0,.25-.16.35.35,0,0,0,0-.33.47.47,0,0,0-.51-.25.39.39,0,0,0-.3.21.26.26,0,0,0,0,.27.48.48,0,0,0,.16.12.55.55,0,0,0,.67-.2.17.17,0,0,0,0-.19L213,152a.17.17,0,0,0-.1-.07.17.17,0,0,0-.12,0,.13.13,0,0,0-.06.1.18.18,0,0,0,0,.12Z"/><path class="cls-10" d="M212.9,152.2v0s0,0,0,0a.13.13,0,0,1,0,.06h0v0s0,0,0,0v0l0,0s0,0,0,0l0,0h0l0,0,0,0h-.09c.05,0,0,0,0,0h-.06l-.06,0s0,0,0,0l0,0h0l0,0,0,0s0,0,0,0h0a.16.16,0,0,0-.2-.09.16.16,0,0,0-.09.21.53.53,0,0,0,.51.3.5.5,0,0,0,.44-.35.55.55,0,0,0,0-.36.16.16,0,1,0-.3.12Z"/><path class="cls-10" d="M212.72,152.19l.24.29,0-.22-.13.09,0,0h0l-.07,0-.07,0s0,0,0,0h-.17l0,0h0l0,0v0h0v0h0s0,0,0,0v0s0,0,0,0,0,0,0,0,0,0,0,0v0s0,0,0,0,0,0,0,0a.21.21,0,0,0,.06-.1.13.13,0,0,0,0-.12.16.16,0,0,0-.22,0,.41.41,0,0,0-.12.2.44.44,0,0,0,0,.2.45.45,0,0,0,.26.28.54.54,0,0,0,.43,0,1.62,1.62,0,0,0,.36-.21.16.16,0,0,0,0-.22L213,152a.15.15,0,0,0-.22,0,.16.16,0,0,0,0,.22Z"/><path class="cls-10" d="M211.56,151.69a2.26,2.26,0,0,1-.63-.47c-.09-.1-.47-.61-.09-.54a1.38,1.38,0,0,1,.58.4,2.6,2.6,0,0,1,.4.58.16.16,0,0,0,.29-.13.92.92,0,0,1,0-.92.53.53,0,0,1,.61-.16c.24.11.23.41.2.63a3.35,3.35,0,0,0-.07.77.16.16,0,0,0,.31,0,2,2,0,0,1,1.12-1.08.21.21,0,0,1,.28.24.57.57,0,0,1-.18.35,1.84,1.84,0,0,1-.75.44l.12.3a4.12,4.12,0,0,1,.84-.27c.16,0,.47-.12.62,0s-.4.37-.51.39a2.17,2.17,0,0,1-.88,0l0,.32a.46.46,0,1,1-.43.31l-.32,0c-.08.47-.24,1.11-.79,1.22a.48.48,0,0,1-.55-.28c-.1-.27.17-.46.37-.57l-.19-.25a1.57,1.57,0,0,1-1.38.44c-.12,0-.32-.11-.3-.27s.22-.16.33-.19c.3-.07.6-.14.91-.19a.16.16,0,0,0,0-.32,2.12,2.12,0,0,1-.56-.16,2.4,2.4,0,0,1-.27-.16c-.06,0-.21-.13-.23-.19s0,0,0,0,.08,0,.11,0l.32,0a2.41,2.41,0,0,1,.63.24c.18.1.31-.2.13-.29a2.37,2.37,0,0,0-1-.3c-.21,0-.51,0-.55.28s.32.48.5.6a2.47,2.47,0,0,0,.87.32v-.32l-.72.15a1.76,1.76,0,0,0-.55.17.49.49,0,0,0,0,.81,1.4,1.4,0,0,0,1.08.14,2.08,2.08,0,0,0,1-.54c.11-.11,0-.32-.19-.24a.9.9,0,0,0-.59.77.79.79,0,0,0,.61.69,1,1,0,0,0,.92-.34,2.13,2.13,0,0,0,.47-1.16c0-.2-.27-.24-.32,0a.78.78,0,1,0,.79-.59.16.16,0,0,0,0,.32,2.49,2.49,0,0,0,1.24-.07c.28-.1.66-.33.53-.69s-.44-.34-.7-.33a4,4,0,0,0-1.22.34.16.16,0,0,0,.12.3,1.89,1.89,0,0,0,1-.69.63.63,0,0,0-.13-.91c-.32-.19-.74.09-1,.29a2.41,2.41,0,0,0-.74.93l.3,0c0-.36.13-.72.07-1.09a.68.68,0,0,0-.62-.61.85.85,0,0,0-.81.39,1.27,1.27,0,0,0,0,1.17l.29-.13a2.53,2.53,0,0,0-.67-.85c-.23-.19-.6-.46-.9-.27s-.19.56,0,.8a2.45,2.45,0,0,0,.92.77c.18.09.31-.2.13-.29Z"/><path class="cls-7" d="M203,153.94a10,10,0,0,0-1.23.27,1.09,1.09,0,0,0-.67.51c-.28.61.4,1,.92,1.05a2,2,0,0,0,1.68-.7,1,1,0,0,0,.19-.87c-.1-.37-.43-.49-.77-.56a3,3,0,0,0-2,.34,1.89,1.89,0,0,0-1.06,1.6c0,.73.79,1,1.41.94a10.7,10.7,0,0,0,2.49-.51c.73-.2,1.8-.46,1.86-1.38a.91.91,0,0,0-.53-.88,2.18,2.18,0,0,0-1.34-.08.16.16,0,0,0,.05.31,2.16,2.16,0,0,1,1,0,.67.67,0,0,1,.5.58c0,.65-.74.91-1.24,1.06a20.47,20.47,0,0,1-2,.49,2.18,2.18,0,0,1-1.61-.07c-.48-.35-.22-1,.11-1.37a2.53,2.53,0,0,1,1.45-.74c.42-.06,1.45-.11,1.45.51s-.55.86-1,1a1.51,1.51,0,0,1-.79,0c-.22,0-.48-.19-.47-.45s.36-.42.59-.49.74-.16,1.1-.24c.2,0,.16-.34,0-.3Z"/><path class="cls-7" d="M197.16,155.62l-.73.82-.35.39s-.32.34-.33.31l-.06.14a16.36,16.36,0,0,0,1.85-1.78l-.27,0a1.33,1.33,0,0,0,1.24.75l-.17-.21a3.72,3.72,0,0,1-1.6,1.54c-.47.24-1.83.74-1.79-.23,0-.78.89-1.27,1.47-1.64s1.45-.82,2.13-.26a1.3,1.3,0,0,1,.48,1,1.24,1.24,0,0,1-.72,1c-.18.08-.06.37.12.28a1.5,1.5,0,0,0,.66-2.19,1.62,1.62,0,0,0-1-.71,2.06,2.06,0,0,0-1.37.27,9.11,9.11,0,0,0-1.28.84,2.15,2.15,0,0,0-.77,1.06,1,1,0,0,0,.27,1,1.46,1.46,0,0,0,1.32,0,4.08,4.08,0,0,0,2.36-2c.06-.12-.06-.22-.16-.22a1,1,0,0,1-.91-.56.16.16,0,0,0-.27,0A16.26,16.26,0,0,1,195.5,157a.15.15,0,0,0-.06.14.33.33,0,0,0,.33.27c.21,0,.36-.2.48-.35l1.15-1.29c.14-.15-.11-.34-.24-.19Z"/><path class="cls-7" d="M207,154.2a.93.93,0,0,1-.46.65l.25.15a2.39,2.39,0,0,1,2-2.17l.36,0c.12,0,.4,0,.32.17a1.91,1.91,0,0,1-.33.37c-.12.13-.23.26-.35.38a12.62,12.62,0,0,1-1.48,1.36c-.22.17-.59.5-.89.4s-.22-.53-.21-.75a4.68,4.68,0,0,1,.34-1.7,2.18,2.18,0,0,1,1.52-1.07,1.52,1.52,0,0,1,1.66.5,1.45,1.45,0,0,1-.37,1.74,8.69,8.69,0,0,1-1.76,1.17c-.17.11,0,.36.19.25a7.84,7.84,0,0,0,1.9-1.31,1.8,1.8,0,0,0,.39-1.86c-.68-1.44-3-.89-3.68.22a4.28,4.28,0,0,0-.5,2,1.3,1.3,0,0,0,.16.89.72.72,0,0,0,.88.1,4.62,4.62,0,0,0,1-.7c.31-.26.6-.54.89-.83s.6-.62.88-.94a.4.4,0,0,0-.19-.69,2.38,2.38,0,0,0-2,.54,2.61,2.61,0,0,0-1,1.87.16.16,0,0,0,.25.14,1.21,1.21,0,0,0,.58-.86c0-.2-.27-.24-.31,0Z"/><path class="cls-7" d="M198.08,157.74c-1.62,1-3.63.95-5.48.87a24.29,24.29,0,0,0-2.83,0,12.12,12.12,0,0,0-2.86.59,11.75,11.75,0,0,0-4.82,3.1,38.2,38.2,0,0,0-3.72,5.27,12.53,12.53,0,0,1-4.7,4.64c-.18.08-.06.37.12.28,3.83-1.84,5.34-6.12,7.87-9.24a11.79,11.79,0,0,1,4.79-3.55,11.42,11.42,0,0,1,2.87-.73,18.32,18.32,0,0,1,2.87,0c2.05.09,4.27.25,6.08-.91.17-.11,0-.35-.19-.25Z"/><path class="cls-7" d="M193.69,157.82c-3.75,0-7.85.06-11,2.38-2.95,2.16-3.94,5.82-5.79,8.8a9.08,9.08,0,0,1-4,3.8c-.18.08-.06.37.12.29,3.22-1.34,4.68-4.78,6.15-7.68a14.69,14.69,0,0,1,3-4.41,10.88,10.88,0,0,1,4.79-2.35,30.78,30.78,0,0,1,6.78-.53c.2,0,.15-.3-.05-.3Z"/><path class="cls-7" d="M192,157.17a14.1,14.1,0,0,0-13.56,7c-.92,1.55-1.63,3.22-2.46,4.81a12.11,12.11,0,0,1-3.7,4.59c-.16.12,0,.36.19.25,3-2,4.13-5.6,5.75-8.62a15,15,0,0,1,3.22-4.24,14,14,0,0,1,4.57-2.7,13.53,13.53,0,0,1,5.95-.77c.19,0,.24-.28,0-.3Z"/><path class="cls-7" d="M204.14,157.43c-2.09-1.18-4.56-.07-6.42,1a20.22,20.22,0,0,1-3.07,1.66,6.76,6.76,0,0,1-1.72.42,17.76,17.76,0,0,1-1.93,0,8.22,8.22,0,0,0-3.34.48,8.33,8.33,0,0,0-2.48,1.67,32.83,32.83,0,0,0-3.8,4.89,11.09,11.09,0,0,1-4.53,4.12,5.37,5.37,0,0,1-.74.25c-.19.05-.16.36,0,.31a9.37,9.37,0,0,0,4.75-3.53c1.3-1.63,2.33-3.46,3.72-5a10.14,10.14,0,0,1,2.31-2,6.29,6.29,0,0,1,3-.89,21.13,21.13,0,0,0,3.73-.15,10.44,10.44,0,0,0,3.06-1.34,21.14,21.14,0,0,1,3.07-1.66,5.35,5.35,0,0,1,3.39-.34,3.15,3.15,0,0,1,.78.33c.18.1.3-.19.13-.29Z"/><path class="cls-7" d="M203.56,158.49a2.61,2.61,0,0,0-2.71-.41,7.21,7.21,0,0,0-2.61,1.9,9.7,9.7,0,0,1-1.3,1.1,5.52,5.52,0,0,1-1.54.71,13.39,13.39,0,0,1-3.33.42,7.34,7.34,0,0,0-3.47.61,11.43,11.43,0,0,0-2.65,2.26c-1.64,1.73-3,3.71-4.77,5.36a10.39,10.39,0,0,1-5.6,3,7,7,0,0,1-.8.05c-.2,0-.16.31,0,.31a9.43,9.43,0,0,0,5.7-2.38,41,41,0,0,0,4.7-5.07,21.76,21.76,0,0,1,2.52-2.56,5.72,5.72,0,0,1,1.48-.94,5.47,5.47,0,0,1,1.79-.3c2.18-.11,4.52,0,6.35-1.4.91-.68,1.62-1.58,2.54-2.25a3.13,3.13,0,0,1,2.88-.57,1.81,1.81,0,0,1,.59.4c.14.14.33-.11.19-.25Z"/><path class="cls-7" d="M202.13,159.45c-1.75.08-2.86,1.69-4,2.83a8.33,8.33,0,0,1-2.46,1.74,10.19,10.19,0,0,1-3,.78,11.66,11.66,0,0,0-3,.64,8.24,8.24,0,0,0-2,1.22,27,27,0,0,0-3.26,3.5,12.3,12.3,0,0,1-4.09,3.5c-.19.08-.07.37.11.28,3-1.35,4.58-4.42,6.9-6.57A7.51,7.51,0,0,1,192,165.2a15.55,15.55,0,0,0,3.11-.6,8.48,8.48,0,0,0,2.57-1.45c.77-.64,1.39-1.43,2.11-2.13a3.71,3.71,0,0,1,2.39-1.26c.2,0,.16-.31,0-.31Z"/><path class="cls-7" d="M200.12,162.6a25.32,25.32,0,0,1-6,4.78c-1.22.61-2.54.92-3.81,1.41a9,9,0,0,0-5.16,5.23c-.07.19.22.31.29.13a8.63,8.63,0,0,1,4.77-5c1.24-.52,2.57-.81,3.79-1.39a16.55,16.55,0,0,0,3.15-2,42,42,0,0,0,3.2-2.91c.14-.14,0-.38-.19-.25Z"/><path class="cls-7" d="M195.66,166.69c-.55.48-1.11,1-1.69,1.4s-1.16.82-1.76,1.2a13.45,13.45,0,0,0-3.15,2.46,5.44,5.44,0,0,0-1.05,1.84c-.06.18.23.31.29.12.84-2.63,3.64-3.73,5.68-5.24.65-.48,1.26-1,1.87-1.54.15-.13,0-.37-.19-.24Z"/><path class="cls-7" d="M199.84,163c-1.22,2.09-2.4,4.21-3.73,6.23a18.52,18.52,0,0,1-4.19,4.76,9.91,9.91,0,0,1-2.88,1.55,5.93,5.93,0,0,1-1.82.3,11.54,11.54,0,0,1-2-.21,33.45,33.45,0,0,0-4-.4,24.9,24.9,0,0,0-3.86.11,7.27,7.27,0,0,0-3.21,1.15,12.9,12.9,0,0,0-2.41,2.26l-.54.63a.12.12,0,0,0,0,.17l0,.05a.16.16,0,0,0,.2,0,17.28,17.28,0,0,1,2.34-2.42,6.7,6.7,0,0,1,3.17-1.44,20.87,20.87,0,0,1,3.87-.18,30,30,0,0,1,4,.36,9.51,9.51,0,0,0,3.83.07,9.15,9.15,0,0,0,3-1.38A17,17,0,0,0,196,170c1.32-1.94,2.47-4,3.65-6l.51-.85C200.23,162.9,199.94,162.78,199.84,163Z"/><path class="cls-7" d="M197.05,165.76a29.53,29.53,0,0,1-4.71,5.39,12.21,12.21,0,0,1-3,1.87,12.43,12.43,0,0,1-3.85.9c-2.73.24-5.48-.09-8.21.26a9.38,9.38,0,0,0-6.19,3.07,5.79,5.79,0,0,0-.84,1.39,2.73,2.73,0,0,0-.27,1.75,1.16,1.16,0,0,0,1.14.9,1.13,1.13,0,0,0,.93-.85,2.08,2.08,0,0,0,.1-.7c0-.2-.31-.16-.31,0a1.2,1.2,0,0,1-.57,1.16c-.62.25-1-.49-1-1a3.81,3.81,0,0,1,.52-1.63,6.53,6.53,0,0,1,.94-1.27,9.83,9.83,0,0,1,6.34-2.62c2.59-.23,5.19.06,7.78-.21a12.65,12.65,0,0,0,3.59-.87,12.26,12.26,0,0,0,2.84-1.71,26.16,26.16,0,0,0,4.53-5l.51-.69c.12-.16-.12-.35-.24-.19Z"/><path class="cls-7" d="M206.83,156.94a5.14,5.14,0,0,0-1.59-1,5.54,5.54,0,0,0-.88-.26c-.2,0-.55,0-.55.26s.3.25.3,0c0,0,0,0,0,0h.06l.17,0c.11,0,.23.05.34.09a4.54,4.54,0,0,1,.7.26,4.72,4.72,0,0,1,1.24.83c.15.13.34-.11.2-.25Z"/><path class="cls-7" d="M207.76,156.59a2.65,2.65,0,0,0-1.48-1.37.18.18,0,0,0-.21.08.17.17,0,0,0,.09.21,2.25,2.25,0,0,1,1.31,1.2c.09.18.37.06.29-.12Z"/><path class="cls-7" d="M208.8,156.33a2.36,2.36,0,0,1-.64-1.24A.17.17,0,0,0,208,155a.15.15,0,0,0-.13.18,2.64,2.64,0,0,0,.7,1.38.16.16,0,0,0,.25-.19Z"/><path class="cls-7" d="M209.19,156.36a1.66,1.66,0,0,1,.47-1.42.16.16,0,0,0,0-.22.16.16,0,0,0-.21,0,2,2,0,0,0-.54,1.65.16.16,0,0,0,.31,0Z"/><path class="cls-7" d="M209.76,156.29a3.55,3.55,0,0,1,1.23-2.67c.15-.13,0-.38-.19-.25a3.9,3.9,0,0,0-1.35,2.88c0,.19.3.24.31,0Z"/><path class="cls-7" d="M210.34,155.66a2.61,2.61,0,0,1,1-1,.18.18,0,0,0,.09-.21.16.16,0,0,0-.21-.08,2.92,2.92,0,0,0-1.15,1.16.15.15,0,0,0,.28.12Z"/><path class="cls-7" d="M210.7,156.21a5.13,5.13,0,0,1,2-1.73c.18-.09.06-.37-.12-.28a5.33,5.33,0,0,0-2.09,1.82c-.11.16.13.35.24.19Z"/><path class="cls-7" d="M211.23,156.15a7.65,7.65,0,0,1,5.41-2.18,10.47,10.47,0,0,1,3,.38,6.82,6.82,0,0,1,3.1,1.68,10.4,10.4,0,0,1,1.8,2.89,22.58,22.58,0,0,1,1.4,3.55c.54,2,.38,4.24,1.25,6.19a4.86,4.86,0,0,0,1.94,2.26,5,5,0,0,0,2.93.69,4,4,0,0,0,.76-.13c.19,0,.15-.36,0-.31a4.53,4.53,0,0,1-5.26-2.52c-.91-2-.73-4.23-1.29-6.29a21.94,21.94,0,0,0-1.39-3.53,11.17,11.17,0,0,0-1.77-2.9,6.68,6.68,0,0,0-3-1.77,10.59,10.59,0,0,0-3-.5,8.34,8.34,0,0,0-5.55,1.79c-.18.16-.36.33-.53.51s.11.33.25.19Z"/><path class="cls-7" d="M213.24,155.44c1.81-.65,3.75-1.33,5.7-.93a4.32,4.32,0,0,1,2.38,1.32,9.19,9.19,0,0,1,1.38,2.34,21.69,21.69,0,0,1,1.16,2.82,19.47,19.47,0,0,1,.56,3,10.19,10.19,0,0,0,1.82,5,4.69,4.69,0,0,0,5,1.75c.19-.07.07-.35-.12-.29a4.34,4.34,0,0,1-4.59-1.6,10.09,10.09,0,0,1-1.83-5.16,18.44,18.44,0,0,0-.59-3A25.35,25.35,0,0,0,223,158a9.52,9.52,0,0,0-1.39-2.34,4.51,4.51,0,0,0-2.18-1.34c-2.13-.6-4.28.13-6.27.85-.19.07-.07.36.12.29Z"/><path class="cls-7" d="M215.08,155.44c1.92-.31,4.06-.53,5.87.32a6.24,6.24,0,0,1,3.09,4.41c.5,2,.54,4.12,1.35,6.05a8.3,8.3,0,0,0,3.2,3.71,8.4,8.4,0,0,0,5.37,1.29.15.15,0,0,0,0-.3,8.21,8.21,0,0,1-8.22-4.77c-.83-1.93-.86-4.07-1.37-6.08a6.71,6.71,0,0,0-2.87-4.39c-1.92-1.11-4.32-.89-6.42-.55a.16.16,0,0,0,0,.31Z"/><path class="cls-7" d="M217.33,155.93c1.46-.47,2.86.76,3.84,1.68a6.29,6.29,0,0,1,2.21,3.66c.12.78.09,1.57.18,2.35a8.48,8.48,0,0,0,.45,2,6.77,6.77,0,0,0,2.34,3.25,5.39,5.39,0,0,0,4.37,1c.2-.05.16-.36,0-.31a5,5,0,0,1-4-.81,6.48,6.48,0,0,1-2.39-3.35,8.16,8.16,0,0,1-.41-2.08,18.64,18.64,0,0,0-.21-2.36,6.76,6.76,0,0,0-2.22-3.48c-1.09-1-2.59-2.29-4.2-1.77-.19.06-.07.35.12.29Z"/><path class="cls-7" d="M213.12,154.48c1.52-1.62,3.94-1.84,6-1.61,2.72.32,5.36,1.42,8.14,1.12a13.86,13.86,0,0,0,6.15-2.64c1-.66,1.92-1.35,2.88-2,.48-.33,1-.65,1.46-.94a2.46,2.46,0,0,1,1.79-.37,3.47,3.47,0,0,1,2.39,2.52,10.1,10.1,0,0,1,.4,4,9.48,9.48,0,0,1-.15,1.05c0,.19.28.23.31,0a11.11,11.11,0,0,0,0-4.3,5.08,5.08,0,0,0-1.7-3.13,2.85,2.85,0,0,0-1.63-.59,3.12,3.12,0,0,0-1.69.55c-1,.62-2,1.34-3,2a17.74,17.74,0,0,1-6.26,3.28c-2.86.63-5.63-.44-8.44-.88-2.1-.33-4.54-.27-6.3,1.09a5.12,5.12,0,0,0-.59.55c-.14.14.11.33.24.19Z"/><path class="cls-7" d="M214.62,154.32c-.18-.33,1.08-.56,1.27-.6a8.57,8.57,0,0,1,1.5-.2,9.45,9.45,0,0,1,3.13.34,28.84,28.84,0,0,0,3.12,1,11.29,11.29,0,0,0,3.23-.08,22.71,22.71,0,0,0,5.62-1.53,21.54,21.54,0,0,0,2.64-1.3c.44-.25.87-.51,1.29-.79a10.44,10.44,0,0,1,1.23-.76,2.94,2.94,0,0,1,3,.21,2.87,2.87,0,0,1,1.11,2.76.16.16,0,0,0,.31,0,3.2,3.2,0,0,0-.75-2.62,3.16,3.16,0,0,0-2.54-1,5.67,5.67,0,0,0-2.66,1.21,21.69,21.69,0,0,1-2.78,1.56,22.5,22.5,0,0,1-6,1.85,12.29,12.29,0,0,1-3.37.2,21.05,21.05,0,0,1-3.4-1,9.78,9.78,0,0,0-3.57-.33,10,10,0,0,0-1.8.34c-.34.1-1.17.35-.88.87.1.17.39.05.29-.12Z"/><path class="cls-7" d="M222.48,156a16.65,16.65,0,0,0,9.7-1.9,43.28,43.28,0,0,0,4.46-2.61l2.17-1.45a2.57,2.57,0,0,1,1.07-.5,1.61,1.61,0,0,1,1,.18,2.47,2.47,0,0,1,1.24,1.93,7,7,0,0,1-.47,2.9c-.06.19.23.32.28.13.47-1.49,1-3.32-.17-4.64a2.26,2.26,0,0,0-1.72-.83,2.29,2.29,0,0,0-1,.37c-.38.23-.74.49-1.11.73-3,2-6,4-9.48,4.94a13.94,13.94,0,0,1-5.85.44.16.16,0,0,0,0,.31Z"/><path class="cls-7" d="M223.42,156.22a6.36,6.36,0,0,0,4.6.37,45,45,0,0,1,4.79-1.26,4.85,4.85,0,0,1,4.18,1.19,5.57,5.57,0,0,1,1.3,4.38c-.11.92-.56,1.78-.61,2.71a2.08,2.08,0,0,0,.75,1.89c.17.12.36-.13.2-.24a1.87,1.87,0,0,1-.62-1.83c.11-.85.48-1.64.59-2.49a6,6,0,0,0-1.11-4.31,4.68,4.68,0,0,0-3.86-1.66,17.23,17.23,0,0,0-4.69,1.05c-1.74.51-3.73.86-5.39-.08-.18-.1-.3.19-.13.28Z"/><path class="cls-7" d="M223.91,157.48a7.86,7.86,0,0,0,4.45.41c1.52-.24,3-.84,4.5-1a3.94,3.94,0,0,1,3.52,1.16c.91,1.12.45,2.55,0,3.77a9.57,9.57,0,0,0-.61,2.23c-.06.56,0,1.35.68,1.54.19.06.32-.23.13-.28-.63-.19-.54-1.07-.45-1.56a13.34,13.34,0,0,1,.6-2c.42-1.19.77-2.54,0-3.68a3.83,3.83,0,0,0-3.11-1.5,18.69,18.69,0,0,0-4.48.87,8.21,8.21,0,0,1-5.14-.23.16.16,0,0,0-.13.29Z"/><path class="cls-7" d="M225.13,159.12c2.19,1,4.48-.39,6.69-.61a3.67,3.67,0,0,1,2.72.7,2.23,2.23,0,0,1,.72,1,2.92,2.92,0,0,1-.15,1.75c-.34,1.05-.94,2.26-.35,3.34.09.17.38,0,.29-.12-.56-1,0-2.17.37-3.17a3.33,3.33,0,0,0,.18-1.71,2.35,2.35,0,0,0-.58-1.1,3.56,3.56,0,0,0-2.38-1.06,10.45,10.45,0,0,0-3.4.6,5.66,5.66,0,0,1-4,.05c-.18-.09-.3.2-.12.29Z"/><path class="cls-7" d="M226.19,161.13a10.76,10.76,0,0,0,4.75-.36,48.11,48.11,0,0,0,4.44-2,5.77,5.77,0,0,1,4.47-.4,3.34,3.34,0,0,1,1.51,1.19,2.82,2.82,0,0,1,.38,2.14c-.26,1.5-1.23,3.24-.21,4.67a.15.15,0,0,0,.25-.18c-.92-1.3,0-3,.25-4.34a3.27,3.27,0,0,0-.23-2.16,3.54,3.54,0,0,0-1.31-1.35,5.21,5.21,0,0,0-4.27-.22c-1.57.5-3,1.43-4.48,2.07a10.39,10.39,0,0,1-5.51.67.16.16,0,0,0,0,.31Z"/><path class="cls-7" d="M226.63,162.73a14,14,0,0,0,4.23-.34,15.74,15.74,0,0,0,2-.64c.66-.27,1.29-.62,1.93-.94,1.27-.66,2.8-1.33,4.23-.79a1.54,1.54,0,0,1,1.09,1.39,5.75,5.75,0,0,1-.43,1.83c-.37,1.1-.51,2.55.46,3.39.15.13.35-.11.19-.24-.91-.79-.65-2.19-.31-3.19a5.41,5.41,0,0,0,.39-1.77,1.72,1.72,0,0,0-.84-1.49,4.44,4.44,0,0,0-4,.15c-.69.3-1.34.68-2,1a13.82,13.82,0,0,1-2,.78,13.31,13.31,0,0,1-4.86.54.16.16,0,0,0,0,.31Z"/><path class="cls-7" d="M227.25,164.31a9.94,9.94,0,0,0,3.67-.46c1.21-.36,2.34-.91,3.51-1.35a3.43,3.43,0,0,1,3.22.09,1.72,1.72,0,0,1,.73,1.32,7.29,7.29,0,0,1-.3,1.79c-.19.91,0,2.26,1.07,2.48.2,0,.24-.27,0-.31a1.13,1.13,0,0,1-.81-.94,3.21,3.21,0,0,1,.08-1.51,4.92,4.92,0,0,0,.21-1.74,2,2,0,0,0-.7-1.24,3.25,3.25,0,0,0-3-.45,13.34,13.34,0,0,0-1.73.65c-.58.25-1.16.48-1.75.69a10.4,10.4,0,0,1-4.24.67c-.2,0-.24.29,0,.31Z"/><path class="cls-7" d="M227.15,165.82a6.51,6.51,0,0,0,5.31-.5A27.91,27.91,0,0,0,237,162a13.25,13.25,0,0,1,2.33-1.61,2.3,2.3,0,0,1,1.41-.21,3.29,3.29,0,0,1,1.23.53,4.23,4.23,0,0,1,1.76,4.14,10.13,10.13,0,0,0-.55,3,1.89,1.89,0,0,0,1.36,1.71c.19,0,.23-.26,0-.3a1.7,1.7,0,0,1-1.11-1.69,15.21,15.21,0,0,1,.59-2.82,4.55,4.55,0,0,0-1.59-4.07,3.31,3.31,0,0,0-2.37-.87,5.26,5.26,0,0,0-2.35,1.19c-1.52,1.1-2.86,2.43-4.45,3.44-1.77,1.13-3.95,1.84-6,1a.16.16,0,0,0-.12.29Z"/><path class="cls-7" d="M208.08,165.69a16.22,16.22,0,0,0-2.15-1.21,3.39,3.39,0,0,0-2.18-.38,1.83,1.83,0,0,0-.84.43,3,3,0,0,0-.57.84,3,3,0,0,1-3.48,1.6c-.19-.05-.31.23-.12.28a3.36,3.36,0,0,0,3.35-.95,3.88,3.88,0,0,0,.54-.8,2.17,2.17,0,0,1,.65-.87,2.29,2.29,0,0,1,2.13,0,13.76,13.76,0,0,1,2.48,1.33c.16.11.36-.13.19-.24Z"/><path class="cls-7" d="M207.9,165.87c-.43.54-1.18.12-1.62-.18a4.19,4.19,0,0,0-1.51-.71,2.78,2.78,0,0,0-1.59.12,4.08,4.08,0,0,0-1.31,1.1,3.75,3.75,0,0,1-2,.9c-.19.05-.16.35,0,.31a5,5,0,0,0,1.79-.66c.53-.37.84-1,1.42-1.29a2.55,2.55,0,0,1,1.68-.16,3,3,0,0,1,.81.33c.29.16.55.38.84.54a1.3,1.3,0,0,0,1.69-.11c.12-.15-.12-.34-.25-.19Z"/><path class="cls-7" d="M203.09,165.05l.3-.11-.18-.24a.39.39,0,0,1-.25.1l.16.21a.27.27,0,0,1,.37-.13l0-.26a1.93,1.93,0,0,1-.86.39l.11.28a2.48,2.48,0,0,1,2.59-.27,8.16,8.16,0,0,0,2.43,1.13.15.15,0,0,0,.16-.21,1.37,1.37,0,0,0-.67-.65,10.35,10.35,0,0,0-1.2-.48,16.94,16.94,0,0,0-2.61-.67.16.16,0,0,0-.18.17.86.86,0,0,0,.75.69c.24.05.48,0,.72.07a3.22,3.22,0,0,1,.7.14,3.33,3.33,0,0,1,.61.27c.2.11.37.25.56.38s.58.25.73-.06a.16.16,0,0,0-.29-.12c-.06.12-.64-.35-.7-.39a3.88,3.88,0,0,0-.91-.4,3.8,3.8,0,0,0-1-.15c-.32,0-.8-.07-.85-.47l-.18.18a16.39,16.39,0,0,1,2.39.6q.57.19,1.11.42a1.31,1.31,0,0,1,.75.59l.16-.22c-1-.1-1.72-.9-2.63-1.22a2.8,2.8,0,0,0-2.62.42c-.11.09,0,.31.12.28a2.27,2.27,0,0,0,1-.46.15.15,0,0,0,0-.26.57.57,0,0,0-.77.29.15.15,0,0,0,.16.21.66.66,0,0,0,.45-.21c.12-.12,0-.29-.18-.24l-.29.11a.16.16,0,0,0,.11.29Z"/><path class="cls-7" d="M216.77,164.65c-.09-.16.58-.53.69-.61l.87-.57c.47-.3,1.14-.79,1.72-.52s.62.77.84,1.17a2.46,2.46,0,0,0,1,1,2.31,2.31,0,0,0,1.65.21c.2-.05.16-.36,0-.31a2.09,2.09,0,0,1-1.65-.28,3.29,3.29,0,0,1-1-1.32,1.37,1.37,0,0,0-1.17-.86,3.43,3.43,0,0,0-1.79.8c-.35.22-.7.45-1,.7s-.57.39-.4.69.38.06.29-.11Z"/><path class="cls-7" d="M216.43,164.87a1.54,1.54,0,0,0,1.46-.29,3.22,3.22,0,0,1,1.52-.55,1.81,1.81,0,0,1,1.47.65,1.64,1.64,0,0,0,1.39.74c.19,0,.15-.34,0-.31-.63.1-1-.58-1.41-.93a2,2,0,0,0-1.33-.46,3.18,3.18,0,0,0-1.44.4c-.43.24-1,.72-1.5.47-.18-.09-.3.19-.12.28Z"/><path class="cls-7" d="M219.24,163l-.83.1a.16.16,0,0,0-.14.13.16.16,0,0,0,.1.16,1.22,1.22,0,0,0,.88.13.14.14,0,0,0,.12-.11.14.14,0,0,0-.05-.16.71.71,0,0,0-.53-.1.74.74,0,0,0-.46.29.16.16,0,0,0,0,.21.43.43,0,0,0,.42.08.41.41,0,0,0,.28-.33.16.16,0,0,0-.13-.17.16.16,0,0,0-.18.13s0,0,0,0v0s0,0,0,0l0,0s0,0,0,0h0s0,0,0,0h0s0,0,0,0h0s0,0,0,0h0s0,0,0,0l0,0s0,0,0,0l0,0,0,.22,0,0v0h0l.08-.06h0l0,0,.05,0h0l.1,0H219s0,0,0,0h0l.05,0h0l.08-.27-.2,0h-.17l-.1,0h0l-.05,0-.18-.08,0,.3.83-.1a.15.15,0,0,0,.13-.17.15.15,0,0,0-.17-.14Z"/><path class="cls-7" d="M218.79,163.27a11.22,11.22,0,0,0-1,.63l-1.25.7.15.27a4.85,4.85,0,0,1,2.11-1.35,1.7,1.7,0,0,1,2,.88.15.15,0,0,0,.28-.12,2.56,2.56,0,0,0-1.17-1.57.83.83,0,0,0-.82,0,.65.65,0,0,0-.32.66.17.17,0,0,0,.18.13,2.2,2.2,0,0,1,1,.05l0-.29a6.26,6.26,0,0,0-1.49.3c-.19.07-.07.34.12.29a2.45,2.45,0,0,1,1.37,0c.11,0,.25,0,.22-.16a1.05,1.05,0,0,0-.88-.84.16.16,0,0,0,0,.31.72.72,0,0,1,.61.57l.22-.16a2.88,2.88,0,0,0-1.62,0l.12.29a5.27,5.27,0,0,1,1.41-.28c.15,0,.19-.26,0-.3a2.61,2.61,0,0,0-1.21-.08l.17.13a.37.37,0,0,1,.34-.41.86.86,0,0,1,.65.29,2.62,2.62,0,0,1,.73,1.2l.28-.12a2,2,0,0,0-2.1-1.1,4.78,4.78,0,0,0-2.45,1.44c-.11.11,0,.36.16.27l1.25-.7a4.23,4.23,0,0,0,.53-.33,2.11,2.11,0,0,1,.52-.31.15.15,0,1,0-.12-.28Z"/><path class="cls-7" d="M223.59,166.27l-2.32,4.25a10,10,0,0,1-1.18,1.94,12.11,12.11,0,0,1-1.33,1.14,4.68,4.68,0,0,0-.95,1h0a.5.5,0,0,1,.2-.08h.11a.2.2,0,0,1,.11,0c.57-.69,1.41-1.16,2-1.8a8.5,8.5,0,0,0,1.14-1.81c.39-.7.77-1.41,1.15-2.11l1.32-2.41C224,166.22,223.68,166.1,223.59,166.27Z"/><path class="cls-7" d="M196.24,172.36a.65.65,0,0,1,1-.11,1.79,1.79,0,0,1,.63,1.07c.17.89-.66,1.39-1.31,1.79s-1.26.82-1.28,1.57c0,.6.38,1.2,1,1.11.3,0,.71-.31,1-.16s.18.56.08.8a1.73,1.73,0,0,1-.61.82c-.36.22-.58-.12-.79-.37a1,1,0,0,0-.88-.39,1.34,1.34,0,0,0-1,.48c-.39.57.16,1.31.75,1.41a1.68,1.68,0,0,0,1.09-.25,3,3,0,0,0,.47-.32c.14-.11.34-.28.53-.22s.32.46.25.68a.8.8,0,0,1-.8.45c-.67,0-1.58-.66-2.05.11a.78.78,0,0,0,.87,1.16,2.21,2.21,0,0,0,.82-.57c.19-.18.6-.43.86-.24s.1.37,0,.52a1,1,0,0,1-.38.42c-.42.26-.85.06-1.27-.1a1.6,1.6,0,0,0-1-.1.71.71,0,0,0-.53.62.89.89,0,0,0,.42.75,1.09,1.09,0,0,0,1,.1,3.08,3.08,0,0,0,.92-.59c.11-.09.31-.33.47-.25s.12.25.08.35c-.13.35-.68.32-1,.36a1.09,1.09,0,0,0-.86.42.77.77,0,0,0,.05.85,1,1,0,0,0,.87.44,2.37,2.37,0,0,0,1.12-.37c.09-.06.2-.13.31-.07s.13.17.16.25a1.31,1.31,0,0,1,.12.56,1.32,1.32,0,0,1-.41,1c-.14.14.05.39.19.25a1.71,1.71,0,0,0,.37-1.95c-.18-.36-.47-.52-.84-.31a1.77,1.77,0,0,1-1.25.34c-.33-.1-.66-.54-.38-.85s.73-.22,1.07-.28a.89.89,0,0,0,.75-.52.61.61,0,0,0-.23-.71c-.34-.18-.66.14-.9.35a1.88,1.88,0,0,1-1.06.53c-.31,0-.76-.32-.66-.67s.64-.33.93-.24a2.79,2.79,0,0,0,1.27.3,1.26,1.26,0,0,0,.85-.55.85.85,0,0,0,.07-1,.77.77,0,0,0-.81-.16,2.39,2.39,0,0,0-.82.59c-.28.23-.71.41-1,0a.47.47,0,0,1,0-.51.54.54,0,0,1,.6-.17,5.65,5.65,0,0,0,1.14.24c.64,0,1.28-.42,1.14-1.14a.77.77,0,0,0-.47-.59c-.36-.12-.67.15-.94.36a1.63,1.63,0,0,1-1.21.41.73.73,0,0,1-.6-.76c.07-.41.8-.62,1.14-.48s.43.51.71.69c.63.41,1.22-.35,1.46-.85a1.35,1.35,0,0,0,.15-.9.65.65,0,0,0-.65-.49c-.35,0-.68.25-1,.21s-.49-.39-.52-.69c-.06-.83.87-1.26,1.46-1.63a1.91,1.91,0,0,0,1.14-1.83c-.1-.68-.64-1.56-1.41-1.56a.87.87,0,0,0-.79.46c-.09.17.2.29.29.12Z"/><path class="cls-7" d="M197.53,185.91a24.3,24.3,0,0,1,2.31-2.94c.82-1,1.66-1.9,2.52-2.83.49-.53,1-1,1.49-1.57.13-.14-.11-.33-.25-.19-1.76,1.82-3.45,3.7-5.06,5.66a16.88,16.88,0,0,0-1.25,1.67c-.11.17.14.37.24.2Z"/><path class="cls-7" d="M197.46,183.05a35.51,35.51,0,0,1,7-5.44c.17-.11,0-.35-.19-.25a36.09,36.09,0,0,0-5.63,4.14c-.49.44-1,.89-1.43,1.36-.14.14.1.33.24.19Z"/><path class="cls-7" d="M198,180.61a21.3,21.3,0,0,1,7.2-3.53c.19-.06.07-.34-.12-.29a21.82,21.82,0,0,0-7.27,3.57.16.16,0,0,0,.19.25Z"/><path class="cls-7" d="M198.41,178l4.71-1.43c.19-.06.07-.34-.12-.29l-4.71,1.44c-.2.06-.08.34.12.28Z"/><path class="cls-7" d="M198.63,174.48a9.11,9.11,0,0,0,4.78,1c.2,0,.16-.32,0-.31a8.68,8.68,0,0,1-4.61-1c-.18-.09-.3.2-.13.29Z"/><path class="cls-7" d="M204.07,175.47a26.76,26.76,0,0,1-3.95-1.8,4.56,4.56,0,0,1-1.86-1.5c-.11-.17-.35,0-.25.19a4.31,4.31,0,0,0,1.66,1.42c.75.42,1.52.8,2.3,1.17a16.54,16.54,0,0,0,2.27.91A.52.52,0,0,1,204.07,175.47Z"/><path class="cls-7" d="M215.9,175.78a1.78,1.78,0,0,0,2,.32c.41-.14.8-.34,1.21-.49a6.65,6.65,0,0,1,1.17-.28,33.67,33.67,0,0,1,4.92,0,4.63,4.63,0,0,0,2.48-.6c.17-.1,0-.35-.19-.24a4.07,4.07,0,0,1-2.14.52c-.77,0-1.54-.05-2.3-.08a10,10,0,0,0-4.51.53c-.69.29-1.74.8-2.36.09-.14-.15-.38,0-.25.19Z"/><path class="cls-7" d="M226.63,175.34a11.79,11.79,0,0,0-.37,2.51,4.69,4.69,0,0,0,.13,1.18c.11.42.33.8.45,1.22l.21-.2a30.57,30.57,0,0,0-3.74-1.41l-3.88-1.28c-.19-.07-.31.22-.12.28l3.88,1.28a30.42,30.42,0,0,1,3.73,1.41c.14.07.24-.08.21-.2-.12-.4-.34-.76-.44-1.18a4.72,4.72,0,0,1-.12-1.19,12,12,0,0,1,.37-2.38c0-.2-.27-.24-.31,0Z"/><path class="cls-7" d="M226.14,180.41c-.58,1.06-.49,2.4-1.25,3.36a1.84,1.84,0,0,1-.66.51c-.25.12-.52.21-.77.36a4.72,4.72,0,0,0-1.25,1.23l.22,0a5.76,5.76,0,0,1-1.92-2.56,12.26,12.26,0,0,0-.81-1.41,6.26,6.26,0,0,0-1.24-1.33,6.52,6.52,0,0,0-1.76-1c-.18-.07-.31.21-.12.28a6.18,6.18,0,0,1,2.84,2.18c.63.89,1,1.93,1.59,2.83a4,4,0,0,0,1.23,1.26.17.17,0,0,0,.22,0,4.26,4.26,0,0,1,1.32-1.25,8.41,8.41,0,0,0,.81-.37,2.09,2.09,0,0,0,.58-.53c.75-1,.67-2.31,1.25-3.37.1-.18-.19-.3-.28-.13Z"/><path class="cls-7" d="M221.32,185.81a3.16,3.16,0,0,1-1.58,1.06,4.66,4.66,0,0,0-.85.46c-.29.2-.53.45-.83.63a1.27,1.27,0,0,1-.45.19.3.3,0,0,1-.3-.06,1.87,1.87,0,0,1-.15-.32l-.57-1.3c-.35-.81-.69-1.62-1.07-2.42a5.91,5.91,0,0,0-1.47-2.12c-.15-.13-.34.12-.19.25a5.77,5.77,0,0,1,1.4,2c.41.88.78,1.77,1.17,2.65.19.44.36.9.58,1.32s.57.32.89.2a3.28,3.28,0,0,0,.89-.59,4.2,4.2,0,0,1,.92-.58,3.69,3.69,0,0,0,1.86-1.22c.1-.16-.14-.36-.25-.19Z"/><path class="cls-7" d="M215.15,188.69l.5-1c.08-.16-.17-.3-.27-.16a3.61,3.61,0,0,1-2.82,1.24,17.13,17.13,0,0,0-3.72.27l.21.16a11.87,11.87,0,0,0-1-3.81,6.68,6.68,0,0,1,0-4.37c.06-.18-.22-.31-.29-.12a6.87,6.87,0,0,0-.11,4.3c.39,1.31,1.13,2.56,1.12,4a.16.16,0,0,0,.21.17,20,20,0,0,1,3.87-.27,3.78,3.78,0,0,0,2.79-1.33l-.26-.16-.5.95c-.09.18.2.3.29.13Z"/><path class="cls-7" d="M208.52,187.94l-1.21.19a2.29,2.29,0,0,1-1.07.06c-.32-.11-.45-.44-.61-.71a4,4,0,0,0-.54-.7,9.59,9.59,0,0,0-3.07-1.92l.06.24a17,17,0,0,0,2.47-4c.08-.18-.21-.3-.29-.12a16.62,16.62,0,0,1-2.42,4,.15.15,0,0,0,.06.24,8.52,8.52,0,0,1,3.18,2.09c.37.46.55,1.16,1.2,1.29a3,3,0,0,0,1.07-.08l1.21-.19a.16.16,0,0,0,0-.31Z"/><path class="cls-7" d="M199.66,185.27a12.8,12.8,0,0,0-2.32,3.7c-.69,1.47-1.35,3-2.08,4.41-.45.87-.91,1.73-1.39,2.59-.08.14.1.3.18.15.82-1.46,1.6-3,2.32-4.48s1.23-2.85,2-4.19a9.81,9.81,0,0,1,1.43-2c.11-.11,0-.32-.13-.2Z"/><path class="cls-7" d="M224.81,185a15.24,15.24,0,0,0,2.72,7.82,15,15,0,0,0,1.53,1.85v-.19a14.65,14.65,0,0,1-5.27,3.75,27.65,27.65,0,0,1-6.45,1.83,33.91,33.91,0,0,1-7.79.47A27.09,27.09,0,0,1,201.9,199a63.39,63.39,0,0,1-7.17-3.27,7.56,7.56,0,0,1-.86-.52c-.16-.12-.35.13-.19.24a11.12,11.12,0,0,0,1.72,1l1.8.88c1.22.6,2.45,1.16,3.72,1.66a27.57,27.57,0,0,0,7.69,1.88,33.79,33.79,0,0,0,7.91-.26,30.47,30.47,0,0,0,6.71-1.71,15.67,15.67,0,0,0,5.52-3.53c.2-.19.38-.4.56-.6a.15.15,0,0,0,0-.19,14.93,14.93,0,0,1-3.88-7.21,13.79,13.79,0,0,1-.31-2.31c0-.2-.32-.16-.31,0Z"/><path class="cls-7" d="M220.31,175.58a24.46,24.46,0,0,1,6.1-3.6,26.65,26.65,0,0,1,7.15-1.82c2.85-.32,5.74-.23,8.62-.33a27.29,27.29,0,0,0,7.34-1.05A12,12,0,0,0,255,165.5c.17-.2.34-.4.49-.61s-.14-.33-.25-.18a10.83,10.83,0,0,1-5.27,3.62,25.06,25.06,0,0,1-7.18,1.2c-2.85.12-5.72,0-8.56.27a27.85,27.85,0,0,0-7.26,1.64,25.51,25.51,0,0,0-6.18,3.38c-.23.17-.46.35-.68.54s0,.34.19.22Z"/><path class="cls-7" d="M255.53,165.08c-1.6,2.14-3.1,4.34-4.65,6.51s-3.12,4.31-4.86,6.32a36.8,36.8,0,0,1-5.34,5.1,25.46,25.46,0,0,1-6.07,3.49,18.33,18.33,0,0,1-6.74,1.35l-.86,0c-.2,0-.25.29,0,.3a18,18,0,0,0,6.83-1,24.59,24.59,0,0,0,6.24-3.26,34.15,34.15,0,0,0,5.45-4.89,72.21,72.21,0,0,0,5-6.29c1.58-2.19,3.09-4.42,4.69-6.6l.6-.82c.12-.16-.12-.35-.24-.19Z"/><path class="cls-7" d="M170.27,179.72s0,0,0,0a8.54,8.54,0,0,1-8.69-3.56c-.16-.23-.3-.47-.44-.71s-.38-.06-.28.11a9,9,0,0,0,4.92,4.15,8.69,8.69,0,0,0,3.31.47,9.27,9.27,0,0,0,1.18-.14A.57.57,0,0,1,170.27,179.72Z"/><path class="cls-7" d="M195.07,178.25a20.55,20.55,0,0,0-7-2.36,20.87,20.87,0,0,0-7.35.19,21.1,21.1,0,0,0-3.5,1.06c-1.14.45-2.24,1-3.37,1.43a19.77,19.77,0,0,1-2.72.92.39.39,0,0,1,.17.29c.43-.12.85-.24,1.26-.39,2.32-.8,4.49-2,6.87-2.68a20.63,20.63,0,0,1,14.67,1.39l.82.43C195.12,178.63,195.24,178.34,195.07,178.25Z"/><path class="cls-7" d="M160.91,176.84a21.72,21.72,0,0,0,3.65,5.84,25.25,25.25,0,0,0,5.22,4.51,27,27,0,0,0,6.49,3.09,33.4,33.4,0,0,0,8.24,1.54,42.74,42.74,0,0,0,8.38-.34l1-.16a.16.16,0,0,0,0-.31,43,43,0,0,1-8.32.55,34.16,34.16,0,0,1-8.17-1.25,28.18,28.18,0,0,1-6.69-2.9,25.45,25.45,0,0,1-5.34-4.3,21.93,21.93,0,0,1-3.83-5.62c-.12-.26-.23-.51-.34-.77a.15.15,0,0,0-.28.12Z"/><path class="cls-7" d="M204.38,201.38a90.58,90.58,0,0,1,2.93,11.84,94.6,94.6,0,0,1,1.35,12.12,92,92,0,0,1-.27,12.2c-.33,3.7-.9,7.39-1,11.11a25.65,25.65,0,0,0,1.42,10.47c.17.42.36.84.55,1.25a.16.16,0,0,0,.21.08,3.59,3.59,0,0,0,2.23-2.91,11.29,11.29,0,0,0,.26-2.17c0-1,.1-2.09.14-3.14q.26-6.31.29-12.64T212.32,227c-.12-4.21-.3-8.43-.56-12.63s-.58-8.41-1-12.6l-.15-1.57a.16.16,0,0,0-.31,0q.6,6.18,1,12.37c.27,4.12.47,8.26.61,12.39s.2,8.27.2,12.41-.07,8.32-.21,12.48c-.07,2-.11,4-.26,6-.1,1.29-.34,2.9-1.39,3.78a2.3,2.3,0,0,1-.88.45l.2.09a23.23,23.23,0,0,1-2-10.57c.06-3.7.6-7.37,1-11a93.17,93.17,0,0,0-.76-24.17,92.64,92.64,0,0,0-2.72-11.75c-.15-.49-.3-1-.46-1.46-.06-.19-.34-.07-.28.12Z"/><path class="cls-7" d="M214.56,201.25c-.12,3.34,1.16,6.49,1.47,9.78a24.67,24.67,0,0,1-1.7,10.46c-.33.94-.69,1.87-1.06,2.79-.19.47-.38.94-.58,1.41a1.91,1.91,0,0,0-.22.62,1,1,0,0,0,0,.29v0c.08,0,.11.05.08,0s0,0,0,.07l-.08.08h-.07a.16.16,0,0,0,.13-.29c-.27-.12-.34.2-.17.36s.44,0,.44-.28c0-.09,0-.17,0-.26a1.18,1.18,0,0,1,.12-.36c.1-.22.19-.45.29-.68.19-.46.38-.92.56-1.38a48.19,48.19,0,0,0,1.85-5.47,23.09,23.09,0,0,0,.81-5.66,24.72,24.72,0,0,0-.71-5.48,24.54,24.54,0,0,1-.83-6c0-.2-.3-.24-.31,0Z"/><path class="cls-7" d="M208.64,230.27,204.93,239l-3.72,8.73-1.86,4.39-.92,2.17L198,255.4a2,2,0,0,0-.29,1,.81.81,0,0,0,1.09.61c.59-.18.94-.83,1.27-1.3q1.31-1.82,2.5-3.69a89.22,89.22,0,0,0,4.48-7.76l.5-1c.08-.18-.2-.3-.29-.12q-1.93,3.87-4.23,7.56c-.76,1.22-1.55,2.42-2.36,3.6-.41.59-.82,1.17-1.24,1.75a1.78,1.78,0,0,1-.62.6.6.6,0,0,1-.71-.1c-.21-.26,0-.68.15-.93l.44-1,.91-2.14,1.77-4.17,3.58-8.41,3.58-8.42.44-1a.16.16,0,0,0-.29-.12Z"/><path class="cls-7" d="M220,200.7c.06,2.43.63,4.81.84,7.22a28.53,28.53,0,0,1-.31,7,50.27,50.27,0,0,1-4.6,13.47c-1.17,2.42-2.43,4.8-3.71,7.17-.1.18.19.3.28.12a102.92,102.92,0,0,0,6.26-13.11,34.76,34.76,0,0,0,2.45-13.85c-.15-2.72-.83-5.37-.9-8.09,0-.2-.31-.16-.31,0Z"/><path class="cls-7" d="M196.45,157.47c.2,0,.24-.28.05-.3s-.24.28-.05.3Z"/><path class="cls-10" d="M192.7,183.5a7.83,7.83,0,0,0-4.43-1.2c-1.75,0-3.51.08-5.26.2s-3.61.37-5.42.5a19,19,0,0,1-5.42-.31,44,44,0,0,1-5.91-1.85c-.19-.08-.32.22-.12.29a51.77,51.77,0,0,0,5.16,1.68,18.54,18.54,0,0,0,5.3.57c1.79-.07,3.57-.33,5.36-.48s3.59-.25,5.38-.28a8.51,8.51,0,0,1,5.17,1.13c.16.12.36-.13.19-.25Z"/><path class="cls-10" d="M182.35,181.51a5.27,5.27,0,0,0-2.47-2.1c-.94-.38-2.19-.41-2.86-1.27a.16.16,0,0,0-.25.19c.66.86,1.8.95,2.75,1.29a5,5,0,0,1,2.58,2.08c.1.17.36,0,.25-.19Z"/><path class="cls-10" d="M183.79,177.7a8.2,8.2,0,0,0,3.55,5.29c.17.12.37-.13.19-.25a7.9,7.9,0,0,1-3.43-5.08c0-.2-.35-.16-.31,0Z"/><path class="cls-10" d="M190.26,178.59a13.49,13.49,0,0,1,.38,4.69c0,.2.29.25.31,0a13.22,13.22,0,0,0-.38-4.77c0-.2-.37-.16-.31,0Z"/><path class="cls-10" d="M181.07,183.41l.1-.38c0-.14-.15-.21-.25-.14a26.33,26.33,0,0,1-8.2,3.4c-.19.05-.15.37.05.32a26.69,26.69,0,0,0,6.62-2.47c.58-.31,1.16-.64,1.72-1l-.25-.15-.11.38c-.05.2.27.24.32,0Z"/><path class="cls-10" d="M189.06,182.78a11.92,11.92,0,0,1-5,4.34,11.62,11.62,0,0,1-1.79.65c-.2.06-.07.35.12.3a12.23,12.23,0,0,0,5.76-3.54,12.09,12.09,0,0,0,1.2-1.55c.11-.18-.14-.37-.25-.2Z"/><path class="cls-10" d="M228.14,181.88a37.09,37.09,0,0,0,22.52-9.31c.15-.13,0-.39-.19-.25a37,37,0,0,1-17,8.54,35.61,35.61,0,0,1-5.35.7c-.21,0-.16.33,0,.32Z"/><path class="cls-10" d="M229.67,181.35a8,8,0,0,0,3-2.92,18.69,18.69,0,0,1,1.34-1.71,7.7,7.7,0,0,1,2-1.51,21.2,21.2,0,0,1,2.62-1.18.16.16,0,0,0-.12-.3,13.6,13.6,0,0,0-4.39,2.43,38.51,38.51,0,0,0-2.68,3.4,5.35,5.35,0,0,1-1.85,1.49.16.16,0,0,0,.12.3Z"/><path class="cls-10" d="M238.91,179.47c1.59-2.27,3.28-4.67,5.83-6a7.54,7.54,0,0,1,2-.7c.2,0,.16-.36,0-.32-2.78.51-4.91,2.54-6.58,4.7-.52.68-1,1.38-1.51,2.08-.12.17.13.37.25.2Z"/><path class="cls-10" d="M233.08,181.6a9.82,9.82,0,0,0,4.71,2.9c.19.05.23-.26,0-.32a9.4,9.4,0,0,1-4.5-2.77c-.13-.15-.39,0-.25.19Z"/><path class="cls-10" d="M241.53,178.52c-.1,0,.19.24.23.27l.19.12.34.19a3.74,3.74,0,0,0,.8.33,5,5,0,0,0,1.67.22c.2,0,.16-.32,0-.31a4.74,4.74,0,0,1-2.28-.52,4.27,4.27,0,0,1-.51-.3c-.13-.09-.27-.2-.44-.14s-.1.58.16.43.06-.39-.12-.29Z"/><path class="cls-10" d="M201.16,189.07l.08-.2a.13.13,0,0,0,0-.12l0-.05s0,0-.05,0a.2.2,0,0,0-.13,0,.18.18,0,0,0-.08.09l-.08.2a.13.13,0,0,0,0,.12l0,.05,0,0a.19.19,0,0,0,.13,0,.18.18,0,0,0,.08-.09Z"/><path class="cls-10" d="M199,191.77h0v0l0-.08,0,0,.06-.07,0,0,.06,0,0,0h0a.09.09,0,0,0,0,0l0-.05a.13.13,0,0,0,0-.06.15.15,0,0,0,0-.07.18.18,0,0,0-.09-.08h0a.11.11,0,0,0-.08,0l-.09.06-.08.08a.26.26,0,0,0,0,.09.19.19,0,0,0,0,.1.09.09,0,0,0,0,.07s0,0,0,.05a.08.08,0,0,0,0,0l.06,0a.13.13,0,0,0,.12,0l0,0a.11.11,0,0,0,0-.07Z"/><path class="cls-10" d="M204,191.45h0l0,0,0,0,0,0h0l0,0,0,0,0,0,0,0s0,0,0,0l0,0v0a0,0,0,0,1,0,0l0,0a0,0,0,0,1,0,0l0,0,0,0,0,0,0,0h0l0,0,0,0,0,0v0l0,0v0a.16.16,0,0,0,.08.08.08.08,0,0,0,.07,0,.07.07,0,0,0,.06,0,.15.15,0,0,0,.08-.2.26.26,0,0,0-.22-.17.39.39,0,0,0-.15,0l-.06,0a.08.08,0,0,0,0,0,.2.2,0,0,0-.06.07h0s0,0,0,.06v.07a.14.14,0,0,0,0,.06h0s0,.05,0,.06l.05.06a.29.29,0,0,0,.13.05h.1l.06,0,.06,0,0,0,0,0a.14.14,0,0,0,0-.11.15.15,0,0,0-.06-.11.17.17,0,0,0-.12,0,.13.13,0,0,0-.1.06Z"/><path class="cls-10" d="M201.11,194h0l0,0h.15l0,0h0l0,0h0s0,0,0,0h0a.43.43,0,0,1,0-.05v0h0s0,0,0-.06h0s0,0,0,0h0s0,0,0,0l0,0h0l0,0h-.16l0,0,0,0a.15.15,0,0,0,0,.07.07.07,0,0,0,0,.06l0,0a.15.15,0,0,0,.06,0h0a.14.14,0,0,0,.09,0h-.09l0,0h0l0,0h0l0,0h0v0a.06.06,0,0,1,0,0l0,0s0,0,0,0l0,0v0l0,0h0l0,0h.09l0,0h0l-.06,0a.06.06,0,0,0-.06,0l-.06,0a.08.08,0,0,0,0,0l0,0a.15.15,0,0,0,0,.09v0l.05.06Z"/><path class="cls-10" d="M207.31,196.33h0l0,0,0,0,0,0v0l0,0s0,0,0,0v.06a.07.07,0,0,1,0,0l0,0,0-.07,0,0,0-.06,0,0s0,0,0,0l0,0,0,0h-.06l0,0,0,0,0,0,0,0v-.2l0,0,0,0,0,0,0,0-.06,0h0l-.09,0h0a.13.13,0,0,1-.08,0l0,0-.06,0,0,0,0-.06,0,0s0,0,0,0v0a.16.16,0,1,0-.31,0,.41.41,0,0,0,.23.32.46.46,0,0,0,.36,0,.4.4,0,0,0,.18-.13.15.15,0,0,0,0-.2.28.28,0,0,0-.23-.11.34.34,0,0,0-.17.08.38.38,0,0,0-.13.4.24.24,0,0,0,.21.16.16.16,0,0,0,.18-.13.17.17,0,0,0-.14-.18Z"/><path class="cls-10" d="M208.73,191.74l-.4.3a.16.16,0,0,0,.07.28.12.12,0,0,0,.12,0l.4-.3a.17.17,0,0,0,.06-.11.12.12,0,0,0,0-.11.14.14,0,0,0-.1-.07.16.16,0,0,0-.12,0Z"/><path class="cls-10" d="M213.67,191.33l-.23.08a.29.29,0,0,0-.09.09s0,0,0,.06a.13.13,0,0,0,0,.06.14.14,0,0,0,.09.08l0,0h.08l.23-.08.05,0a.09.09,0,0,0,0-.05.19.19,0,0,0,0-.12.14.14,0,0,0-.08-.09h-.12Z"/><path class="cls-10" d="M218.24,191h0l0,0a0,0,0,0,0,0,0l0,0,0,0,0,0h0l0,0h0l-.06,0,0,0-.06,0,0,0,0,0,0,0s0,0,0,0V191h0l0,0,0,0,0,0,0,0,0,0h-.1l0,0h0l0,0s0,0,0,0l0,0v0s0,0,0,.06l0,0,0,0,0,0,0,0,0,0h0a.13.13,0,0,0-.12,0,.14.14,0,0,0-.09.08.19.19,0,0,0,0,.13.15.15,0,0,0,.08.08.28.28,0,0,0,.22,0,.28.28,0,0,0,.11-.08.56.56,0,0,0,.05-.08.42.42,0,0,0,0-.19.29.29,0,0,0-.11-.19l-.05,0a.15.15,0,0,0-.13,0s0,0,0,0a.24.24,0,0,0-.08.09.23.23,0,0,0,0,.2.41.41,0,0,0,.1.13.29.29,0,0,0,.12.07.28.28,0,0,0,.22,0,.23.23,0,0,0,.14-.2.13.13,0,0,0,0-.12.17.17,0,0,0-.1-.06.16.16,0,0,0-.18.14Z"/><path class="cls-10" d="M222.27,188.83h0l0,0,0,0,0,0s0,0,0,0l0,0s0,0,0,.05v0s0,0,0,.06v0s0,0,0,0v0s0,0,0,.05l0,0,0,0,0,0,0,0,0,0h0l0,0,0,0,0,0,0,0,0,0,0,0s0,0,0,0l0,0a.08.08,0,0,1,0,0v0a.16.16,0,0,0-.13-.18.17.17,0,0,0-.12,0l0,0a.11.11,0,0,0,0,.08.33.33,0,0,0,.07.27.38.38,0,0,0,.25.13.29.29,0,0,0,.16,0,.23.23,0,0,0,.12-.1.36.36,0,0,0,.06-.27.32.32,0,0,0-.2-.25.13.13,0,0,0-.12,0,.16.16,0,0,0-.08.08.15.15,0,0,0,0,.13.15.15,0,0,0,.08.08Z"/><path class="cls-10" d="M223.9,194.06a.39.39,0,0,0,.37-.54.36.36,0,0,0-.14-.16.38.38,0,0,0-.21,0,.42.42,0,0,0-.29.26.37.37,0,0,0,0,.21.36.36,0,0,0,.13.21.17.17,0,0,0,.12,0A.2.2,0,0,0,224,194a.19.19,0,0,0,.05-.09v0a.16.16,0,0,0,0-.07h0l0,0s0,0,0,0v0a.06.06,0,0,1,0,0v0a.09.09,0,0,1,0-.05v.05a.08.08,0,0,1,0-.05l0,0a.1.1,0,0,1,0,0l0,0,.06-.05,0,0s0,0,.06,0h0l0,0,0,0a.15.15,0,0,0,.22,0,.16.16,0,0,0,0-.22.36.36,0,0,0-.36,0,.42.42,0,0,0-.23.3.17.17,0,0,0,0,.1.35.35,0,0,0,.05.13l.23-.22,0,0,0,0,0,0,0,0s0,0,0,0v0a.11.11,0,0,1,0,0v0a.17.17,0,0,1,0-.07v0l0-.07,0,0a.21.21,0,0,1,0-.06l0,0,.05,0,0,0,0,0h0l0,0,0,0,0,0,0,0,0,0,0,0a.05.05,0,0,1,0,0v0s0,0,0,.06v0s0,.05,0,.08v0l0,.07,0,0,0,0,0,0,0,0,0,0h0a.17.17,0,0,0-.18.14.16.16,0,0,0,.14.18Z"/><path class="cls-10" d="M219.91,193.34a.16.16,0,0,0,0-.31.16.16,0,0,0,0,.31Z"/><path class="cls-10" d="M213.7,194.75l.19-.34a.2.2,0,0,0,0-.13.18.18,0,0,0-.09-.08.13.13,0,0,0-.12,0l0,0a.15.15,0,0,0-.05.06l-.2.34a.19.19,0,0,0,0,.13.18.18,0,0,0,.09.08.13.13,0,0,0,.12,0l0,0s0,0,0-.06Z"/><path class="cls-10" d="M217.9,194.88v0l0,0,0,0,0,0s0,0,0,0l0,0h0l.05,0,0,0,0,0,0,0,0,0,0,0v0a.17.17,0,0,0,0,.12.17.17,0,0,0,.1.06.24.24,0,0,0,.12,0,.15.15,0,0,0,.06-.11.28.28,0,0,0-.18-.31.31.31,0,0,0-.43.13s0,0,0,0a.14.14,0,0,0,0,.07.2.2,0,0,0,0,.11.17.17,0,0,0,.11.06.14.14,0,0,0,.12,0,.13.13,0,0,0,.06-.1Z"/><path class="cls-10" d="M212.28,197.79l.05-.06v0s0,0,0,0l0,0,.06,0,0,0h0l.07,0h0l.15,0-.17-.18-.05.47a.17.17,0,0,0,.14.18.17.17,0,0,0,.18-.14.13.13,0,0,1,0-.06v0h0a.49.49,0,0,1,0-.11h0s0,0,0,0l0-.05,0,0h0l0,0a.16.16,0,0,0-.19-.26.88.88,0,0,0-.31.56l.32,0,0-.47a.16.16,0,0,0,0-.13.17.17,0,0,0-.14-.05.88.88,0,0,0-.65.34.16.16,0,0,0,.25.2Z"/><path class="cls-10" d="M219.3,198.21h0s0,0,0,0l0,0h0l0,0h0a0,0,0,0,0,0,0,.08.08,0,0,0,0,0,.09.09,0,0,0,0-.07v0a.19.19,0,0,0,0-.07l0,0h0l0-.05-.05,0h0l-.05,0h-.06l-.07,0-.06,0-.05.05s0,0,0,0l0,.06s0,0,0,.06h0V198l0,.05v0a.27.27,0,0,0,.07.08l.06,0h.06l.06,0,0,0a.19.19,0,0,0,0-.12v0a.18.18,0,0,0-.05-.07h0l0,0v0l0,0a0,0,0,0,1,0,0V198s0,0,0,0l0,0,0,0,0,0a0,0,0,0,1,0,0l0,0h0l0,0h0l0,0v0l0,0,0,0,0,0a.06.06,0,0,1,0,0v0a0,0,0,0,1,0,0l0,0,0,0,0,0s0,0,0,0l0,0,0,0,0,0h0l-.05,0a.09.09,0,0,0,0,.05.17.17,0,0,0,.08.21h.12Z"/><path class="cls-10" d="M201.66,196.56l0,0s0,0,0,0h0a.16.16,0,0,1,.09,0h0a.32.32,0,0,1,.14,0h0a.36.36,0,0,1,.14,0h0l.07,0-.09-.17s0,.07,0,.1v0a.49.49,0,0,1,0,.11l0,0,0,0h0s0,0,0,0,0,0,0,0h.05l0,0h0s0,0,0,0v0l0,0s0,0,0,0h0l0,0h0l-.05,0h0l0,0h0a.15.15,0,0,0,.22,0,.16.16,0,0,0,0-.22.2.2,0,0,0-.29,0,.29.29,0,0,0-.05.22.24.24,0,0,0,.2.21.31.31,0,0,0,.29-.14.59.59,0,0,0,.1-.29.17.17,0,0,0-.09-.17.7.7,0,0,0-.7.08.16.16,0,1,0,.19.25Z"/><path class="cls-10" d="M198.07,186.07c.62-.34,1.41-.75,2.09-.33.5.32.89.86,1.54.81a.16.16,0,0,0,0-.31,1.23,1.23,0,0,1-.83-.39,3,3,0,0,0-.8-.52,2.59,2.59,0,0,0-2.09.45c-.17.1-.05.39.13.29Z"/><path class="cls-10" d="M202.79,176.85a.16.16,0,0,0,0-.32c-.2,0-.24.29,0,.32Z"/><path class="cls-10" d="M216.42,175.26a13.47,13.47,0,0,1-5.12.88c-.2,0-.16.32,0,.31a13.51,13.51,0,0,0,5.2-.9c.19-.08.07-.38-.12-.29Z"/><path class="cls-10" d="M218.36,174.18a.16.16,0,0,0,0-.31c-.21,0-.25.29,0,.31Z"/><path class="cls-10" d="M218.27,174.09a6.65,6.65,0,0,1-2.71,1.07c-.2,0-.16.35,0,.32a6.87,6.87,0,0,0,2.86-1.14c.17-.12,0-.37-.19-.25Z"/></g></g></svg>