<svg xmlns="http://www.w3.org/2000/svg" viewBox="0 0 35.3 67.13"><defs><style>.cls-1{fill:#8ae9ec;}</style></defs><g id="Layer_2" data-name="Layer 2"><g id="Layer_1-2" data-name="Layer 1"><path class="cls-1" d="M26.48,0c1.79,0,3.6.1,5.39.18C33,.23,34.21.39,35.3.51l-.08,10.81h-.86l-3.56,0c-.89,0-1.78,0-2.67,0-2.86.1-5,1.17-5.12,4.75-.09,2.58-.15,8.27-.16,8.57H34.78c-.58,4.15-1.11,8.13-1.69,12.14H22.86l-.23,30.33H10.05l.23-30.38H0L.09,24.68H10.42v-.91c0-2.43,0-4.86.08-7.3a31.31,31.31,0,0,1,.39-4.62,13.77,13.77,0,0,1,5.51-9A15.77,15.77,0,0,1,25.48,0Z"/></g></g></svg>