<svg xmlns="http://www.w3.org/2000/svg" viewBox="0 0 58.82 58.79"><defs><style>.cls-1{fill:#8ae9ec;}</style></defs><g id="Layer_2" data-name="Layer 2"><g id="Layer_1-2" data-name="Layer 1"><path class="cls-1" d="M45.2,10.22h0a3.51,3.51,0,0,1,3.5,3.54,3.57,3.57,0,0,1-3.57,3.52,3.54,3.54,0,0,1,0-7.07Z"/><path class="cls-1" d="M58.46,14.76c.43,4.63.72,26.49-.65,31.62-1.82,6.7-6.19,10.67-13,11.76a147.58,147.58,0,0,1-16.22.65c-7,0-14-.26-16.34-.87C5.6,56.2,1.62,51.85.56,45.1c-.79-5-.87-28,.56-33C3,5.57,7.34,1.75,13.94.66A114.43,114.43,0,0,1,28.67,0C34.16,0,39.7.15,43,.33A16.17,16.17,0,0,1,53.76,4.72,15.49,15.49,0,0,1,58.46,14.76ZM52.8,44.13c.84-5.17.85-24,.36-28.88-.52-5.17-3.69-8.57-8.8-9.37a136.75,136.75,0,0,0-14.71-.55c-5.85,0-11.68.15-14.24.43-5.13.59-8.58,3.76-9.4,8.86-.84,5.4-.83,25.62-.2,29.68a9.52,9.52,0,0,0,7.26,8.31c2.28.64,9.11.87,15.81.87,6.17,0,12.23-.2,14.5-.44,5.18-.57,8.6-3.76,9.42-8.91"/><path class="cls-1" d="M29.53,14.33A14.94,14.94,0,0,1,44.48,29.42a15.22,15.22,0,0,1-15.2,15.07A14.94,14.94,0,0,1,14.33,29.4,15.19,15.19,0,0,1,29.53,14.33Zm-.22,24.82a9.85,9.85,0,0,0,9.84-9.66,9.65,9.65,0,0,0-9.59-9.84h-.08a9.85,9.85,0,0,0-9.84,9.65,9.67,9.67,0,0,0,9.59,9.85h.08"/></g></g></svg>