<svg xmlns="http://www.w3.org/2000/svg" viewBox="0 0 36.51 29.18"><defs><style>.cls-1{fill:#1d1d1b;}</style></defs><g id="Layer_2" data-name="Layer 2"><g id="Layer_1-2" data-name="Layer 1"><path class="cls-1" d="M22.21,16.59h0a.7.7,0,0,0-.81.22,5.34,5.34,0,0,1-1,.86,17.54,17.54,0,0,0-3.88,4.26,31.27,31.27,0,0,0-3.42,5.9,2.09,2.09,0,0,0-.21.78.59.59,0,0,0,.34.48l.12.06a.39.39,0,0,0,.43-.08A9.68,9.68,0,0,0,15,26.72a25.73,25.73,0,0,1,2.31-4.12,21.56,21.56,0,0,1,3-3.35,2.12,2.12,0,0,1,.24-.2,3.51,3.51,0,0,1,.36-.29c.22-.13.42-.28.63-.42l.15-.14a2.19,2.19,0,0,1,1.19-.68.76.76,0,0,0,0-.25A1.06,1.06,0,0,0,22.21,16.59Z"/><path class="cls-1" d="M31.62,16.91a8.68,8.68,0,0,1,2.59.17h0A1.11,1.11,0,0,0,35.56,17c.37-.27.38-.74.48-1.15,0-.06-.16-.19-.27-.25a.6.6,0,0,0-.63,0c-.38.21-.75.44-1.12.66l-3.77-.7a3.31,3.31,0,0,0-1.11-.29.35.35,0,0,1,.25-.4,3.29,3.29,0,0,1,.64-.12,11.74,11.74,0,0,0,2.57-.53,6.79,6.79,0,0,0,.83-.37c.23-.12.44-.27.66-.41-4.37,1.19-6.56.68-6.41.47h0a22,22,0,0,1,3.54-1.66A3,3,0,0,0,32.87,11a3.15,3.15,0,0,1,.65-.61,8.43,8.43,0,0,0,.9-.2,1,1,0,0,0,.43-1.65,1.1,1.1,0,0,0-.3-.27c-.22-.13-.4-.16-.45.17a.25.25,0,0,1-.4.17c-.4-.28-.58-.1-.65.25s-.1.67-.15,1c-.76,1.26-4.93,3.15-5.79,2.64.22-.35,1.05-2.55,1.4-3.21a5.15,5.15,0,0,1,1.38-1.59c.37,0,1.27.56,1.36,0,.05-.31.29-.65-.1-.9s-.64.06-.9.25-.52.19-.59-.23A6.15,6.15,0,0,1,29.53,6c0-.13,0-.24-.11-.3a.32.32,0,0,0-.45.14,3.66,3.66,0,0,0,.16,1.49c-.51,1-3.61,7.12-3.71,4.53,0-.42,0-.83,0-1.24l.42-2.7c0-.09-.11-.15-.19-.09A12.67,12.67,0,0,0,25,10.53h0a19.6,19.6,0,0,0-.2,2.76,1.71,1.71,0,0,1-.48.61s-.46-.84-.58-1.16c-.42-1.1-1-4.28-1.25-4.78a1.87,1.87,0,0,0,.67-1.42.28.28,0,0,0-.36.08c-.17.15-.33.26-.57.12s-.3-.27-.45-.12a.84.84,0,0,0-.12.48.89.89,0,0,0,.45.76A28.88,28.88,0,0,0,23.81,14c.17.29,1,1.56,1,1.56a9.06,9.06,0,0,0,1.89,1.71,17.1,17.1,0,0,0,1.91,1.08h0c.89.53,1.77,1.06,2.66,1.56a8.5,8.5,0,0,0,1,.42l.35.07a1.49,1.49,0,0,1,.47,0c.1,0,.28,0,.31,0s-.06-.22-.18-.26-1-.4-1-.4a5.63,5.63,0,0,1-.61-.27l-3-1.74a6.6,6.6,0,0,1-1-.75c-.09-.09-.17-.22-.08-.33a.53.53,0,0,1,.3-.22,8.7,8.7,0,0,1,2,.34A10.71,10.71,0,0,0,31.62,16.91Z"/><path class="cls-1" d="M34.87,13.25c-.07.51.29.87.53,1.27a.38.38,0,0,0,.64,0,2.32,2.32,0,0,0,.47-1.12,3.22,3.22,0,0,0-.3-.55.86.86,0,0,0-.93-.27.61.61,0,0,0-.41.68Z"/><path class="cls-1" d="M25.66,6.55h0c.26.59.3.61.76.25.07,0,.12-.12.18-.17A1.84,1.84,0,0,0,27,6.48c.5-.35.47-.69-.06-1-.73-.35-1.14-.15-1.28.65A1.18,1.18,0,0,0,25.66,6.55Z"/><path class="cls-1" d="M34.52,20.12A.46.46,0,0,0,34.2,20a.62.62,0,0,0-.36.07.3.3,0,0,0-.06.44.54.54,0,0,0,.33.11c.07,0,.15-.06.23-.09S34.65,20.31,34.52,20.12Z"/><path class="cls-1" d="M25.64,17.59a2.8,2.8,0,0,0-1-.79h0c-.29-.24-.77-.35-.61-.87.05-.14,0-.23-.18-.27-.37-.08-.47-.37-.54-.66s-.19-.84-.31-1.25c0-.09-.18-.15-.27-.23,0,.12-.14.24-.12.34.16.66.36,1.32.54,2a.76.76,0,0,1-.36.46l.28.41a.75.75,0,0,0,.21,0,.59.59,0,0,0,.52.24h0l.87.47c.27.15.53.32.81.46a.24.24,0,0,0,.23,0A.24.24,0,0,0,25.64,17.59Z"/><path class="cls-1" d="M29.37,16.63,29,16.54"/><path class="cls-1" d="M9.59,9.43h0a.52.52,0,0,1,.52.36,3.75,3.75,0,0,0,.52.85,13.37,13.37,0,0,1,1.67,4,22.71,22.71,0,0,1,.95,5,1.59,1.59,0,0,1,0,.6.45.45,0,0,1-.36.25h-.1a.3.3,0,0,1-.29-.15,7.92,7.92,0,0,1-.28-2,18.32,18.32,0,0,0-.61-3.47,15.73,15.73,0,0,0-1.29-3.1l-.12-.2a1.32,1.32,0,0,0-.19-.29l-.34-.45-.06-.14a1.67,1.67,0,0,0-.67-.77A.44.44,0,0,1,9,9.75.76.76,0,0,1,9.59,9.43Z"/><path class="cls-1" d="M2.9,7.33A6.6,6.6,0,0,0,1,6.81H1A.83.83,0,0,1,.11,6.4c-.19-.28-.08-.61,0-.92,0-.05.16-.1.25-.12a.46.46,0,0,1,.44.18c.22.24.42.49.63.74l2.82.44a2.21,2.21,0,0,1,.85.06A.27.27,0,0,0,5,6.44a2.86,2.86,0,0,0-.42-.24,8.84,8.84,0,0,1-1.67-1,3.56,3.56,0,0,1-.49-.46A4.14,4.14,0,0,1,2,4.27C4.8,6.19,6.46,6.37,6.41,6.19h0a16,16,0,0,0-2.08-2,2.28,2.28,0,0,1-.86-1.26,2.79,2.79,0,0,0-.31-.59,4.32,4.32,0,0,1-.58-.36A.72.72,0,0,1,2.69.68.83.83,0,0,1,3,.56c.18,0,.32,0,.28.24A.18.18,0,0,0,3.48,1c.35-.1.43.07.39.34s-.09.5-.14.74C4,3.17,6.42,5.53,7.15,5.38c-.07-.3-.11-2-.2-2.6a3.8,3.8,0,0,0-.58-1.46c-.25-.1-1,.08-1-.33,0-.23,0-.53.29-.61s.44.19.57.39.32.26.48,0a6.19,6.19,0,0,0,.3-.57c0-.09,0-.18.15-.19a.24.24,0,0,1,.28.21,2.76,2.76,0,0,1-.48,1c.11.81.78,5.9,1.49,4.1.12-.29.2-.58.3-.88.12-.66.25-1.33.37-2,.05-.06.12-.08.16,0a9.45,9.45,0,0,1-.23,2h0a15,15,0,0,1-.54,2A1.32,1.32,0,0,0,8.74,7s.53-.48.7-.68c.57-.66,1.75-2.76,2.06-3.05a1.39,1.39,0,0,1-.12-1.16.22.22,0,0,1,.23.14c.08.16.17.27.37.23s.28-.12.35,0a.61.61,0,0,1,0,.37.67.67,0,0,1-.5.42A21.93,21.93,0,0,1,9.12,7.18L8.07,8a7.28,7.28,0,0,1-1.76.74,12.33,12.33,0,0,1-1.6.29h0l-2.26.44c-.26,0-.53,0-.79.05l-.26,0a1.46,1.46,0,0,0-.34-.1C1,9.41.85,9.37.85,9.33s.09-.15.19-.14.8,0,.8,0a4.19,4.19,0,0,0,.5,0l2.55-.48a4.83,4.83,0,0,0,.89-.28c.09,0,.18-.11.14-.22a.44.44,0,0,0-.15-.22,6.88,6.88,0,0,0-1.49-.25A8.51,8.51,0,0,1,2.9,7.33Z"/><path class="cls-1" d="M.07,8.87a.38.38,0,0,1,.26,0A.36.36,0,0,1,.56,9a.22.22,0,0,1-.06.32.47.47,0,0,1-.26,0S.15,9.23.1,9.18-.07,9,.07,8.87Z"/><path class="cls-1" d="M6.94,9.29A1.86,1.86,0,0,1,7.86,9h0c.26-.1.63-.06.64-.47,0-.1.08-.15.2-.14.27,0,.42-.14.54-.33s.34-.54.53-.8c0-.06.16-.06.24-.09s.05.2,0,.26c-.28.43-.57.84-.86,1.26a.59.59,0,0,0,.13.42L9,9.31a.41.41,0,0,1-.15-.07.4.4,0,0,1-.42,0h0l-.73.12c-.22,0-.45.09-.68.12a.18.18,0,0,1-.15-.08A.18.18,0,0,1,6.94,9.29Z"/><path class="cls-1" d="M4.55,7.69l.26,0"/></g></g></svg>