<svg xmlns="http://www.w3.org/2000/svg" xmlns:xlink="http://www.w3.org/1999/xlink" viewBox="0 0 407.31 455.55"><defs><style>.cls-1{fill:#ebfbfc;}.cls-2{fill:#d8f8f9;}.cls-3{fill:#b1f0f2;}.cls-4{fill:#8ae9ec;}.cls-5{font-size:34.64px;font-family:PoiretOne-Regular, PoiretOne Regular;}.cls-6{fill:#fff;}.cls-7{fill:url(#radial-gradient);}.cls-8{fill:#231f20;}.cls-9{fill:#58595b;}</style><radialGradient id="radial-gradient" cx="201.09" cy="208.16" r="8.33" gradientUnits="userSpaceOnUse"><stop offset="0" stop-color="#f392b8"/><stop offset="0" stop-color="#f6b5cd" stop-opacity="0.99"/><stop offset="0" stop-color="#f8c4d6" stop-opacity="0.99"/><stop offset="0.6" stop-color="#fce6ee" stop-opacity="0.82"/><stop offset="1" stop-color="#fff" stop-opacity="0.7"/></radialGradient></defs><g id="Layer_2" data-name="Layer 2"><g id="Selected"><circle class="cls-1" cx="203.66" cy="203.66" r="178"/><circle class="cls-2" cx="203.66" cy="203.66" r="164.69"/><circle class="cls-3" cx="203.66" cy="203.66" r="150.97"/><circle class="cls-4" cx="203.66" cy="203.66" r="132.25"/><text class="cls-5" transform="matrix(0.99, 0.15, -0.15, 0.99, 161.21, 403.22)">N</text><text class="cls-5" transform="translate(187.17 406.71) rotate(3.45)">i</text><text class="cls-5" transform="matrix(1, -0.01, 0.01, 1, 198.06, 407.41)">x</text><text class="cls-5" transform="translate(216.91 406.93) rotate(-4.88)">i</text><text class="cls-5" transform="translate(227.84 406.06) rotate(-9.24)">e</text></g><g id="Layer_1-2" data-name="Layer 1"><circle class="cls-4" cx="203.66" cy="203.66" r="130.39"/><ellipse class="cls-6" cx="203.66" cy="203.66" rx="113.19" ry="113.44"/><circle class="cls-7" cx="201.09" cy="208.16" r="8.33"/><path class="cls-8" d="M222.6,174.62c2.87,3.15,7.37,12.7,5.51,16.64a.57.57,0,0,0,0-.14l.09-.05-.11-.08c-.11-.38-.28-.54-.5-.37l-.1-.07c.81-10.92-9.1-16.79-14-25-.15-10.77-7.88-19.73-7-30.5.16-.12.31-.25.47-.36l-.4-.52a8.47,8.47,0,0,0-.07.88c-11.55,9.06-37.61,54.19-29.23,68-.34.14-.69.25-1,.38-2.83-4.68-2.1-10.14-.8-15.25a146.82,146.82,0,0,1,26.59-50.42c1.37-1.6,2.69-4.73,5.25-4.07,0,7.11,2.23,14.27,5.43,20.92C214.26,164.33,214.21,168,222.6,174.62Z"/><path class="cls-8" d="M228.16,191.07l-.09.05a.44.44,0,0,0,0-.13Z"/><path class="cls-8" d="M228.11,191.26c.34,1.81-.11,6.39-1.1,5.55a2.65,2.65,0,0,1-.94-1.06c.05-.22.1-.44.13-.66a.49.49,0,0,0-.69-.53c-.39-1-.39-1.81.63-1.11a4.46,4.46,0,0,0,.85,2c0,.35-.08.69-.11,1l.79-.32a4.21,4.21,0,0,1-.68-.72c.14-1.23.22-2.46.26-3.71l.36.29A2.89,2.89,0,0,0,228.11,191.26Z"/><path class="cls-8" d="M228.07,191.12a.57.57,0,0,1,0,.14,2.89,2.89,0,0,1-.5.75l-.36-.29c0-.24,0-.49,0-.72a.89.89,0,0,1,.14-.24,7.23,7.23,0,0,1-.07.79Z"/><path class="cls-8" d="M228.05,191a.44.44,0,0,1,0,.13l-.72.43a7.23,7.23,0,0,0,.07-.79.46.46,0,0,1,.13-.12C227.71,190.74,227.87,190.86,228.05,191Z"/><path class="cls-8" d="M228.05,191c-.18-.13-.34-.25-.5-.35v0C227.77,190.45,227.94,190.61,228.05,191Z"/><path class="cls-8" d="M227.67,196.15l-.79.32c0-.35.08-.69.11-1A4.21,4.21,0,0,0,227.67,196.15Z"/><path class="cls-8" d="M227.55,190.62v0a.46.46,0,0,0-.13.12.76.76,0,0,0,0-.21Z"/><path class="cls-8" d="M227.45,190.55a.76.76,0,0,1,0,.21.89.89,0,0,0-.14.24c0,.23,0,.48,0,.72a39.62,39.62,0,0,0-4.66-3.09.37.37,0,0,0,0-.4c-.85-.87-1.32-.9-1.58-.45a26.89,26.89,0,0,0-7.11-2.45.25.25,0,0,0-.44-.09,17.1,17.1,0,0,0-11.68,1.93c-9.08,4.91-14.91,15.38-25.59,17.29-.69.12-1-.92-.3-1l.26-.08.44.67c.38.57,1.33,0,.93-.54-.11-.16-.22-.33-.32-.51C196.93,195.61,202.31,172.2,227.45,190.55Z"/><path class="cls-8" d="M226.75,229.49c.14.57-.76.82-.88.23-1.05-3.46-4.86-3.64-7.91-4.77a9.35,9.35,0,0,0-.57-1.28C220.77,225.31,225.62,225.24,226.75,229.49Z"/><path class="cls-8" d="M225.51,194.56a.49.49,0,0,1,.69.53c0,.22-.08.44-.13.66A6.74,6.74,0,0,1,225.51,194.56Z"/><path class="cls-8" d="M225.51,194.56a6.74,6.74,0,0,0,.56,1.19c-3.32,15.73-20.87,21.31-34.37,15.58,0-.43-.17-.6-.61-.27a25.27,25.27,0,0,1-4.1-2.33.39.39,0,0,0-.41-.28c-.45-.31-.88-.65-1.32-1a1,1,0,0,1-.31-.2l.23-.11h0a.47.47,0,0,0,.63-.13.35.35,0,0,0,0-.17c13.26,10.57,36.1,6.48,39.44-12A.36.36,0,0,1,225.51,194.56Z"/><path class="cls-8" d="M222.71,190c.81-2.39,1.64,3.11,1.22,5.08-.26-1.53-.64-2.31-.94-2.48C222.94,191.71,222.84,190.84,222.71,190Z"/><path class="cls-8" d="M223.93,195.06a.26.26,0,0,1,0,.11s0,0-.05,0A.59.59,0,0,0,223.93,195.06Z"/><path class="cls-8" d="M223.93,195.06a.59.59,0,0,1,0,.13l-.86.11c0-.91,0-1.81-.06-2.72C223.29,192.75,223.67,193.53,223.93,195.06Z"/><path class="cls-8" d="M223.05,195.3l.86-.11c-.14.57-.41.77-.85.23-.76-2-.52-3.1-.07-2.84C223.05,193.49,223.07,194.39,223.05,195.3Z"/><path class="cls-8" d="M222.55,188.23a.37.37,0,0,1,0,.4c-.31-.18-.62-.35-.94-.51a.2.2,0,0,1,0-.11l-.08.07c-.2-.1-.41-.21-.62-.3C221.23,187.33,221.7,187.36,222.55,188.23Z"/><path class="cls-8" d="M221.65,188.12c.32.16.63.33.94.51a.48.48,0,0,1-.84.07.47.47,0,0,0-.13-.15A2.72,2.72,0,0,1,221.65,188.12Z"/><path class="cls-8" d="M222.48,223.05c-.56,2.47-1.7-2.31-2.27-2.87-2.07-2.24-5.52-2.31-8.17-3.76a7.17,7.17,0,0,0-1.19-.81s0,0,0,0a5.86,5.86,0,0,1-1.54-2c-.11-2.31,3.13,2.67,4.3,2.68C217.78,217.52,221.48,218,222.48,223.05Z"/><path class="cls-8" d="M221.67,188a.2.2,0,0,0,0,.11.15.15,0,0,0-.06,0Z"/><path class="cls-8" d="M221.59,188.08a.15.15,0,0,1,.06,0,2.72,2.72,0,0,0,0,.43.65.65,0,0,0-.41-.08A4.64,4.64,0,0,1,221.59,188.08Z"/><path class="cls-8" d="M221.62,188.55c0,2,1.18,5.84-.88,6-.68-1.58-.94-3.57-1.73-5.29,0-.57-.11-1.2-.21-1.91l-.86.22a7.1,7.1,0,0,1,1.07,1.69c.46,5.53-1.06,4.65-1.15-1.93,1.15-1.13,2.36,2,3,4.4a9.88,9.88,0,0,1,.12,1.92c.13.15.24.3.35.45a15,15,0,0,0-.47-2.37c-.14-1.46-.29-3.31.11-4,.21.09.42.2.62.3a4.64,4.64,0,0,0-.38.39A.65.65,0,0,1,221.62,188.55Z"/><path class="cls-8" d="M221.33,194.15c-.11-.15-.22-.3-.35-.45a9.88,9.88,0,0,0-.12-1.92A15,15,0,0,1,221.33,194.15Z"/><path class="cls-8" d="M220,196.89a.38.38,0,0,1,0-.1l0,0a2.24,2.24,0,0,0,0-.73v0c.54-1.74,1.33.66.8,1.45s-1.15-.05-.8-.7Z"/><path class="cls-8" d="M220,199c1.13-1.41,1.13,1.88,0,1.68C219.29,200.4,219.91,199.54,220,199Z"/><path class="cls-8" d="M219.62,201.85c1.19-1.45,1.1,2.21,0,2C218.91,203.5,219.62,202.48,219.62,201.85Z"/><path class="cls-8" d="M220,196.79a.38.38,0,0,0,0,.1v-.06Z"/><path class="cls-8" d="M218.63,205.09c1.19-.91.84,1.21.07,1.49C217.68,206.65,218.31,205.56,218.63,205.09Z"/><path class="cls-8" d="M216.12,210.74c.37-3.18,3.61,4.51,2.79,5.68C217.72,218.69,218.06,211.64,216.12,210.74Z"/><path class="cls-8" d="M218.8,187.4c.1.71.16,1.34.21,1.91a7.1,7.1,0,0,0-1.07-1.69Z"/><path class="cls-8" d="M218,225c.43,1.1.67,2.18.43,2.53-.79,1.08.53,2.4-.3,3.5-3.76,3.13-8.73-1-10.33-4.61-.26-.52.53-1,.81-.46,0,0,0,.06,0,.09-.65-.33-1-.33-.66.54a11,11,0,0,0,1.65,1.18c2.09,2.68,6.54,5.29,7.85,2a4.34,4.34,0,0,1,.1-2.89,7.59,7.59,0,0,0-.82-2.43A8.85,8.85,0,0,0,218,225Z"/><path class="cls-8" d="M216.64,186.91c.35-.47,1.16,0,.8.46-.95,1.28-1,2.9-1.3,4.43,0,.93-2.2,6.29-2.75,3.82a7.36,7.36,0,0,0,.55-3.5c.73-.86,1-.25.95.75a6.17,6.17,0,0,1-1.44,2.65l.74.56a8,8,0,0,0,.7-3.21C215.46,190.87,215.47,188.67,216.64,186.91Z"/><path class="cls-8" d="M217.39,223.67A9.35,9.35,0,0,1,218,225a8.85,8.85,0,0,1-1.25-.57h0l-.15-.29h0a3.89,3.89,0,0,0,.1-.84C216.88,223.39,217.13,223.53,217.39,223.67Z"/><path class="cls-8" d="M217.39,223.67c-.26-.14-.51-.28-.75-.43,0-.77-.25-1.18-.76-.78C216.16,221.77,216.82,222.54,217.39,223.67Z"/><path class="cls-8" d="M216.69,224.38l-.18-.1,0-.19Z"/><path class="cls-8" d="M215.88,222.46c.51-.4.78,0,.76.78a2,2,0,0,1-.31-.2.35.35,0,0,0-.43,0c0-.07-.08-.12-.12-.18A1.48,1.48,0,0,1,215.88,222.46Z"/><path class="cls-8" d="M216.33,223a2,2,0,0,0,.31.2,3.89,3.89,0,0,1-.1.84c-.21-.37-.43-.73-.64-1.06A.35.35,0,0,1,216.33,223Z"/><path class="cls-8" d="M216.54,224.08h0l0,.19a7.4,7.4,0,0,1-.65-.44.49.49,0,0,1,0-.82C216.11,223.35,216.33,223.71,216.54,224.08Z"/><path class="cls-8" d="M215.86,223.84a7.4,7.4,0,0,0,.65.44c-.56,2.38-2.8,5.8-6.93,3.44a6.18,6.18,0,0,1-1-1.72c1.87.87,6.51,4.32,7.13-3.39a.71.71,0,0,1,.16-.15,1.48,1.48,0,0,0-.1.38c0,.06.08.11.12.18A.49.49,0,0,0,215.86,223.84Z"/><path class="cls-8" d="M215.88,222c-.28,2.37-2.63-3.81-3.91-4.15-2.69-3.93-7.15-1.67-5.36,2.77,0,1,4.91,6.35,2.27,5.5-6.57-7.88-2.67-13,2-10.5,0,0,0,0,0,0a5.82,5.82,0,0,0,1.19.81A14.08,14.08,0,0,1,215.88,222Z"/><path class="cls-8" d="M214.89,192.87a8,8,0,0,1-.7,3.21l-.74-.56A6.17,6.17,0,0,0,214.89,192.87Z"/><path class="cls-8" d="M212.24,235.41c.37-2.26,2.67,2.91,1.7,3.16C212.83,238.3,212.85,236.32,212.24,235.41Z"/><path class="cls-8" d="M213.86,185.33c.71,1.37-.72,9.88-1.38,10.57-2,.43.55-7.51-.49-9.43l.08-.21c-.18,0-.21,0-.14.1a.41.41,0,0,1,.06.11c-2.2,5.81-3.17,10.3-3.77,7.77l.83.16c0-1-.06-1.84-.1-2.63,2.28-7.2,3.78-8.29,4-4.32-.19,2.55-.21,5.24-1.16,7.5l.79.47a48.58,48.58,0,0,0,.37-8c.06-.69.13-1.36.23-2a.59.59,0,0,1,.2-.19Z"/><path class="cls-8" d="M213.42,185.24a.25.25,0,0,1,.44.09Z"/><path class="cls-8" d="M213,187.45a48.58,48.58,0,0,1-.37,8l-.79-.47C212.78,192.69,212.8,190,213,187.45Z"/><path class="cls-8" d="M212.42,233.15c.57-.14.82.76.24.9-9.56,4.14-19.44,10.94-30.1,5.13-.54-.25-.07-1,.47-.8C193.46,244,203.05,237.08,212.42,233.15Z"/><path class="cls-8" d="M212.07,186.26l-.08.21a.41.41,0,0,0-.06-.11C211.86,186.25,211.89,186.21,212.07,186.26Z"/><path class="cls-8" d="M210.85,215.61a7.17,7.17,0,0,1,1.19.81A5.82,5.82,0,0,1,210.85,215.61Z"/><path class="cls-8" d="M208.07,236.53c1.28-2.28,1.74,4.17,1.62,5.1C208.23,243.64,208.88,237.35,208.07,236.53Z"/><path class="cls-8" d="M209.05,194.4l-.83-.16v0c.25-.88.5-1.69.73-2.44C209,192.56,209,193.43,209.05,194.4Z"/><path class="cls-8" d="M208.59,226a6.18,6.18,0,0,0,1,1.72,11,11,0,0,1-1.65-1.18C207.63,225.67,207.94,225.67,208.59,226Z"/><path class="cls-8" d="M209,191.77c-.23.75-.48,1.56-.73,2.44a38,38,0,0,1-.53-5.48,5.73,5.73,0,0,1,.64-1.51l-.72-.14c0,.59,0,1.14.08,1.65-1.08,3.21-2.82,10.09-3.31,6.87C207,188,208.44,181.36,209,191.77Z"/><path class="cls-8" d="M207.61,187.08l.72.14a5.73,5.73,0,0,0-.64,1.51C207.66,188.22,207.63,187.67,207.61,187.08Z"/><path class="cls-8" d="M208.22,194.21v0h0S208.21,194.23,208.22,194.21Z"/><path class="cls-8" d="M206.46,134.13l.4.52c-.16.11-.31.24-.47.36A8.47,8.47,0,0,1,206.46,134.13Z"/><path class="cls-8" d="M206.2,204.72h0v-.1h0v0a.65.65,0,0,0,0-.13v0c.19-1-.72-1.08-1.06-.63a.58.58,0,0,0-.3.13.88.88,0,0,0-.62.28c-.79,0-1.36.7-1.07,1.23a.4.4,0,0,1-.15-.33,1.86,1.86,0,0,1,1.23-1.74c2.23-1.52,4.49,2.33,1.41,2.61-1.56.22-2.29-.1-2.49-.54a.48.48,0,0,0,.71-.1l0,0,0,.06a.78.78,0,0,0,.45.44.79.79,0,0,0,1.13-.77l.14-.05v0s0,0,0,0h.11A.8.8,0,0,0,206,205s.13-.09.14-.13,0-.05,0-.06A.15.15,0,0,1,206.2,204.72Z"/><path class="cls-8" d="M205.1,203.8c.34-.45,1.25-.38,1.06.63a.54.54,0,0,0-.15-.21l0,0a.85.85,0,0,0-.83-.4h0S205.13,203.8,205.1,203.8Z"/><path class="cls-8" d="M206.16,204.43v0s0,.07,0,.11a.42.42,0,0,1-.33.32.51.51,0,0,0,.2-.66A.54.54,0,0,1,206.16,204.43Z"/><path class="cls-8" d="M206,204.22a.51.51,0,0,1-.2.66.84.84,0,0,1-.27,0,.44.44,0,0,0,.37-.66v0a0,0,0,0,0,0,0l0,0,0,0Z"/><path class="cls-8" d="M206,204.17l0,0v0h0a.1.1,0,0,0-.07,0l-.18,0a.13.13,0,0,1,0-.05.9.9,0,0,0-.48-.17.85.85,0,0,1,.83.4Z"/><path class="cls-8" d="M205.64,204.33h0v0h0a.14.14,0,0,0-.13,0v0l.35.1h0a.44.44,0,0,0,.06-.12.44.44,0,0,1-.37.66s0,0,0,0a.26.26,0,0,0,0-.23s0,0,0,0h0s0,0,0,0a.45.45,0,0,0-.06-.12l.16-.11h0S205.64,204.32,205.64,204.33Z"/><path class="cls-8" d="M205.9,204.15a0,0,0,0,1,0,0s0,0,0-.06h0Z"/><path class="cls-8" d="M205.91,204.18v0a.44.44,0,0,1-.06.12h0l-.35-.1c0-.07.09-.14.12-.2l.18,0a.1.1,0,0,1,.07,0h0S205.91,204.17,205.91,204.18Z"/><polygon class="cls-8" points="205.86 204.11 205.88 204.12 205.86 204.12 205.86 204.11"/><path class="cls-8" d="M205.54,204.86a.84.84,0,0,0,.27,0,1.68,1.68,0,0,1-.23.18h-.13a.2.2,0,0,0,0-.13s0,0,0,0a.05.05,0,0,0,0,0h.08Z"/><path class="cls-8" d="M205.6,205l.16-.1a.57.57,0,0,1-.13.1S205.61,205.06,205.6,205Z"/><path class="cls-8" d="M205.64,204.27v0h0v0Z"/><path class="cls-8" d="M205.64,204a.13.13,0,0,0,0,.05h-.38l-.1,0h0L205,204a.53.53,0,0,1,.08-.17h.07A.9.9,0,0,1,205.64,204Z"/><rect class="cls-8" x="205.63" y="204.31" width="0.01" height="0.01"/><path class="cls-8" d="M205.64,204.32h0s0,0,0,0Z"/><path class="cls-8" d="M205.63,204.28v0h0v0Z"/><path class="cls-8" d="M205.61,204.28v0l-.16.11a.09.09,0,0,0,0-.06l.07-.1A.14.14,0,0,1,205.61,204.28Z"/><path class="cls-8" d="M205.31,204.17h0a1.07,1.07,0,0,0-.16-.14l.1,0h.38c0,.06-.08.13-.12.2A.7.7,0,0,1,205.31,204.17Z"/><path class="cls-8" d="M205.6,205v0h0S205.6,205,205.6,205Z"/><path class="cls-8" d="M205.58,205.06h0l-.14.05s0,0,0-.05h.12Z"/><path class="cls-8" d="M205.54,204.86h-.06v0S205.53,204.84,205.54,204.86Z"/><path class="cls-8" d="M205.51,204.6a.26.26,0,0,1,0,.23.41.41,0,0,1-.21-.2A.23.23,0,0,0,205.51,204.6Z"/><path class="cls-8" d="M205.53,204.56h0s0,0,0,0S205.53,204.55,205.53,204.56Z"/><path class="cls-8" d="M205.51,204.57s0,0,0,0a.23.23,0,0,1-.23,0h0l0,0,.23-.07S205.53,204.56,205.51,204.57Z"/><path class="cls-8" d="M205.45,204.41a.45.45,0,0,1,.06.12l-.23.07a.19.19,0,0,1,.05-.09Z"/><path class="cls-8" d="M205.49,204.22v0a.21.21,0,0,0-.13,0l0,0a0,0,0,0,1,0,0A.7.7,0,0,0,205.49,204.22Z"/><path class="cls-8" d="M205.49,204.83v0h-.08a1.49,1.49,0,0,0-.17-.18s0,0,0-.05h0A.41.41,0,0,0,205.49,204.83Z"/><path class="cls-8" d="M205.35,204.23a.21.21,0,0,1,.13,0l-.07.1s0-.08-.06-.1Z"/><path class="cls-8" d="M204.54,205.21v0s0-.11.05-.12l0,0h.1s0,0,0,0h.12a.33.33,0,0,0,.29,0h0a.37.37,0,0,0,.31,0,.79.79,0,0,1-1.13.77.78.78,0,0,1-.45-.44.13.13,0,0,1,0-.05l0-.08v0h0s0,0,.07-.05l.11-.07,0,0,.2,0h.08s0,0,0,0l.05,0S204.54,205.21,204.54,205.21Z"/><path class="cls-8" d="M205.46,205.06s0,0,0,.05a.37.37,0,0,1-.31,0,0,0,0,0,0,0,0s0,0,0,0h.23Z"/><path class="cls-8" d="M205.46,204.87a.05.05,0,0,1,0,0l0-.06Z"/><path class="cls-8" d="M205.45,204.41l-.12.1.08-.16A.09.09,0,0,1,205.45,204.41Z"/><path class="cls-8" d="M205.43,204.93a.2.2,0,0,1,0,.13h-.22A.56.56,0,0,0,205.43,204.93Z"/><path class="cls-8" d="M204.58,214.3c.34-.48,1.13,0,.8.47-4.15,5.84-12.69,4.28-17.34-.1C187.38,211.66,197.66,223.28,204.58,214.3Z"/><path class="cls-8" d="M205.43,204.92s0,0,0,0a.56.56,0,0,1-.2.14s0,0,0,0h-.1a.67.67,0,0,1-.28-.35,1.61,1.61,0,0,0,.29-.09h0v0l-.08.06a.56.56,0,0,0,.35.14Z"/><path class="cls-8" d="M205.25,204.26h0s.06,0,.1,0,0,.06.06.1l-.08.16a.35.35,0,0,0-.09.07.35.35,0,0,1,0-.3v0Z"/><path class="cls-8" d="M205.35,204.23v0s-.07,0-.1,0h0v0a.09.09,0,0,1,0,0s0,0,0,0Z"/><path class="cls-8" d="M205.24,204.58a.35.35,0,0,1,.09-.07.19.19,0,0,0-.05.09h0S205.24,204.6,205.24,204.58Z"/><path class="cls-8" d="M205.31,204.17a0,0,0,0,0,0,0h0Z"/><path class="cls-8" d="M205.29,204.17h0s0,0,0,0l0,0h0a.1.1,0,0,1,0,0l0,0Z"/><path class="cls-8" d="M205.29,204.18a.09.09,0,0,0,0,0h0Z"/><path class="cls-8" d="M205.14,204.53l.06.07,0,0h0l-.08-.07a.66.66,0,0,1-.09-.49l.12,0h0a1.07,1.07,0,0,1,.16.14l-.08,0,0,0a.1.1,0,0,0,0,0h0c-.15.06-.14.06,0,0a.16.16,0,0,0-.07.12v.16Z"/><path class="cls-8" d="M205.28,204.6l0,0h0Z"/><path class="cls-8" d="M205.26,204.62h0s0,0,0,.05l-.07-.05h.1Z"/><path class="cls-8" d="M205.25,204.61h0Z"/><path class="cls-8" d="M205.25,204.25h0Z"/><path class="cls-8" d="M205.24,204.58s0,0,0,0h-.05Z"/><path class="cls-8" d="M205.4,204.86a.56.56,0,0,1-.35-.14l.08-.06h0a.28.28,0,0,0,.05.09.25.25,0,0,1,0-.07A1.49,1.49,0,0,1,205.4,204.86Z"/><path class="cls-8" d="M205.24,204.22v0h0A.05.05,0,0,1,205.24,204.22Z"/><path class="cls-8" d="M205.24,204.25v0a.35.35,0,0,0,0,.3l0,0-.06-.07v-.16a.16.16,0,0,1,.07-.12Z"/><path class="cls-8" d="M205.24,204.21h0a.05.05,0,0,0,0,0C205.1,204.27,205.09,204.27,205.24,204.21Z"/><path class="cls-8" d="M205.23,204.68a.25.25,0,0,0,0,.07.28.28,0,0,1-.05-.09l0,0Z"/><path class="cls-8" d="M205.23,204.61h0l0,0Z"/><path class="cls-8" d="M205.2,205.07a0,0,0,0,1,0,0h0s0,0,0,0Z"/><path class="cls-8" d="M205.16,204.63l0,0h0v0Z"/><path class="cls-8" d="M205.16,204.63h0l0-.07Z"/><path class="cls-8" d="M205.15,203.8h-.05S205.14,203.79,205.15,203.8Z"/><path class="cls-8" d="M205.14,205.08a.33.33,0,0,1-.29,0h.25S205.13,205.09,205.14,205.08Z"/><path class="cls-8" d="M205.11,204l-.12,0a.24.24,0,0,1,0-.09Z"/><path class="cls-8" d="M205.11,204.63a1.61,1.61,0,0,1-.29.09.9.9,0,0,1-.08-.36,1.76,1.76,0,0,1,.34.2Z"/><path class="cls-8" d="M205.1,203.8h0a.3.3,0,0,0-.24.14s0,0,0,0A.58.58,0,0,1,205.1,203.8Z"/><path class="cls-8" d="M205.1,205.07h-.25a.37.37,0,0,1-.13-.12.22.22,0,0,0,0-.06h0l0,0,0,0h-.05v0h0l0-.05v0l.2-.05A.67.67,0,0,0,205.1,205.07Z"/><path class="cls-8" d="M205.09,203.81a.53.53,0,0,0-.08.17.38.38,0,0,0-.16,0A.3.3,0,0,1,205.09,203.81Z"/><path class="cls-8" d="M205,204a.24.24,0,0,0,0,.09.58.58,0,0,0-.22.08.36.36,0,0,1,.08-.2A.38.38,0,0,1,205,204Z"/><path class="cls-8" d="M205,204.07a.66.66,0,0,0,.09.49,1.76,1.76,0,0,0-.34-.2h0a.64.64,0,0,1,0-.2A.58.58,0,0,1,205,204.07Z"/><path class="cls-8" d="M204.2,187.22c3-2.47-1.84,11.57-3.32,12-2.06,0,.76-5.52.58-7.09,1.35-1.37,1.06.76.55,3a10.53,10.53,0,0,1-1.68,2.81c.27.29.53.58.8.85.05-.39.52-2,.88-3.66A51.9,51.9,0,0,0,204.2,187.22Z"/><path class="cls-8" d="M204.8,203.93s0,0,0,0a.36.36,0,0,0-.08.2.21.21,0,0,0-.13,0A.65.65,0,0,1,204.8,203.93Z"/><path class="cls-8" d="M204.82,204.72l-.2.05a1.22,1.22,0,0,1,0-.47l.12,0h0A.9.9,0,0,0,204.82,204.72Z"/><path class="cls-8" d="M204.18,204.21a.88.88,0,0,1,.62-.28.65.65,0,0,0-.16.27l-.15.06A1.18,1.18,0,0,0,204.18,204.21Z"/><path class="cls-8" d="M204.72,204.94a.37.37,0,0,0,.13.12h-.12v0h0s0,0,0,0Z"/><path class="cls-8" d="M204.77,204.84l0,0s0,0,0,0Z"/><path class="cls-8" d="M204.77,204.15a.64.64,0,0,0,0,.2l-.12,0a.25.25,0,0,1,0-.1A.21.21,0,0,1,204.77,204.15Z"/><path class="cls-8" d="M204.72,204.94a.26.26,0,0,1-.07-.1s0,0,0,0v0h.06s0,0,0,0h0A.22.22,0,0,1,204.72,204.94Z"/><path class="cls-8" d="M204.74,204.87h0Z"/><path class="cls-8" d="M204.73,205v0s0,0,0,0Z"/><path class="cls-8" d="M204.72,205h0Z"/><path class="cls-8" d="M204.72,205s0,0,0,0h-.1c-.25,0-.5-.06-.74-.1h0s0-.1,0-.11l.08-.15a1.64,1.64,0,0,1,.5-.41l.13,0a1.22,1.22,0,0,0,0,.47v0a.06.06,0,0,0,0,.05.26.26,0,0,0,.07.1Z"/><path class="cls-8" d="M204.72,204.86h0Z"/><path class="cls-8" d="M204.72,205h0Z"/><path class="cls-8" d="M204.68,204.84v0h0Z"/><path class="cls-8" d="M204.68,204.84v0Z"/><path class="cls-8" d="M204.68,205h0Z"/><path class="cls-8" d="M204.67,205h0Z"/><path class="cls-8" d="M204.67,204.84s0,0,0,0a.06.06,0,0,1,0-.05Z"/><path class="cls-8" d="M204.64,205h0Z"/><path class="cls-8" d="M204.64,204.2a.25.25,0,0,0,0,.1l-.13,0Z"/><path class="cls-8" d="M203.93,205.31l0,.08a.13.13,0,0,0,0,.05l0-.06s0,0,0,0a.32.32,0,0,0,.06-.22.48.48,0,0,1,0-.17c.24,0,.49.08.74.1l0,0s0,.09-.05.12,0,0,0,0l-.05,0s0,0,0,0h-.08l-.2,0,0,0-.11.07s0,.05-.07.05h0Z"/><path class="cls-8" d="M204.54,205.19v0s0,0,0,0S204.54,205.19,204.54,205.19Z"/><path class="cls-8" d="M204.45,205.14h0Z"/><path class="cls-8" d="M203.91,204.82s0,.11,0,.11h-.09a1.28,1.28,0,0,1,.39-.72,1.18,1.18,0,0,1,.31,0,1.64,1.64,0,0,0-.5.41Z"/><path class="cls-8" d="M203.11,205.44c-.29-.53.28-1.26,1.07-1.23a1.28,1.28,0,0,0-.39.72l-.23-.05a3.47,3.47,0,0,0,.26.45s0,0,0,0A.48.48,0,0,1,203.11,205.44Z"/><path class="cls-8" d="M203.88,205.11a.32.32,0,0,1-.06.22.89.89,0,0,1,0-.4h.09A.48.48,0,0,0,203.88,205.11Z"/><path class="cls-8" d="M203.82,205.33s0,0,0,0l0,0S203.83,205.34,203.82,205.33Z"/><path class="cls-8" d="M203.82,205.33a3.47,3.47,0,0,1-.26-.45l.23.05A.89.89,0,0,0,203.82,205.33Z"/><path class="cls-8" d="M198.18,194.82c-.42.89-.88,1.75-1.37,2.57.37.2.73.41,1.08.62C198,196.69,198.13,195.63,198.18,194.82Zm0,0c1.08-2.2,2-4.59,2.87-6.93.39-1,1.47-.1,1.09.9-1.28,3.68-5.28,13.42-5.38,8.5a18.13,18.13,0,0,0,1.46-3.42C198.22,194.13,198.21,194.45,198.18,194.81Z"/><path class="cls-8" d="M202,195.09c-.36,1.62-.83,3.27-.88,3.66-.27-.27-.53-.56-.8-.85A10.53,10.53,0,0,0,202,195.09Z"/><path class="cls-8" d="M198.22,193.66l0,0s0,.11,0,.18Z"/><path class="cls-8" d="M198.22,193.66v.2a18.13,18.13,0,0,1-1.46,3.42,27.39,27.39,0,0,1,.3-3.86l.1-.15Z"/><path class="cls-8" d="M198.22,193.66l-1.06-.39C197.84,192.21,198.2,192.13,198.22,193.66Z"/><path class="cls-8" d="M198.18,194.82c-.05.81-.14,1.87-.29,3.19-.35-.21-.71-.42-1.08-.62C197.3,196.57,197.76,195.71,198.18,194.82Z"/><path class="cls-8" d="M197.09,193.24s0,0,.07,0l-.1.15A1,1,0,0,0,197.09,193.24Z"/><path class="cls-8" d="M197.06,193.42a27.39,27.39,0,0,0-.3,3.86c-1,1.79-2.07,3-1.93.47C195.74,195.9,196.5,194.35,197.06,193.42Z"/><path class="cls-8" d="M191.09,211.06c.44-.33.61-.16.61.27Z"/><path class="cls-8" d="M191.09,211.06l.61.27c0,1.09-1.18,3.85-1.89,3.45-.57-1,1-2.41,1.11-3.58A1.77,1.77,0,0,1,191.09,211.06Z"/><path class="cls-8" d="M188.1,217.41c.08-.6,1-.34.89.24-.29,3-1.75,5.73-2.71,8.57,0,1.66.1,3.35-.72,4.89-2.24,4.33-4.69,8.62-5.75,13.47a.46.46,0,0,1-.77.2c-6.53-5.26-11.64,2.94-1.86-12,2.35-1-3.5,6.32-4.42,9a5.46,5.46,0,0,0-.69.1l.56.58a1.66,1.66,0,0,1,.13-.68,8.44,8.44,0,0,1,6.29,1.75,6.35,6.35,0,0,0-.13.76l.78-.2a6.86,6.86,0,0,0-.65-.56c1.14-5.73,5.64-10.36,6.3-16.08C185.36,223.94,187.9,221,188.1,217.41Z"/><path class="cls-8" d="M187,208.77c1.87,6.76-3.24,12.64-9.42,14.57-4,1.6-8.88,5.5-7,10.35.23.53-.56,1-.81.47-4-13.16,20.61-11,16.3-25.14a.45.45,0,0,1,.46-.57,3,3,0,0,0,.41.28S187,208.76,187,208.77Z"/><path class="cls-8" d="M187.09,202.53a.39.39,0,0,1,0,.37c-.21-.71-.66-.9-.92.14,0,.11,0,.22,0,.32-.27-.25-.4-.73.2-1.07A.52.52,0,0,1,187.09,202.53Z"/><path class="cls-8" d="M187.13,202.91a3.61,3.61,0,0,1-1.23,3.78c.07-1-1.82-.11-1,.55-5.82,2.8-11.79,6.59-10.17,14.09.07.59-.85.59-.92,0-2.24-14.12,12.52-11.59,12.37-18,.26.26.67.3.69-.22A.4.4,0,0,0,187.13,202.91Z"/><path class="cls-8" d="M186.93,203.05h0s0,0,0,0l-.06,0-.1,0h-.21l-.09,0h0l-.08-.06,0,0,0,0h0a.06.06,0,0,0,.06.05.41.41,0,0,0,.5,0c0,.52-.43.48-.69.22,0-.1,0-.21,0-.32.26-1,.71-.85.92-.14h0a.4.4,0,0,1-.21.23A.34.34,0,0,0,186.93,203.05Zm0-.09s0,0,0,0,0,0,0,0h0a.11.11,0,0,1,0-.05,1.21,1.21,0,0,1,0,.19h0v0h0Z"/><path class="cls-8" d="M187,208.73a3,3,0,0,1-.41-.28A.39.39,0,0,1,187,208.73Z"/><path class="cls-8" d="M187,203v0h0Z"/><rect class="cls-8" x="186.95" y="202.99" width="0.01" height="0.01"/><path class="cls-8" d="M187,203s0,0,0,0l0,0S187,203,187,203Z"/><path class="cls-8" d="M187,203s0,0,0,0a.17.17,0,0,0,0-.07S187,202.94,187,203Z"/><path class="cls-8" d="M187,203h0l0,0a1.21,1.21,0,0,0,0-.19.11.11,0,0,0,0,.05h0a.17.17,0,0,1,0,.07h0Z"/><path class="cls-8" d="M187,203v0h0Z"/><path class="cls-8" d="M186.73,203.16l.1,0,.06,0s0,0,0,0h0a.34.34,0,0,1,0,.09.41.41,0,0,1-.5,0h0l.09,0h.21Z"/><path class="cls-8" d="M186.42,203.11h0Z"/><path class="cls-8" d="M186.42,203.11h0a.06.06,0,0,1-.06-.05h0Z"/><path class="cls-8" d="M186.34,203.05h0l0,0Z"/><path class="cls-8" d="M185,207.24c-.87-.66,1-1.54,1-.55l-.1.09-.14-.12a2,2,0,0,1-.06.23,2.49,2.49,0,0,1-.3.19l0,0h0c0-.21-.09-.42-.16-.63a.41.41,0,0,0,.11.66Z"/><path class="cls-8" d="M185.9,206.69a.19.19,0,0,1,0,.14l-.07-.05Z"/><path class="cls-8" d="M185.87,206.83a.35.35,0,0,1,0,.17.47.47,0,0,1-.63.13l0,0h0a2.23,2.23,0,0,1,.27,0c0-.08,0-.15.07-.24a1,1,0,0,0,.2-.11Z"/><path class="cls-8" d="M185.66,206.66l.14.12a1,1,0,0,1-.2.11A2,2,0,0,0,185.66,206.66Z"/><path class="cls-8" d="M185.6,206.89c0,.09,0,.16-.07.24a2.23,2.23,0,0,0-.27,0l0,0A2.49,2.49,0,0,0,185.6,206.89Z"/><path class="cls-8" d="M185.07,206.47c.07.21.11.42.16.63l0,0h0A.41.41,0,0,1,185.07,206.47Z"/><path class="cls-8" d="M185,240.47c.52.28.06,1.08-.47.79-1,.24-1.73,6-2.68,3.71C182.51,243.53,182.88,240,185,240.47Z"/><path class="cls-8" d="M183.63,222c1.53,10.93-19.66,11.47-12.83,23-.92,2.88-2.89-4.73-2-5.81,1.73-7.86,14.79-7.88,13.93-17.22C182.64,221.38,183.58,221.38,183.63,222Z"/><path class="cls-8" d="M179.7,244.13l-.78.2a6.35,6.35,0,0,1,.13-.76A6.86,6.86,0,0,1,179.7,244.13Z"/><path class="cls-8" d="M177.68,245.75c.79,6.67-10.9,9.22-7.1,1.47.87-1.06,2.2-2,2-3.54,1-1.56,1.18,1.32.51,2-1.79,1.81-4.61,5.91.2,5.4C176.9,250.52,176.51,243.47,177.68,245.75Z"/><path class="cls-8" d="M177.26,250.36a19,19,0,0,1-1.7,17.18c-1.51,2.69-4.13,4.31-6.28,6.39-2,2.1-1.83,5.36-.43,7.89a19.73,19.73,0,0,1-2-2.3,5.42,5.42,0,0,1,.28-4.14c6.51-7.27,13.61-13.85,9.08-24.73C176,250,177,249.73,177.26,250.36Z"/><path class="cls-8" d="M177.48,203.47c.4.58-.55,1.11-.93.54l-.44-.67c.36-.13.71-.24,1-.38C177.26,203.14,177.37,203.31,177.48,203.47Z"/><path class="cls-8" d="M176,285.17c.14-.68,1.19-.4,1.05.29-2.47,2.62-6.05.8-8.33-2.19a21.61,21.61,0,0,0,4.75,3.29c.62.31,2.16-.1,1.53-.41-.41-.19-.81-.39-1.19-.6l.26,0C174.5,285.6,175.9,285.73,176,285.17Z"/><path class="cls-8" d="M175.75,204.86c1.69-1.72-.06,4.19,1,5.14C175.35,212.3,175.09,205.75,175.75,204.86Z"/><path class="cls-8" d="M175,286.15c.63.31-.91.72-1.53.41a21.61,21.61,0,0,1-4.75-3.29,11.12,11.12,0,0,1-1.88-3.75,19.73,19.73,0,0,0,2,2.3,6.72,6.72,0,0,0,5,3.73C174.2,285.76,174.6,286,175,286.15Z"/><path class="cls-8" d="M172.07,241.92a5.46,5.46,0,0,1,.69-.1,1.66,1.66,0,0,0-.13.68Z"/><path class="cls-8" d="M168.85,281.82a20.94,20.94,0,0,0,5,3.73A6.72,6.72,0,0,1,168.85,281.82Z"/><path class="cls-8" d="M167.3,248.38c.47-.51,1.23.26.76.77-8,8.33-7.81,21.64-1.21,30.37a11.12,11.12,0,0,0,1.88,3.75C159.16,274.54,158,258,167.3,248.38Z"/><path class="cls-9" d="M149.38,197v.8a.31.31,0,0,1-.16.32,1.1,1.1,0,0,1-.29.09.3.3,0,0,1-.28-.1.57.57,0,0,1-.14-.25,4,4,0,0,1,.3-1.86c0-.07.09-.18.3-.14s.26.11.26.2c0,.32,0,.63,0,.94Z"/><path class="cls-9" d="M167.57,198.26c-.06.21-.12.5-.22.78a.27.27,0,0,1-.27.11.71.71,0,0,1-.28-.1.43.43,0,0,1-.16-.25,2,2,0,0,1,.39-1.37.31.31,0,0,1,.17-.09c.15,0,.17.06.22.11C167.61,197.69,167.56,197.93,167.57,198.26Z"/><path class="cls-9" d="M136.74,202.43v.8a.29.29,0,0,1-.16.31.83.83,0,0,1-.29.1.3.3,0,0,1-.28-.1.49.49,0,0,1-.14-.25,4,4,0,0,1,.3-1.86c0-.07.09-.18.3-.14s.26.11.26.2c0,.32,0,.63,0,.94Z"/><path class="cls-9" d="M127.46,191.2c0,.21-.12.5-.21.78a.28.28,0,0,1-.27.11.61.61,0,0,1-.28-.1.45.45,0,0,1-.17-.25,1.93,1.93,0,0,1,.4-1.37.25.25,0,0,1,.17-.09c.15,0,.17.06.21.11C127.5,190.62,127.45,190.87,127.46,191.2Z"/><path class="cls-9" d="M132.35,173.08c-.09.29,0,.59-.21.87a.41.41,0,0,1-.25.11.35.35,0,0,1-.25-.12.39.39,0,0,1-.1-.26,3.26,3.26,0,0,1,.24-1.4c0-.05.14-.09.21-.14s.19.09.23.15A1,1,0,0,1,132.35,173.08Z"/><path class="cls-9" d="M145.71,182.23c0,.24,0,.44,0,.64s-.16.25-.45.26-.52-.1-.55-.28a2.54,2.54,0,0,1,.3-1.79s.1-.05.17-.07a.19.19,0,0,1,.25.09A3,3,0,0,1,145.71,182.23Z"/><path class="cls-9" d="M158.48,184.77a4.46,4.46,0,0,1,0,.64c0,.14-.15.25-.44.26s-.53-.1-.56-.29a2.62,2.62,0,0,1,.3-1.78.43.43,0,0,1,.18-.08.2.2,0,0,1,.25.09A3.44,3.44,0,0,1,158.48,184.77Z"/><path class="cls-9" d="M166.53,174.86v.81a.29.29,0,0,1-.16.31.89.89,0,0,1-.29.09.27.27,0,0,1-.28-.09.46.46,0,0,1-.14-.25,4.13,4.13,0,0,1,.29-1.86.25.25,0,0,1,.31-.15c.16,0,.26.12.26.21,0,.31,0,.62,0,.93Z"/><path class="cls-9" d="M149.73,165.17a2.4,2.4,0,0,1,.16,1.58.68.68,0,0,1-.17.31.51.51,0,0,1-.4.11A.38.38,0,0,1,149,167a.33.33,0,0,1,0-.13,2.73,2.73,0,0,1,.4-1.57c0-.06.15-.09.24-.13Z"/><path class="cls-9" d="M138.72,151.89a2.4,2.4,0,0,1,.16,1.58.68.68,0,0,1-.17.31.53.53,0,0,1-.41.11.36.36,0,0,1-.33-.16.28.28,0,0,1,0-.13,2.73,2.73,0,0,1,.4-1.57c0-.06.15-.09.24-.13Z"/><path class="cls-9" d="M149.9,152.45a.54.54,0,0,1,.33.5,2.13,2.13,0,0,1-.2,1.33c0,.05-.18.08-.29.09a.33.33,0,0,1-.19-.06c-.16-.11-.25-.24-.22-.38.1-.44.22-.89.35-1.33C149.7,152.55,149.82,152.5,149.9,152.45Z"/><path class="cls-9" d="M161.16,163.16c-.06.2-.13.49-.22.78a.27.27,0,0,1-.27.1.55.55,0,0,1-.28-.1.44.44,0,0,1-.16-.24,2,2,0,0,1,.39-1.38.31.31,0,0,1,.17-.09c.15,0,.17.06.22.12C161.2,162.58,161.15,162.83,161.16,163.16Z"/><path class="cls-9" d="M166.3,150.8c-.09.29,0,.59-.21.87a.36.36,0,0,1-.24.11.42.42,0,0,1-.26-.12.43.43,0,0,1-.09-.26,3.25,3.25,0,0,1,.23-1.4c0-.05.14-.09.21-.14a1.1,1.1,0,0,1,.24.15A1,1,0,0,1,166.3,150.8Z"/><path class="cls-9" d="M184.73,143.43c-.1.28,0,.58-.21.86a.41.41,0,0,1-.25.11.38.38,0,0,1-.26-.12.41.41,0,0,1-.09-.26,3.25,3.25,0,0,1,.23-1.4c0-.05.14-.09.21-.13a.8.8,0,0,1,.24.14A1,1,0,0,1,184.73,143.43Z"/><path class="cls-9" d="M222.9,148.85c-.09.29,0,.59-.21.87a.36.36,0,0,1-.24.11.4.4,0,0,1-.26-.12.43.43,0,0,1-.09-.26,3.11,3.11,0,0,1,.23-1.4c0-.05.14-.09.21-.14a1.1,1.1,0,0,1,.24.15A1,1,0,0,1,222.9,148.85Z"/><path class="cls-9" d="M177.56,160.54c-.05.38-.1.76-.17,1.14a.74.74,0,0,1-.16.32.51.51,0,0,1-.4.12c-.18,0-.27-.08-.28-.18a4,4,0,0,1,.17-1.67,1.29,1.29,0,0,1,.3-.64.37.37,0,0,1,.28-.09c.14,0,.21.07.21.13,0,.29,0,.58,0,.87Z"/><path class="cls-9" d="M175.47,170.94a.58.58,0,0,1,.33.5,2.26,2.26,0,0,1-.21,1.34s-.18.07-.28.09a.43.43,0,0,1-.2-.06c-.15-.11-.25-.25-.22-.38.11-.45.23-.89.36-1.33C175.27,171,175.39,171,175.47,170.94Z"/><path class="cls-9" d="M138.24,213.65c-.05.38-.1.76-.17,1.14a.74.74,0,0,1-.16.32.55.55,0,0,1-.4.12c-.18,0-.27-.09-.28-.18a4,4,0,0,1,.17-1.67,1.25,1.25,0,0,1,.3-.64.37.37,0,0,1,.28-.09c.14,0,.21.06.21.13,0,.29,0,.58,0,.87Z"/><path class="cls-9" d="M126.76,211.39c-.06.38-.1.75-.17,1.13a.74.74,0,0,1-.16.32.48.48,0,0,1-.4.12c-.19,0-.28-.08-.28-.18a3.93,3.93,0,0,1,.17-1.66c.08-.22.08-.45.3-.65a.35.35,0,0,1,.28-.09c.14,0,.21.07.21.14,0,.29,0,.58,0,.87Z"/><path class="cls-9" d="M157.87,215.2c0,.26,0,.53,0,.8,0,.11,0,.23-.16.31a.82.82,0,0,1-.29.09.28.28,0,0,1-.28-.09.63.63,0,0,1-.14-.25,4,4,0,0,1,.3-1.86.24.24,0,0,1,.3-.15c.16,0,.26.12.26.21,0,.31,0,.62,0,.94Z"/><path class="cls-9" d="M136.15,224.05a.57.57,0,0,1,.33.5,2.26,2.26,0,0,1-.21,1.34s-.18.07-.28.08a.34.34,0,0,1-.2-.06c-.15-.11-.25-.24-.22-.37.11-.45.23-.89.36-1.34C136,224.15,136.07,224.1,136.15,224.05Z"/><path class="cls-9" d="M147.4,234.76c-.05.21-.12.49-.22.78a.24.24,0,0,1-.26.1.71.71,0,0,1-.29-.09.53.53,0,0,1-.16-.25,2,2,0,0,1,.4-1.38.3.3,0,0,1,.17-.08.18.18,0,0,1,.21.11C147.44,234.18,147.39,234.43,147.4,234.76Z"/><path class="cls-9" d="M146.16,248.06c-.09.29,0,.59-.21.87a.41.41,0,0,1-.25.11.35.35,0,0,1-.25-.12.39.39,0,0,1-.1-.26,3.26,3.26,0,0,1,.24-1.4s.14-.09.21-.14a1.1,1.1,0,0,1,.24.15A1.06,1.06,0,0,1,146.16,248.06Z"/><path class="cls-9" d="M268.55,183.9a4.46,4.46,0,0,1,0,.64c0,.14-.15.25-.45.26s-.52-.1-.55-.29a2.62,2.62,0,0,1,.3-1.78.43.43,0,0,1,.18-.08.2.2,0,0,1,.25.09A3.44,3.44,0,0,1,268.55,183.9Z"/><path class="cls-9" d="M253.71,178c0,.27,0,.54,0,.8a.3.3,0,0,1-.15.32,1.32,1.32,0,0,1-.3.09.3.3,0,0,1-.28-.1.57.57,0,0,1-.14-.25,4,4,0,0,1,.3-1.86.24.24,0,0,1,.3-.14c.16,0,.26.11.26.2,0,.32,0,.63,0,.94Z"/><path class="cls-9" d="M242.32,160.68a2.4,2.4,0,0,1,.16,1.58.74.74,0,0,1-.17.31.55.55,0,0,1-.41.11.36.36,0,0,1-.33-.16s0-.09,0-.13a2.8,2.8,0,0,1,.39-1.57c0-.06.16-.09.25-.13Z"/><path class="cls-9" d="M189.5,120a2.37,2.37,0,0,1,.16,1.59.8.8,0,0,1-.17.31.51.51,0,0,1-.4.11c-.18,0-.29-.07-.33-.16a.24.24,0,0,1,0-.13,2.87,2.87,0,0,1,.4-1.58.76.76,0,0,1,.24-.12Z"/><path class="cls-9" d="M170,124.06a2.41,2.41,0,0,1,.16,1.58.77.77,0,0,1-.17.32.52.52,0,0,1-.4.11.37.37,0,0,1-.34-.16.33.33,0,0,1,0-.13,2.77,2.77,0,0,1,.4-1.58s.15-.09.24-.12S169.88,124.07,170,124.06Z"/><path class="cls-9" d="M242.49,148a.55.55,0,0,1,.33.5,2.28,2.28,0,0,1-.2,1.33c0,.05-.19.08-.29.09a.36.36,0,0,1-.2-.06c-.15-.11-.25-.24-.21-.38.1-.44.22-.89.35-1.33C242.29,148.05,242.41,148,242.49,148Z"/><path class="cls-9" d="M227.68,130.59a.54.54,0,0,1,.33.5,2.18,2.18,0,0,1-.2,1.34.59.59,0,0,1-.29.08.33.33,0,0,1-.19-.06c-.16-.11-.25-.24-.22-.38.1-.44.22-.89.35-1.33C227.48,130.69,227.6,130.64,227.68,130.59Z"/><path class="cls-9" d="M211.62,121.07a.57.57,0,0,1,.33.5,2.26,2.26,0,0,1-.21,1.34s-.18.07-.28.08a.34.34,0,0,1-.2-.06c-.15-.11-.25-.24-.22-.38.11-.44.23-.88.36-1.33C211.42,121.17,211.54,121.12,211.62,121.07Z"/><path class="cls-9" d="M151.86,133.56a.55.55,0,0,1,.33.5,2.28,2.28,0,0,1-.2,1.33c0,.05-.19.08-.29.09a.36.36,0,0,1-.2-.06c-.15-.11-.25-.24-.21-.38.1-.44.22-.89.35-1.33C151.66,133.66,151.78,133.61,151.86,133.56Z"/><path class="cls-9" d="M253.74,158.67c-.05.2-.12.49-.21.77a.26.26,0,0,1-.27.11.61.61,0,0,1-.28-.1.47.47,0,0,1-.17-.24,1.94,1.94,0,0,1,.4-1.38.25.25,0,0,1,.17-.09c.15,0,.17.06.21.11C253.78,158.09,253.73,158.34,253.74,158.67Z"/><path class="cls-9" d="M258.89,146.31c-.09.29,0,.59-.21.86a.37.37,0,0,1-.25.12.45.45,0,0,1-.25-.12.39.39,0,0,1-.1-.26,3.26,3.26,0,0,1,.24-1.4s.14-.09.21-.14a1.1,1.1,0,0,1,.24.15A1,1,0,0,1,258.89,146.31Z"/><path class="cls-9" d="M244.69,130.57c-.09.29,0,.59-.21.86a.42.42,0,0,1-.25.12.52.52,0,0,1-.26-.12.45.45,0,0,1-.09-.26,3.24,3.24,0,0,1,.24-1.4c0-.06.13-.1.21-.14s.19.09.23.15C244.77,130,244.7,130.3,244.69,130.57Z"/><path class="cls-9" d="M246.85,216a4.46,4.46,0,0,1,0,.64c0,.14-.16.25-.45.26s-.52-.1-.55-.28a2.54,2.54,0,0,1,.3-1.79.34.34,0,0,1,.17-.07.2.2,0,0,1,.26.09A3.33,3.33,0,0,1,246.85,216Z"/><path class="cls-9" d="M277.53,194.19a4.46,4.46,0,0,1,0,.64c0,.14-.15.25-.44.26s-.53-.1-.55-.28a2.54,2.54,0,0,1,.3-1.79A.3.3,0,0,1,277,193a.19.19,0,0,1,.25.09A3.12,3.12,0,0,1,277.53,194.19Z"/><path class="cls-9" d="M281.35,177.06a2.41,2.41,0,0,1,.16,1.58.9.9,0,0,1-.17.32.59.59,0,0,1-.41.1c-.18,0-.28-.06-.33-.16a.2.2,0,0,1,0-.13,2.82,2.82,0,0,1,.39-1.57.83.83,0,0,1,.25-.13Z"/><path class="cls-9" d="M262.49,206.53c-.06.2-.13.49-.22.78a.27.27,0,0,1-.27.1.55.55,0,0,1-.28-.1.44.44,0,0,1-.16-.24,1.94,1.94,0,0,1,.39-1.38.28.28,0,0,1,.17-.09c.15,0,.17.06.22.12C262.53,206,262.48,206.2,262.49,206.53Z"/><path class="cls-9" d="M248.59,196.51c-.05.2-.12.49-.22.77a.24.24,0,0,1-.26.11.7.7,0,0,1-.29-.1.44.44,0,0,1-.16-.24,2,2,0,0,1,.39-1.38.31.31,0,0,1,.17-.09.2.2,0,0,1,.22.11C248.63,195.93,248.58,196.18,248.59,196.51Z"/><path class="cls-9" d="M266.35,224.24c-.09.28,0,.58-.21.86a.36.36,0,0,1-.25.11.44.44,0,0,1-.26-.11.46.46,0,0,1-.09-.27,3.26,3.26,0,0,1,.24-1.4c0-.05.13-.09.21-.13a.82.82,0,0,1,.23.14A1,1,0,0,1,266.35,224.24Z"/><path class="cls-9" d="M280.86,213.44c-.1.29,0,.59-.21.86a.42.42,0,0,1-.25.12.49.49,0,0,1-.26-.12.45.45,0,0,1-.09-.26,3.23,3.23,0,0,1,.23-1.4c0-.06.14-.1.22-.14s.19.09.23.15C280.94,212.9,280.87,213.17,280.86,213.44Z"/><path class="cls-9" d="M262.43,242.59c-.1.29,0,.59-.21.87a.41.41,0,0,1-.25.11.38.38,0,0,1-.26-.12.43.43,0,0,1-.09-.26,3.25,3.25,0,0,1,.23-1.4s.14-.09.21-.14a1.1,1.1,0,0,1,.24.15A1,1,0,0,1,262.43,242.59Z"/><path class="cls-9" d="M242.32,230.09a2.41,2.41,0,0,1,.16,1.58.77.77,0,0,1-.17.32.59.59,0,0,1-.41.1c-.18,0-.28-.06-.33-.16a.2.2,0,0,1,0-.13,2.82,2.82,0,0,1,.39-1.57.83.83,0,0,1,.25-.13Z"/><path class="cls-9" d="M271,163.59c0,.27,0,.54,0,.8a.3.3,0,0,1-.15.32,1.18,1.18,0,0,1-.3.09.3.3,0,0,1-.28-.1.57.57,0,0,1-.14-.25,4,4,0,0,1,.3-1.86.24.24,0,0,1,.3-.14c.16,0,.26.11.26.2,0,.32,0,.63,0,.94Z"/><path class="cls-9" d="M265.58,151.88a7.48,7.48,0,0,1-.22.78c0,.06-.13.12-.26.11a.7.7,0,0,1-.29-.1.49.49,0,0,1-.16-.25,1.93,1.93,0,0,1,.4-1.37.25.25,0,0,1,.17-.09c.14,0,.17.06.21.11C265.62,151.3,265.57,151.55,265.58,151.88Z"/><path class="cls-8" d="M123.51,137.48l-.58-.35c.23-.39.47-.78.71-1.16l.58.36C124,136.71,123.74,137.09,123.51,137.48Z"/><path class="cls-8" d="M196.62,308.6h-.05l-2.67,0,0-.68c.88,0,1.76,0,2.65,0Zm2.73,0,0-.68c.9,0,1.8-.06,2.71-.11l0,.68C201.16,308.51,200.25,308.54,199.35,308.57Zm-8.17-.1-2.72-.17,0-.68c.9.07,1.8.12,2.7.17Zm13.61-.18,0-.67c.9-.07,1.8-.15,2.69-.24l.07.67C206.6,308.14,205.7,308.22,204.79,308.29Zm-19-.23c-.9-.09-1.8-.2-2.7-.31l.08-.67,2.69.3Zm24.47-.32-.09-.67c.9-.11,1.8-.24,2.69-.37l.1.67C212,307.5,211.11,307.63,210.21,307.74Zm-29.87-.37c-.9-.14-1.8-.29-2.69-.45l.12-.66,2.67.44Zm35.26-.45-.12-.66c.89-.16,1.77-.33,2.66-.51l.13.66C217.38,306.59,216.49,306.77,215.6,306.92ZM175,306.4c-.89-.18-1.78-.38-2.66-.59l.15-.66c.88.21,1.76.41,2.64.59Zm46-.57-.16-.66c.89-.2,1.77-.4,2.65-.62l.15.66C222.7,305.43,221.82,305.63,220.94,305.83Zm-51.27-.68c-.88-.24-1.75-.48-2.62-.74l.19-.65c.86.26,1.73.5,2.61.73Zm56.55-.6-.16-.66c.87-.22,1.74-.46,2.61-.7l.18.66Zm-61.78-.95c-.86-.28-1.72-.57-2.58-.88l.24-.64c.84.31,1.7.6,2.55.88Zm67-.51-.19-.65c.86-.25,1.73-.52,2.59-.79l.2.65C233.21,302.57,232.34,302.84,231.47,303.09Zm-42.1-.24c-.91,0-1.82,0-2.73,0l0-.68c.9,0,1.8,0,2.7.05Zm2.73,0,0-.68c.9,0,1.81,0,2.71-.09l0,.68Zm-8.18-.15c-.9-.05-1.81-.12-2.72-.2l.07-.68c.89.08,1.79.15,2.69.2Zm13.62-.1,0-.68c.9-.06,1.8-.13,2.7-.22l.06.68Zm-19-.39c-.9-.11-1.8-.24-2.7-.38l.11-.67c.89.14,1.78.27,2.68.38Zm24.47-.11-.08-.67c.9-.1,1.8-.21,2.69-.33l.09.67Q204.31,301.93,203,302.08Zm-43.65-.32c-.84-.33-1.68-.67-2.52-1l.26-.62c.84.35,1.67.69,2.51,1Zm77.35-.3-.21-.65c.85-.28,1.71-.58,2.56-.88l.22.64Zm-28.3-.09-.1-.67,2.67-.43.12.67Zm-35.25,0c-.9-.16-1.79-.35-2.67-.55l.15-.66c.87.2,1.76.38,2.64.55Zm40.62-.88-.13-.66,2.67-.52.13.67Q215.07,300.22,213.73,300.46Zm-45.95-.33c-.87-.23-1.75-.48-2.62-.74l.2-.65c.86.26,1.73.51,2.6.74Zm74-.5-.24-.63,2.53-1,.25.63Zm-87.49,0c-.83-.39-1.65-.78-2.46-1.19l.3-.6c.81.4,1.62.79,2.44,1.17Zm64.76-.23-.14-.66,2.65-.59.15.66Zm-56.49-.85c-.87-.3-1.72-.62-2.57-.94l.25-.64c.84.33,1.69.64,2.54.94Zm61.8-.35-.16-.66,1.07-.26,1.57-.39.16.66-1.57.39Zm22.48-.59-.27-.62c.84-.35,1.66-.71,2.49-1.08l.27.62C248.52,296.9,247.68,297.26,246.85,297.61Zm-97.43-.42-1.08-.59-1.3-.75.35-.58c.42.25.85.49,1.28.73l1.08.59Zm80.23-.32-.18-.65,2.61-.73.19.65C231.4,296.39,230.52,296.64,229.65,296.87Zm-72.17-.31c-.85-.37-1.68-.75-2.48-1.14l.3-.61c.79.39,1.61.77,2.45,1.13Zm94.34-1.17-.29-.61c.81-.39,1.63-.78,2.43-1.19l.31.61C253.45,294.61,252.64,295,251.82,295.39Zm-16.95-.05-.21-.65c.86-.27,1.72-.56,2.56-.87l.23.64C236.6,294.77,235.74,295.06,234.87,295.34Zm-90.15-.91q-1.16-.74-2.28-1.5l.38-.56c.75.51,1.5,1,2.26,1.49Zm7.85-.26c-.79-.43-1.59-.88-2.37-1.35l.35-.58c.77.46,1.56.91,2.35,1.34Zm87.43-.69-.25-.63c.87-.35,1.68-.71,2.47-1.07l.29.61C241.71,292.76,240.89,293.12,240,293.48Zm16.69-.52-.32-.6c.8-.42,1.59-.85,2.38-1.29l.33.59C258.29,292.1,257.49,292.53,256.69,293Zm-108.8-1.6c-.77-.51-1.52-1-2.24-1.57l.41-.54c.71.52,1.45,1,2.21,1.55Zm-7.68,0c-.73-.54-1.45-1.09-2.17-1.65l.42-.53c.71.55,1.43,1.1,2.16,1.63ZM245,291.18l-.32-.6c.8-.42,1.59-.86,2.37-1.3l.34.58C246.56,290.32,245.76,290.76,245,291.18Zm16.49-.87-.35-.59c.78-.45,1.56-.92,2.32-1.4l.36.58C263,289.38,262.23,289.85,261.45,290.31Zm-11.76-1.85-.36-.57c.77-.48,1.53-1,2.28-1.46l.38.57C251.22,287.5,250.46,288,249.69,288.46Zm-106.2-.34c-.7-.57-1.4-1.17-2.07-1.78l.45-.5c.67.6,1.36,1.19,2,1.76Zm-7.57-.13q-1-.87-2.07-1.77l.44-.51c.68.6,1.37,1.18,2.06,1.76Zm130.16-.56-.37-.56c.75-.5,1.5-1,2.24-1.52l.39.56C267.59,286.43,266.84,286.94,266.08,287.43Zm-11.83-1.94-.38-.56c.76-.5,1.5-1,2.25-1.52l.38.56Zm-114.81-1c-.63-.63-1.27-1.29-1.89-2l.5-.46c.62.67,1.24,1.33,1.87,2Zm-7.62-.06c-.67-.61-1.33-1.23-2-1.87l.47-.48c.65.62,1.3,1.24,2,1.85Zm138.74-.06-.4-.55c.73-.54,1.45-1.08,2.16-1.63l.42.54Zm-11.82-1.91-.38-.56,2.23-1.54.39.56C260.24,281.41,259.49,281.92,258.74,282.43ZM274.87,281l-.43-.52c.7-.57,1.4-1.15,2.08-1.74l.44.51C276.27,279.85,275.58,280.43,274.87,281Zm-147-.38c-.65-.64-1.28-1.29-1.91-1.95l.49-.46c.63.65,1.26,1.3,1.9,1.94Zm7.86-.2c-.56-.68-1.14-1.4-1.7-2.14l.54-.41c.56.73,1.12,1.45,1.68,2.12Zm127.45-1.09-.39-.55,2.21-1.57.4.55ZM279,277.44l-.46-.5c.67-.61,1.32-1.23,2-1.85l.47.48C280.33,276.2,279.67,276.83,279,277.44Zm-154.87-.75q-.93-1-1.83-2l.51-.45c.6.67,1.2,1.34,1.82,2Zm143.5-.54-.4-.54L269.4,274l.41.54C269.08,275.07,268.36,275.62,267.63,276.15Zm-135.18-.07c-.52-.75-1-1.5-1.52-2.27l.57-.36c.49.75,1,1.5,1.51,2.24Zm150.46-2.43-.48-.48c.63-.64,1.25-1.3,1.86-2l.5.46C284.17,272.34,283.55,273,282.91,273.65Zm-11-.79-.42-.53c.71-.56,1.42-1.12,2.12-1.69l.43.52C273.38,271.74,272.67,272.3,272,272.86Zm-151.44-.26c-.57-.7-1.11-1.45-1.62-2.22l.57-.37c.5.75,1,1.48,1.57,2.17Zm9-1.1c-.46-.78-.92-1.57-1.36-2.36l.59-.33q.66,1.19,1.35,2.34Zm157.11-1.87-.51-.44q.89-1,1.74-2.07l.53.43C287.78,268.25,287.2,269,286.6,269.63Zm-10.43-.22-.44-.51c.69-.59,1.37-1.18,2-1.79l.45.51C277.55,268.22,276.87,268.82,276.17,269.41ZM117.49,268c-.43-.78-.84-1.6-1.23-2.44l.61-.29c.39.83.8,1.64,1.21,2.4Zm9.34-1.29q-.63-1.2-1.23-2.43l.61-.3c.4.81.81,1.62,1.22,2.42Zm153.39-1-.47-.49c.66-.62,1.3-1.25,1.93-1.89l.48.47C281.53,264.5,280.88,265.14,280.22,265.76Zm9.83-.35-.54-.42c.55-.71,1.09-1.44,1.61-2.17l.55.4Q290.88,264.33,290.05,265.41Zm-174.87-2.34c-.32-.81-.64-1.68-.94-2.56l.64-.22c.3.87.61,1.73.93,2.53Zm168.87-1.19-.5-.46c.61-.66,1.2-1.34,1.79-2l.52.44C285.27,260.53,284.66,261.21,284.05,261.88Zm-159.62,0c-.38-.82-.76-1.64-1.13-2.47l.62-.28c.37.83.74,1.65,1.12,2.47Zm168.8-.87-.56-.38c.5-.75,1-1.5,1.47-2.27l.57.36C294.23,259.46,293.74,260.23,293.23,261Zm-179.84-3.06c-.26-.87-.52-1.74-.76-2.62l.65-.18c.25.87.5,1.74.76,2.6Zm174.2-.19-.54-.42c.56-.71,1.11-1.43,1.63-2.16l.55.4C288.7,256.28,288.15,257,287.59,257.73Zm-165.36-.86c-.36-.83-.7-1.67-1-2.51l.62-.26c.35.84.69,1.68,1,2.51Zm173.9-.51-.59-.34c.46-.78.9-1.56,1.33-2.36l.59.33C297,254.79,296.59,255.58,296.13,256.36Zm-5.36-3.06-.57-.38c.49-.74,1-1.51,1.42-2.29l.59.34C291.74,251.76,291.26,252.54,290.77,253.3Zm-178.85-.62c-.21-.78-.41-1.56-.61-2.33l-.08-.31.66-.16.08.3c.2.77.4,1.55.61,2.32Zm8.26-.85c-.33-.84-.66-1.69-1-2.53l.63-.25,1,2.54Zm178.54-.26-.61-.3c.4-.81.79-1.62,1.17-2.44l.61.28C299.52,249.93,299.12,250.75,298.72,251.57Zm-5.17-3-.64-.25c.44-.84.83-1.64,1.19-2.44l.62.28C294.35,246.93,294,247.74,293.55,248.53Zm-183-1.12c-.23-.88-.46-1.75-.7-2.61l.65-.19c.24.87.48,1.75.71,2.63Zm7.69-.66-.95-2.55.64-.23c.31.85.63,1.7.95,2.54ZM301,246.61l-.62-.26c.34-.84.68-1.67,1-2.52l.64.24C301.67,244.92,301.33,245.77,301,246.61Zm-5.19-3-.63-.25c.32-.82.64-1.67.93-2.53l.64.22C296.44,241.91,296.12,242.77,295.79,243.6Zm-186.7-1.41c-.27-.89-.53-1.76-.79-2.59l.65-.2c.26.84.52,1.7.79,2.6Zm7.27-.54c-.31-.85-.61-1.71-.91-2.56l.64-.23c.3.86.6,1.71.91,2.56Zm186.53-.15-.64-.22q.42-1.28.81-2.58l.65.19C303.45,239.77,303.18,240.63,302.89,241.5Zm-5.32-3.06-.66-.19q.39-1.29.72-2.61l.65.17C298.06,236.69,297.82,237.57,297.57,238.44ZM107.5,237c-.29-.9-.56-1.76-.83-2.59l.65-.2c.27.82.54,1.68.82,2.58Zm7.06-.5c-.29-.86-.58-1.72-.86-2.58l.64-.21c.28.86.57,1.71.86,2.57Zm189.86-.26-.65-.17c.22-.87.42-1.75.61-2.63l.66.14C304.85,234.49,304.65,235.38,304.42,236.26Zm-5.53-3.11-.66-.14c.19-.88.36-1.77.51-2.66l.67.12C299.25,231.37,299.08,232.26,298.89,233.15Zm-193-1.29-.84-2.58.64-.21.85,2.58Zm7-.51c-.27-.86-.54-1.73-.8-2.6l.65-.19c.26.86.52,1.73.8,2.59Zm192.69-.43-.67-.12.1-.58c.11-.7.22-1.39.31-2.09l.67.09c-.09.7-.2,1.4-.31,2.1Zm-5.72-3.14-.67-.1c.13-.89.24-1.79.34-2.68l.67.07C300.07,226,300,226.88,299.83,227.78ZM104.16,226.7c-.3-.89-.57-1.75-.83-2.58l.65-.2c.25.82.53,1.68.82,2.57Zm7.14-.56c-.25-.87-.49-1.75-.73-2.62l.66-.18c.23.87.47,1.75.72,2.62Zm195-.63-.67-.06c.08-.9.16-1.8.22-2.7l.67,0C306.43,223.7,306.36,224.61,306.27,225.51Zm-5.84-3.15-.68-.06c.08-.9.14-1.8.19-2.7l.68,0C300.57,220.55,300.5,221.45,300.43,222.36Zm-197.89-.84c-.25-.89-.49-1.76-.71-2.62l.65-.17c.22.86.46,1.72.71,2.6Zm7.35-.64c-.22-.88-.43-1.76-.63-2.65l.66-.15q.3,1.32.63,2.64Zm196.74-.81-.67,0c0-.9.05-1.81.06-2.71h.68C306.69,218.26,306.67,219.17,306.63,220.07Zm-5.88-3.15-.68,0c0-.9.06-1.8.07-2.71h.68C300.8,215.1,300.78,216,300.75,216.92Zm-199.54-.68c-.19-.86-.35-1.75-.51-2.67l.67-.12c.15.92.32,1.79.5,2.65Zm7.47-.67c-.18-.88-.36-1.78-.52-2.67l.66-.12c.17.89.34,1.77.53,2.66ZM306,214.63c0-.9,0-1.81,0-2.71l.68,0c0,.91,0,1.82,0,2.73Zm-5.87-3.16c0-.9,0-1.8,0-2.71h.67c0,.91,0,1.82,0,2.72Zm-199.86-.59c-.12-.86-.22-1.76-.32-2.71l.68-.06c.09.93.2,1.82.31,2.68Zm7.4-.66c-.15-.9-.28-1.8-.4-2.7l.67-.09c.12.89.25,1.79.39,2.68Zm198.19-1,0-.4c0-.77-.07-1.54-.11-2.32l.68,0c0,.77.08,1.55.11,2.32l0,.39Zm-5.82-3.17c0-.9-.05-1.81-.09-2.71l.68,0c0,.9.07,1.81.09,2.71Zm-200.33-.58c-.07-.86-.13-1.77-.19-2.71l.68,0c.06.94.12,1.84.19,2.69Zm7.23-.65c-.1-.91-.18-1.81-.26-2.72l.68,0c.07.9.16,1.8.25,2.69Zm198.63-1c-.07-.91-.13-1.81-.21-2.71l.68-.05c.07.9.14,1.81.2,2.71Zm-5.74-3.17c0-.9-.09-1.8-.14-2.71l.68,0c.05.91.1,1.82.14,2.72Zm-200.45-.58c0-.87-.08-1.77-.12-2.72l.68,0c0,.94.07,1.84.12,2.7Zm7.13-.67c-.05-.9-.08-1.81-.1-2.72l.68,0c0,.91,0,1.81.09,2.71Zm198.61-1c-.09-.9-.18-1.8-.29-2.69l.68-.08c.1.9.19,1.8.28,2.71Zm-5.6-3.18q-.09-1.35-.21-2.7l.67-.06c.08.91.15,1.81.21,2.72ZM99.2,194.62l0-1.15c0-.48,0-1,.08-1.61l.67.06c0,.57-.07,1.09-.07,1.55l0,1.13Zm7.9-.68h-.68c0-.91,0-1.82.07-2.72l.68,0C107.13,192.13,107.11,193,107.1,193.94ZM304.54,193c-.12-.89-.24-1.79-.37-2.68l.67-.1c.13.9.26,1.8.37,2.7Zm-5.45-3.19c-.1-.9-.19-1.8-.3-2.69l.67-.08q.17,1.35.3,2.7Zm-198.82-.56-.67-.11c.13-.84.3-1.74.49-2.69l.66.13Q100.47,188,100.27,189.25Zm7.06-.72-.68-.05c.07-.9.16-1.81.26-2.71l.67.07C107.48,186.74,107.4,187.63,107.33,188.53Zm196.43-.89q-.21-1.33-.45-2.67l.67-.12c.16.89.31,1.79.45,2.68Zm-5.33-3.21q-.19-1.34-.42-2.67l.67-.12q.22,1.35.42,2.7Zm-197.12-.5-.66-.15c.2-.86.41-1.75.63-2.65l.66.16Q101.61,182.64,101.31,183.93Zm6.62-.77-.67-.1c.13-.9.28-1.8.45-2.69l.67.12Q108.13,181.83,107.93,183.16Zm194.88-.86c-.17-.88-.35-1.77-.54-2.65l.66-.14c.19.88.38,1.77.55,2.66Zm-5.28-3.2c-.18-.89-.37-1.77-.57-2.65l.66-.15q.3,1.32.57,2.67Zm-194.93-.44-.66-.17c.23-.87.46-1.75.7-2.63l.66.17C103.06,176.91,102.83,177.79,102.6,178.66Zm6.33-.81-.66-.15c.2-.89.42-1.77.66-2.65l.65.18C109.35,176.1,109.13,177,108.93,177.85ZM301.67,177c-.2-.88-.42-1.76-.64-2.64l.66-.16c.22.88.44,1.76.64,2.64Zm-5.36-3.18c-.23-.88-.48-1.74-.74-2.6l.64-.2c.27.87.52,1.74.75,2.62ZM104,173.42l-.65-.19c.25-.88.51-1.75.76-2.61l.65.19C104.53,171.67,104.27,172.54,104,173.42Zm6.33-.78-.65-.21c.28-.87.58-1.73.89-2.58l.63.23C110.92,170.92,110.62,171.78,110.35,172.64Zm190-.89c-.24-.87-.49-1.73-.74-2.6l.65-.19c.26.87.5,1.74.74,2.62Zm-5.62-3.09c-.29-.84-.61-1.69-1-2.53l.63-.25c.34.85.66,1.71,1,2.56Zm-189.16-.46-.65-.19c.27-.9.54-1.77.8-2.6l.65.2C106.1,166.44,105.83,167.31,105.56,168.2Zm6.66-.63-.63-.26.16-.38c.31-.71.62-1.42,1-2.11l.61.29c-.33.69-.64,1.38-.95,2.09Zm186.58-1c-.27-.86-.55-1.72-.84-2.57l.64-.22c.29.86.57,1.72.85,2.58Zm-6.09-2.9c-.39-.84-.78-1.65-1.19-2.43l.6-.31c.41.78.82,1.61,1.2,2.45ZM107.19,163l-.64-.21c.31-.93.6-1.8.87-2.58l.64.22C107.79,161.23,107.5,162.09,107.19,163Zm7.34-.33-.6-.32c.42-.8.86-1.6,1.31-2.39l.59.34C115.38,161.1,115,161.89,114.53,162.69Zm182.52-1.26c-.31-.84-.63-1.69-.95-2.53l.63-.25q.5,1.28,1,2.55Zm-6.84-2.55c-.46-.77-.94-1.54-1.44-2.29l.56-.37c.51.75,1,1.53,1.46,2.31Zm-173-.88-.58-.36c.48-.77,1-1.54,1.47-2.3l.56.37C118.17,156.47,117.69,157.23,117.21,158Zm-8.23-.09-.63-.25a26,26,0,0,1,1.2-2.49l.6.33A23.52,23.52,0,0,0,109,157.91Zm186.1-1.52c-.35-.83-.7-1.66-1.07-2.49l.62-.27c.37.83.73,1.66,1.08,2.5Zm-7.88-2c-.49-.65-1-1.34-1.69-2.11l.52-.43c.65.77,1.21,1.47,1.71,2.13Zm-167-.93-.56-.39c.51-.75,1-1.49,1.57-2.22l.55.39C121.21,152,120.69,152.72,120.18,153.47Zm-8.66-.29-.57-.36q.7-1.12,1.5-2.28l.56.38C112.49,151.69,112,152.44,111.52,153.18Zm181.36-1.74c-.39-.81-.78-1.63-1.19-2.43l.61-.31c.41.82.81,1.63,1.19,2.45Zm-9.13-1.21-.38-.44L282,148.17l.52-.44c.45.54.92,1.08,1.38,1.61l.39.45Zm-160.41-1.17-.54-.4c.54-.73,1.08-1.45,1.63-2.17l.54.41Zm-8.76-.34-.54-.4c.53-.74,1.08-1.46,1.64-2.18l.53.41C115.66,147.26,115.12,148,114.58,148.72Zm175.87-2.12c-.38-.71-.77-1.41-1.16-2.11l-.15-.26.59-.34.15.27,1.17,2.12Zm-10.2-.54c-.45-.56-.88-1.13-1.29-1.72l-.34-.48.56-.38.33.47c.41.58.83,1.14,1.27,1.7Zm-153.62-1.31-.54-.42,1.67-2.14.53.41Zm-8.74-.33-.53-.42c.59-.74,1.17-1.44,1.73-2.11l.52.43C119.05,143,118.48,143.69,117.89,144.42Zm169.88-2.53c-.46-.77-.94-1.53-1.43-2.29l.57-.37c.49.77,1,1.54,1.44,2.31Zm-10.63-.33c-.44-.74-.88-1.51-1.35-2.37l.6-.33c.46.86.9,1.62,1.33,2.35ZM130,140.46l-.53-.41,1.68-2.14.53.42Zm154.89-3.12c-.51-.75-1-1.49-1.55-2.22l.55-.4c.53.74,1,1.48,1.56,2.24Zm-10.33-.56c-.32-.63-.64-1.25-.95-1.88l-.28-.55.6-.3.28.55.95,1.87Zm-141.19-.57-.53-.43c.57-.7,1.14-1.41,1.72-2.11l.52.43Zm-7.61-2.12-.55-.39c.52-.74,1.07-1.47,1.63-2.19l.54.42C126.78,132.64,126.23,133.36,125.72,134.09Zm156-1.14c-.55-.72-1.1-1.43-1.67-2.13l.52-.43c.58.71,1.14,1.42,1.69,2.14ZM136.78,132l-.52-.44c.59-.69,1.18-1.38,1.78-2.06l.51.45C138,130.65,137.36,131.33,136.78,132Zm135.27-.08q-.63-1.2-1.29-2.37l.59-.34c.44.79.87,1.59,1.3,2.4Zm-143-2.09-.51-.45c.6-.69,1.22-1.36,1.84-2l.49.47C130.26,128.5,129.65,129.17,129.06,129.85Zm149.22-1.11c-.59-.69-1.19-1.36-1.79-2l.5-.46c.61.68,1.21,1.36,1.8,2.05ZM140.36,128l-.5-.46c.61-.67,1.23-1.33,1.86-2l.49.47C141.58,126.62,141,127.28,140.36,128Zm129-.7c-.23-.37-.47-.73-.71-1.09s-.53-.76-.81-1.14l.55-.4c.28.38.55.77.82,1.16s.48.73.72,1.1ZM132.8,126l-.47-.49c.65-.62,1.34-1.23,2-1.83l.44.51C134.12,124.75,133.44,125.35,132.8,126Zm141.84-1.23c-.62-.65-1.26-1.29-1.9-1.92l.47-.49c.65.64,1.29,1.29,1.92,1.94ZM144.11,124l-.48-.48c.65-.64,1.3-1.27,2-1.88l.46.49C145.4,122.79,144.75,123.41,144.11,124Zm122.1-1.14c-.57-.68-1.18-1.36-1.8-2l.49-.47c.63.66,1.25,1.35,1.83,2Zm-129.32-.46-.41-.53c.7-.56,1.43-1.11,2.18-1.64l.39.55C138.32,121.35,137.59,121.89,136.89,122.44Zm133.89-1.5c-.66-.61-1.33-1.21-2-1.81l.44-.51c.69.6,1.36,1.21,2,1.82Zm-122.7-.57-.45-.51c.69-.6,1.39-1.18,2.1-1.75l.42.53C149.45,119.2,148.76,119.78,148.08,120.37Zm-6.8-1.08-.37-.56c.77-.51,1.55-1,2.31-1.46l.35.58C142.81,118.31,142.05,118.79,141.28,119.29ZM262.49,119c-.65-.6-1.34-1.2-2-1.77l.43-.52c.71.58,1.4,1.18,2.06,1.79Zm4.21-1.61c-.7-.57-1.4-1.13-2.12-1.68l.41-.54c.72.55,1.44,1.12,2.14,1.69ZM152.29,117l-.4-.54c.75-.55,1.5-1.08,2.24-1.57l.38.56C153.78,115.93,153,116.45,152.29,117Zm-6.38-.49-.33-.59c.82-.45,1.62-.88,2.41-1.28l.31.6C147.52,115.63,146.72,116.05,145.91,116.5Zm112.41-.92c-.71-.52-1.46-1-2.22-1.52l.37-.57c.77.5,1.53,1,2.25,1.54Zm4.09-1.48c-.73-.53-1.47-1-2.22-1.54l.37-.57c.76.51,1.51,1,2.24,1.56ZM150.73,114l-.29-.61c.85-.4,1.67-.78,2.48-1.14l.27.62C152.39,113.26,151.57,113.63,150.73,114Zm6.05,0-.35-.58c.39-.23.78-.46,1.18-.68s.79-.45,1.2-.67l.32.6c-.4.22-.8.43-1.19.66S157.16,113.76,156.78,114Zm97-1.34c-.77-.44-1.57-.88-2.37-1.29l.31-.6c.81.41,1.62.85,2.4,1.3Zm-98.12-.82-.26-.62.12,0c.78-.33,1.6-.63,2.45-.9l.21.65c-.83.26-1.64.55-2.39.87Zm5.86-.39-.29-.61c.82-.39,1.65-.77,2.48-1.13l.27.63Q162.76,110.86,161.54,111.44Zm96.38-.35c-.77-.48-1.54-.94-2.32-1.39l.34-.59c.78.45,1.56.92,2.34,1.4Zm-97.12-.88-.16-.66c.84-.2,1.72-.37,2.68-.54l.12.67C162.48,109.84,161.62,110,160.8,110.21Zm88.2,0c-.81-.36-1.65-.72-2.49-1.06l.26-.63c.84.34,1.69.7,2.51,1.08Zm-82.5-.87,0-.1-.36.05-.09-.67.71-.1,2.08-.76.23.64-.3.1.06.44-1.9.25Zm5-.73-.09-.68,2.7-.33.08.67Zm81.73-.19c-.79-.43-1.6-.83-2.41-1.23l.3-.61c.82.4,1.63.81,2.43,1.24Zm-9.24-.22c-.85-.3-1.71-.58-2.57-.84l.2-.65c.87.27,1.73.55,2.59.85Zm-67.1-.26-.09-.68,2.7-.33.08.67Zm-5.29-.41-.2-.64c.86-.29,1.72-.56,2.59-.82l.2.65C173.33,107,172.46,107.22,171.6,107.5Zm10.68-.26-.09-.68,2.7-.33.08.67Zm56.54-.65c-.87-.22-1.75-.43-2.63-.63l.15-.66c.88.19,1.77.41,2.65.64Zm-51.15,0-.09-.67,2.7-.33.08.67Zm60.7-.54q-1.23-.54-2.49-1l.25-.63c.85.34,1.68.69,2.52,1.06Zm-71.58-.1-.19-.65.83-.24,1.79-.49.18.65-1.78.5Zm16.27,0-.09-.67,2.7-.32.08.67Zm40.48-.47-1.86-.31-.81-.12.1-.67.82.12c.62.1,1.25.2,1.87.32Zm-35.09-.15-.07-.67,2.7-.28.07.67Zm5.4-.53-.06-.67,2.71-.22.05.67Zm24.34-.08c-.9-.1-1.8-.18-2.7-.26l.06-.67c.9.07,1.81.15,2.71.25ZM182,104.49l-.17-.66c.88-.22,1.76-.45,2.64-.66l.16.66C183.77,104,182.89,104.26,182,104.49Zm27.24-.13,0-.68,2.72-.14,0,.68C211.06,104.26,210.16,104.3,209.26,104.36Zm13.53-.12c-.9,0-1.8-.08-2.7-.1v-.68c.91,0,1.82.06,2.73.1Zm-8.12-.1v-.68c.89,0,1.82,0,2.67,0l0,.68C216.44,104.12,215.56,104.12,214.67,104.14Zm28.68-.13c-.85-.3-1.7-.59-2.56-.86l.2-.64c.87.27,1.73.56,2.59.87Zm-56.06-.81-.15-.66,2.65-.59.14.66Zm50.9-.81c-.86-.24-1.74-.46-2.61-.67l.15-.66c.89.21,1.77.43,2.64.67Zm-45.6-.32-.13-.67,2.67-.5.12.67C194.36,101.73,193.48,101.89,192.59,102.07Zm40.34-.92c-.88-.17-1.77-.33-2.66-.48l.11-.67c.9.15,1.79.31,2.68.49Zm-35,0-.11-.67c.9-.14,1.8-.28,2.69-.4l.1.67C199.71,100.84,198.82,101,197.93,101.12Zm5.36-.74-.08-.68,2.71-.29.07.68C205.09,100.17,204.19,100.27,203.29,100.38Zm24.3-.09c-.89-.12-1.79-.22-2.68-.3l.06-.68c.91.09,1.81.19,2.71.3Zm-18.91-.43,0-.67c.9-.07,1.81-.12,2.72-.16l0,.67C210.49,99.74,209.59,99.8,208.68,99.86Zm13.53-.09c-.9,0-1.8-.1-2.7-.13l0-.68c.91,0,1.82.08,2.72.14Zm-8.12-.16v-.68l2.16,0h.56v.68h-.56C215.52,99.59,214.81,99.59,214.09,99.61Z"/><path class="cls-8" d="M121.56,140.05l-.51-.45c.32-.36.62-.7.91-1l.5.45Z"/></g></g></svg>