<svg xmlns="http://www.w3.org/2000/svg" xmlns:xlink="http://www.w3.org/1999/xlink" viewBox="0 0 1370.16 233.98"><defs><style>.cls-1{fill:none;}.cls-2{clip-path:url(#clip-path);}.cls-3{fill:#58595b;}.cls-4{clip-path:url(#clip-path-2);}.cls-5{clip-path:url(#clip-path-3);}.cls-6{fill:#fff;}.cls-7{fill:url(#New_Pattern_2);}.cls-8{fill:#ccf5f7;}.cls-9{fill:#8ae9ec;}</style><clipPath id="clip-path"><rect class="cls-1" x="-16.77" y="83.16" width="94" height="96"/></clipPath><clipPath id="clip-path-2"><rect class="cls-1" x="80.1" y="-9.95" width="94" height="96"/></clipPath><clipPath id="clip-path-3"><rect class="cls-1" x="-16.77" y="-9.95" width="94" height="96"/></clipPath><pattern id="New_Pattern_2" data-name="New Pattern 2" width="96.86" height="93.12" patternTransform="translate(1009.68 61.64)" patternUnits="userSpaceOnUse" viewBox="0 0 96.86 93.12"><rect class="cls-1" width="96.86" height="93.12"/><g class="cls-2"><path class="cls-3" d="M22.48,85.27a1.93,1.93,0,0,1,.13,1.27.73.73,0,0,1-.14.26.48.48,0,0,1-.33.09.32.32,0,0,1-.27-.13.45.45,0,0,1,0-.11,2.27,2.27,0,0,1,.32-1.27.53.53,0,0,1,.2-.1Z"/><path class="cls-3" d="M6.68,88.53a1.89,1.89,0,0,1,.13,1.28.63.63,0,0,1-.14.25.42.42,0,0,1-.32.09A.3.3,0,0,1,6.08,90a.25.25,0,0,1,0-.11,2.36,2.36,0,0,1,.32-1.27.62.62,0,0,1,.2-.1Z"/><path class="cls-3" d="M40.34,86.11a.46.46,0,0,1,.27.4,1.84,1.84,0,0,1-.16,1.08s-.15.06-.24.07a.25.25,0,0,1-.16,0c-.12-.08-.2-.19-.17-.3.08-.36.18-.72.29-1.08C40.18,86.19,40.28,86.15,40.34,86.11Z"/><path class="cls-3" d="M67.06,93.78c-.08.24,0,.48-.17.7a.27.27,0,0,1-.2.09.37.37,0,0,1-.21-.09.35.35,0,0,1-.07-.21,2.62,2.62,0,0,1,.19-1.13s.11-.08.17-.12a1.57,1.57,0,0,1,.19.12A.86.86,0,0,1,67.06,93.78Z"/></g><g class="cls-4"><path class="cls-3" d="M86.93,54.34V55a.23.23,0,0,1-.13.25l-.23.08a.26.26,0,0,1-.23-.08.43.43,0,0,1-.11-.21,3.29,3.29,0,0,1,.24-1.5c0-.05.07-.14.24-.11s.21.09.21.16c0,.26,0,.51,0,.76Z"/><path class="cls-3" d="M76.72,58.72v.65a.23.23,0,0,1-.13.25.76.76,0,0,1-.24.07.22.22,0,0,1-.22-.07.45.45,0,0,1-.12-.21,3.29,3.29,0,0,1,.24-1.5.21.21,0,0,1,.25-.12c.13,0,.21.1.21.17,0,.25,0,.51,0,.76Z"/><path class="cls-3" d="M69.22,49.65c0,.16-.1.4-.17.63a.22.22,0,0,1-.22.08.52.52,0,0,1-.23-.08.37.37,0,0,1-.13-.2A1.57,1.57,0,0,1,68.79,49a.23.23,0,0,1,.14-.07.15.15,0,0,1,.17.09C69.25,49.18,69.21,49.38,69.22,49.65Z"/><path class="cls-3" d="M73.17,35c-.07.23,0,.48-.17.7a.31.31,0,0,1-.2.09.37.37,0,0,1-.21-.09.36.36,0,0,1-.07-.22,2.62,2.62,0,0,1,.19-1.13s.11-.07.17-.11a.88.88,0,0,1,.19.12A.82.82,0,0,1,73.17,35Z"/><path class="cls-3" d="M84,42.4a4.38,4.38,0,0,1,0,.52c0,.11-.12.2-.36.21s-.42-.08-.45-.23a2.11,2.11,0,0,1,.25-1.44s.08-.05.14-.06a.15.15,0,0,1,.2.07A2.76,2.76,0,0,1,84,42.4Z"/><path class="cls-3" d="M94.28,44.45a4.51,4.51,0,0,1,0,.52c0,.11-.13.2-.37.21s-.42-.08-.44-.23a2,2,0,0,1,.24-1.44s.09,0,.14-.07.18,0,.2.08A2.54,2.54,0,0,1,94.28,44.45Z"/><path class="cls-3" d="M87.21,28.61a1.9,1.9,0,0,1,.13,1.28.51.51,0,0,1-.14.26.41.41,0,0,1-.32.08.28.28,0,0,1-.27-.12.3.3,0,0,1,0-.11,2.36,2.36,0,0,1,.32-1.27c0-.05.13-.07.2-.11Z"/><path class="cls-3" d="M78.32,17.89a1.93,1.93,0,0,1,.13,1.27.73.73,0,0,1-.14.26.48.48,0,0,1-.33.09.32.32,0,0,1-.27-.13.45.45,0,0,1,0-.11A2.27,2.27,0,0,1,78,18a.56.56,0,0,1,.19-.1Z"/><path class="cls-3" d="M87.35,18.34a.46.46,0,0,1,.27.4,1.77,1.77,0,0,1-.17,1.08s-.14.06-.23.07a.25.25,0,0,1-.16-.05c-.12-.08-.2-.19-.17-.3.08-.36.18-.72.28-1.08C87.19,18.42,87.29,18.38,87.35,18.34Z"/><path class="cls-3" d="M96.44,27c0,.17-.1.4-.17.63a.2.2,0,0,1-.22.08.52.52,0,0,1-.23-.07.41.41,0,0,1-.13-.2A1.54,1.54,0,0,1,96,26.32a.24.24,0,0,1,.14-.08.15.15,0,0,1,.17.1C96.48,26.52,96.43,26.73,96.44,27Z"/><path class="cls-3" d="M77.93,67.78c0,.31-.08.62-.14.92a.49.49,0,0,1-.13.26.41.41,0,0,1-.32.1c-.15,0-.22-.07-.23-.15a3.22,3.22,0,0,1,.14-1.34c.07-.18.06-.37.25-.52a.29.29,0,0,1,.22-.08c.11,0,.17.06.17.11,0,.23,0,.47,0,.7Z"/><path class="cls-3" d="M68.66,66c0,.31-.09.62-.14.92a.71.71,0,0,1-.13.26.42.42,0,0,1-.32.1c-.15,0-.23-.07-.23-.15A3.21,3.21,0,0,1,68,65.74c.07-.18.07-.36.25-.52a.29.29,0,0,1,.22-.08c.12,0,.17.06.18.11V66Z"/><path class="cls-3" d="M93.79,69v.65a.23.23,0,0,1-.13.25.78.78,0,0,1-.23.08.26.26,0,0,1-.23-.08.37.37,0,0,1-.11-.2,3.38,3.38,0,0,1,.23-1.5.2.2,0,0,1,.25-.12c.13,0,.21.09.21.16,0,.26,0,.51,0,.76Z"/><path class="cls-3" d="M76.24,76.18a.44.44,0,0,1,.26.41,1.71,1.71,0,0,1-.16,1.08.52.52,0,0,1-.23.07.43.43,0,0,1-.16,0,.35.35,0,0,1-.18-.31c.09-.36.19-.71.29-1.07C76.08,76.26,76.18,76.23,76.24,76.18Z"/><path class="cls-3" d="M85.33,84.84c0,.16-.1.39-.18.62,0,.05-.1.1-.21.09a.44.44,0,0,1-.23-.08.35.35,0,0,1-.13-.2,1.57,1.57,0,0,1,.32-1.11.23.23,0,0,1,.14-.07c.11,0,.13,0,.17.09S85.32,84.57,85.33,84.84Z"/><path class="cls-3" d="M88.93,3.08a.46.46,0,0,1,.27.4A1.77,1.77,0,0,1,89,4.56s-.14.06-.23.07a.25.25,0,0,1-.16,0c-.12-.08-.2-.19-.17-.3.08-.36.18-.72.29-1.08C88.77,3.16,88.87,3.12,88.93,3.08Z"/></g><g class="cls-5"><path class="cls-3" d="M-9.93,54.34c0,.22,0,.43,0,.65s0,.18-.12.25l-.24.08a.24.24,0,0,1-.22-.08.45.45,0,0,1-.12-.21,3.29,3.29,0,0,1,.24-1.5c0-.05.08-.14.25-.11s.21.09.21.16c0,.26,0,.51,0,.76Z"/><path class="cls-3" d="M4.76,55.35c0,.17-.1.4-.18.63,0,.05-.1.1-.21.09A.56.56,0,0,1,4.14,56a.35.35,0,0,1-.13-.2,1.54,1.54,0,0,1,.32-1.11.19.19,0,0,1,.13-.07c.12,0,.14,0,.18.09S4.75,55.09,4.76,55.35Z"/><path class="cls-3" d="M38.76,31.35c0,.17-.1.4-.18.63,0,.05-.1.1-.21.09a.56.56,0,0,1-.23-.08.35.35,0,0,1-.13-.2,1.54,1.54,0,0,1,.32-1.11.19.19,0,0,1,.13-.07c.12,0,.14,0,.18.09S38.75,31.09,38.76,31.35Z"/><path class="cls-3" d="M-20.15,58.72c0,.21,0,.43,0,.65s0,.18-.12.25a.84.84,0,0,1-.24.07.23.23,0,0,1-.23-.07.43.43,0,0,1-.11-.21,3.29,3.29,0,0,1,.24-1.5c0-.06.08-.14.24-.12s.21.1.22.17v.76Z"/><path class="cls-3" d="M-27.64,49.65c-.05.16-.1.4-.18.63a.19.19,0,0,1-.21.08.44.44,0,0,1-.23-.08.32.32,0,0,1-.13-.2A1.57,1.57,0,0,1-28.07,49a.23.23,0,0,1,.13-.07c.12,0,.14.05.18.09S-27.65,49.38-27.64,49.65Z"/><path class="cls-3" d="M-23.69,35c-.08.23,0,.48-.17.7a.34.34,0,0,1-.2.09.32.32,0,0,1-.21-.09.37.37,0,0,1-.08-.22,2.62,2.62,0,0,1,.19-1.13s.12-.07.17-.11a.76.76,0,0,1,.2.12A.86.86,0,0,1-23.69,35Z"/><path class="cls-3" d="M-12.9,42.4a4.5,4.5,0,0,1,0,.52c0,.11-.13.2-.37.21s-.42-.08-.44-.23a2,2,0,0,1,.24-1.44.26.26,0,0,1,.14-.06.17.17,0,0,1,.21.07A2.73,2.73,0,0,1-12.9,42.4Z"/><path class="cls-3" d="M-2.58,44.45a4.42,4.42,0,0,1,0,.52c0,.11-.13.2-.36.21s-.42-.08-.45-.23a2.05,2.05,0,0,1,.25-1.44s.08,0,.14-.07a.15.15,0,0,1,.2.08A2.76,2.76,0,0,1-2.58,44.45Z"/><path class="cls-3" d="M3.92,36.45v.65a.23.23,0,0,1-.13.25l-.24.08a.25.25,0,0,1-.22-.08.45.45,0,0,1-.12-.21,3.29,3.29,0,0,1,.24-1.5.21.21,0,0,1,.25-.11c.13,0,.21.09.21.16,0,.25,0,.51,0,.76Z"/><path class="cls-3" d="M17.92,46.05v.64a.25.25,0,0,1-.13.26.76.76,0,0,1-.24.07.25.25,0,0,1-.22-.07.45.45,0,0,1-.12-.21,3.25,3.25,0,0,1,.24-1.5.2.2,0,0,1,.25-.12c.13,0,.21.09.21.17,0,.25,0,.5,0,.76Z"/><path class="cls-3" d="M-9.65,28.61a2,2,0,0,1,.13,1.28.73.73,0,0,1-.14.26.44.44,0,0,1-.33.08.29.29,0,0,1-.27-.12.61.61,0,0,1,0-.11A2.27,2.27,0,0,1-10,28.73c0-.05.13-.07.2-.11Z"/><path class="cls-3" d="M-18.55,17.89a1.87,1.87,0,0,1,.13,1.27.6.6,0,0,1-.14.26.45.45,0,0,1-.32.09.3.3,0,0,1-.27-.13.25.25,0,0,1,0-.11A2.36,2.36,0,0,1-18.87,18a.62.62,0,0,1,.2-.1Z"/><path class="cls-3" d="M-9.51,18.34a.45.45,0,0,1,.26.4,1.77,1.77,0,0,1-.16,1.08s-.15.06-.23.07a.22.22,0,0,1-.16-.05.32.32,0,0,1-.18-.3c.09-.36.18-.72.29-1.08C-9.68,18.42-9.58,18.38-9.51,18.34Z"/><path class="cls-3" d="M-.42,27c0,.17-.1.4-.18.63,0,.05-.1.1-.21.08A.45.45,0,0,1-1,27.63a.35.35,0,0,1-.13-.2,1.54,1.54,0,0,1,.32-1.11.24.24,0,0,1,.13-.08c.12,0,.14.05.18.1S-.43,26.73-.42,27Z"/><path class="cls-3" d="M3.74,17c-.08.23,0,.48-.17.7a.34.34,0,0,1-.2.09.28.28,0,0,1-.21-.1.34.34,0,0,1-.08-.21,2.62,2.62,0,0,1,.19-1.13s.12-.07.17-.11a.76.76,0,0,1,.2.12A.86.86,0,0,1,3.74,17Z"/><path class="cls-3" d="M18.62,11.05c-.08.23,0,.48-.17.7a.34.34,0,0,1-.2.09.32.32,0,0,1-.21-.09.38.38,0,0,1-.07-.22,2.48,2.48,0,0,1,.19-1.13s.11-.07.17-.11a.88.88,0,0,1,.19.12A.86.86,0,0,1,18.62,11.05Z"/><path class="cls-3" d="M49.46,15.43c-.07.24,0,.48-.17.7a.27.27,0,0,1-.2.09.37.37,0,0,1-.21-.09.33.33,0,0,1-.07-.21A2.62,2.62,0,0,1,49,14.79s.11-.08.17-.11a.86.86,0,0,1,.19.11A.82.82,0,0,1,49.46,15.43Z"/><path class="cls-3" d="M54.46,47.43c-.07.24,0,.48-.17.7a.27.27,0,0,1-.2.09.37.37,0,0,1-.21-.09.33.33,0,0,1-.07-.21A2.62,2.62,0,0,1,54,46.79s.11-.08.17-.11a.86.86,0,0,1,.19.11A.82.82,0,0,1,54.46,47.43Z"/><path class="cls-3" d="M12.83,24.88c0,.31-.08.61-.14.92a.58.58,0,0,1-.13.26.41.41,0,0,1-.32.09c-.15,0-.22-.06-.23-.14a3.28,3.28,0,0,1,.14-1.35c.07-.17.06-.36.25-.52a.26.26,0,0,1,.22-.07c.11,0,.17.05.17.11,0,.23,0,.47,0,.7Z"/><path class="cls-3" d="M25.83,26.88c0,.31-.08.61-.14.92a.58.58,0,0,1-.13.26.41.41,0,0,1-.32.09c-.15,0-.22-.06-.23-.14a3.28,3.28,0,0,1,.14-1.35c.07-.17.06-.36.25-.52a.26.26,0,0,1,.22-.07c.11,0,.17.05.17.11,0,.23,0,.47,0,.7Z"/><path class="cls-3" d="M32.83,10.88c0,.31-.08.61-.14.92a.58.58,0,0,1-.13.26.41.41,0,0,1-.32.09c-.15,0-.22-.06-.23-.14a3.28,3.28,0,0,1,.14-1.35c.07-.17.06-.36.25-.52a.26.26,0,0,1,.22-.07c.11,0,.17,0,.17.11,0,.23,0,.47,0,.7Z"/><path class="cls-3" d="M11.14,33.28a.43.43,0,0,1,.26.4,1.7,1.7,0,0,1-.16,1.08s-.15.06-.23.08a.43.43,0,0,1-.16-.05c-.12-.09-.2-.2-.17-.31.08-.36.18-.72.28-1.07C11,33.36,11.08,33.32,11.14,33.28Z"/><path class="cls-3" d="M-18.93,67.78c-.05.31-.09.62-.14.92a.71.71,0,0,1-.13.26.42.42,0,0,1-.32.1c-.15,0-.23-.07-.23-.15a3.39,3.39,0,0,1,.13-1.34c.07-.18.07-.37.25-.52a.32.32,0,0,1,.23-.08c.11,0,.17.06.17.11v.7Z"/><path class="cls-3" d="M-28.21,66c0,.31-.08.62-.14.92a.49.49,0,0,1-.13.26.41.41,0,0,1-.32.1c-.15,0-.22-.07-.23-.15a3.22,3.22,0,0,1,.14-1.34c.06-.18.06-.36.25-.52a.29.29,0,0,1,.22-.08c.11,0,.17.06.17.11,0,.23,0,.47,0,.7Z"/><path class="cls-3" d="M-3.08,69c0,.22,0,.43,0,.65s0,.18-.12.25a.85.85,0,0,1-.24.08.23.23,0,0,1-.22-.08.39.39,0,0,1-.12-.2,3.25,3.25,0,0,1,.24-1.5c0-.06.08-.15.25-.12a.23.23,0,0,1,.21.16c0,.26,0,.51,0,.76Z"/><path class="cls-3" d="M35.92,64.05c0,.21,0,.43,0,.64s0,.19-.12.26a.84.84,0,0,1-.24.07.23.23,0,0,1-.22-.07.45.45,0,0,1-.12-.21,3.25,3.25,0,0,1,.24-1.5c0-.06.08-.15.25-.12s.2.09.21.17c0,.25,0,.5,0,.76Z"/><path class="cls-3" d="M14.92,67.05c0,.21,0,.43,0,.64s0,.19-.12.26a.84.84,0,0,1-.24.07.23.23,0,0,1-.22-.07.45.45,0,0,1-.12-.21,3.25,3.25,0,0,1,.24-1.5c0-.06.08-.15.25-.12s.2.09.21.17c0,.25,0,.5,0,.76Z"/><path class="cls-3" d="M23.92,77.05c0,.21,0,.43,0,.64s0,.19-.12.26a.84.84,0,0,1-.24.07.23.23,0,0,1-.22-.07.45.45,0,0,1-.12-.21,3.25,3.25,0,0,1,.24-1.5c0-.06.08-.15.25-.12s.2.09.21.17c0,.25,0,.5,0,.76Z"/><path class="cls-3" d="M34.92,49.05c0,.21,0,.43,0,.64s0,.19-.12.26a.84.84,0,0,1-.24.07.23.23,0,0,1-.22-.07.45.45,0,0,1-.12-.21,3.25,3.25,0,0,1,.24-1.5c0-.06.08-.15.25-.12s.2.09.21.17c0,.25,0,.5,0,.76Z"/><path class="cls-3" d="M-20.63,76.18a.47.47,0,0,1,.27.41,1.85,1.85,0,0,1-.16,1.08.57.57,0,0,1-.24.07.38.38,0,0,1-.15,0c-.13-.09-.21-.2-.18-.31.08-.36.18-.71.29-1.07C-20.79,76.26-20.69,76.23-20.63,76.18Z"/><path class="cls-3" d="M-11.53,84.84c-.05.16-.1.39-.18.62a.22.22,0,0,1-.22.09.44.44,0,0,1-.22-.08.35.35,0,0,1-.13-.2A1.56,1.56,0,0,1-12,84.16a.26.26,0,0,1,.14-.07c.12,0,.14,0,.17.09S-11.54,84.57-11.53,84.84Z"/><path class="cls-3" d="M-12.54,95.58c-.07.24,0,.48-.17.7a.26.26,0,0,1-.19.09.32.32,0,0,1-.21-.09.31.31,0,0,1-.08-.21A2.62,2.62,0,0,1-13,94.94s.11-.08.17-.12a1,1,0,0,1,.19.12A.82.82,0,0,1-12.54,95.58Z"/><path class="cls-3" d="M86.34,43.75a4.21,4.21,0,0,1,0,.51c0,.12-.12.21-.36.21s-.42-.08-.45-.23a2.12,2.12,0,0,1,.25-1.44.26.26,0,0,1,.14-.06.15.15,0,0,1,.2.07A2.81,2.81,0,0,1,86.34,43.75Z"/><path class="cls-3" d="M74.35,39v.65a.23.23,0,0,1-.13.25A.78.78,0,0,1,74,40a.26.26,0,0,1-.23-.07.43.43,0,0,1-.11-.21,3.29,3.29,0,0,1,.24-1.5c0-.06.07-.15.24-.12s.21.1.21.17c0,.25,0,.5,0,.76Z"/><path class="cls-3" d="M65.14,25a1.87,1.87,0,0,1,.13,1.27.58.58,0,0,1-.13.26.5.5,0,0,1-.33.09.3.3,0,0,1-.27-.13s0-.07,0-.11a2.19,2.19,0,0,1,.32-1.27A.56.56,0,0,1,65,25Z"/><path class="cls-3" d="M53.14,31a1.87,1.87,0,0,1,.13,1.27.58.58,0,0,1-.13.26.5.5,0,0,1-.33.09.3.3,0,0,1-.27-.13s0-.07,0-.11a2.19,2.19,0,0,1,.32-1.27A.56.56,0,0,1,53,31Z"/><path class="cls-3" d="M22.48-7.85a1.93,1.93,0,0,1,.13,1.27.73.73,0,0,1-.14.26.48.48,0,0,1-.33.09.32.32,0,0,1-.27-.13.45.45,0,0,1,0-.11,2.27,2.27,0,0,1,.32-1.27.53.53,0,0,1,.2-.1Z"/><path class="cls-3" d="M6.68-4.59a1.89,1.89,0,0,1,.13,1.28.63.63,0,0,1-.14.25A.42.42,0,0,1,6.35-3a.3.3,0,0,1-.27-.13.21.21,0,0,1,0-.11,2.36,2.36,0,0,1,.32-1.27.62.62,0,0,1,.2-.1Z"/><path class="cls-3" d="M6.68,77.41a1.89,1.89,0,0,1,.13,1.28.63.63,0,0,1-.14.25.42.42,0,0,1-.32.09.3.3,0,0,1-.27-.13.21.21,0,0,1,0-.11,2.36,2.36,0,0,1,.32-1.27.62.62,0,0,1,.2-.1Z"/><path class="cls-3" d="M65.28,14.71a.47.47,0,0,1,.27.41,1.87,1.87,0,0,1-.16,1.08.57.57,0,0,1-.24.07.49.49,0,0,1-.16-.05c-.12-.09-.2-.2-.17-.31.08-.36.18-.72.29-1.07C65.12,14.79,65.22,14.75,65.28,14.71Z"/><path class="cls-3" d="M53.32.68a.46.46,0,0,1,.27.4,1.77,1.77,0,0,1-.17,1.08s-.14.06-.23.07a.25.25,0,0,1-.16,0c-.12-.08-.2-.19-.17-.3.08-.36.18-.72.29-1.08C53.16.76,53.26.72,53.32.68Z"/><path class="cls-3" d="M40.34-7a.46.46,0,0,1,.27.4,1.84,1.84,0,0,1-.16,1.08s-.15.06-.24.07a.32.32,0,0,1-.16,0c-.12-.09-.2-.2-.17-.31.08-.36.18-.72.29-1.08C40.18-6.93,40.28-7,40.34-7Z"/><path class="cls-3" d="M-7.93,3.08a.45.45,0,0,1,.26.4,1.77,1.77,0,0,1-.16,1.08s-.15.06-.23.07a.22.22,0,0,1-.16,0,.32.32,0,0,1-.18-.3c.09-.36.18-.72.29-1.08C-8.1,3.16-8,3.12-7.93,3.08Z"/><path class="cls-3" d="M74.38,23.36c0,.17-.1.4-.18.63a.22.22,0,0,1-.22.09.69.69,0,0,1-.23-.08.49.49,0,0,1-.13-.2,1.62,1.62,0,0,1,.32-1.11.21.21,0,0,1,.14-.07c.12,0,.14,0,.17.09S74.37,23.1,74.38,23.36Z"/><path class="cls-3" d="M78.53,13.38c-.07.23,0,.48-.17.7a.27.27,0,0,1-.4,0,.32.32,0,0,1-.08-.22,2.62,2.62,0,0,1,.19-1.13s.11-.07.17-.11a.69.69,0,0,1,.19.12A.82.82,0,0,1,78.53,13.38Z"/><path class="cls-3" d="M67.06.66c-.08.24,0,.48-.17.7a.27.27,0,0,1-.2.09.37.37,0,0,1-.21-.09.35.35,0,0,1-.07-.21A2.62,2.62,0,0,1,66.6,0s.11-.08.17-.11A.86.86,0,0,1,67,0,.86.86,0,0,1,67.06.66Z"/><path class="cls-3" d="M68.8,69.7a4.33,4.33,0,0,1,0,.51c0,.12-.13.21-.36.22S68,70.35,68,70.2a2,2,0,0,1,.24-1.44s.09-.05.14-.07a.17.17,0,0,1,.21.08A2.52,2.52,0,0,1,68.8,69.7Z"/><path class="cls-3" d="M51.8,65.7a4.33,4.33,0,0,1,0,.51c0,.12-.13.21-.36.22S51,66.35,51,66.2a2,2,0,0,1,.24-1.44s.09-.05.14-.07a.17.17,0,0,1,.21.08A2.52,2.52,0,0,1,51.8,65.7Z"/><path class="cls-3" d="M93.59,52.06a4.5,4.5,0,0,1,0,.52c0,.11-.13.2-.37.21s-.42-.08-.44-.23A2,2,0,0,1,93,51.12a.26.26,0,0,1,.14-.06.17.17,0,0,1,.21.07A2.73,2.73,0,0,1,93.59,52.06Z"/><path class="cls-3" d="M96.67,38.22a1.9,1.9,0,0,1,.13,1.28.5.5,0,0,1-.13.25.41.41,0,0,1-.33.09c-.15,0-.23-.05-.27-.13a.13.13,0,0,1,0-.1,2.22,2.22,0,0,1,.32-1.28.56.56,0,0,1,.19-.1Z"/><path class="cls-3" d="M81.44,62c0,.16-.1.4-.18.63a.19.19,0,0,1-.21.08.44.44,0,0,1-.23-.08.32.32,0,0,1-.13-.2A1.57,1.57,0,0,1,81,61.35s.08-.06.13-.07.14,0,.18.09C81.47,61.56,81.43,61.76,81.44,62Z"/><path class="cls-3" d="M70.21,53.93c0,.17-.1.4-.17.63a.2.2,0,0,1-.22.08.52.52,0,0,1-.23-.07.35.35,0,0,1-.13-.2,1.54,1.54,0,0,1,.32-1.11.19.19,0,0,1,.14-.07c.12,0,.13,0,.17.09S70.2,53.67,70.21,53.93Z"/><path class="cls-3" d="M84.56,76.33c-.08.24,0,.48-.17.7a.29.29,0,0,1-.2.09A.32.32,0,0,1,84,77a.46.46,0,0,1-.08-.21,2.63,2.63,0,0,1,.2-1.13s.11-.08.17-.12a1.57,1.57,0,0,1,.19.12A.86.86,0,0,1,84.56,76.33Z"/><path class="cls-3" d="M96.28,67.61c-.08.23,0,.48-.17.7a.28.28,0,0,1-.41,0,.36.36,0,0,1-.07-.22A2.48,2.48,0,0,1,95.82,67s.11-.07.17-.11a.88.88,0,0,1,.19.12A.86.86,0,0,1,96.28,67.61Z"/><path class="cls-3" d="M81.39,91.16c-.08.24,0,.48-.17.7A.29.29,0,0,1,81,92a.37.37,0,0,1-.21-.09.35.35,0,0,1-.07-.21,2.48,2.48,0,0,1,.19-1.13s.11-.08.17-.12a1.57,1.57,0,0,1,.19.12A.86.86,0,0,1,81.39,91.16Z"/><path class="cls-3" d="M65.14,81.06a1.9,1.9,0,0,1,.13,1.28.5.5,0,0,1-.13.25.41.41,0,0,1-.33.09c-.15,0-.23-.05-.27-.13a.13.13,0,0,1,0-.1,2.17,2.17,0,0,1,.32-1.27c0-.05.12-.08.19-.11Z"/><path class="cls-3" d="M44.14,78.06a1.9,1.9,0,0,1,.13,1.28.5.5,0,0,1-.13.25.41.41,0,0,1-.33.09c-.15,0-.23-.05-.27-.13a.13.13,0,0,1,0-.1,2.17,2.17,0,0,1,.32-1.27c0-.05.12-.08.19-.11Z"/><path class="cls-3" d="M88.28,27.34V28a.23.23,0,0,1-.13.25.75.75,0,0,1-.24.08.23.23,0,0,1-.22-.08.39.39,0,0,1-.12-.2,3.25,3.25,0,0,1,.24-1.5.2.2,0,0,1,.25-.12c.13,0,.21.09.21.16,0,.26,0,.51,0,.76Z"/><path class="cls-3" d="M83.94,17.88c0,.17-.1.4-.18.63,0,0-.1.1-.21.09a.56.56,0,0,1-.23-.08.35.35,0,0,1-.13-.2,1.57,1.57,0,0,1,.32-1.11.19.19,0,0,1,.13-.07c.12,0,.14,0,.18.09S83.93,17.62,83.94,17.88Z"/></g></pattern></defs><g id="Layer_2" data-name="Layer 2"><g id="Layer_1-2" data-name="Layer 1"><rect class="cls-6" x="2.98" y="0.05" width="1351.47" height="205.31"/><rect class="cls-7" x="0.01" y="0.62" width="1358.42" height="204.16"/><path class="cls-8" d="M1369.85,218.54c.7-.79.26-2.54-1.71-2.15l-1.35,3Z"/><path class="cls-8" d="M1356.42,213.26c-2.3,1.49-4.94,4.08-3.38,6.78,2.26-2.9,2.84-1.72,5.26-5.17,2-.38,3.47.9,3.16,2,.68-.78,3.09.6,4.12-1.29-2.62-2.26-5.89-2.3-9.26-.33C1355.57,214.61,1356.27,213.82,1356.42,213.26Z"/><path class="cls-8" d="M1162.78,212l1.25.33A3.11,3.11,0,0,0,1162.78,212Z"/><path class="cls-8" d="M1042.83,212c.91-.08,1.29-.38,1.33-.65C1043.32,211.59,1042.62,211.78,1042.83,212Z"/><path class="cls-8" d="M1022.32,209c.44.09.81.13,1.21.19C1023.06,208.92,1022.6,208.78,1022.32,209Z"/><path class="cls-8" d="M1162.78,212l-3.22-.88C1159.35,212.07,1161.21,211.79,1162.78,212Z"/><path class="cls-8" d="M1329.86,220.93a4.6,4.6,0,0,0,1.73-.81c-.55.14-1.08.25-1.63.34A4.4,4.4,0,0,1,1329.86,220.93Z"/><path class="cls-8" d="M1215.6,208.7l1,0a7.79,7.79,0,0,0,.79-1.22Z"/><path class="cls-8" d="M1256.17,207.54c-.92-.09-1.2,2.44-1.53,3.55a3,3,0,0,1,2-1.77A4.28,4.28,0,0,0,1256.17,207.54Z"/><path class="cls-8" d="M1320.58,210.85l1.14-.37C1321.42,210.59,1320.92,210.7,1320.58,210.85Z"/><path class="cls-8" d="M1186.56,208.63a2.16,2.16,0,0,0-.39-.9A1.51,1.51,0,0,0,1186.56,208.63Z"/><path class="cls-8" d="M50.76,202.9a2.43,2.43,0,0,0,.06-.44C50.55,202.67,50.45,202.84,50.76,202.9Z"/><path class="cls-8" d="M6.49,181.84h.67a11.25,11.25,0,0,0,.45-1.35Z"/><path class="cls-8" d="M984.82,206.17l.17.05C986,205.92,985.41,206,984.82,206.17Z"/><path class="cls-8" d="M641,208.25c3.87,2.3-6.37,2.85-.53,5.41C639.91,212.67,645.82,209.76,641,208.25Z"/><path class="cls-8" d="M1328.8,220.62a15.19,15.19,0,0,1-1.66,0A4.72,4.72,0,0,0,1328.8,220.62Z"/><path class="cls-8" d="M640.45,213.66v0l.6.25Z"/><path class="cls-8" d="M898.52,208.38a3.14,3.14,0,0,0,.89,1.1C899.38,209.22,899.18,208.91,898.52,208.38Z"/><path class="cls-8" d="M962.86,211.49l-1.6-.32A5.5,5.5,0,0,0,962.86,211.49Z"/><path class="cls-8" d="M865.15,212.13c-.87-.18-1.16-.53-2.34-.19a1.52,1.52,0,0,0,.36.31A1.79,1.79,0,0,1,865.15,212.13Z"/><path class="cls-8" d="M830.4,212.25a5.51,5.51,0,0,0,.64.51l1.1-.14Z"/><path class="cls-8" d="M156.94,212.58a7.3,7.3,0,0,1-1.45-2.38C155.9,212,150.74,212.33,156.94,212.58Z"/><path class="cls-8" d="M1329.82,219.51a1.41,1.41,0,0,1-1,1.11c.4,0,.79-.09,1.16-.16C1330.05,220.08,1330.07,219.73,1329.82,219.51Z"/><path class="cls-8" d="M863.82,232.1l-5.53-.34A38.5,38.5,0,0,0,863.82,232.1Z"/><path class="cls-8" d="M406.46,224l-1.27.26A1.57,1.57,0,0,0,406.46,224Z"/><path class="cls-8" d="M841.89,232.18a8.1,8.1,0,0,0-3.12-1.75,2.33,2.33,0,0,0-.64.65Z"/><path class="cls-8" d="M155.48,210.18v0Z"/><path class="cls-8" d="M118.51,213.38c5.29.52,2.76-3,4-4.84,6.37-.42,2.71,2.68,4.72,4.56,4-.54,7.27-3.38,10.19-3,.17.56.73.81,0,1.44,4.35-2.3,12.36.77,17.42-2.21a2,2,0,0,1,.58.87,8.44,8.44,0,0,1-.44-4.61c2.36.1,4.51-1.8,5.26.42-1.44-.16-1.62.71-2.34,1.34l2.53-.77c2,3.26-3.44.85-3.6,3.16,4.9-.69,10.68-2.91,14.31-1.81.59,3.1-8.7.49-3.94,3.51l-5.65-1.53c4.07,5.1-3.45-.57.23,4.85,7.48,1.36,8.53-1,16,.33,1.8-1.6-.4-2.54,1.39-4.14,10.84-2.41,7.94,8.17,16,4.53,2.15-1.92,3.16-5.74,8.62-3.4l-2.1,3.35c7.27.74,4.44-4.73,11.93-2-1.43,1.28-5.78.83-4.71,1.3,4.79,3,3.61-1.77,7.4-1.56l.62,3.1c7.78-.06,16.44-1.81,25-1.91-.52.89-2,1.76-.08,2.81a75.24,75.24,0,0,1,16.94.75c5.7.81,11.34,2,16.53,3.12l4.11-2.46c.93.07,1.67,1.27.64,1.73,4,1.19.29-1.66,2.3-2.61,2.32-.08,3,1.66,1.48,2.38,7.3-1.91,20.69-3.9,28.14-.73l-1.51.72c5.85,1.33,6.88-5.11,12.24-2.41l-1.07.42c12.75,1.77,27-.18,36.6,4.17,2-3.74,12.6,2.16,13.62-3.12,7.21,2.9,5.09,3.77,15.32,5.91,2.74.35,4.21-3.16,7.63-3.59v2.78l4.71-2.74,2.34,3.4,3.22-.59c-1.27-.21-2.66-1.35-2.44-2.14,5-1,12.07,2.33,12.15,3.76l11.86-2c-.3,1.11-2.28,1.43-3.86,2.1,6.37-2.65,1.05,2.95,6.89.53-.75-.66.47-1.64.62-2.2,2.82,1.76,9.36,2,14.22,1.39l-1,1.89c8.73.73,18.45-.39,28.26-.07-3.49-1-2.6-4.29.29-4.52l1.07,3c1.9-1.76-3-1.19.89-3.3,3.66.44,2.38,3.4.25,4.3l4.48-.89c.24.88-.81,1.31-1.11,2.42,1.87-1.76,7.61,3.16,10.33,0l.23.88c9.81.23,14.28-.68,22.28-.65.21-2.53,3.32-1.9,5.74-3.9,5.85.94,12.33,3.07,19.41,3,5-1.15,1.49-2.11,3.76-3.56.32,2.31,7.39,2.24,3.69,3.82a118.12,118.12,0,0,0,21.62-1.92c-1.15-1-2.45-1.39-1.76-2.17,2-.35,4.42,1,4.12,2.14l-.52.23c12.1-3.28,27.71,7.13,37.38,2.47l-.54.23,10-2.35c4.57.46-2.77,1.69.6,3.17,10.78-3.69,16.95.82,25.82-1.68,6.77,6.86,24.29-.26,33.49,4.16l-.52-1.61c2.4-1.54,2.88.94,4.64,1.33-.24-1.25-2.58-1.46-1.09-2.32,10.12-.88,20.55-.19,31,.89s21,2.5,31.42,3.26c7.58.46,4.33-8.27,13.88-4.41l-2.72,3c15.31-3.51,31.29.25,46.27-2.82-.89.68-.92,1.58-2.38,1.57,3.17,2.15,11.7.09,11.76-1.68,2.33.2.54,1.6,2,2.49,3.17,1.27,8-2.77,9.65-.62.28.35-.89.7-1.47.87,2.06-1,9.63.25,7.65-2.24,5.62,1.18,10.75-1.12,15.24.35,2.91-2.79,9.63,1.33,10.54-2.61-.39,4.08,9.87,3.24,13.42,1.31-1.19,1.23,3.09,1.26,1.71,3,4-.08,7.77-.86,7-2.95,7.5,4.83,15-4,19.24,2.22,12-2.26,23.18-3.8,34-4.81-.36,4.06-12,.47-11.49,4.73,10.28-1.72,16.18-5.25,26.38-4.37,2.65.53-1.48,1.77-2.37,2.47,10.26-1.76,19.87.19,29-2.1,0,.38-1,.8-1.93,1.12,1.8-.15,4.2.56,4-1.29l-1.76.52c-2.9-2.65,7.1-5.66,7.41-7.08-3,5.32,9,1.25,4.25,8,1.18-.36,2.66-1.24,2.38-2.47,1.76.34,2.32,1.05.55,2.47,6.45-1.06,4.13-3,10-3,0,.89-1.19,1.25-1.78,2.3,2.94-1.76,5.89-3.53,10.84-2.82-.29.54.29,1.23-1.18,1.23,8.48-.36,14.4-4.81,23.72-3.24-2.69,3.92,3.18,1.24,3.72,4.6l5-1.07-2-1.6c4.39,0,8.23-2.49,12-1.44l-3.24,1.43,8.21-.74-4.67-1.22c4.41-1.78-.53-4.24,5.32-3.38-1.18.36,4.38,0,6.69,1.94a0,0,0,0,0,0,0c2.15-1.1,4.37-2.25,7.62-1.45.85,1.06-.63,3.72-.07,4.43,2.1-2.84,10.25-.91,12.92-3.93a2.71,2.71,0,0,0-.62,2.83l1.77-2.3c2,.7,2.34,1.05,2,2.46,6.11.33-2-4.24,5.27-2.5-.56.19-.29.53-1.47.89,7.29.85,14-1.65,20.75-.63,2,3.35-5.83.92-3.53,3.73,9.63-.75,19.91-4.34,29.25-3.68l-1.74-.35c1.22-4.79,7,2.26,11.67-.06-1.15.37-1.48,2.67-1.18,2.14,6.41.67,13.05-1.36,22.71-3l-1.18,1.25c3.78,1,9.93.47,14,1,1.19-1.24,3.52-1.08,2.07-2.84,12.66,6.77,23.87-4.14,35.09,1.5-1.33,0-3.15,1.12-2.09,1.11l9.46-1.28c-.79-2.07-1.27-1.24-3.29-2.83a9.66,9.66,0,0,1,6.19-2.29c-4.24,1.45.1,3.34,2,4.47-.32-.63.3-1.35.13-2,5,3.61.76-4.2,7.56-1.83l-.34,1.1c2.52-.6,4.83-2.08,7.56-1.82,1.17,2.39-2.67,1.17-2.81,3.15,3.83-.2,7.48-4.69,11-2.35-1.61.7-4,.75-5.57,1.44,3.82,2.76,4.25,2,7.06,2.44l-.27-.06,6.51,1.16-1.67-.74c4.69-6.35,9.75-1.31,16.13-5.53-6.21,4-1,2.27-1.43,5,1.67.73,4.19,1.53,3.49,2.31,3-2.25,5.13,1.64,9.38-1.65.21.88,3.27,0,2.62,2.25,4-.76-1-1.51-.65-2.62,6.06-3.11,14.44,3.39,23.17-.89,7.56-1.83,8.91-4.81,15.93-6.42,2.4,1.36-1.89,3.24-1.89,3.24a15.94,15.94,0,0,0,10.33-.14c-.71.78,0,1.41,1.17,2.38,2.9-.29,1.88-3.23,5.73-2a12.25,12.25,0,0,1-2.83,3.58c3.4-.87,6.75-2.57,10.27-3.43,1,1.52-2.09,2.36-3.32,3.38,4-.76,10.27-1.57,11.46-4l-2.57-.82c1.45-.14.79,2.07-.28,2.53-3.37,2-4.93-.75-5.13-1.63l2.51-.61c-2.69-5.1-10.11,1-15.19.8l2.05-3.78-5.15,3.2c-1.12-.95-1.92-3,.58-3.63-3.67-1.79-3.2,1.39-6.36-.62-.35-.32-.19-.5.12-.65l-3.53,1.18c.68-.8-.64-2.64,1.55-2.13-6.41-2.05-10.23,3-12.68.2l.53-.24c-8.83,1.42-.81,2.76-7.39,6.11l-4.58-6.7-.82,2.76c-.92-.08-2.73-.26-2.41-1.36-3.37,1.94.6,1.18-1.34,3-4.44-2.42-12.1,1.39-13.16-3-1.54,2.11,4.23,1.53-.44,3.07-1.42-4.69-5.41.9-9.46-1.19,1.19-2.45,5-1.23,1-3.33-2.35,4.15-7.83-.76-11.2.08-.1,3.28-7.34,1.5-13,2.69.34-1.11-10.72-1.61-16-2.7l.15-.55c-1,3.32-6.43,2.79-10.39,3.54.12-2,.82-2.77,3-3.7l-3.73.08c-.86,1.07-2,1.65-4.43,2.07l.89-2.49c-5,.22-10,3.08-16.36,1.53-.33,2.31,5.18,6.34-1.55,8-.27-1.24-.55-3.36,1.21-3.9-.58.17-2,1.06-3.23.55l2.67-2.14c-2.93-.87-1.5,1.78-3.83,1.62,0-1.78-1.74-1.24-1.43-2.65.59-.19,2,.7,2.92,0-2.63-.27-5.81-1.27-6.88-2.6a2,2,0,0,1-1.88,2.65c-5,.21-1.74-2.11-4.65-3-1.18,1.25-4.37,0-4.41,2.68-1.45,0-1.74-1.22-2.31-1.93-2.56,1.21-12,.53-9.06,3.31l.66.17c-.12.06-.27.06-.42.12h0c-8.38,2.78-17.52-1.21-25.86,0v-.89c-5,1.09-11.1.77-14.63,2.73-1.48,0-3.51-1.57-2.89-2.64-3.81.72-4.22,1.73-9.75.34,3.81-1.61-1.34-1.35,3.91-1.19-5-.7-6.11-2.1-11.39.4,1.78-2.3-3.77-2.81-6.12-2.09l3.5,1.57a34.55,34.55,0,0,1-7.32,0l1.23-3c-10.19-3.5-18.2,6.48-26,.47-2.65,2.13,5.53,1.41,3.16,3.89-4.67-.35-9.58-4.59-11-4.58-6.41-1.58-5.91,4.45-12.61,3.39.87,1.06,1.71,3.9-3.27,5-4.67-.34-5.79-4.41-2.86-5.31,1.12-.1,1.67.23,1.62.6,1.51-.41,3.48-.89,1.62-2l-.6,1.08c-2.32-1.07-8.74-.87-7.26-2.64-3.51,1.06-1.48,1.77,1.13,2.29-6-1.48-9.35.07-15.52-.9,1,.58,1.9,1.82.93,1.82-9.06-1.21-4,2.08-10.08,2.62-3.5-1.59,1.2-3.9-5-2.46-3.77-1.06-.83-2.83.66-3.72-5.59,2.13-10.51-1.22-13.72-1.57l3-.89a15.35,15.35,0,0,1-4.69.53l1.71,2.12c-1.74-.35-3.21-.35-3.18-1.24-1.78,1.42,1.4,3.54-2.13,5.49-2.33-1.07-7,1.23-7.87-1.6,7.29.9-.83-2.84,5.33-3.35a9.08,9.08,0,0,1-4.38,0c-.27-.32.24-.59.71-.76-7-2.47-3.17,3.24-10.39,3.24.9-1.61-1.71-3-2.88-2.67,2.91,0,1.42,2.66-1.24,3.9-4.65-1.2-5,1-7.45.85l2.77.56c-.92,1.61-3.24,1.42-6.47,1.95-.28-1.24,2.93-.88,1.77-1.42-3.56,2.84-8.13-2.83-13.11-.89-2.32-1.06-.25-3-2.29-3.72-5.58,2.12-6.08-2.13-11.95-.37,1.71,2.13,2,1.61-2.13,3.74l9.67-1.6-6.19,3.18c2.93,0,6.16-1.41,7.91-1.06-2.94,1.78-2.64,1.24-1.23,3-4-3.18-7.91,1.95-12.55-.18l.1-5.32c-7-2.31-12.32,2.8-21.35,1.52l2.9.91c-1.19,2.11-5.56.32-8.48,1.19.26-1.77-1.57-2.41-2.82-3.51.16,1.32-6.6-.08-7.4,3.47l-4-2.32c-7.29-.92-8.29,5.11-15.3,4.54,2.1-1.94-1.08-3.18,3.6-4.59-2.34,0-4.44-.32-4.47.92-1.37-1.11-6.47,2.43-8.63.75-1,.79-1.3,2.65-3.92,2.52a.87.87,0,0,1,0-.88c0,.88-4.1,1.22-1.8,3.17-7.22-5.49-20.13.44-26.41-4.3-5.1.6-11.25,1.18-15.88,1.31.3-.53,0-.88.89-.7-6.39-1.64-3.92,5.11-11.2,3.27-3.71-2.86,3.86-1.56,1.55-2.64-1-5.85-8.78.81-13.67-2.6l1.19-.34c-3.74-2-9.13,2.22-15.24,1.81a.91.91,0,0,0,0-.88c-4.18,3-12.09,3.93-18,4.74,1.84-2.29,2.68-1.21,1.57-3.53-2.64.32.76,3.73-4.5,4.36-1.71-1.25-5.5-2.36-6-4.84l5-.12c-2.53-3.22-6.42.09-9-.48l.34-1.4c-7.6.43-7.72,4-15.89,3.68l.84,1.07c-4.48,3.48-3.74-2-8.2.6l-1.34-3.56c-2.94.85-10.33,3.4-15.62,4.05,3-2.62,9.2-3.95,13-5.5-2.92,0-9.92.23-11.46,2,1.18-.34,2.67-1.21,3.83-.66-3.6,2.78-8.32,4.15-14.14,4,1.07-6.88-15.16-1.87-19.34-7.26-10.31,2.46-20.41-1.27-32.4-1,4.2,5.4-3.5.13-2.82,5.63-2.8.33-3.87.23-4.11-.13L632,210.32c-2-1.62,2.67-1.19,2.43-2.43-6.11-.47-2.54-2.35-6.57-3.87.81,2-2.16,2.79-5.63,2l4.87,2.61c-8.58,2.8-7.32-4.73-16-2l2.75-1.69c-4.43,1-16.3-.28-20.7,4.08-.77-.65-1.78-2.17.17-2.54-10.54-.82-23.58,4.36-31.75,1.51l.83-1.33c-2,.36-3.48,2.48-5.92,1.08.14-.55.82-1.33-.09-1.42-1.05.44-5.28,2.24-7.87,1.4l2.26-1.47c-10.27-2-15.88,3.35-24.54,4.09.1-4-8-5.42-12-6.15l.15-.56c-12-.75-20.44,2.85-31.59,4.16-6.78-4.5-23.3-2.47-34.31-5.2,1.67.77-.36,3.08-2.34,3.42-2.58-.88-7.27,2.54-6.75-1.08l.92.09c-1.85-3.61-7.22-2.82-11.39-3l-.83,4.73c-5.35-3.61-12.51-3.17-19.06-2.65s-12.49,1.09-15.36-2.11c-2.67,1.09-5.93,1-8.58,2.05l.23-2.54a103.16,103.16,0,0,0-19.93-1.1l1.9-1.75c-5.07-.35-6.69,7.11-11.39,7.09l-1.27-3.85c-8.87-.28-17.71-3.89-26.61-.87a2,2,0,0,1,1.91-1.73c-4.17-.29-16-3.3-14.74,2,.05-3.41-9.13-.75-14,.53l.86-2.47c-4.19,3-4.35,3.89-10,4.52-1.33-.38-1.08-2,.67-1.33-4.4-1.52-3.59,2.21-8.93.64l2.09-1.51c-4.58-.4-4.26.47-6.87,2.22-2.94.88-8.68-1-9.24-3.31a5.5,5.5,0,0,1-6,2.31c-.33-.87.68-1.36,1.19-1.6-7.58-2.06-11.55,2.31-16.7-.42a1.81,1.81,0,0,0-.81-1.54c6.09.39,11,.79,10.52.95.11-2.31-4.79-3-.71-6-4,1.53-11,4.94-15.72,3.6a2.75,2.75,0,0,1-.59-.83l.51-.24a5.07,5.07,0,0,0-3,.21,17,17,0,0,0-3.94-.91c-.46-1.94-5.58-1.33-8-1.55.07,2.53-3.12,1.95-.22,4.2-.38-.2.48-.28,2.11-.29a3.75,3.75,0,0,0,1.06-.21,1.74,1.74,0,0,1-.18.22c1.62,0,3.72.07,6.11.16-2,1.17-4.09,2.14-6.73.6-1.34,1.55-2.82,3.15-3.64,3.89-3.17-3.71-9.54-6-10.32-8.18-7.56,1-17.69,0-22.67,4.47-2.17.5-2.37-1.49-3.12-2.28,1.25-.41,2.71-.26,3.42-.9-4.34,1-12.64-.27-13.86,3-5.27-1.82,3.2-2.86-4.2-2.77l1.06-.95c-7.08-3.09-13.09-1.36-19.3.16s-12.63,2.82-20.38-1.21c1.08.5,1.62.74,1.8,1.31-9-2.18-18.47-2.3-27.88-2.68s-18.77-1.14-27.43-4.6c-5-1.59-5.77.48-9.09,1.66l-.75-2.84-5.72,2.39c-3.92.65-6.94-1.52-10.23-3.43s-6.81-3.65-11.89-2.29l.92,2c-3.35-.86-11-.8-10-2.77-.4.27-1.45,1.67-2.61.49l.16-1.41c-2.93.32-5.85.56-8.78.81-6.23-2.3,2.09-5.3-7.17-7.5-3.55-.21-10.74,1.92-9.66,3.13,1.39.37,3.4,1.64,3.21,3.05l-3.36,0c-1.48,4-5,7.61,2.4,12.19l6.09-1.3L17,195.08c-1.58-.26-3.15-.57-4.72-.86,2.27,2.46,4.31,1.14,6.43.37a3.88,3.88,0,0,0,1.9,2.65l6.24-2.85c.36,1.74-3.07,2.73.45,4.32,2.91-1.37-1.79-4.06,2.68-4.49,2.32,2.35,1.28,3.74,4.7,2.7.25,1.14-.53,1.7-1.86,1.94a19.62,19.62,0,0,1,5.11-.13c1.72,0,3.3-.09,4.2-1.07,2.41,2.78,9.53,1,8.65,4.8a16.53,16.53,0,0,1,8-2.13c-2.69,2-.29,2.43,2.54,3s6.09,1.1,5.13,3.54c4.06-3.73,12.88-.24,19.34-1.88-.39.3-1.14.91-1.66.63,3.43.74,4.3,2.13,6.45,3.18.84-3.45,6.34-3.65,9.47-5.53,3.92,3.81-3,3.85-2,7.24.08-2.87,7.71-2.09,6.49-4.61,3,2.43,2.7,1.3,4.11,4.37,1-4.34,3.11-.47,6.06-2.92,4.53,2.59.85,4.25,6.16,3.35C123.26,212.21,118.51,213.38,118.51,213.38Zm123.59.12v.05h-2.54Zm10.33.52c-1.25-.17-2.82-.27-4.47-.34-.32-.89.12-1.77,1.15-1.67C248.52,212.56,250.93,213.2,252.43,214Zm-20.91-18.69c1.65-.27,2.17.26,2.37.79-.77,0-1.68,0-2.87.15-.05.09-.16.19-.21.3A3.28,3.28,0,0,1,231.52,195.33Z"/><path class="cls-8" d="M228.41,198.49a3.63,3.63,0,0,1-.68.15,9.48,9.48,0,0,0,.94.62l.62-.76Z"/><path class="cls-8" d="M1164.25,212.37l-.22-.06a1.37,1.37,0,0,1,.46.35C1164.34,212.54,1164.34,212.47,1164.25,212.37Z"/><polygon class="cls-8" points="394.91 224.85 394.92 224.21 394 224.73 394.91 224.85"/><path class="cls-8" d="M1221.29,220.12a1.4,1.4,0,0,0,.75.63C1222,220.59,1221.68,220.37,1221.29,220.12Z"/><path class="cls-8" d="M1245.87,220.26l3.5.84A21.09,21.09,0,0,0,1245.87,220.26Z"/><path class="cls-8" d="M1264.79,221.18a3.37,3.37,0,0,0,.35-1.09l0,0Z"/><path class="cls-8" d="M964.31,228.41a2.93,2.93,0,0,0-.73.12C961.88,229,963,228.83,964.31,228.41Z"/><path class="cls-8" d="M1053.69,221.52a19.26,19.26,0,0,1-2.86,1.23C1052.42,222.92,1053.66,223,1053.69,221.52Z"/><path class="cls-8" d="M864.43,232.14s0,0,0,0c-.22,0-.41,0-.62,0Z"/><path class="cls-8" d="M1046.67,222.76a6.91,6.91,0,0,0,4.16,0A10.59,10.59,0,0,0,1046.67,222.76Z"/><path class="cls-8" d="M1346.71,220.86l.92.09a.6.6,0,0,1,.1-.41Z"/><path class="cls-8" d="M1347.73,220.54l1-.32C1348.27,220.23,1347.87,220.26,1347.73,220.54Z"/><path class="cls-8" d="M1350.85,219.55l-2.12.67C1349.47,220.22,1350.38,220.28,1350.85,219.55Z"/><path class="cls-8" d="M1321.68,220.14l-.27.93A1.61,1.61,0,0,0,1321.68,220.14Z"/><path class="cls-8" d="M1314.08,220.55c1.82.17,4.59,1.87,7.11,1.25l.22-.73C1320.24,222.45,1315.78,219,1314.08,220.55Z"/><path class="cls-8" d="M1282.15,209.78l6.38.62c-1.13-1-2.62-2.25.28-2.53C1280.73,205.09,1290.5,210,1282.15,209.78Z"/><path class="cls-8" d="M1262.38,208.71c3.41-.52-.07-1.42.1-2C1260.33,207.66,1259.81,207.89,1262.38,208.71Z"/><path class="cls-8" d="M1119.66,211l.31-2.31C1117.34,209.09,1120,209.61,1119.66,211Z"/><polygon class="cls-8" points="1092.54 223.32 1095.13 224.71 1096.32 222.59 1092.54 223.32"/><polygon class="cls-8" points="1076.2 207.16 1077.35 206.81 1072.96 207.71 1076.2 207.16"/><path class="cls-8" d="M836.57,210l.81,2.84C839.16,212.33,839.52,209.14,836.57,210Z"/><path class="cls-8" d="M733.12,212.81c-1.12-1.42-4-2.34-5.82-1C729.62,212.06,731.94,213.17,733.12,212.81Z"/><polygon class="cls-8" points="423.09 203.02 425.19 202.13 421.25 202.81 423.09 203.02"/><path class="cls-9" d="M432.65,128.81h0a1.54,1.54,0,0,1-1.8-.42,10.84,10.84,0,0,0-2.35-1.77c-2.34-1.43-5.3-4.44-8.82-9a68.07,68.07,0,0,1-8-12.56,4.66,4.66,0,0,1-.52-1.69,1.3,1.3,0,0,1,.71-1,1.1,1.1,0,0,1,.26-.14.88.88,0,0,1,.95.12c.26.21.83,1,2.87,5a53.51,53.51,0,0,0,5.4,8.78,46.31,46.31,0,0,0,6.86,7.07,4.69,4.69,0,0,0,.54.4,5.93,5.93,0,0,0,.83.61c.48.27.94.57,1.41.86l.34.3a4.89,4.89,0,0,0,2.66,1.39,1.81,1.81,0,0,1,0,.54A2.28,2.28,0,0,1,432.65,128.81Z"/><path class="cls-9" d="M453.21,127.38a18.5,18.5,0,0,0,5.63-.56h0a2.45,2.45,0,0,1,3,.12c.83.56.88,1.58,1.13,2.46,0,.13-.33.44-.56.58a1.36,1.36,0,0,1-1.39,0c-.85-.43-1.67-.9-2.5-1.35l-8.2,1.82a7,7,0,0,1-2.4.72.8.8,0,0,0,.58.85,7.48,7.48,0,0,0,1.42.2,26.2,26.2,0,0,1,5.65,1,11.75,11.75,0,0,1,1.84.73c.52.24,1,.56,1.5.84-9.67-2.25-14.41-1-14.07-.53h0a49.09,49.09,0,0,0,7.88,3.35,6.51,6.51,0,0,1,3.7,2.49,8,8,0,0,0,1.48,1.27,15.9,15.9,0,0,1,2,.36,2.11,2.11,0,0,1,1.05,3.55,2.29,2.29,0,0,1-.62.62c-.47.28-.86.36-1-.35a.56.56,0,0,0-.9-.34c-.85.65-1.24.27-1.44-.48s-.27-1.46-.4-2.18c-1.76-2.69-11-6.47-12.89-5.29.52.75,2.52,5.46,3.34,6.85a11.15,11.15,0,0,0,3.15,3.37c.8,0,2.73-1.32,3-.12.13.68.69,1.4-.15,2s-1.39-.07-2-.46c-.54-.12-1.15-.37-1.27.53a12.13,12.13,0,0,0-.2,1.89c0,.28.07.52-.22.66a.71.71,0,0,1-1-.28,8,8,0,0,1,.22-3.25c-1.18-2.09-8.46-15.21-8.48-9.55,0,.9.09,1.79.13,2.69q.57,2.92,1.13,5.83c-.06.21-.23.33-.4.22a26.75,26.75,0,0,1-1.58-5.81h0c-.14-2-.79-3.94-.66-6a3.68,3.68,0,0,0-1.09-1.3s-.93,1.87-1.18,2.59c-.83,2.41-1.81,9.37-2.35,10.49.79.88,1.69,1.7,1.57,3a.59.59,0,0,1-.78-.13c-.38-.33-.75-.55-1.27-.23-.3.2-.63.62-1,.3a1.79,1.79,0,0,1-.31-1,1.92,1.92,0,0,1,.93-1.69c.08-1.26,1.61-10.31,3.13-13.38l2-3.47a19.89,19.89,0,0,1,4-3.86,36.5,36.5,0,0,1,4.08-2.51h0c1.9-1.2,3.78-2.43,5.69-3.6a21.59,21.59,0,0,1,2.12-1l.76-.17a3.77,3.77,0,0,0,1-.09c.24,0,.63-.08.69,0,.14.26-.11.49-.38.58s-2.15,1-2.15,1a12.14,12.14,0,0,0-1.31.63c-2.17,1.33-4.33,2.68-6.49,4a16.65,16.65,0,0,0-2.12,1.71c-.2.2-.36.49-.15.74a1.2,1.2,0,0,0,.67.45,20.14,20.14,0,0,0,4.32-.9A23.93,23.93,0,0,1,453.21,127.38Z"/><path class="cls-9" d="M460.6,135.1c-.2-1.11.56-1.92,1-2.81a.85.85,0,0,1,1.42,0,5.12,5.12,0,0,1,1.1,2.41,6.15,6.15,0,0,1-.61,1.2,1.86,1.86,0,0,1-2,.67,1.33,1.33,0,0,1-1-1.44Z"/><path class="cls-9" d="M441,150.38h0c.54-1.31.61-1.34,1.66-.6.14.11.26.24.4.36a4.13,4.13,0,0,1,.79.29c1.11.73,1.08,1.48-.06,2.08-1.57.82-2.48.42-2.87-1.31A3,3,0,0,1,441,150.38Z"/><path class="cls-9" d="M459.28,120.18a1,1,0,0,1-.69.34,1.24,1.24,0,0,1-.79-.12.64.64,0,0,1-.16-.94,1.11,1.11,0,0,1,.71-.27,1.27,1.27,0,0,1,.52.17C459.12,119.57,459.55,119.75,459.28,120.18Z"/><path class="cls-9" d="M440.05,126.37a5.93,5.93,0,0,1-2.2,1.8h0c-.61.54-1.65.83-1.26,2,.11.3,0,.5-.38.58-.79.22-1,.85-1.14,1.5-.19.91-.34,1.83-.57,2.73-.05.2-.37.35-.57.52-.1-.24-.33-.5-.29-.72.31-1.46.68-2.9,1-4.35a1.64,1.64,0,0,0-.82-1c.19-.3.39-.6.59-.9a1.15,1.15,0,0,1,.45,0A1.29,1.29,0,0,1,436,128h0l1.86-1.08c.57-.36,1.14-.74,1.72-1.07a.56.56,0,0,1,.52.07A.51.51,0,0,1,440.05,126.37Z"/><path class="cls-9" d="M448.29,128.17l-.73.23"/><path class="cls-9" d="M272.51,88.39h0A1.21,1.21,0,0,0,273,87a9.31,9.31,0,0,1-.21-2.36c0-2.2-.79-5.5-2.39-9.82A55,55,0,0,0,265.19,64a3.8,3.8,0,0,0-.93-1.07,1,1,0,0,0-1,0l-.21.12a.71.71,0,0,0-.32.7c0,.27.31,1,2.21,4.09a43,43,0,0,1,3.71,7.41A37.84,37.84,0,0,1,270.55,83a5.29,5.29,0,0,1,0,.54,3.64,3.64,0,0,1,.06.82c0,.45,0,.89,0,1.33l.06.36a3.94,3.94,0,0,1-.18,2.4,1.52,1.52,0,0,0,.38.21A1.81,1.81,0,0,0,272.51,88.39Z"/><path class="cls-9" d="M262.83,101.83a15.15,15.15,0,0,1-2.78,3.6h0a2,2,0,0,0-1.18,2.09c0,.81.71,1.27,1.2,1.82.07.08.44,0,.64-.14a1.08,1.08,0,0,0,.58-1c.07-.76.1-1.52.14-2.28l4.72-4.83a5.5,5.5,0,0,0,1.51-1.33.65.65,0,0,1,.34.75,6.23,6.23,0,0,1-.47,1.06,21,21,0,0,0-1.73,4.27,9.24,9.24,0,0,0-.29,1.57c-.05.45,0,.91-.05,1.37,2.56-7.55,5.45-10.24,5.59-9.82h0A37.57,37.57,0,0,1,270,105.8a5.25,5.25,0,0,0,.13,3.58,6.13,6.13,0,0,1,.24,1.56,12.1,12.1,0,0,0-.59,1.51,1.69,1.69,0,0,0,2,2.22,2,2,0,0,0,.68-.16c.39-.2.61-.43.19-.84a.44.44,0,0,1,.15-.75c.8-.3.71-.74.28-1.19s-.88-.8-1.33-1.19c-1.08-2.35.27-10.29,1.86-11.05.29.67,2.67,4,3.27,5.19a9,9,0,0,1,1,3.57c-.34.55-2.06,1.31-1.34,2,.41.38.66,1.07,1.41.73s.55-1,.53-1.55c.15-.42.23-.94.9-.64a9.11,9.11,0,0,1,1.37.66c.19.12.33.28.55.13a.56.56,0,0,0,.23-.8,6.43,6.43,0,0,0-2.31-1.22c-.93-1.69-6.8-12.23-2.93-9.84.62.38,1.19.82,1.79,1.23l3.5,3.24c.17,0,.32,0,.32-.18a21.34,21.34,0,0,0-3.3-3.54h0c-1.31-1-2.35-2.21-3.81-3a3.06,3.06,0,0,1-.41-1.3s1.67.16,2.26.3c2,.45,7.16,2.73,8.16,2.84.26.91.44,1.88,1.39,2.36a.49.49,0,0,0,.25-.6c-.06-.39-.06-.74.38-1,.26-.12.69-.16.61-.53a1.39,1.39,0,0,0-.57-.64,1.53,1.53,0,0,0-1.55-.09c-.89-.47-7.72-3.27-10.46-3.53l-3.2-.14a15.87,15.87,0,0,0-4.34,1.11A29,29,0,0,0,263.81,96h0c-1.63.78-3.26,1.55-4.87,2.36a16.22,16.22,0,0,0-1.57,1l-.44.45a3.28,3.28,0,0,1-.5.66c-.13.14-.32.39-.27.48s.38.13.56,0,1.56-1.07,1.56-1.07a10.33,10.33,0,0,1,1-.63c1.82-.92,3.66-1.82,5.49-2.73a13,13,0,0,1,2.07-.72c.22,0,.49,0,.57.21a1,1,0,0,1,0,.65A16,16,0,0,1,265,99.23,18.66,18.66,0,0,0,262.83,101.83Z"/><path class="cls-9" d="M265,110.15c-.67-.61-1.55-.44-2.37-.48a.68.68,0,0,0-.61,1,4,4,0,0,0,1.17,1.77,4.42,4.42,0,0,0,1.08.09,1.5,1.5,0,0,0,1.31-1.08,1.06,1.06,0,0,0-.58-1.26Z"/><path class="cls-9" d="M283.71,103.23h0c-1.12-.19-1.17-.15-1.11.88a3.1,3.1,0,0,0,.08.42,3.25,3.25,0,0,0-.14.66c0,1.07.55,1.37,1.44.85,1.23-.73,1.34-1.52.32-2.52A2.49,2.49,0,0,0,283.71,103.23Z"/><path class="cls-9" d="M255.33,102.92a.83.83,0,0,0,.53-.33,1,1,0,0,0,.25-.58.52.52,0,0,0-.57-.52c-.17,0-.36.22-.49.37s-.07.28-.1.43S254.93,102.92,255.33,102.92Z"/><path class="cls-9" d="M267.71,92.42a4.77,4.77,0,0,0,2.16-.74h0c.63-.2,1.27-.78,1.87,0,.16.2.36.17.56,0a1.32,1.32,0,0,1,1.5-.14c.71.25,1.4.54,2.11.77.16,0,.39-.11.59-.18-.12-.17-.2-.44-.37-.5-1.12-.4-2.26-.77-3.4-1.15a1.33,1.33,0,0,1-.32-1l-.87,0a1,1,0,0,0-.16.33,1,1,0,0,0-.88.52h0v0h0l-1.52.81c-.49.24-1,.46-1.46.72a.41.41,0,0,0-.17.38A.4.4,0,0,0,267.71,92.42Z"/><path class="cls-9" d="M265.45,98.8l.46-.4"/></g></g></svg>