<svg xmlns="http://www.w3.org/2000/svg" viewBox="0 0 50.98 65.82"><defs><style>.cls-1{fill:#8ae9ec;}</style></defs><g id="Layer_2" data-name="Layer 2"><g id="Layer_1-2" data-name="Layer 1"><path class="cls-1" d="M26.77,0a31.14,31.14,0,0,1,3.49.2c11.8,1.33,19.2,9.41,20.53,18.55.61,4.18.08,14.45-5.84,21.72a18.35,18.35,0,0,1-14.06,7.08,12,12,0,0,1-8.66-3.31,16.48,16.48,0,0,1-1.06-1.3l-.17.5c-2.47,9.47-2.77,11.56-5.28,16a50,50,0,0,1-4,6c-.15.19-.3.43-.57.43-.46-.1-.48-.41-.52-.72a50.15,50.15,0,0,1-.46-8.67c.15-3.78.63-5.08,5.66-25.59a1.34,1.34,0,0,0-.11-.85,14.51,14.51,0,0,1-.29-9.6c1.24-3.81,4.15-5.71,6.77-5.71a4.79,4.79,0,0,1,4.77,3.95c.83,3.57-1.47,8.25-3.25,15.16-1.07,4.07,2,7.29,6,7.29a8.45,8.45,0,0,0,5-1.71c5.33-3.82,7.44-13,7.11-19.55-.49-9.34-8-13.41-15.52-13.41a20.3,20.3,0,0,0-8.45,1.8C7.38,13,4.91,25.83,9.55,31.72c.58.74,1.06,1.19.84,2-.3,1.19-.59,2.38-.91,3.54a1.21,1.21,0,0,1-1.19,1A1.68,1.68,0,0,1,7.62,38a10.48,10.48,0,0,1-4.3-3.25c-3.95-4.92-5-14.66.32-22.9C8.84,3.83,17.92,0,26.77,0Z"/></g></g></svg>