<svg xmlns="http://www.w3.org/2000/svg" xmlns:xlink="http://www.w3.org/1999/xlink" viewBox="0 0 1059 1363"><defs><style>.cls-1{fill:none;}.cls-2{fill:#fff;}.cls-3{fill:url(#New_Pattern);}.cls-4{fill:#231f20;}.cls-5{font-size:84.87px;font-family:Alittlesunshine, A little sunshine;}</style><pattern id="New_Pattern" data-name="New Pattern" width="50" height="50" patternUnits="userSpaceOnUse" viewBox="0 0 50 50"><rect class="cls-1" width="50" height="50"/><path d="M25,24.8h0c.08.06,0,0,0,0l0,0s.07.11,0,0a.08.08,0,0,1,0,0s0,.13,0,.07l0-.08s0,.15,0,.08v0s0-.14,0,0,0,0,0,0l0-.09s-.06.13,0,.07,0,0,0,0a.56.56,0,0,0,.05-.08c.07-.09-.09.1,0,0l.06-.07,0,0s-.13.08-.06.05l.08-.05c.09-.05-.13,0,0,0l.09,0-.15,0h.12l-.14,0,.08,0s-.12-.06-.08,0l0,0-.25-.62c-.21.63-.41,1.26-.6,1.9a.56.56,0,0,0,.38.68.57.57,0,0,0,.69-.39c.2-.63.4-1.26.59-1.9a.56.56,0,0,0-.26-.62,1,1,0,0,0-1,0,1.3,1.3,0,0,0-.55.54,1.29,1.29,0,0,0-.17.74,1,1,0,0,0,.5.81A.51.51,0,0,0,25,24.8Z"/></pattern></defs><g id="Layer_2" data-name="Layer 2"><g id="Layer_1-2" data-name="Layer 1"><rect class="cls-2" x="1" width="1058" height="1358"/><rect class="cls-3" y="1087" width="1057" height="276"/><path class="cls-4" d="M583.61,561.12A31.22,31.22,0,0,0,574.29,548a43.31,43.31,0,0,0-14.64-7.85c-12.39-3.84-26.08-2.13-38.37,1.3a112.64,112.64,0,0,0-53.62,33.77,101.1,101.1,0,0,0-10.77,14.44c-1.52,2.48-2.93,5-4.25,7.62a34.37,34.37,0,0,0-3.49,8.5A1.59,1.59,0,0,0,452,607a68.32,68.32,0,0,0,3.7-6.84q1.74-3.27,3.74-6.41a116.57,116.57,0,0,1,8.81-12.14,110.05,110.05,0,0,1,22.42-20.4,106,106,0,0,1,27-13.3c11-3.54,23.08-5.79,34.58-3.85a41.42,41.42,0,0,1,16.65,6.36A33.63,33.63,0,0,1,580,562.63c1,1.94,4.38.57,3.57-1.51Z"/><path class="cls-4" d="M584.23,564a23.29,23.29,0,0,0,2.64-.21c.71-.13,1.41-.38,2.12-.54a37.29,37.29,0,0,1,5-.78,48.63,48.63,0,0,1,9.5.17,78,78,0,0,1,19.31,5.22c6.31,2.47,12.42,5.44,18.48,8.48,5.7,2.85,11,6.16,15,11.24s6.43,10.77,8.87,16.49q4.14,9.69,8.06,19.48,7.79,19.51,14,39.58c2.33,7.52,4.56,15.06,6.6,22.66q1.56,5.81,3,11.65l1.41,5.73c.23.91.43,1.84.68,2.75a9.15,9.15,0,0,0,1.6,3c.79,1.09,2.93,1.21,3.22-.42a11.89,11.89,0,0,0,.36-2.77,18.47,18.47,0,0,0-.55-2.76c-.39-1.77-.78-3.54-1.21-5.3q-1.29-5.26-2.69-10.51-2.78-10.5-6-20.87c-4.26-13.83-9.13-27.49-14.44-41-2.67-6.78-5.46-13.52-8.49-20.15-2.72-6-5.42-12-9.25-17.38a38.4,38.4,0,0,0-6.48-7.17,50.94,50.94,0,0,0-8.45-5.52c-6-3.27-12.26-6.28-18.57-9a92.22,92.22,0,0,0-22.29-6.92,51.49,51.49,0,0,0-11.3-.6,44.75,44.75,0,0,0-5.65.72,14.11,14.11,0,0,0-5.3,2c-1.11.73-.79,2.81.73,2.7Z"/><path class="cls-4" d="M689.3,699.48a44.64,44.64,0,0,1-1,8.62c-.29,1.35-.65,2.68-1.06,4s-1.2,2.86-1.51,4.32l2.79-.74c-.47-.42-.41-1.3-.51-1.92-.12-.78-.26-1.55-.4-2.33-.29-1.55-.61-3.1-1-4.63s-.73-2.91-1.11-4.37c-.2-.76-.37-1.54-.56-2.3a9,9,0,0,1-.61-2.8c.07-.69-.77-1-1.3-.75-1.66.89-2.18,3.22-2.49,4.93a30.25,30.25,0,0,0-.35,6.09c0,2.1.19,4.2.13,6.3a26.25,26.25,0,0,1-1,6l2.44-.32a27.11,27.11,0,0,1-2.28-6.69c-.57-2.24-1.54-4.7-1.41-7,.07-1.23-1.71-1.36-2.07-.28-1.19,3.6-1.75,7.5-2.58,11.2q-.6,2.74-1.22,5.49a28.85,28.85,0,0,0-1.08,5.66c0,1.65,2.15,1.71,2.69.36a30.85,30.85,0,0,0,1.22-5.74q.53-2.77,1-5.55a108.32,108.32,0,0,0,2-11.14l-2,.53c1.2,2,1.49,4.6,2,6.84a27.44,27.44,0,0,1,1.13,7,1.34,1.34,0,0,0,2.48.67c1.91-3.53,1.41-8.13,1.22-12a37.43,37.43,0,0,1,0-6,13.91,13.91,0,0,1,.63-2.93,8.38,8.38,0,0,0,.73-2.72l-1.47.61a7.33,7.33,0,0,1,.76,2.3c.21.76.43,1.53.61,2.3.35,1.46.59,3,.84,4.44s.48,3.13.66,4.7c.09.78.17,1.57.24,2.35s.31,1.44-.1,2c-1.26,1.72,1.67,3.47,2.88,1.69a17.08,17.08,0,0,0,1.72-4.24,43.48,43.48,0,0,0,1.25-4.64,48.88,48.88,0,0,0,1.07-9.34c0-2.29-3.51-2.29-3.55,0Z"/><path class="cls-4" d="M660.11,698l-.54-1-2.38,1.39c1.27,2.44,2.72,4.75,3.84,7.28a53.22,53.22,0,0,1,2.78,8,50.77,50.77,0,0,1,1.44,8c.13,1.37.24,2.74.29,4.11s0,2.78,1.07,3.89a1.23,1.23,0,0,0,1.71,0c1.08-1,1.1-2.48,1.07-3.89a43.12,43.12,0,0,0-.33-4.54,57,57,0,0,0-1.84-8.75,53.53,53.53,0,0,0-3.15-8.07,35.68,35.68,0,0,0-4.71-7.67c-1.16-1.36-3.11.61-2,1.95l.74.87c1,1.13,2.59-.31,2-1.51Z"/><path class="cls-4" d="M435.43,643.35c-5.18,14.7-7.87,31.14-1.41,45.9,1.52,3.47,3.53,7.53,6.85,9.58.69.43,1.31-.38,1-1a64,64,0,0,0-3.35-5.56,36,36,0,0,1-2.83-6,44.68,44.68,0,0,1-2.63-12.88c-.56-10,1.91-19.91,5.29-29.27.66-1.84-2.29-2.65-2.94-.81Z"/><path class="cls-4" d="M445.05,689.67c0,.15,0,.19.05.14a.22.22,0,0,1,.09-.07c.09,0,.1-.07.19,0l-.2-.49c-.15.44-.26.9-.42,1.34a8.21,8.21,0,0,0-.37,1.22,6.43,6.43,0,0,0,.17,2.89,6.67,6.67,0,0,0,3.36,4.3,1.21,1.21,0,0,0,1.77-.72c.29-1.71.58-3.44.79-5.17s.25-3.42.45-5.12l-1.9.26a21.5,21.5,0,0,0,.47,2.52c.23.82.52,1.63.81,2.43s.64,1.71,1,2.52a5.66,5.66,0,0,0,.72,1.24,10.12,10.12,0,0,0,.88.85.93.93,0,0,0,1.53-.9,10.31,10.31,0,0,0-.19-1.24,10.49,10.49,0,0,0-.58-1.33c-.33-.72-.69-1.42-1-2.15s-.56-1.38-.82-2.07-.67-1.59-1-2.39a1,1,0,0,0-1.07-.69,1,1,0,0,0-.84,1,20.45,20.45,0,0,1-.38,4.87,28,28,0,0,1-1.24,4.78l1.77-.72a5.66,5.66,0,0,1-2.46-5.29,4.24,4.24,0,0,0,0-1.91A1.13,1.13,0,0,0,446,689a2.93,2.93,0,0,0-.65-.1c-.75,0-1.52,1-.71,1.49.44.26.81-.4.4-.68Z"/><path class="cls-4" d="M479.86,654.25c3.2,0,3.2-5,0-5s-3.19,5,0,5Z"/><path class="cls-4" d="M479.86,654.25c3.2,0,3.2-5,0-5s-3.19,5,0,5Z"/><path class="cls-4" d="M479.24,646.33A16.89,16.89,0,0,0,479,655c.21.9.44,2.52,1.61,2.54a1.1,1.1,0,0,0,1.1-1.1,5.16,5.16,0,0,0-.33-1.34,14.14,14.14,0,0,1-.45-2.73,14.81,14.81,0,0,1,.68-5.41c.47-1.48-1.89-2.13-2.34-.64Z"/><path class="cls-4" d="M483.62,640.88a51.7,51.7,0,0,0,.35,6.81c.13,1.09.3,2.17.5,3.25a19.09,19.09,0,0,0,.84,3.45,1.1,1.1,0,0,0,1,.78,1.05,1.05,0,0,0,1-.78c.1-.71.13-1.41.27-2.11l.39-2.07.79-4.14c.14-.74-.93-1.05-1.13-.32l-1.12,4.06-.56,2c-.19.69-.47,1.32-.69,2h2.05c-.21-1.07-.59-2.11-.86-3.17s-.52-2.13-.74-3.21a52,52,0,0,1-.89-6.56.63.63,0,0,0-1.25,0Z"/><path class="cls-4" d="M489.32,641.72a29.74,29.74,0,0,0,1.28,9c.33,1.1.68,2.18,1.8,2.68.76.35,1.71.15,1.77-.81a.34.34,0,0,0-.62-.17c-.24.45-1.05-.51-1.21-.75a5.23,5.23,0,0,1-.52-1.4c-.17-.55-.33-1.11-.47-1.68a28.72,28.72,0,0,1-.82-6.85.61.61,0,0,0-1.21,0Z"/><path class="cls-4" d="M501.24,625.83a78,78,0,0,0-.42,13.23c.13,2.12.35,4.24.66,6.34a28.89,28.89,0,0,0,1.47,6.45c.26.65,1.27,1,1.65.22a15.62,15.62,0,0,0,1.67-7c0-.49-.8-.63-.89-.12a16.73,16.73,0,0,1-2.34,6.21l1.65.22c-.33-2.19-1-4.31-1.42-6.47s-.72-4.2-.93-6.33a62.45,62.45,0,0,1,.07-12.75c.08-.75-1.09-.74-1.17,0Z"/><path class="cls-4" d="M512.56,609.91a144.83,144.83,0,0,0-1.2,16.52q-.06,4,.12,8a48,48,0,0,0,.69,8.3c.23,1,2,1.1,2.15,0,.54-3.67,1.33-7.31,2-11a.45.45,0,0,0-.86-.23c-1.08,3.53-2.09,7.1-3.33,10.59l2.19.29c0-2.65-.49-5.35-.66-8s-.27-5.52-.29-8.28a145.09,145.09,0,0,1,.83-16.27c.11-1.08-1.54-1-1.68,0Z"/><path class="cls-4" d="M522.07,600.57c-1.53,7.49-2.72,15.06-3.55,22.66-.42,3.81-.85,7.67-.95,11.5,0,1.29-.16,3,1.18,3.74a1.62,1.62,0,0,0,2.27-.63c.22-.49-.37-1.06-.8-.61-.71.74-.7-1.27-.69-1.52,0-.74.07-1.47.09-2.2,0-1.56.07-3.11.12-4.66.12-3.09.3-6.19.54-9.28.5-6.32,1.3-12.59,2.36-18.84.06-.37-.49-.53-.57-.16Z"/><path class="cls-4" d="M528.07,604.89q-1,15.06-1.28,30.15c0,2-.54,4.7.39,6.58a3,3,0,0,0,4.57,1.08c1.52-1.2,1.88-3.21,2.34-5q.93-3.63,1.93-7.24l2.34-8.42c.77-2.8,2-5.52,3-8.24l-2.23-.61a70.84,70.84,0,0,0-2.31,12,69,69,0,0,0-.64,12.35A1.48,1.48,0,0,0,538,639a5.94,5.94,0,0,0,3.8-3.74c.95-2.25,1.6-4.65,2.37-7l2.49-7.54,1.32-4a15,15,0,0,1,1.7-4.09l-2.14-1.24c-1.4,2.82-1.84,6.18-2.21,9.28a28.21,28.21,0,0,0,.14,9.7,1.62,1.62,0,0,0,2.93.39c.87-1.49,1.8-2.93,2.65-4.42a1,1,0,0,0-1.56-1.21c-1.22,1.21-2.39,2.47-3.6,3.68l2.73,1.14c.07-3-.28-6-.08-9.05s1-5.9,1.3-8.89c.17-1.56-2.37-1.6-2.47,0-.14,2.41-1.52,5-2.35,7.24l-2.39,6.54-2.4,6.54c-.55,1.48-1.24,3.49-3,3.83l1.84,1.4c.08-4,.07-7.91.43-11.86s1.17-7.91,1.84-11.88c.24-1.43-1.89-2.08-2.23-.61l-1.45,6.34c-.5,2.19-1.27,4.31-2,6.45-1.33,4.12-2.56,8.3-4.11,12.34-.23.61-.71,1.68-1.37,1.92-.31.12,0,.14-.12,0a2.09,2.09,0,0,1-.16-1.08c-.07-2.2,0-4.4,0-6.6q0-6.44.18-12.86.17-7.41.5-14.82c.08-1.67-2.47-1.65-2.57,0Z"/><path class="cls-4" d="M556.68,614.87a43.71,43.71,0,0,0-1.14,8.44,26.78,26.78,0,0,0,.67,8.52c.13.43.84.37.81-.11-.16-2.76-.65-5.47-.65-8.25a43.73,43.73,0,0,1,.84-8.46c.07-.34-.45-.49-.53-.14Z"/><path class="cls-4" d="M566.69,605.69a29.28,29.28,0,0,1-1.45,5.28,42.84,42.84,0,0,0-1.44,5.28l-2.61,10.63a73.24,73.24,0,0,0-2.13,9.56,7.3,7.3,0,0,0,2.76,7,1.68,1.68,0,0,0,2.45-1c.58-3.07,1.52-6.08,2.34-9.09l2.53-9.3c1.66-6.12,3.18-12.29,5-18.36l-3.08-.85c-1.23,6.53-2.44,13-3.52,19.61-.74,4.49-2.86,11.74,2.12,14.63a2,2,0,0,0,2.67-.7c2.44-4.69,5.59-9,8.35-13.57s5.37-9.17,8.07-13.75l-3.12-1.31-4,14.22c-1.33,4.71-3,9.46-3.88,14.27a2.1,2.1,0,0,0,3.82,1.61c1.38-2.25,2.6-4.56,4.1-6.74l4.48-6.51-2.37-1c-1.91,6.13-4.83,11.93-6.76,18.07a2,2,0,0,0,3.23,1.89c1.94-2,4-3.78,6-5.61l2.89-2.58a21,21,0,0,1,3.55-2.91l-1.28-1.66a50,50,0,0,0-4,6.3c-1,1.85-2.52,3.79-2.84,5.94s.86,4.16,3.12,4.19c2,0,3.64-1.57,5-2.8,6.19-5.41,10.51-12.62,13.9-20,2-4.27,3.44-8.74,5.39-13,.82-1.77-1.81-3.34-2.65-1.55-3,6.37-5.32,13.13-7.79,19.72-1.23,3.28-2.38,6.59-3.53,9.9s-2.77,6.71-3,10.14a1.23,1.23,0,0,0,1.54,1.17,2.3,2.3,0,0,0,1.88-2.82.51.51,0,0,0-1,0c-.19.55-.49.7-.9.48l.72,1.78a20.64,20.64,0,0,0,2.17-4.78c.58-1.62,1.17-3.22,1.75-4.83,1.21-3.3,2.46-6.57,3.66-9.86,2.41-6.56,5.14-13.06,7.26-19.71l-3-.82a95.47,95.47,0,0,1-3.8,9.75,97.68,97.68,0,0,1-4.59,9.36,53.36,53.36,0,0,1-5.82,8.46c-.65.78-6.11,6.91-7,5.94-.29-.32.42-1.6.57-1.91.55-1.11,1.12-2.22,1.67-3.34a48.13,48.13,0,0,0,2.94-6.66,1.07,1.07,0,0,0-1.77-1A19.33,19.33,0,0,1,592,635.5l-3.34,2.4c-2.23,1.6-4.45,3.17-6.78,4.63l2.85,2.18c2.16-6,3.35-12.39,5.53-18.42.54-1.49-1.56-2.06-2.37-1l-4.63,6.13c-1.56,2.06-3.34,3.91-5,5.89l3.49,2c1.58-4.63,2.5-9.58,3.66-14.33l3.51-14.36c.45-1.84-2.17-3.07-3.12-1.32-2.49,4.59-5.24,9.07-8,13.53S572.55,632,569.28,636H572c-1.43-1.28-1.54-3-1.42-4.86.17-2.7.76-5.41,1.16-8.09.91-5.92,1.67-11.86,2.44-17.81.23-1.79-2.73-2.15-3.14-.42-1.49,6.16-3.29,12.26-4.94,18.38l-2.45,9.06c-.83,3.1-1.56,6.25-2.63,9.27l2.79-.74c-1.54-1.55-1.29-4.16-1.06-6.16.36-3.1.91-6.19,1.37-9.27l1.45-9.67a34.25,34.25,0,0,0,.55-4.62,29.4,29.4,0,0,1,.65-5.37.06.06,0,0,0-.11,0Z"/><path class="cls-4" d="M624.41,612.59a141,141,0,0,0-6.52,15.24q-1.36,3.82-2.52,7.71c-.81,2.7-1.79,5.49-1.87,8.33a1.62,1.62,0,0,0,2.74,1.13c1.9-2.17,3.51-4.54,5.25-6.84a37.44,37.44,0,0,0,2.42-3.58c.36-.59.69-1.18,1-1.79a10.77,10.77,0,0,1,1.71-2.1l-1.31-1q-2.52,4.8-4.71,9.76l-2.2,5a29.45,29.45,0,0,0-2,5,1.6,1.6,0,0,0,2.92,1.23,114.84,114.84,0,0,1,8-10.36l-1.34-1a70.49,70.49,0,0,0-3.75,7.6,58,58,0,0,0-2.62,8.21,1.93,1.93,0,0,0,3.5,1.48c1.87-2.56,3.71-5.15,5.55-7.74.9-1.26,1.85-2.49,2.79-3.72a27.09,27.09,0,0,1,3.19-4l-1.66-1.28a73.7,73.7,0,0,0-3.57,8.31l-1.65,4.18a13,13,0,0,0-1.34,4.47c0,2,2.64,2.13,3.25.44a23.46,23.46,0,0,1,2.43-4.12,17.16,17.16,0,0,1,3.08-4l-1.4-.81a61,61,0,0,0-1.48,9.15,64.58,64.58,0,0,0-1.09,9.18,1.6,1.6,0,0,0,2.69,1.12,7,7,0,0,0,2.38-5.09.86.86,0,0,0-1.69-.22,3.24,3.24,0,0,1-2.22,2.67l1.94,1.94a66.17,66.17,0,0,0,.77-9.23,61.5,61.5,0,0,0,.34-9.3c-.07-.75-1.14-1.22-1.55-.42a17.32,17.32,0,0,1-3.17,3.92,23.66,23.66,0,0,1-3.46,3.33l2,2.6a11.66,11.66,0,0,0,1.75-4l1.42-4.5a78,78,0,0,0,2.51-8.84,1.07,1.07,0,0,0-1.94-.81,26.82,26.82,0,0,1-3.31,3.93c-1,1.17-2,2.35-3.08,3.49-2.18,2.33-4.35,4.66-6.49,7l3.2,1.86c.68-2.71,1.25-5.44,2-8.14s1.33-5.4,2.23-8c.34-1-1-1.37-1.56-.66a64.7,64.7,0,0,1-4.56,5,56.18,56.18,0,0,1-4.64,4.49l2.51,1.94a28.5,28.5,0,0,0,2.1-5l1.92-5.09q1.9-5.08,3.46-10.29c.32-1-1.42-1.48-1.6-.44a8.73,8.73,0,0,1-.53,2.3,12.89,12.89,0,0,1-1.11,1.75,36.81,36.81,0,0,1-2.68,3.53,22.66,22.66,0,0,1-6.63,5l2.37,1.82a56.07,56.07,0,0,0,2-7.62q1-3.93,2.25-7.78A133.06,133.06,0,0,1,626.74,614c.71-1.55-1.55-2.93-2.33-1.36Z"/><path class="cls-4" d="M640.07,653.07q-1.27,6.91-3,13.73c-.54,2.2-1.12,4.38-1.74,6.56s-1.59,4.61-1.54,6.92a1.1,1.1,0,0,0,2,.55c1.35-1.87,1.86-4.47,2.45-6.65s1.16-4.38,1.68-6.58c1.09-4.57,2-9.18,2.73-13.81.28-1.71-2.32-2.47-2.64-.72Z"/><path class="cls-4" d="M426.17,615.49c-2.78-8.43-6.31-19.1-.63-27.15,2-2.91,5.45-5.45,9.11-5.61s6.68,2,8.64,5c5,7.65,4.54,17.31,4.71,26.07a78.83,78.83,0,0,0,1.4,14.79,64.88,64.88,0,0,0,4.41,13.07,106.08,106.08,0,0,0,7.42,13.4,124.74,124.74,0,0,0,9,12.94c1.62,2,4.81-.57,3.49-2.7-2.59-4.17-5.72-8-8.43-12.12A104.44,104.44,0,0,1,458,640.41,59.84,59.84,0,0,1,453.46,627,95.74,95.74,0,0,1,452,611.16c-.35-8.85-.51-19.63-6.89-26.58a13.72,13.72,0,0,0-10.31-4.64,15.1,15.1,0,0,0-10.43,5.21,20.32,20.32,0,0,0-5.2,13.56c-.12,6.08,1.68,12,3.48,17.75.7,2.22,4.24,1.26,3.5-1Z"/><path class="cls-4" d="M423.46,611.25l-.44,1.33-.21.67-.11.33a1.06,1.06,0,0,0,.07.92,1,1,0,0,0,.56.43l.25,0a.94.94,0,0,0,.47-.12c.41-.19.51-.68.65-1.07l.23-.67.45-1.32a1,1,0,0,0-.1-.77,1,1,0,0,0-1.82.24Z"/><path class="cls-4" d="M422.38,614a42.94,42.94,0,0,0,15.25,29.25c1.94,1.53,4.09,2.73,6.05,4.22,3.4,2.6,5.14,6.46,5.95,10.58.94,4.79.64,9.72.43,14.57-.11,2.57,3.83,2.54,4,0,.52-8.37.22-17.94-5.33-24.73-3-3.67-7.62-5.55-11.19-8.58a35.4,35.4,0,0,1-8.44-10.62A37.66,37.66,0,0,1,424.68,614c-.11-1.47-2.42-1.48-2.3,0Z"/><path class="cls-4" d="M448.56,678.31c4.4-2.82,9-5.21,13.52-7.86a62.84,62.84,0,0,1,6.7-3.52c1.23-.55,2.46-1.08,3.7-1.59a6.47,6.47,0,0,1,2-.56,7.31,7.31,0,0,0,2-.28l-2.41-2.41c-3.65,10.64-3.26,24,3.87,33.15,1.78,2.28,4,3.85,6.11,5.8a3.59,3.59,0,0,1,1.39,3.11c-.09,1.83,0,3.55,1.3,5,1.88,2,4.8,2.36,6.69,4.39s3,4.72,4,7.26c1.28,3.16,2.62,6.25,5,8.76,2.23,2.35,5.43,4.22,8.74,3.42,2-.48,1.26-3-.43-3.22-5.67-.76-8-6.19-10-10.89a30.71,30.71,0,0,0-3.93-7.26,12.64,12.64,0,0,0-2.86-2.7c-1.12-.78-2.42-1.2-3.57-1.91s-1.09-1.34-1-2.6a7,7,0,0,0-1.06-4.37c-1.53-2.32-4.12-3.72-6-5.75a26,26,0,0,1-6.21-13.57,37.88,37.88,0,0,1,1.74-17.54,2,2,0,0,0-2.4-2.4c-1.29.48-2.19,1.52-3.48,2s-2.57,1-3.84,1.54c-2.47,1-4.95,2-7.42,3a98.19,98.19,0,0,0-14.18,7.62c-2.15,1.34-.15,4.79,2,3.41Z"/><path class="cls-4" d="M447.8,678c1.4,6,4.6,11.24,8,16.3a139.66,139.66,0,0,1,9.75,16.57c5.45,11.22,9.63,23,17.2,33.1a59.85,59.85,0,0,0,6.47,7.4q1.74,1.65,3.63,3.12c1.48,1.15,3,2.55,4.95,2.42,1-.07,2.19-1.11,1.73-2.27a4.34,4.34,0,0,0-1.08-1.84c-.59-.53-1.31-.94-1.95-1.41a39.24,39.24,0,0,1-3.2-2.69,53.73,53.73,0,0,1-5.69-6.19,93.09,93.09,0,0,1-8.95-14.46c-3-5.68-5.57-11.54-8.5-17.23a141.4,141.4,0,0,0-9.55-16.14c-3.82-5.47-7.94-11-9.69-17.53-.54-2-3.56-1.15-3.09.85Z"/><path class="cls-4" d="M651.43,638.67l-.1,0,.49.65c-.13-.57-.56-.73-.89-1.12a4,4,0,0,1-.72-1.83,26.43,26.43,0,0,1-.48-5.54,18.52,18.52,0,0,1,.44-4.45,3,3,0,0,1,2.81-2.49c3-.43,6.65.35,9.53,1.24a14.8,14.8,0,0,1,7.28,5,10.06,10.06,0,0,1,2,7.76c-.63,3-3.15,4.79-5,7-2.33,2.75-3.37,5.94-4.43,9.33L659,665l-3.82,12.25c-1.33,4.24-2.79,8.45-3.94,12.74-.67,2.52,3,3.49,3.88,1.07,1.43-4.11,2.57-8.34,3.83-12.51L662.72,666c1.24-4.11,2.44-8.23,3.73-12.32a21.43,21.43,0,0,1,2.4-5.24,43.1,43.1,0,0,1,3.4-3.88,11.83,11.83,0,0,0,3.21-9.22,14.5,14.5,0,0,0-4.26-8.65,20.54,20.54,0,0,0-9.31-4.78,37,37,0,0,0-5.43-1,15.5,15.5,0,0,0-5,0c-4.4,1-5.08,5.53-5.12,9.34a33.18,33.18,0,0,0,.61,6.67c.35,1.78,1.35,3.47,3.29,3.81a1.33,1.33,0,0,0,1.47-.61,2.16,2.16,0,0,0,.3-1,.54.54,0,0,0-.54-.54Z"/><path class="cls-4" d="M649.33,642.2a132.77,132.77,0,0,1-6.78,15.52c-1.26,2.47-2.6,4.91-4,7.3-.69,1.17-1.39,2.32-2.12,3.46s-1.79,2.46-1.71,3.93a1.3,1.3,0,0,0,1.63,1.24c1.41-.51,2.14-1.77,2.9-3s1.48-2.44,2.19-3.68c1.47-2.54,2.84-5.13,4.13-7.76a137,137,0,0,0,6.6-16.24c.61-1.79-2.2-2.54-2.82-.77Z"/><path class="cls-4" d="M628.92,680.18a48.92,48.92,0,0,0,13,10.16,52.13,52.13,0,0,0,7.47,3.26c2.66.91,5.48,1.28,8.12,2.2l-.56-4.22a18.84,18.84,0,0,0-3.29,3.66c-1.1,1.41-2.18,2.85-3.21,4.32-1.84,2.6-3.56,5.29-5.24,8-3.4,5.51-6.65,11.12-10.09,16.6-6.22,9.89-13.51,19.54-23.64,25.71a39.83,39.83,0,0,1-8.11,3.83,37.72,37.72,0,0,1-4.56,1.19c-.64.12-1.29.22-1.94.31a4.81,4.81,0,0,0-2.85,1.45,1.9,1.9,0,0,0,.38,3,4.26,4.26,0,0,0,2.47.87,15.09,15.09,0,0,0,2.21-.32,35.48,35.48,0,0,0,4.42-1,44,44,0,0,0,8.24-3.5,59.79,59.79,0,0,0,14-11c9-9.24,15-20.61,21.55-31.57,1.89-3.18,3.87-6.31,6-9.36q1.56-2.25,3.22-4.43c1.16-1.5,2.71-2.9,3.62-4.55a2.34,2.34,0,0,0-2-3.48c-2.4.09-5-.8-7.24-1.54a43.14,43.14,0,0,1-7.06-3,45.08,45.08,0,0,1-12-9.36c-1.75-1.91-4.58.93-2.84,2.85Z"/><path class="cls-4" d="M626.42,682.09c-1,1.75-1.21,3.74-1.65,5.7s-.95,3.87-1.57,5.77a61.27,61.27,0,0,1-4.64,10.6,62.64,62.64,0,0,1-14.94,18,57.55,57.55,0,0,1-5.21,3.82c-.88.58-1.79,1.14-2.7,1.67-1.26.72-2.5,1.31-2.88,2.84a2.19,2.19,0,0,0,1.48,2.62c2.15.76,4.66-1.38,6.37-2.51a61,61,0,0,0,5.05-3.69,63,63,0,0,0,8.78-8.65,66.78,66.78,0,0,0,12.27-22,64.45,64.45,0,0,0,1.78-6.68c.48-2.33,1.11-4.88.39-7.19a1.4,1.4,0,0,0-2.53-.33Z"/><path class="cls-4" d="M486.37,660c-5.58,10.1-3.1,22.06,2.17,31.75A55,55,0,0,0,499,705.48a78.73,78.73,0,0,0,14.19,10.64c21.29,12.51,47.22,14.8,70.83,8.27a104.61,104.61,0,0,0,37.85-19.17c1.9-1.53-.61-4.8-2.63-3.4-9.92,6.84-20.53,12.76-32,16.54a94.29,94.29,0,0,1-34.71,4.79,84.07,84.07,0,0,1-32.27-8.4,76.19,76.19,0,0,1-14.23-9,70.19,70.19,0,0,1-11.67-11.57c-7.28-9.44-11.51-22.31-7-33.88.22-.56-.68-.92-1-.4Z"/><path class="cls-4" d="M521.72,662.59c6.39,0,6.4-9.93,0-9.93s-6.39,9.93,0,9.93Z"/><path class="cls-4" d="M616.33,675.14c6.38,0,6.39-9.92,0-9.92s-6.4,9.92,0,9.92Z"/><path class="cls-4" d="M570.78,645a12.2,12.2,0,0,0-.81,3.37,9,9,0,0,0,.24,3.46c0,.14.28.12.27,0a18.82,18.82,0,0,1-.12-3.36,12,12,0,0,1,.8-3.33c.09-.23-.28-.33-.38-.1Z"/><path class="cls-4" d="M568.14,658.94l-1.41,4.94L566,666.3a7.54,7.54,0,0,0-.27,1.32,1.91,1.91,0,0,0,.37,1.6,1,1,0,0,0,1,.27c1-.34,1.32-1.46,1.58-2.35l.73-2.51,1.43-4.93a1.43,1.43,0,1,0-2.75-.76Z"/><path class="cls-4" d="M565.75,675.7c-1.51,4.22-3.28,8.43-4.27,12.8-.17.72.88,1.25,1.25.53,2-4.07,3.39-8.52,4.94-12.8.44-1.21-1.49-1.73-1.92-.53Z"/><path class="cls-4" d="M559.45,698.2a35.86,35.86,0,0,0-4.15,13c-.1.93,1.51,1.16,1.65.22a45.27,45.27,0,0,1,3.75-12.51c.4-.83-.8-1.56-1.25-.73Z"/><path class="cls-4" d="M552.21,718.45l-2.16,3.4a20.9,20.9,0,0,0-1.95,3.49c-.17.44.48.79.79.46a22.08,22.08,0,0,0,2.29-3.3l2.11-3.41c.42-.69-.65-1.31-1.08-.64Z"/><path class="cls-4" d="M569,642.22l-1.49,7.35-.73,3.61a10.16,10.16,0,0,0-.3,1.9,12,12,0,0,0,.23,1.89c.1.74,1.21.78,1.53.2a10.53,10.53,0,0,0,.9-1.73,11.66,11.66,0,0,0,.35-1.66l.63-3.64,1.26-7.27a1.27,1.27,0,0,0-.86-1.51,1.24,1.24,0,0,0-1.52.86Z"/><path class="cls-4" d="M509.58,725.07a101.38,101.38,0,0,0-5.86,13.44c-.79,2.28-1.48,4.58-2.08,6.92s-1.55,4.9-.77,7.16c.25.72,1.31,1.21,1.89.5,1.49-1.83,1.65-4.28,2.22-6.51s1.23-4.5,2-6.7a74.72,74.72,0,0,1,5.81-12.94c1.19-2.08-2.1-4-3.2-1.87Z"/><path class="cls-4" d="M493,760c2.7,8,1,16.28-.95,24.26-2.09,8.61-4.59,17.17-6.32,25.87-.5,2.51,3.18,3.59,3.88,1.07,1.25-4.49,2.18-9.08,3.24-13.61s2.06-8.83,2.91-13.26c1.58-8.21,2.48-16.94-.42-25-.53-1.45-2.84-.85-2.34.64Z"/><path class="cls-4" d="M590.12,725.82c-1.18,1.84.79,3.78,1.17,5.56.34,1.59-.48,3.16-1.21,4.52a36.35,36.35,0,0,0-1.75,3.74,29.23,29.23,0,0,0-1.71,8,43.83,43.83,0,0,0-.42,7.5,9.28,9.28,0,0,0,2.39,6c.79.79,2.32,1.32,2.6,2.47s-.41,2.62-.79,3.69a63,63,0,0,0-3.84,17.14,54,54,0,0,0,2.05,20.18,2,2,0,0,0,3.81-1.05,82.82,82.82,0,0,1-1.69-8.55,66,66,0,0,1-.46-8.55,60.44,60.44,0,0,1,2.48-17.12c.68-2.21,1.68-4.59.69-6.87a5.32,5.32,0,0,0-2.23-2.3,5.7,5.7,0,0,1-2.32-2.63,17.91,17.91,0,0,1-.88-6.83,51.62,51.62,0,0,1,.62-8.51,17.4,17.4,0,0,1,1.4-4.64,20.86,20.86,0,0,0,1.74-3.82,4.76,4.76,0,0,0-.27-3.2c-.62-1.43-2.17-3-1.28-4.64a.06.06,0,0,0-.1-.06Z"/><path class="cls-4" d="M596,802.68a32.39,32.39,0,0,1,21.38-.07,31.28,31.28,0,0,1,9.12,5.4,59.62,59.62,0,0,1,7.49,7.33c4.74,5.39,9,11.15,14.16,16.14a118.58,118.58,0,0,0,17.54,13.79,174.54,174.54,0,0,0,22.15,12.18l-.49-3.82a33.11,33.11,0,0,0-6.45,11.14c-1.31,3.84-2.38,8.69-1.29,12.67.47,1.71,3.37,1.94,3.69,0s.29-3.7.54-5.56a28.9,28.9,0,0,1,1.36-5.5,27,27,0,0,1,5.59-9.31,2.46,2.46,0,0,0-.5-3.82c-13.62-6.63-27-13.84-38.2-24.2-5.37-5-9.93-10.7-14.89-16.06a64,64,0,0,0-8-7.45,33.8,33.8,0,0,0-9.52-5.07,35.31,35.31,0,0,0-24.28.06c-1.32.51-.78,2.63.59,2.15Z"/><path class="cls-4" d="M487,809.91a26,26,0,0,0-12-1.35,41.85,41.85,0,0,0-11.56,3.16c-7.83,3.27-14.62,8.44-20.66,14.34-12,11.74-21.13,26.38-34.63,36.57-7.1,5.36-15.1,9.27-24,10.2-1.86.19-3.4,2.58-1.69,4.08a107.81,107.81,0,0,0,30,18.42,94.28,94.28,0,0,0,16.84,5.12c5.9,1.21,12,1.54,17.81,3.08a27.26,27.26,0,0,1,8.1,3.5,61.7,61.7,0,0,1,6.71,5.48,43,43,0,0,0,14.33,8.84c10.58,3.7,22.1,3,33.12,2.88a99,99,0,0,1,16.77.91,81.72,81.72,0,0,1,16.72,5c10.69,4.22,21.76,9.47,33.57,8.39,21.25-1.93,34.51-21.81,54.63-26.68,6.31-1.53,12.85-1.67,19.25-2.68a45.77,45.77,0,0,0,36-28,44.57,44.57,0,0,0,2.15-7.06c.71-3.06-4-4.36-4.71-1.3a42.41,42.41,0,0,1-29,30.34c-6,1.69-12.21,1.9-18.33,2.72a53.16,53.16,0,0,0-16.15,4.64,96.11,96.11,0,0,0-13,7.8c-8,5.5-16.05,11.8-25.58,14.43-10.82,3-21.41-.65-31.43-4.68-5.32-2.13-10.61-4.39-16.13-6a70.71,70.71,0,0,0-16.69-2.52c-10.89-.45-22,.89-32.81-.91a37.09,37.09,0,0,1-14.46-5.37c-4.73-3.13-8.46-7.53-13.31-10.5-5.14-3.14-11.11-4.22-17-5a124.55,124.55,0,0,1-17.24-3.3,86.25,86.25,0,0,1-30.32-15.28q-3.33-2.67-6.42-5.63l-1.69,4.08c16.36-1,30-12.17,40.57-23.78,11.32-12.47,21.12-27,36.09-35.42a51.66,51.66,0,0,1,26-6.69.93.93,0,0,0,.24-1.81Z"/><path class="cls-4" d="M490.61,811.86a27.8,27.8,0,0,0,18.49,7.81,27.14,27.14,0,0,0,5.17-.36c1.87-.31,3.77-.95,5.62-.19a47.92,47.92,0,0,0,4.68,2.12,16.75,16.75,0,0,0,4.77.61c3.43,0,6.78-.84,10.17-1.25a22.54,22.54,0,0,1,5.06-.14,23,23,0,0,1,5.12,1.46,10.16,10.16,0,0,0,5.5.62c1.71-.37,3.07-1.48,4.52-2.37,3.2-2,7.1-1.63,10.68-2a37.29,37.29,0,0,0,11.82-3.72c1.88-.92,3.71-1.94,5.49-3,.87-.53,1.68-1.14,2.49-1.74a21.25,21.25,0,0,0,2.49-2.35c.79-.81,0-2.54-1.2-2a34.32,34.32,0,0,0-4.59,2.17c-1.62.94-3.18,2-4.81,2.92a35,35,0,0,1-9.84,3.92c-3.5.75-7.15.47-10.63,1.36a14.67,14.67,0,0,0-4.49,2.07c-1.5,1-2.77,1.79-4.64,1.42-1.71-.34-3.3-1.16-5-1.62a18.27,18.27,0,0,0-5-.58c-3.31.06-6.55.8-9.82,1.16s-6.28.31-9.17-1.22a12.62,12.62,0,0,0-4.68-1.76c-2-.18-3.92.47-5.87.78a24.21,24.21,0,0,1-20-6.29c-1.52-1.43-3.79.83-2.29,2.29Z"/><path class="cls-4" d="M485.7,819.06c-5.84,10.08-13.82,18.47-22.61,26-.94.81.28,2.37,1.33,1.72,10.17-6.34,18.2-15.77,24.15-26.09a1.66,1.66,0,0,0-2.87-1.67Z"/><path class="cls-4" d="M498.37,825a177.72,177.72,0,0,1-25.1,27.83c-.88.79.31,2.39,1.28,1.66A127.88,127.88,0,0,0,489,841.7a134.32,134.32,0,0,0,12.36-15c1.31-1.82-1.7-3.56-3-1.75Z"/><path class="cls-4" d="M506.52,830.6c1.49,7.57-1.47,15.15-5.17,21.64a130,130,0,0,1-13.43,18.88c-2.76,3.33-6.2,6.43-8.18,10.29-.37.73.27,1.92,1.2,1.55a11.53,11.53,0,0,0,2.57-1.25,30.68,30.68,0,0,0,2.45-1.94c1.54-1.38,3-2.79,4.46-4.28a93.16,93.16,0,0,0,8.1-9.85c4.88-6.72,9.46-14.07,11.59-22.17a29.56,29.56,0,0,0,.44-14c-.59-2.63-4.54-1.5-4,1.12Z"/><path class="cls-4" d="M521.22,827.34a73.71,73.71,0,0,1,.21,20,69.61,69.61,0,0,1-1.88,9.58c-.43,1.6-.91,3.19-1.35,4.79s-1.14,3.47-.51,5.06a1.43,1.43,0,0,0,2.06.84c1.68-.78,2.36-2.77,3-4.4a39.32,39.32,0,0,0,1.55-5,80.53,80.53,0,0,0,1.89-10.67,76.85,76.85,0,0,0-.72-21.36,2.24,2.24,0,0,0-2.72-1.54,2.27,2.27,0,0,0-1.54,2.72Z"/><path class="cls-4" d="M551.59,831.22l7.28,13.31a112.44,112.44,0,0,0,7.86,13,1.63,1.63,0,0,0,2,.65,1.59,1.59,0,0,0,.93-1.89,113.37,113.37,0,0,0-7-13.64l-7.7-13.35c-1.24-2.16-4.53-.24-3.34,2Z"/><path class="cls-4" d="M565.53,824.82c5.48,7.7,10.91,15.44,16.45,23.09l8.47,11.7a53.6,53.6,0,0,0,7.16,8.53c3.16,2.84,6.83,4.94,11.19,4.86a1.63,1.63,0,0,0,.43-3.18c-6.49-2.07-10.91-7.54-14.78-12.84q-8-11-16.09-21.87l-9.22-12.4a2.16,2.16,0,0,0-2.86-.75,2.1,2.1,0,0,0-.75,2.86Z"/><path class="cls-4" d="M580.26,824.39c2.35,3.3,4.8,6.54,7.35,9.69,1.23,1.52,2.45,3.06,3.79,4.48a15.08,15.08,0,0,0,4.7,3.91c1.07.47,2.71-.33,2.21-1.7a9.12,9.12,0,0,0-1.42-2.71c-.63-.79-1.28-1.57-1.92-2.35-1.24-1.52-2.55-3-3.81-4.48q-3.69-4.41-7.08-9.07a2.27,2.27,0,0,0-3-.79,2.23,2.23,0,0,0-.8,3Z"/><path class="cls-4" d="M594.72,815c4.76,7.63,8.21,16.06,14.09,23,5.22,6.11,12.71,10.78,21,10.35,2.6-.14,2.63-4,0-4.07-7.27-.11-13.59-4.92-18.09-10.27-5.36-6.37-8.74-14.2-13.37-21.08-1.49-2.21-5.05-.19-3.61,2.11Z"/><path class="cls-4" d="M483.92,920.64c-3.69,6.74-4.84,14.38-4.3,22a100.43,100.43,0,0,0,1.67,11.57c.37,1.93.81,3.84,1.21,5.76s.59,4,1.81,5.74a1.64,1.64,0,0,0,3-.82c.18-2-.57-3.66-1.14-5.49s-1-3.64-1.43-5.47A74,74,0,0,1,483,943.05c-.61-7.18-.1-14.58,3.13-21.13.72-1.45-1.4-2.73-2.19-1.28Z"/><path class="cls-4" d="M516,920.91c-5.31,4.64-7.41,12.14-7.66,19-.31,8.69,2,17.29,1.11,26a2.14,2.14,0,0,0,2.13,2.13,2.19,2.19,0,0,0,2.13-2.13c.83-8.36-1.47-16.52-1.83-24.84-.29-6.7.62-13.7,5.55-18.67.94-.94-.46-2.29-1.43-1.44Z"/><path class="cls-4" d="M542.57,926.25c-5.55,7-5.05,16.12-3.71,24.41A128.46,128.46,0,0,1,540.62,965c.12,2.46.13,4.92.16,7.38s-.25,5.24,1,7.35a1.4,1.4,0,0,0,2.39,0c1.23-2,1-4.82,1-7.1s-.16-4.6-.34-6.89a105.5,105.5,0,0,0-2.2-13.9c-1.68-8-3.37-17.06,1.91-24.07.85-1.13-1.08-2.63-2-1.52Z"/><path class="cls-4" d="M567.59,935.78c-1.57,11.42-1.34,23.11-.44,34.59.11,1.39.22,2.79.34,4.18s0,3.5,1.46,4.32a2.15,2.15,0,0,0,3.17-1.29c.43-1.39,0-3.09-.18-4.5q-.93-8.62-1.69-17.25a122.24,122.24,0,0,1,0-19.7c.12-1.49-2.43-1.87-2.64-.35Z"/><path class="cls-4" d="M481.83,964.21c-2.28-.6-4.11,1.45-4.6,3.51-.61,2.59,1.64,5,3.38,6.58,2.42,2.16,4.87,4.27,7.3,6.4,1.19,1,2.35,2.13,3.58,3.13a3.8,3.8,0,0,0,3.75.91c1.28-.44,2.31-1.66,3.36-2.47s2.37-1.74,3.59-2.55a58.73,58.73,0,0,1,7.66-4.31c2.46-1.16,5-2,7.53-3.09,2-.86,4-2.15,4.87-4.18,1.15-2.65,0-5.65-2-7.51-2.6-2.3-7.53-2.34-10.52-1a2.42,2.42,0,0,0-1.11,2.72,2.55,2.55,0,0,0,2.32,1.76c2,.26,4.09-.68,6.1.08,1.27.48,2.65,1.47,1.84,3s-2.5,2-3.85,2.49c-2,.74-4,1.45-5.88,2.3a70.4,70.4,0,0,0-11.51,6.41c-.9.63-1.78,1.29-2.66,1.94-.16.12-1,.68-.79.67s.18,0,0-.05a4.3,4.3,0,0,1-.69-.59l-5.8-4.94a71.48,71.48,0,0,1-5.65-4.91c-1-1-2.13-3.34-.19-4.06a1.16,1.16,0,0,0,0-2.22Z"/><path class="cls-4" d="M521.72,967.36c3.2,0,3.2-5,0-5s-3.19,5,0,5Z"/><path class="cls-4" d="M519.56,967c.19-.2.9-1.09,1.18-1.07l-.54-2c-1.56.89-1.52,3.07-1.81,4.66l-1,5.39-2,11-2,10.78-1,5.4c-.29,1.57-1.23,4-.17,5.43a1.15,1.15,0,0,0,1.55.4c1.53-.94,1.52-3.09,1.81-4.7l1-5.64,2-11,2-11,1-5.4c.31-1.7,1.1-3.63-.11-5.11a1.07,1.07,0,0,0-1.82.75c0,.3-.85,1-1,1.2-.62.6.35,1.56.94.94Z"/><path class="cls-4" d="M480,966.56a109.84,109.84,0,0,1-1,13.68c-.62,4.55-1.83,9-2.66,13.45a1.74,1.74,0,0,0,3.36.92,71.87,71.87,0,0,0,2.61-13.91,111.41,111.41,0,0,0,.8-14.14,1.57,1.57,0,0,0-3.13,0Z"/><path class="cls-4" d="M483,979.14l1.13,13.59c.17,2,.41,4.11.49,6.16a7,7,0,0,1-1.35,5c-2.3,2.75-6.05,3.52-9.45,3.72a30.36,30.36,0,0,1-5.64,0c-.67-.09-1.29-.32-1.95-.47a4.69,4.69,0,0,1-1.71-.58,1.24,1.24,0,0,0-1.85,1.07c0,3.68,3.66,4.64,6.7,4.63,3.62,0,7.52-.25,10.92-1.59a12.35,12.35,0,0,0,7.05-6.35c1.52-3.53.71-7.47.37-11.16l-1.31-14.08c-.2-2.16-3.58-2.19-3.4,0Z"/><path class="cls-4" d="M477.62,990.85a2.56,2.56,0,0,0-1.34,2.09,17.87,17.87,0,0,1-1,3.74,22.85,22.85,0,0,1-4.13,6.57,34.86,34.86,0,0,1-2.68,2.89c-1,.88-2.14,1.58-3.15,2.43a28.8,28.8,0,0,0-5.57,6.29c-5.69,8.59-6.57,20,.15,28.3,6.87,8.43,18.73,7.52,27.86,3.8a86.69,86.69,0,0,0,14.25-7.77,62.1,62.1,0,0,0,12.32-10.06,28.58,28.58,0,0,0,7.54-15.92c.63-5.85-1.09-12.38-5.68-16.3a2.36,2.36,0,0,0-3.34,3.34c3,3.53,5,7.59,4.72,12.32a23.39,23.39,0,0,1-5.44,12.86c-6.23,7.71-15.22,13.58-24.26,17.46a31.2,31.2,0,0,1-13.59,2.95,14.55,14.55,0,0,1-10.86-5.78c-5.58-7.4-3.61-17.57,1.74-24.49,1.67-2.17,3.47-4.23,5-6.51a34,34,0,0,1,2.73-3.15,35.42,35.42,0,0,0,2.45-3.15,21.26,21.26,0,0,0,3.33-7.27c.24-1.06.64-2.64.13-3.67-.08-.17-.91-1.17-1.21-1Z"/><path class="cls-4" d="M495.51,984.26A15.83,15.83,0,0,1,493,994.93c-1,1.54-2.42,2.78-3.56,4.24a11.37,11.37,0,0,0-2.36,5.74,70.72,70.72,0,0,0-.42,10.79,36.6,36.6,0,0,0,1.5,10.41,23,23,0,0,0,2.46,5.32,9,9,0,0,0,4.53,3.8c1.3.52,2.14-1.13,1.65-2.15-1.31-2.73-3.14-5.13-4-8a37,37,0,0,1-1.53-9.51,60.71,60.71,0,0,1,.23-10.18c.48-3.64,3.76-5.78,5.55-8.78a19.41,19.41,0,0,0,2.59-12.3,2.09,2.09,0,0,0-2-2,2.05,2.05,0,0,0-2,2Z"/><path class="cls-4" d="M478.33,992.58a33.49,33.49,0,0,0,14.22,13.63c2,1,4.54,2.08,6.8,1.56a1.4,1.4,0,0,0,.61-2.32c-1.42-1.35-3.56-2-5.3-2.84a29.89,29.89,0,0,1-5.15-3.16,28.86,28.86,0,0,1-7.68-8.92c-1.27-2.29-4.76-.25-3.5,2.05Z"/><path class="cls-4" d="M476.16,1001.48a8.15,8.15,0,0,0,.91,1.82c.41.57.83,1.12,1.26,1.66.69.88,1.42,1.72,2.17,2.54a43.56,43.56,0,0,0,5.37,4.88c1.76,1.37,3.65,2.81,5.92,3.12s4.34-.27,5.19-2.52a1.12,1.12,0,0,0-1.37-1.37,4.45,4.45,0,0,1-3.65-.43,20.07,20.07,0,0,1-4.29-2.92,42.29,42.29,0,0,1-4.25-4.11c-1.34-1.49-2.42-3.27-3.86-4.65a2.1,2.1,0,0,0-2.47-.32,2.05,2.05,0,0,0-.93,2.3Z"/><path class="cls-4" d="M541.61,974.93a26.35,26.35,0,0,0,.19-3.07,1.75,1.75,0,0,0-3.23-.88c-2.25,3.13-1.43,7-.49,10.48a30.6,30.6,0,0,1,1.11,5.83c.08,1.08,0,2.19.08,3.26a10.45,10.45,0,0,1,.08,3.74c-1,4.29-2.29,8.49-3.6,12.69-.65,2.07-1.47,4.07-2.18,6.12s-1.52,4.24-2.43,6.3c-1.71,3.88-3.94,7.5-5.51,11.45a31.43,31.43,0,0,0-1.75,5.42,15.83,15.83,0,0,0,.06,5.23c1,6.81,5.48,12.86,11.18,16.55,12.7,8.21,29.18,2.46,38.2-8.51,10.27-12.49,10-29.48,9.65-44.76-.1-4-.22-8.08-.39-12.12a85.47,85.47,0,0,1,.14-11.76c.35-3.43,1.57-7.38-1.05-10.23-1.9-2.06-5.29-2.73-8-2.49a23.14,23.14,0,0,0-4.51.92,1.84,1.84,0,0,0-.43,3.32,12.71,12.71,0,0,1,4.71,8.21l1.4-2.46a69.38,69.38,0,0,1-9.56.79,53.93,53.93,0,0,1-9.5-.55,57.83,57.83,0,0,1-9.19-2.24,10.32,10.32,0,0,1-3.09-1.37,12.72,12.72,0,0,1-.9-.93s-.38-.36-.12,0c0,0-.4.67,0-.08a2.5,2.5,0,1,0-4.31-2.52c-2.32,3.16.33,6.72,3.11,8.41a18.53,18.53,0,0,0,5,1.83,59.17,59.17,0,0,0,5.89,1.22,70.4,70.4,0,0,0,11.69.89,60,60,0,0,0,6-.39,55.49,55.49,0,0,0,6-1.18,2,2,0,0,0,1.4-2.47,18.05,18.05,0,0,0-6.74-10.28l-.43,3.32c2.39-.72,5.38-1.44,7.87-.91,3.71.79,2.7,4.61,2.26,7.4a123.67,123.67,0,0,0-1.46,22.08c.37,14.07,1.14,29.55-6.69,42-6.46,10.23-20.17,18.32-32.14,12.56a21.57,21.57,0,0,1-11.45-13,18.34,18.34,0,0,1-.29-9.1c.94-3.73,3.06-7.06,4.68-10.52,3.49-7.43,5.4-15.42,7.32-23.37.48-2,.8-3.9,1.13-5.88.17-1.09.74-2,1-3.09a13.1,13.1,0,0,0,.14-3c-.1-3.72-1.7-7.09-2-10.76a5.85,5.85,0,0,1,1.06-4.26l-3.23-.88a27,27,0,0,0,.48,3.45c.25,1.68,2.68,1.12,2.8-.38Z"/><path class="cls-4" d="M549.71,989.37c-.69-1.44-1.44-2.84-2.14-4.27s-1-3.08-1.67-4.57l-2,1.17.13.53.13-1c-.66.95-.24,1.95.16,2.9a30.69,30.69,0,0,1,1.13,3.17,40,40,0,0,1,1.4,6.41,69.55,69.55,0,0,1,.32,13.3c-.13,2.24-.33,4.48-.54,6.72a23.59,23.59,0,0,1-1.07,6.58c-1.42,3.59-5.46,5.48-8.23,7.87-3.25,2.8-6.91,8.64-3.24,12.47a1.84,1.84,0,0,0,3.1-1.28,9.43,9.43,0,0,1,.91-5,15,15,0,0,1,3.9-4.23c3.26-2.63,6.64-5.12,7.83-9.36a35.26,35.26,0,0,0,.84-6.87c.15-2.24.28-4.47.36-6.72a81,81,0,0,0-.45-13.4,45.19,45.19,0,0,0-1.53-7.29,35.62,35.62,0,0,0-1.33-3.62c-.5-1.19-1-2.24-2.44-2.32l.91.38-.3-.44c-.72-1.3-2.7-.14-2,1.17s1.74,2.3,2.35,3.61c.71,1.54,1.29,3.13,1.91,4.71a.84.84,0,1,0,1.54-.65Z"/><path class="cls-4" d="M565.13,983.59c1,7.32-2.83,14.51-5.29,21.17a42.21,42.21,0,0,0-2.7,11,30.13,30.13,0,0,0,1.84,12c.73,2.18,1.56,4.33,2.29,6.5s1.15,4.82,2.28,7c.69,1.31,3.11,1.14,3.36-.44a7.87,7.87,0,0,0-.06-3.17c-.23-1-.53-2.08-.84-3.1-.62-2-1.35-3.94-2-5.9-1.36-3.84-2.66-7.8-2.59-11.91.15-7.49,4-14.37,5.9-21.49a24.72,24.72,0,0,0,.3-12.26c-.41-1.63-2.66-.89-2.45.68Z"/><path class="cls-4" d="M540.65,999.21c5.84.64,11.76.78,17.61,1.13a32.39,32.39,0,0,1,6.67.67,5,5,0,0,1,1.94.88c.7.59,1.09,1.31,2,1.75a1.32,1.32,0,0,0,1.74-.45c1.58-2.11-.78-4.44-2.6-5.34a18.37,18.37,0,0,0-7.21-1.47c-6.68-.4-13.41-1.06-20.1-1.12-2.59,0-2.46,3.67,0,4Z"/><path class="cls-4" d="M539.09,1012.75l0,.12.57-2.14-.08.09,1-.57.27,0,1.11.3-.14-.07.79.78-.06-.14.22,1.69.06-.24-.56,1-.28.12a1.71,1.71,0,0,0,.74-.39,3.38,3.38,0,0,0,.72-.87l-1.13.87a30.85,30.85,0,0,1,12.35-1c4.15.49,8,2.27,12.06,2.86a1,1,0,0,0,1-1.7c-3.07-3.45-8.22-4.49-12.63-5a36,36,0,0,0-13.78,1.18l1.46.19a2.91,2.91,0,0,0-3.41.46,2.61,2.61,0,0,0-.54,3.22c1.37,2.33,5.34.83,4.51-1.87s-5.2-1.51-4.26,1.17Z"/><path class="cls-4" d="M534.77,1018.34a55.71,55.71,0,0,0,6.92,1.64c2.26.48,4.5,1.08,6.7,1.78s4.37,1.51,6.51,2.39,4.28,2.1,6.63,2.5a1.67,1.67,0,0,0,1.61-2.77c-1.75-1.82-4.1-2.77-6.38-3.73a64.13,64.13,0,0,0-7-2.49q-3.43-1-7-1.67a23.89,23.89,0,0,0-7.62-.57,1.49,1.49,0,0,0-.4,2.92Z"/><path class="cls-4" d="M521,727.89c-2.95,3.92-5.77,8-8.53,12A102.34,102.34,0,0,0,505,752.55a1.39,1.39,0,0,0,2.4,1.4c2.62-4.07,5.09-8.23,7.73-12.29a140.65,140.65,0,0,1,8.57-11.76,1.65,1.65,0,1,0-2.61-2Z"/><path class="cls-4" d="M579.71,732a9.43,9.43,0,0,0-4.45,7.18c-.51,3.76.76,7.45,1.23,11.14a25.39,25.39,0,0,1-5.37,18.76c-1.12,1.44.71,3.45,2.08,2.07a24.45,24.45,0,0,0,6.76-18c-.13-3.72-1.6-7.19-1.84-10.88-.19-2.84.45-6.12,3.17-7.58,1.77-.94.18-3.68-1.58-2.69Z"/><path class="cls-4" d="M512.7,738.17l-3,9.52c-.48,1.52-1,3-1.39,4.59a29,29,0,0,0-.93,5.05c-.11,1.22,1.66,1.56,2.22.6a45.54,45.54,0,0,0,3.72-9.25l3.1-9.48c.78-2.37-3-3.4-3.72-1Z"/><path class="cls-4" d="M564.44,565.34a34.11,34.11,0,0,0-19.14-12,46.84,46.84,0,0,0-23.66.49c-17.34,4.94-31.71,17.73-43.77,30.62-3.6,3.84-7.06,7.78-10.35,11.89-1.68,2.11-3.35,4.24-4.92,6.43a73.55,73.55,0,0,0-4.17,6.93c-.63,1.13,1,2.54,1.87,1.44q4.23-5.37,8.41-10.76t8.82-10.55a158.85,158.85,0,0,1,19.25-18.24c12.27-9.73,27.86-17.15,43.9-14.44,7.85,1.32,15.67,5,20.92,11.07a2,2,0,0,0,2.84,0,2.07,2.07,0,0,0,0-2.85Z"/><path class="cls-4" d="M559,577c-5.84-3.92-11.84-7.5-18.91-8.61s-14.23.88-20.74,3.87c-11.68,5.37-21.5,14-30.16,23.38a133.37,133.37,0,0,0-13.65,17c-.75,1.14.9,2.33,1.84,1.42,4.44-4.31,8.42-9,12.6-13.54a143.62,143.62,0,0,1,13.23-12.88,81.07,81.07,0,0,1,15-10.12c5.61-2.89,11.85-5.3,18.25-5.09A31.29,31.29,0,0,1,547,574.87c3.57,1.42,7.1,3,10.59,4.63A1.45,1.45,0,0,0,559,577Z"/><path class="cls-4" d="M551.53,588.46a22.15,22.15,0,0,0-7.76-4.11,26.93,26.93,0,0,0-8.49-.72,48.31,48.31,0,0,0-17,4.65,78.57,78.57,0,0,0-27.4,20.91,82.37,82.37,0,0,0-5.72,7.69c-1.73,2.65-3.64,5.71-4.22,8.87-.21,1.13,1.18,2.22,2.09,1.22a48.32,48.32,0,0,0,4.55-6.66,71.18,71.18,0,0,1,4.62-6.53,78.16,78.16,0,0,1,11.4-11.53c8.23-6.75,18.39-12.37,29-14.12,5.68-.94,12.11-.41,16.9,3,1.57,1.13,3.62-1.49,2.09-2.69Z"/><path class="cls-4" d="M591.94,577.66c8.54-4.25,18,1,25.67,4.76,2.06,1,4.15,2,6.3,2.83s4.05,1.4,6,2.25a15.29,15.29,0,0,1,8.16,7.56c1.89,4,2.34,8.44,3.28,12.67a1.18,1.18,0,0,0,2.3-.32c-.13-8.14-2.48-17.68-10.36-21.67-4.24-2.14-9-3.17-13.32-5.13s-9-4.47-13.79-5.57c-5-1.13-10.39-1.08-15,1.37-.82.44-.09,1.66.73,1.25Z"/><path class="cls-4" d="M568.28,587.57c9.74-2.9,19.92-1.23,29.52,1.4,4.5,1.24,9,2.63,13.38,4.14a56.4,56.4,0,0,1,10.73,4.72,30.92,30.92,0,0,1,9.2,8.52c.77,1.08,2.74.49,2.28-1-2.58-8.21-11.25-12.38-18.73-15.25-4.49-1.73-9.1-3.2-13.7-4.6A96.68,96.68,0,0,0,585,582a45,45,0,0,0-17.94,1.17c-2.83.8-1.61,5.25,1.21,4.4Z"/><path class="cls-4" d="M578.46,579.27c9.19-1.92,18.56-3.81,28-3.43a42,42,0,0,1,13.3,2.61,56.49,56.49,0,0,1,12.3,7c2.32,1.64,4.63,3.3,6.94,4.94,1,.75,2.13,1.45,3.13,2.25.62.48,1.9,1.33,2,2.18a1.64,1.64,0,0,0,1.37,1.56,1.58,1.58,0,0,0,1.74-1.14c.41-2.46-.75-4.33-2.65-5.8-2.17-1.68-4.45-3.22-6.68-4.82-4.23-3-8.41-6.21-13.06-8.59-9.27-4.76-20-5.4-30.15-4.11-5.85.75-11.62,2-17.37,3.24-2.65.59-1.52,4.62,1.12,4.06Z"/><path class="cls-4" d="M570,595.85c16-3.36,33.49,2.16,45.24,13.39A53.49,53.49,0,0,1,624,620a1.72,1.72,0,0,0,3-1.73c-8.14-15.83-25.47-26-43-27.39A51.16,51.16,0,0,0,568.89,592c-2.53.55-1.46,4.4,1.07,3.88Z"/><path class="cls-4" d="M633.44,592.69c1.48-1.22,3.19,1,4.1,1.92a52.55,52.55,0,0,1,4.21,5.9,133.52,133.52,0,0,0,9.72,12.84c1.2,1.33,3.25-.36,2.42-1.86a74.1,74.1,0,0,0-5-7.72c-1.84-2.55-3.66-5.13-5.56-7.64-1.61-2.11-3.06-4.31-5.51-5.52-2-1-4.32-1.29-6.08.34-1.19,1.09.53,2.73,1.74,1.74Z"/><path class="cls-4" d="M596.39,570.87c9.47,1.76,19.34,1.87,28.1,6.36A30.91,30.91,0,0,1,634,584.6a22.22,22.22,0,0,1,3.23,5,36.35,36.35,0,0,1,2,6.63c1.15,4.45,3.58,10.09,8.85,10.59,1.57.14,1.94-2.08.76-2.81a10.35,10.35,0,0,1-3.88-4,27.89,27.89,0,0,1-2.16-6.62,28.23,28.23,0,0,0-6-11.65c-5.91-6.83-14.6-10.49-23.29-12.19a72.48,72.48,0,0,0-16.88-1.33c-1.47.07-2,2.39-.37,2.69Z"/><path class="cls-4" d="M590.15,582.18c3.23,1.13,6.51,2.09,9.69,3.36a88.58,88.58,0,0,1,9.2,4.32,83.25,83.25,0,0,1,16.61,11.76c2.87,2.61,5.69,5.29,8.56,7.9,1,1,2.84-.27,2-1.56-3.85-6.1-9.25-10.81-15-15a84.69,84.69,0,0,0-18.69-10.29A54.9,54.9,0,0,0,591,579.2a1.55,1.55,0,0,0-.82,3Z"/><path class="cls-4" d="M590,588.43c7.25,4.07,14.64,8.17,20.8,13.84a46.68,46.68,0,0,1,7.33,8.54c2.09,3.14,3.38,6.63,5.1,10a1.3,1.3,0,0,0,2.41-.65c0-4.08-1.91-7.93-4-11.33a43.74,43.74,0,0,0-7.71-9c-6.54-6-14.34-10.26-22.06-14.47-2.05-1.12-3.87,2-1.83,3.14Z"/><path class="cls-4" d="M561.43,590.29a30.32,30.32,0,0,0-18.38-8.42c-6.39-.67-14.37.5-18.88,5.47a1.56,1.56,0,0,0,1.5,2.58c2.8-.88,5.57-1.93,8.44-2.56a27.52,27.52,0,0,1,8.59-.41,24.75,24.75,0,0,1,15,7.1c2.41,2.44,6.19-1.34,3.76-3.76Z"/><path class="cls-4" d="M559.61,576.07c-12.72-10.32-31.52-10.3-44.89-1.18a27.48,27.48,0,0,0-8.92,9.49,1.59,1.59,0,0,0,2.48,1.92c4.91-4.55,10.29-8.8,16.7-11a35.89,35.89,0,0,1,20.73-.68,42.85,42.85,0,0,1,11.23,4.9c2.08,1.26,4.65-1.86,2.67-3.47Z"/><path class="cls-4" d="M557,561.48c-6.75-2.93-13.5-5.73-20.93-6.21-6.93-.45-13.46,1.76-19.44,5.11a169.93,169.93,0,0,0-15.75,10.39,99.5,99.5,0,0,0-13.93,11.64,46.16,46.16,0,0,0-10.67,16.9c-.66,1.88,2.42,3.22,3.24,1.37,4.59-10.29,13.26-18,22.21-24.53,4.74-3.44,9.6-6.78,14.6-9.84,5.18-3.17,10.78-5.84,17-6.08,7.57-.29,15.1,2.48,22.16,4.93,2.12.74,3.65-2.76,1.55-3.68Z"/><path class="cls-4" d="M572.89,564.53a46.13,46.13,0,0,0-44.21-19.59c-9.45,1.4-18.52,5.94-26.69,10.73a125.21,125.21,0,0,0-21.6,16.08,101.36,101.36,0,0,0-10.29,11,59.28,59.28,0,0,0-8.33,12.92c-.51,1.18.91,2.62,1.93,1.49,2.86-3.15,5.44-6.55,8.2-9.78s5.75-6.37,8.8-9.38a113,113,0,0,1,20-15.77c7.55-4.66,15.77-8.88,24.39-11.07a40.69,40.69,0,0,1,43.16,16,2.73,2.73,0,0,0,3.66,1,2.7,2.7,0,0,0,1-3.66Z"/><path class="cls-4" d="M496.42,579.06c-8,3.1-13.6,9.62-18.22,16.62a187.72,187.72,0,0,0-14.53,25.1,59,59,0,0,0-5.05,15.61.88.88,0,0,0,1.69.47,174.37,174.37,0,0,1,12.12-25.49c2.3-4,4.67-7.87,7-11.79a91.51,91.51,0,0,1,6.88-10.2c2.94-3.63,6.17-6.83,10.53-8.66,1-.42.59-2.06-.46-1.66Z"/><path class="cls-4" d="M501.2,591.06a81.52,81.52,0,0,0-14.32,18c-3.8,6.59-7.2,14-7.44,21.71,0,1.28,1.7,1.36,2.11.28,2.64-6.94,4.46-14.1,7.85-20.76a71.7,71.7,0,0,1,5.58-9.45,68.29,68.29,0,0,1,7.46-8.57c.81-.8-.43-2-1.24-1.24Z"/><path class="cls-4" d="M539,591c-6.16-6.1-14.91-.28-20.2,3.94a71.77,71.77,0,0,0-16,17.66A54.4,54.4,0,0,0,497,624.63c-.48,1.44,1.67,2.29,2.43,1a118,118,0,0,1,12.16-17.27,78,78,0,0,1,7.59-7.62,44.89,44.89,0,0,1,8.07-5.92c2.38-1.28,6.17-2.78,8.51-.67C537.9,596.11,541,593,539,591Z"/><path class="cls-4" d="M554.28,582.56A22.45,22.45,0,0,0,539,591.9a21.72,21.72,0,0,0-3.68,8.06c-.62,2.83-.76,6.46.92,9a1.29,1.29,0,0,0,2.33-.31c.53-2.4.55-4.89,1.16-7.29a20.89,20.89,0,0,1,3.13-6.81,17.7,17.7,0,0,1,12.06-7.48c2.53-.35,2-4.83-.6-4.49Z"/><path class="cls-4" d="M558.18,595.24c-1.43,4.17-4.85,7-7.45,10.41-2.35,3.08-4.93,7.91-2.46,11.59.5.74,1.84.53,1.79-.48a16.46,16.46,0,0,1,.47-5.68,18.55,18.55,0,0,1,2.93-5.45c2.34-3.19,5.15-6.1,6.42-9.92.36-1.08-1.33-1.53-1.7-.47Z"/><path class="cls-4" d="M575.28,596.29a42.17,42.17,0,0,1,12.48,10.34c3.42,4.17,5.88,9.1,8.31,13.89.62,1.21,2.16.28,2-.84-.8-5.88-3.81-11-7.51-15.59A45.13,45.13,0,0,0,577.2,593c-2.15-1.17-4.06,2.1-1.92,3.27Z"/><path class="cls-4" d="M587.93,596.41a39.9,39.9,0,0,1,13.64,21.91c.67,2.86.69,5.9,1.7,8.66a1.24,1.24,0,0,0,2.37,0c1-3,.21-6.41-.57-9.42a41.5,41.5,0,0,0-15.67-23c-1.09-.82-2.55,1-1.47,1.9Z"/><path class="cls-4" d="M600.11,587.61a155.79,155.79,0,0,1,12.19,14.7,49.17,49.17,0,0,1,4.77,7.35,11.92,11.92,0,0,1,1,7.66c-.14.78.7,1.71,1.5,1.15a5,5,0,0,0,2.24-3.59,9.88,9.88,0,0,0-.43-4.38c-1-3.26-3-6-5.06-8.67a174.21,174.21,0,0,0-14-16.46c-1.42-1.47-3.63.75-2.24,2.24Z"/><path class="cls-4" d="M609.9,585.16c6.86,5.63,13.81,11.66,18.84,19A43.77,43.77,0,0,1,634.49,616a34.28,34.28,0,0,1,1.29,6.18c.25,2.18.08,4.69.85,6.76a1.31,1.31,0,0,0,2.36.3c1-1.62,1-3.52.94-5.36a26.65,26.65,0,0,0-.71-5.4,41.53,41.53,0,0,0-3.84-10.34A61.33,61.33,0,0,0,621.32,591a116.43,116.43,0,0,0-10-7.64c-1-.73-2.37,1-1.38,1.78Z"/><path class="cls-4" d="M629.88,592.26c2.64-1.91,5.43.6,7,2.65,2.13,2.73,4.1,5.61,6.05,8.47s3.83,5.75,5.66,8.69a66,66,0,0,0,6,8.88,1.34,1.34,0,0,0,2.22-1.3c-1.26-3.86-3.52-7.31-5.7-10.71s-4.41-6.7-6.74-10c-3.4-4.77-9.53-14.66-16.49-9.24-1.42,1.11.47,3.58,2,2.52Z"/><path class="cls-4" d="M616.6,578.84c4.54.75,9.27,1.47,13.44,3.52a31,31,0,0,1,9.73,8.07,127.89,127.89,0,0,1,8.11,11.12c2.86,4.22,5.34,8.72,8.69,12.57a1.4,1.4,0,0,0,2.32-1.35,30.63,30.63,0,0,0-2.65-5.54q-1.59-2.55-3.22-5.07-3.33-5.1-6.93-10c-4.27-5.8-9.1-11.24-15.91-14a55.73,55.73,0,0,0-12.55-3,2,2,0,0,0-2.38,1.35,1.94,1.94,0,0,0,1.35,2.38Z"/><path class="cls-4" d="M567.69,577.52c-2.7-3.74-6.63-5.78-10.94-7.18-4.79-1.55-9.74-2.73-14.62-4-5.23-1.3-10.59-2.87-16-3.14a23.86,23.86,0,0,0-13.68,3.8,41.71,41.71,0,0,0-11.11,10.41c-1.09,1.44,1,3.5,2.48,2.48,6.39-4.52,12.23-10.9,20.62-11,4.77-.07,9.46,1.31,14.06,2.43s9.49,2.37,14.2,3.7c3.55,1,7.83,2.17,10.1,5.32a2.91,2.91,0,0,0,3.87,1,2.86,2.86,0,0,0,1-3.88Z"/><path class="cls-4" d="M565.2,582.81c-7.71-3.45-16-4.64-24.34-5-8.07-.34-17-1-24.45,2.79a16.41,16.41,0,0,0-8.14,8.74,1.9,1.9,0,0,0,1.11,2.26,2,2,0,0,0,2.39-.78c5.28-7.3,15-7.69,23.22-7.61,9.23.1,18.94.47,27.56,4.12a2.7,2.7,0,0,0,3.58-.94,2.63,2.63,0,0,0-.93-3.58Z"/><path class="cls-4" d="M530.68,597.69c-9.55-2.86-19.34,1.64-27.57,6.2-6.86,3.81-13.92,8.17-18.88,14.38a26.23,26.23,0,0,0-5.63,12c-.42,2.45,3.13,3.54,3.81,1,1.81-6.7,6.73-12.11,12.18-16.2a86.11,86.11,0,0,1,9.43-6,90.66,90.66,0,0,1,11.22-5.66c4.57-1.79,9.44-2.82,14.27-1.49,2.75.76,3.89-3.44,1.17-4.25Z"/><path class="cls-4" d="M471.93,597.45c-5.74,7.67-10.94,15.68-14.69,24.51-.51,1.19,1.08,2.22,1.79,1,4.88-8.18,9.7-16.42,15.29-24.15,1.06-1.45-1.34-2.8-2.39-1.4Z"/><path class="cls-4" d="M578.89,566.15c.37-2,2.05-3,3.74-3.79a39.59,39.59,0,0,1,7-2.35,65.27,65.27,0,0,1,15.61-2.15c10.92-.22,21.71,1.85,32.13,5,6,1.8,11.86,4.25,17.93,5.86,1.81.49,3.08-2.22,1.31-3.1a106.24,106.24,0,0,0-16.83-6.17,138.55,138.55,0,0,0-17.41-4.14c-11.25-1.85-23-2-34.06.81-4.92,1.24-12.39,3-13.6,8.9-.57,2.75,3.69,3.92,4.22,1.16Z"/><path class="cls-4" d="M582.49,572.77c2.21-2.18,5.65-2.55,8.58-2.94a75,75,0,0,1,9-.61,77.81,77.81,0,0,1,17.67,1.89,81.15,81.15,0,0,1,32.41,15.29,110.84,110.84,0,0,1,14.74,14.32c1,1.14,2.88-.33,2.09-1.61-6.73-10.88-17.31-19.15-28.65-24.86A84.75,84.75,0,0,0,601,565.11a77.42,77.42,0,0,0-10.65.68c-3.87.51-7.89,1.18-10.79,4-1.93,1.89,1,4.85,3,3Z"/><path class="cls-4" d="M626.42,562.38c-1.3.45-2.51.78-3.8,0-2.16-1.22-4.06,2.32-1.89,3.23,8.47,3.59,17.6,4.77,26.42,7.2s16.81,6.5,21.42,14.63c2.67,4.7,3.71,10,4.68,15.25.28,1.53,2.34,1,2.5-.34,1.15-9.74-4.25-20.16-11.87-26s-17.16-7.65-26.25-9.66a89.14,89.14,0,0,1-15.46-4.49l1.31,2.3c.3-1.62.54-1.49,1.6-1.76a12.87,12.87,0,0,1,1.37-.3c.06,0,0-.12,0-.1Z"/><path class="cls-4" d="M585.8,557.25a17.53,17.53,0,0,1,2.15-1.49,11.4,11.4,0,0,1,2.68-.89c1.72-.47,3.34-1.33,5-1.89a42.43,42.43,0,0,1,10.59-2c8-.53,15.89,1.06,23.51,3.38,4.61,1.4,9.18,2.91,13.77,4.35,1.68.53,2.88-2.16,1.22-2.89-15.12-6.65-32.79-12.38-49.2-7a23.85,23.85,0,0,0-5.95,2.64,29.66,29.66,0,0,0-2.33,2.15c-.85.74-1.81,1.37-2.69,2.09s.31,2.25,1.21,1.56Z"/><path class="cls-4" d="M583.31,556.7c-.66-.7-1.06-1.42-1.65-2.16a24.43,24.43,0,0,0-1.89-1.92q-1.85-1.79-3.75-3.52c-2.66-2.41-5.51-4.63-8.37-6.81s-5.53-4.08-8.42-5.94-6.12-4.28-9.76-4.68a1.84,1.84,0,0,0-1.58,2.76c2.05,2.83,5.36,4.46,8.21,6.39s5.65,3.93,8.39,6,5.25,4.17,7.84,6.3c1.27,1,2.52,2.11,3.76,3.19a24.64,24.64,0,0,0,2.2,1.89,18.3,18.3,0,0,1,2.06,1.46,2.09,2.09,0,0,0,3-2.95Z"/><path class="cls-4" d="M549.53,539.92c-12.86-9.79-30.43-4.86-43.58,1.64a95.57,95.57,0,0,0-11.63,7.13,1.6,1.6,0,0,0,1.62,2.76c6.87-3,13.56-6.61,20.65-9.11a46.88,46.88,0,0,1,20.85-2.74,41.88,41.88,0,0,1,11.09,2.67c1.47.61,2-1.56,1-2.35Z"/><path class="cls-4" d="M505,547c-1.91.07-3.75-.58-5.66-.52a26.57,26.57,0,0,0-5.67.82,50,50,0,0,0-10.42,4c-6.68,3.41-12.9,8.16-17,14.53-.84,1.32,1,2.58,2.09,1.61,5.26-4.72,10.7-9.25,17-12.53a69.66,69.66,0,0,1,9.68-4.09q2.43-.84,4.85-1.71c1.72-.61,3.28-1.72,5.12-2a.05.05,0,0,0,0-.1Z"/><path class="cls-4" d="M480.66,559.81c-9.85.62-19.44,6-23.73,15.09a1.72,1.72,0,0,0,3,1.74c4.85-6.53,12.55-11.45,20.76-11.94a2.51,2.51,0,0,0,2.44-2.45,2.47,2.47,0,0,0-2.44-2.44Z"/><path class="cls-4" d="M471.69,570.77c-8.64,2.5-16,9.05-18.63,17.74-.56,1.82,2.31,3.11,3.14,1.32,3.26-7,9.22-12.79,16.62-15,2.63-.77,1.51-4.87-1.13-4.11Z"/><path class="cls-4" d="M430.47,645.42l-.46.77.54-.41c-2.17.74-2.93,3.8-3.74,5.75a53.12,53.12,0,0,0-2.4,7.46,49.13,49.13,0,0,0-1.22,15.38,1.41,1.41,0,0,0,2.81,0A81.35,81.35,0,0,1,428,660a71.2,71.2,0,0,1,2-6.89c.38-1.13.78-2.25,1.22-3.36a15.76,15.76,0,0,0,.63-1.66c.18-.62-.09-1.21.16-1.79.41-1-.88-1.8-1.45-.85Z"/><path class="cls-4" d="M436,649c-4.1,8.21-5.58,18.66-1.33,27.09.76,1.5,2.72.36,2.5-1-1.25-8.16-1.32-16.37,2.47-23.91,1.21-2.43-2.43-4.56-3.64-2.13Z"/><path class="cls-4" d="M442.15,663.5q-.61,6.81-1.14,13.63c-.34,4.41-1.07,9.18.13,13.49a1.32,1.32,0,0,0,2.52,0c1.2-4.31.6-9.06.52-13.49s0-9.09.12-13.63c.05-1.4-2-1.36-2.15,0Z"/><path class="cls-4" d="M429.27,677.39c-2.1,6.08-.52,13.72,4.68,17.78a1,1,0,0,0,1.35-1.35c-3.79-4.28-5.52-10.26-3.66-15.78.51-1.5-1.86-2.14-2.37-.65Z"/><path class="cls-4" d="M670.68,599.92l-1.89-2.25c-2-2.37-5.51,1.09-3.42,3.42.67.75,1.38,1.38,2,2.18l1.86,2.36c1.14,1.45,2.21,3,3.28,4.46,2.29,3.22,4.48,6.5,6.49,9.91a81.23,81.23,0,0,1,9.05,21.2c.34,1.39,2.76,1.14,2.57-.35a52.6,52.6,0,0,0-2.73-11.48,71.59,71.59,0,0,0-5.3-11c-2-3.48-4.22-6.84-6.53-10.13-1.16-1.65-2.35-3.27-3.51-4.92l-1.73-2.46c-.64-.89-1.1-1.81-1.68-2.72l-3.79,2.93,2,2.09c2.11,2.15,5.14-1,3.26-3.26Z"/><path class="cls-4" d="M680.58,606.33c1.92-.29,3.08,1.87,3.5,3.4a48,48,0,0,1,.93,5.72c.64,4.5,1.31,9,2,13.48,1.26,8.89,2.36,17.79,4.08,26.6.3,1.59,3,1.24,2.84-.38-.69-10-2.31-19.94-3.89-29.86-.77-4.81-1.53-9.63-2.47-14.42-.74-3.82-3.11-8.13-7.69-7.25-1.8.35-1,3,.75,2.71Z"/><path class="cls-4" d="M688.84,647.5c5,1.49,9,6.1,10.82,10.91,2.44,6.47,1.7,13.38,2.21,20.14.1,1.33,2.22,1.84,2.49.34,1.33-7.32,1.33-15.41-1.69-22.34a22.37,22.37,0,0,0-5.23-7.49,14.94,14.94,0,0,0-8-3.9,1.21,1.21,0,0,0-.64,2.34Z"/><path class="cls-4" d="M673.65,659.74l-.19,0,.86.5.1.12.27,1a.16.16,0,0,0,0,.19l-.71.71c-.84-.16-1.08-.09-.73.21l.49.69.72,1c.54.82,1.07,1.66,1.58,2.5,1,1.69,2,3.42,2.84,5.19a64.8,64.8,0,0,1,4.07,10.57c2.18,7.46,2.83,15.18,3.29,22.91.07,1.12,1.83,1.51,2.08.28,1.52-7.7.63-15.66-1.38-23.2A69.57,69.57,0,0,0,677,660.92c-1.14-1.65-3.33-3.81-5.36-2-1.39,1.26-1.28,4.26.94,4.57a2,2,0,0,0,2.4-1.37,2,2,0,0,0-1.37-2.4Z"/><path class="cls-4" d="M683.12,647.43c0,2.35,1.63,4.45,2.59,6.53s1.83,4.11,2.66,6.2a130.83,130.83,0,0,1,4.3,12.8c2.47,8.82,3.6,17.87,5.31,26.84.25,1.33,2.19.93,2.26-.31.54-9.34-1.51-18.78-4.1-27.72a128.43,128.43,0,0,0-4.59-13.18q-1.32-3.24-2.8-6.4c-1-2.1-1.7-4.54-3.66-5.89a1.32,1.32,0,0,0-2,1.13Z"/><path class="cls-4" d="M695.78,651.41q1.86,11.63,2.83,23.37c.64,7.79.54,15.69,1.84,23.4.23,1.33,2.53,1.37,2.72,0,1.08-7.9.18-16-.6-23.89s-1.87-15.95-3.25-23.85c-.4-2.34-3.9-1.33-3.54,1Z"/><path class="cls-4" d="M675.66,671.44c.63-.18.12-.09.13-.09a1.58,1.58,0,0,1,.43.34,4.65,4.65,0,0,1,.91,1.43,36,36,0,0,1,1.38,4.46q1.47,5.07,2.71,10.2c1.66,6.83,2.92,13.73,4.67,20.53.39,1.56,2.93,1.27,2.83-.38-.45-8.09-2.22-16-4.22-23.79-1-3.84-2-7.71-3.22-11.47-1-2.86-3.24-6.15-6.7-5.15-2.51.73-1.44,4.65,1.08,3.92Z"/><path class="cls-4" d="M668.27,679.84a170.31,170.31,0,0,1,6,26.29C675.61,715,676.1,724,677,733a1.13,1.13,0,0,0,2.26,0c1.11-9.17.38-18.32-1-27.43a168.83,168.83,0,0,0-6.38-26.69c-.73-2.23-4.26-1.29-3.54,1Z"/><path class="cls-4" d="M664.47,677.75q.49,11.73.11,23.47c-.26,7.8-.82,15.6-1.22,23.4-.09,1.91,3,2.39,3.38.46,2.64-15.56,2.77-31.59,2.11-47.33-.12-2.81-4.49-2.82-4.38,0Z"/><path class="cls-4" d="M546.79,587.41c-3-.58-5.29,1.11-7,3.35a75.9,75.9,0,0,0-5,7.21,63.83,63.83,0,0,0-4,7.41c-1.22,2.75-2.5,5.49-2.62,8.53-.06,1.66,2,1.88,2.84.77a37.66,37.66,0,0,0,3.37-6.45c1.08-2.2,2.18-4.39,3.39-6.52s2.46-4.07,3.82-6a28.46,28.46,0,0,1,2.05-2.72c.45-.5,1.28-1.52,2-1.38a2.23,2.23,0,0,0,2.67-1.51,2.19,2.19,0,0,0-1.51-2.67Z"/><path class="cls-4" d="M523.62,596.26a56.72,56.72,0,0,0-16,10.64,56.06,56.06,0,0,0-11.3,15.63A39.39,39.39,0,0,0,493,633.05a1.35,1.35,0,0,0,2.6.72c2.74-7.26,6.21-14.51,11.09-20.58s10.95-11.7,17.86-15.28c1.1-.57.13-2.17-1-1.65Z"/><path class="cls-4" d="M494.6,605.43a54.33,54.33,0,0,0-16.15,17.18c-3.88,6.58-7.23,14.69-6.9,22.46a1.67,1.67,0,0,0,3.26.44c.95-3.58,1.7-7.21,2.87-10.73a51.19,51.19,0,0,1,4.45-9.8,52.59,52.59,0,0,1,14.5-16.07c2.07-1.49.13-4.95-2-3.48Z"/><path class="cls-4" d="M489.92,600.65c-7,.93-10.74,8.58-14,14q-3.09,5.21-5.81,10.61c-.91,1.8-1.8,3.61-2.58,5.47a15.73,15.73,0,0,0-1.71,5.88,1.26,1.26,0,0,0,2.13.89,16.53,16.53,0,0,0,2.69-4.68c.76-1.7,1.5-3.42,2.26-5.12q2.34-5.22,5-10.27,2.52-4.75,5.33-9.35c1.61-2.65,3.6-5.39,6.82-6,.78-.16.62-1.53-.19-1.42Z"/><path class="cls-4" d="M625.51,591.27c6,2.63,10.52,7.47,13.69,13.09,3.7,6.54,5.33,13.94,7.79,21,.43,1.21,2.62,1.13,2.42-.33-1.88-14.07-8.31-30.47-22.35-36.4a1.59,1.59,0,0,0-2.11.55,1.55,1.55,0,0,0,.56,2.11Z"/><path class="cls-4" d="M631.11,584.3a62.4,62.4,0,0,1,19.37,13c5.65,5.59,9.62,12.21,13.72,18.94a1.29,1.29,0,0,0,2.35-1c-2.24-7.85-7.54-14.79-13.25-20.5A64.86,64.86,0,0,0,633.06,581a2,2,0,0,0-2.64.69,1.94,1.94,0,0,0,.69,2.65Z"/><path class="cls-4" d="M568,551.92a29.73,29.73,0,0,0-11.2-7.64,28.61,28.61,0,0,0-6.23-1.64,16.62,16.62,0,0,0-3.45-.27,10.77,10.77,0,0,0-3.64,1c-1.41.61-.85,2.69.4,3.07a41.19,41.19,0,0,0,5.7,1.08,28.15,28.15,0,0,1,5.72,1.56,26.22,26.22,0,0,1,9.33,6.22c2.14,2.21,5.43-1.11,3.37-3.37Z"/><path class="cls-4" d="M563.61,593.41c-.74-.21-1.36-.63-2.07-.88a11.21,11.21,0,0,0-2.38-.35,20.57,20.57,0,0,0-4.77.09,44.32,44.32,0,0,0-9.51,2.18,49.55,49.55,0,0,0-17,10,30.75,30.75,0,0,0-6.85,8.66,1.58,1.58,0,0,0,2.48,1.91c2.84-2.77,5.63-5.62,8.7-8.15a53.15,53.15,0,0,1,9.5-6.17,56.42,56.42,0,0,1,10.6-4.06c1.85-.53,3.74-.82,5.6-1.32l2.92-.76c1-.26,1.8-.85,2.8-1.1a.05.05,0,0,0,0-.1Z"/><path class="cls-4" d="M560.13,587.35A43.49,43.49,0,0,0,537,616.2a1.84,1.84,0,0,0,3.54,1A47.56,47.56,0,0,1,562,590.49c2-1.16.25-4.17-1.83-3.14Z"/><path class="cls-4" d="M541.36,586.87a77.05,77.05,0,0,0-16.56,17.49,58,58,0,0,0-9.58,21.88,1.6,1.6,0,0,0,3.09.85,105.71,105.71,0,0,1,10.11-20.38,72.51,72.51,0,0,1,15.42-16.62c1.81-1.43-.64-4.65-2.48-3.22Z"/><path class="cls-4" d="M520.36,597.71c-9.38,10.29-16.93,24-17.27,38.16a1.14,1.14,0,0,0,2.23.3,120.36,120.36,0,0,1,6-19.4,67.71,67.71,0,0,1,10.79-17.29c1-1.21-.68-3-1.77-1.77Z"/><path class="cls-4" d="M561.91,592.59a31.39,31.39,0,0,1,21.85,9.4c5.73,5.88,8.69,14,9.27,22.14a1.25,1.25,0,0,0,2.5,0c1.37-14.49-8.69-27.88-21.91-32.93A34.72,34.72,0,0,0,561.91,589c-2.34-.05-2.34,3.59,0,3.63Z"/><path class="cls-4" d="M555.43,589.18a43.92,43.92,0,0,1,17.14,15.19,40.7,40.7,0,0,1,4.84,10.45,108.47,108.47,0,0,1,2.32,11.31,1.2,1.2,0,0,0,2.3,0c1.18-6.48-.88-13.19-3.75-19a43.16,43.16,0,0,0-12.17-14.95,34.65,34.65,0,0,0-9.71-5.31,1.26,1.26,0,0,0-1,2.29Z"/><path class="cls-4" d="M573.92,592.26c5.85,2.25,10.06,7.58,12.33,13.28a47.13,47.13,0,0,1,2.7,10.79c.55,3.86.55,7.77,1.49,11.56.4,1.62,2.51,1.07,2.68-.36a46.68,46.68,0,0,0-.73-12.86,42.62,42.62,0,0,0-3.34-11.32c-2.89-6.2-7.82-11.55-14.37-13.84-1.75-.61-2.45,2.11-.76,2.75Z"/><path class="cls-4" d="M585,590.16a45.67,45.67,0,0,1,14.61,35.48c-.08,1.79-.2,3.61-.45,5.39-.27,1.93-.45,3.78-.57,5.72a1.14,1.14,0,0,0,2.11.57,15.8,15.8,0,0,0,1.91-4.77,38.3,38.3,0,0,0,.77-5.44,47.93,47.93,0,0,0-.63-10.63A48.74,48.74,0,0,0,595,597.13a44.38,44.38,0,0,0-8.07-8.91c-1.33-1.12-3.25.74-1.93,1.94Z"/><path class="cls-4" d="M598.77,592.66c6.44,3.84,10.37,10.64,12.16,17.76a54.36,54.36,0,0,1,1.49,13.21c0,4.66-.45,9.28-.08,13.93.09,1.24,2,1.68,2.3.31a58.16,58.16,0,0,0,1.23-14.72,51.56,51.56,0,0,0-2-14.13c-2.33-7.48-6.91-14.5-13.92-18.32a1.14,1.14,0,0,0-1.15,2Z"/><path class="cls-4" d="M604.14,598.94a34.23,34.23,0,0,1,14.77,16.15,40.22,40.22,0,0,1,2.91,21.6c-.17,1.39,1.95,1.53,2.34.32,3.87-11.94-1.23-25.82-10.19-34.18a35.46,35.46,0,0,0-8.6-6c-1.39-.68-2.61,1.35-1.23,2.09Z"/><path class="cls-4" d="M600.19,585.63c15.42,2.82,28,13.16,36.79,25.76a1.05,1.05,0,0,0,1.82-1.06c-7.11-14.59-22.54-23.7-38.14-26.43-1.13-.2-1.61,1.53-.47,1.73Z"/><path class="cls-4" d="M575,580.05c7.26-3,14.85-4.52,22.53-6.07,1.79-.36,1.28-3-.42-3.07-7.94-.34-16,1.91-23.27,4.92a2.26,2.26,0,0,0-1.53,2.69,2.21,2.21,0,0,0,2.69,1.53Z"/><path class="cls-4" d="M578.22,559.48c-6.8-3.54-12.49-8.76-19-12.76a37.71,37.71,0,0,0-10.35-4.67c-3.63-.93-7.68-1.41-11.19.18-1.52.68-.52,2.65.76,2.8,3.45.4,6.72.55,10,1.7a42.46,42.46,0,0,1,9.45,4.8c6,4,11.38,8.86,17.76,12.27,2.84,1.51,5.38-2.84,2.52-4.32Z"/><path class="cls-4" d="M572.52,568.41c-11.34-4.54-23.43-8-35.71-8.25-2,0-2.57,3.22-.49,3.65,11.84,2.41,23.62,4.86,34.92,9.27a2.43,2.43,0,0,0,3-1.69,2.48,2.48,0,0,0-1.69-3Z"/><path class="cls-4" d="M525.29,557.17a43,43,0,0,0-19.38.11,34.71,34.71,0,0,0-16.82,10A1.33,1.33,0,0,0,491,569.1c9-7.67,22.08-12.61,33.94-10.57.88.15,1.27-1.17.38-1.36Z"/><text class="cls-5" transform="matrix(0.76, -0.65, 0.65, 0.76, 367.97, 573.35)">T</text><text class="cls-5" transform="translate(412.49 538.34) rotate(-29.66)">h</text><text class="cls-5" transform="translate(459.63 513.86) rotate(-18.92)">a</text><text class="cls-5" transform="translate(512.1 498.16) rotate(-8.16)">n</text><text class="cls-5" transform="matrix(1, 0.04, -0.04, 1, 566.15, 492.67)">k</text><text class="cls-5" transform="matrix(0.98, 0.2, -0.2, 0.98, 616.52, 496.65)"> </text><text class="cls-5" transform="translate(660.2 507.27) rotate(20.91)">y</text><text class="cls-5" transform="matrix(0.86, 0.52, -0.52, 0.86, 705.99, 526.78)">o</text><text class="cls-5" transform="translate(750.6 556.39) rotate(41.38)">u</text><path d="M270.66,449.6,225.38,428c-2.26-1.07-4.24,2.27-2,3.38l45.13,21.9c2.44,1.18,4.58-2.48,2.13-3.65Z"/><path d="M352.67,445.34a569.93,569.93,0,0,1-47.8-66.77q-6.12-10-11.93-20.15c-1.1-1.93-4-.22-3,1.73a502,502,0,0,0,45.48,69.49q7.17,9.25,14.74,18.19c1.46,1.73,3.92-.76,2.48-2.49Z"/><path d="M398.09,399.18c-6.08-27-12.06-54-18.33-80.9l-5.32-22.86c-.35-1.5-2.63-.86-2.3.63q9,40.5,18.2,80.93l5.23,22.89c.37,1.65,2.89.95,2.52-.69Z"/><path d="M468.94,411.25c1.79-26.5,4.69-52.87,8.26-79.18q1.51-11.28,3.29-22.52a1.76,1.76,0,0,0-1.18-2.1,1.71,1.71,0,0,0-2.09,1.19q-6.71,39.75-10,79.92-.94,11.34-1.65,22.69c-.13,2.16,3.22,2.14,3.36,0Z"/><path d="M554.35,399.52c1.12-17.84,2.65-35.7,2.82-53.58,0-1.65-2.32-1.56-2.5,0-2,17.78-2.76,35.72-3.87,53.58-.15,2.28,3.41,2.28,3.55,0Z"/><path d="M620,369.5l17-65.18c1.61-6.18,3.18-12.36,4.77-18.54a.78.78,0,0,0-1.51-.42Q631.93,318,623.79,350.7l-4.65,18.57a.45.45,0,0,0,.86.23Z"/><path d="M677.71,405.25q12.54-18.44,24.95-36.94c1-1.53-1.43-2.94-2.46-1.44q-12.63,18.38-25.12,36.84c-1.1,1.63,1.53,3.16,2.63,1.54Z"/><path d="M725.11,437.37A102.36,102.36,0,0,1,734.43,423c3.51-4.5,7.46-8.67,11.38-12.82,1.31-1.38-.62-3.19-2-2-9.06,7.29-16.22,17.23-21.73,27.4-1.09,2,2,3.81,3.07,1.8Z"/><path d="M762.37,460.64c21.71-12.62,43.54-25,65.28-37.6q9.27-5.39,18.49-10.87a1.51,1.51,0,0,0-1.52-2.6C822.82,422,801.29,435,779.73,447.83c-6.14,3.66-12.34,7.24-18.5,10.86a1.13,1.13,0,0,0,1.14,1.95Z"/><path d="M859.54,472.56c3.84-1.6,5.48-5.22,6.83-8.91,1-2.62,1.9-6.9,4.78-8,2.1-.8,4,.45,5.5,1.86,1.91,1.84,3.36,4.08,5.17,6a28.39,28.39,0,0,0,13.55,7.87,29.47,29.47,0,0,0,17.38-.93l-2.11-1.2c.69,3.44-1.82,6.18-4.13,8.36-2.91,2.74-6.19,5.12-8.56,8.38-5.52,7.6-4.93,17.89-1.66,26.25a94.26,94.26,0,0,0,8.19,15.27l2.83-2.83c-8-5.62-15.85-11.48-23.95-17-1.84-1.25-4.07-2.24-6.33-1.59a7.07,7.07,0,0,0-4.14,4c-2.07,4.28-3.7,8.82-5.52,13.21q-3.2,7.67-6.38,15.35l4.41.6q-.74-11.49-1.49-23L863.17,505c-.25-3.86-.67-7.75-.73-11.61a2.17,2.17,0,0,0-1.58-2.08,106.63,106.63,0,0,1-17.78-3.73,95.39,95.39,0,0,1-16.47-7.31v4a48.21,48.21,0,0,1,16.37-7c5.9-1.34,11.82-1,17.81-1a1.61,1.61,0,0,0,.43-3.14c-6.17-1.82-12.89-1.13-19.13.08a55.92,55.92,0,0,0-17.82,7,2.35,2.35,0,0,0,0,4A76.29,76.29,0,0,0,841.63,492a72.86,72.86,0,0,0,18.66,3.54l-2.16-2.16c.42,3.76.48,7.59.71,11.36l.7,11.6q.68,11.49,1.37,23c.16,2.66,3.46,2.88,4.41.59q5.19-12.36,10.35-24.72c.56-1.34,1.05-3.3,2.15-4.32s2.87.53,3.81,1.18c3.69,2.55,7.37,5.12,11,7.67,4.16,2.89,8.39,5.69,12.54,8.58,1.72,1.19,3.9-1.14,2.83-2.83-5-8-10.5-16.59-10.28-26.38a18.93,18.93,0,0,1,3.8-11.69c2.47-3,5.76-5.29,8.47-8.09,2.88-3,5.08-6.66,3.91-10.92a1.74,1.74,0,0,0-2.52-1c-9.34,4.11-21.43.52-27.89-7-3.13-3.66-6.47-9.08-12.07-8.27-4,.58-5.94,4.07-7.29,7.49-.74,1.88-1.31,3.84-2.18,5.68-.73,1.54-1.73,3.28-3.39,4a1.83,1.83,0,0,0-1.23,2.16,1.77,1.77,0,0,0,2.16,1.23Z"/><path d="M228.19,521.34a77.18,77.18,0,0,1-5.57-26.79l-2.3.95q5,4.44,9.8,9c1.48,1.38,2.92,2.85,4.48,4.15a6.25,6.25,0,0,0,4.46,1.79c1.94-.14,3.47-1.26,5.12-2.16,1.87-1,3.78-2,5.66-3,3.92-2.06,7.8-4.22,11.78-6.15L260,497.46c-4,6-8.11,13.87-4.6,21a22.14,22.14,0,0,0,3.17,4.5c1.35,1.59,2.66,3.2,4,4.82l8.4,10.3,1.6-2.75c-4-1.55-8-3.09-12.05-4.57s-7.87-3.09-11.88-4.33a5.53,5.53,0,0,0-4.75.32,4.8,4.8,0,0,0-2,3.92,17.68,17.68,0,0,0,.82,4.94l1.57,6.31,3.54,14.3,3.23-1.36c-3.32-6.44-7.34-12.89-13.19-17.33a19.9,19.9,0,0,0-9.23-3.95c-3.78-.53-7.35.48-10.87,1.8s-8,3.5-11.67,1.69l.46,3.53a86.42,86.42,0,0,0,20.4-25.3c1.1-2.06-2-3.87-3.14-1.83a85.88,85.88,0,0,1-20.44,24,2.26,2.26,0,0,0,.46,3.53c7.6,4.07,14.26-3,21.62-4,6.81-.92,12.36,4.19,16.15,9.25a72.31,72.31,0,0,1,6.4,10.48c.94,1.82,3.7.53,3.23-1.37l-3.45-14.07L245.92,534c-.22-.9-1.1-3.33-.21-4.12.56-.49,1.68,0,2.27.2,1.06.36,2.1.77,3.15,1.15l6.74,2.47q6.86,2.51,13.76,4.87c1.66.57,2.61-1.6,1.6-2.75l-7.8-8.82c-2.46-2.78-5.29-5.51-7.2-8.71-3.88-6.49.55-13.85,3.83-19.56a1.23,1.23,0,0,0-1.67-1.67c-3.4,2-6.92,3.75-10.39,5.6l-5.21,2.78a24.24,24.24,0,0,1-5.21,2.44c-1.91.48-3.22-.89-4.5-2.08l-4.32-4c-2.88-2.68-5.71-5.4-8.54-8.14a1.36,1.36,0,0,0-2.29.95,73.5,73.5,0,0,0,5.51,27.54c.68,1.69,3.44.94,2.75-.75Z"/><path d="M533.36,268.85l-1.08-18.22c-.36-6.07-.57-12.18-1.25-18.22l-2.45.33a47.85,47.85,0,0,0,33.3,35,41.82,41.82,0,0,0,14.17,1.45l-.38-1.4a15.65,15.65,0,0,1-3.33,1.65c-1,.32-1.92.61-2.88,1a47,47,0,0,1-6,2A48.45,48.45,0,0,1,550.51,274a1.38,1.38,0,0,0-1.18,2.05c5.26,12.24,10.61,24.45,15.78,36.73l2.12-1.63c-9.35-5.27-18.31-11.87-25.33-20.05a1.38,1.38,0,0,0-2.16.27c-2.31,4.22-4.46,8.52-6.66,12.78s-4.46,8.52-6.52,12.86l2.35.31A78.65,78.65,0,0,1,527,299.17,68.13,68.13,0,0,1,529.29,281,1.08,1.08,0,0,0,528,279.7c-8.89,2.85-17.11-4.11-23.4-9.45L503.42,273c12.57-.71,25.16-1.2,37.74-1.73,1.72-.08,1.74-2.76,0-2.7-12.58.44-25.16.92-37.74,1.18a1.64,1.64,0,0,0-1.15,2.77c6.9,6.29,16.87,13.39,26.53,9.12l-1.58-1.21c-.56,3-1.25,6-1.66,9.09a83.81,83.81,0,0,0-.72,9.63A91.67,91.67,0,0,0,526.43,318a1.3,1.3,0,0,0,2.35.31c2.36-4.19,4.53-8.48,6.74-12.74s4.48-8.5,6.59-12.82l-2.16.28c7.65,8.1,16,15.27,25.83,20.6a1.45,1.45,0,0,0,2-2c-5.43-12.29-10.7-24.66-16-37l-1.18,2.05A47.75,47.75,0,0,0,564.12,275a48.79,48.79,0,0,0,6.3-2.27,16.37,16.37,0,0,0,3-1.79c1-.69,2-1.23,3-1.84a.75.75,0,0,0-.38-1.39c-16.29,1.06-32.56-8.31-40.54-22.45A35.13,35.13,0,0,1,531,232.41c-.19-1.55-2.49-1.66-2.5,0,0,6.07.43,12.15.72,18.22l.87,18.22c.1,2.08,3.37,2.08,3.24,0Z"/></g></g></svg>