<svg xmlns="http://www.w3.org/2000/svg" xmlns:xlink="http://www.w3.org/1999/xlink" viewBox="0 0 419.93 469.01"><defs><style>.cls-1{fill:none;}.cls-2{fill:#ebfbfc;}.cls-3{fill:#d8f8f9;}.cls-4{fill:#b1f0f2;}.cls-5{fill:#8ae9ec;}.cls-6{font-size:34.64px;font-family:PoiretOne-Regular, PoiretOne Regular;}.cls-7{fill:#fff;}.cls-8{fill:#231f20;}.cls-9{fill:#1d1d1b;}.cls-10{clip-path:url(#clip-path);}.cls-11{fill:#575756;}</style><clipPath id="clip-path"><ellipse class="cls-1" cx="209.47" cy="204.05" rx="82.26" ry="82.44" transform="translate(-0.87 0.89) rotate(-0.24)"/></clipPath></defs><g id="Layer_2" data-name="Layer 2"><g id="Selected"><circle class="cls-2" cx="209.76" cy="209.54" r="178"/><circle class="cls-3" cx="209.76" cy="209.54" r="164.69"/><circle class="cls-4" cx="209.76" cy="209.54" r="150.97"/><circle class="cls-5" cx="209.76" cy="209.54" r="132.25"/><text class="cls-6" transform="translate(179.07 417.82) rotate(6.06)">T</text><text class="cls-6" transform="translate(199.55 419.95) rotate(-0.26)">U</text><text class="cls-6" transform="translate(225.3 419.51) rotate(-6.55)">T</text><text class="cls-6" transform="matrix(0.98, -0.22, 0.22, 0.98, 245.74, 417.12)">U</text></g><g id="Layer_1-2" data-name="Layer 1"><circle class="cls-5" cx="209.61" cy="209.67" r="130.39"/><ellipse class="cls-7" cx="209.61" cy="209.67" rx="113.19" ry="113.44"/><path class="cls-8" d="M129.46,143.49l-.58-.35c.23-.39.47-.78.71-1.16l.57.36C129.93,142.72,129.69,143.1,129.46,143.49Z"/><path class="cls-8" d="M202.57,314.61h-.06l-2.66,0v-.68l2.65,0Zm2.73,0,0-.68c.9,0,1.8-.06,2.7-.11l0,.68C207.11,314.52,206.2,314.55,205.3,314.58Zm-8.17-.1-2.72-.17.05-.68c.9.07,1.8.13,2.7.17Zm13.61-.18-.05-.67c.9-.07,1.8-.15,2.69-.24l.07.67C212.55,314.15,211.65,314.23,210.74,314.3Zm-19.05-.23c-.9-.09-1.8-.2-2.7-.31l.08-.67c.9.11,1.79.21,2.69.3Zm24.47-.32-.09-.67c.9-.11,1.8-.24,2.68-.37l.11.67C218,313.51,217.06,313.64,216.16,313.75Zm-29.87-.37c-.9-.14-1.8-.29-2.69-.45l.12-.66c.89.16,1.78.3,2.67.44Zm35.26-.45-.12-.66c.89-.16,1.77-.33,2.66-.51l.13.66C223.33,312.6,222.44,312.78,221.55,312.93Zm-40.63-.52c-.88-.18-1.77-.38-2.66-.59l.16-.66c.88.21,1.76.41,2.64.59Zm46-.56-.15-.67,2.64-.61.16.65C228.65,311.44,227.77,311.64,226.88,311.85Zm-51.26-.69c-.88-.23-1.75-.48-2.62-.74l.19-.65c.86.26,1.73.5,2.61.73Zm56.55-.6-.17-.66c.88-.22,1.75-.46,2.62-.7l.18.66Zm-61.78-.95c-.86-.28-1.72-.57-2.58-.88l.23-.64c.85.31,1.71.6,2.56.88Zm67-.5-.2-.66c.87-.25,1.74-.52,2.6-.79l.2.65Zm-42.1-.25c-.91,0-1.82,0-2.73,0l0-.68c.91,0,1.81,0,2.71.05Zm2.72,0v-.68l2.71-.09,0,.68Q199.41,308.81,198,308.84Zm-8.17-.15c-.91-.05-1.81-.12-2.72-.2l.06-.68c.9.08,1.8.15,2.7.2Zm13.62-.1-.05-.68c.9-.06,1.8-.13,2.7-.22l.06.68C205.3,308.45,204.39,308.53,203.49,308.59Zm-19.05-.39c-.9-.11-1.8-.24-2.7-.38l.11-.67c.89.14,1.78.27,2.67.38Zm24.47-.11-.08-.67c.9-.1,1.8-.21,2.69-.33l.09.67Q210.26,307.94,208.91,308.09Zm-43.65-.32c-.84-.33-1.68-.67-2.52-1l.26-.62c.83.35,1.67.69,2.51,1Zm77.35-.3-.22-.65c.86-.28,1.72-.58,2.56-.88l.23.64Zm-28.3-.09-.1-.67,2.67-.43.11.67Zm-35.26,0c-.89-.17-1.78-.36-2.67-.56l.16-.66c.87.2,1.76.38,2.64.55Zm40.62-.89-.12-.66,2.66-.51.14.66C221.46,306.14,220.57,306.31,219.67,306.47Zm-45.94-.32c-.88-.24-1.75-.49-2.62-.75l.2-.65c.86.26,1.72.51,2.6.74Zm74-.51-.24-.63c.84-.32,1.69-.64,2.52-1l.26.63C249.43,305,248.59,305.32,247.74,305.64Zm-87.49,0c-.83-.39-1.65-.78-2.46-1.18l.3-.61c.81.4,1.62.79,2.44,1.17Zm64.76-.23-.14-.66,2.65-.59.15.66Zm-56.5-.85c-.86-.3-1.71-.61-2.56-.94l.25-.64c.84.33,1.68.64,2.54.94Zm61.8-.35-.15-.66,1.07-.26c.52-.13,1-.25,1.56-.39l.17.66-1.57.39Zm22.49-.59-.27-.62,2.49-1.08.27.62Zm-97.43-.42-1.08-.59-1.3-.75.34-.58,1.29.73,1.07.59Zm80.22-.32-.17-.65,2.61-.73.19.65C237.35,302.4,236.47,302.65,235.59,302.88Zm-72.16-.3c-.85-.38-1.68-.76-2.48-1.15l.3-.61c.78.39,1.61.77,2.45,1.13Zm94.33-1.18-.28-.61c.81-.39,1.62-.78,2.43-1.19l.3.61C259.4,300.62,258.59,301,257.76,301.4Zm-16.94,0-.21-.65c.86-.27,1.71-.56,2.56-.87l.23.64C242.55,300.78,241.69,301.07,240.82,301.35Zm-90.16-.91c-.76-.49-1.52-1-2.27-1.5l.38-.56c.75.51,1.5,1,2.26,1.49Zm7.86-.26c-.79-.43-1.59-.88-2.37-1.35l.35-.58c.77.46,1.56.91,2.34,1.34Zm87.43-.69-.26-.62c.88-.36,1.69-.72,2.48-1.08l.28.61C247.65,298.77,246.83,299.13,246,299.49Zm16.69-.52-.32-.6c.8-.42,1.59-.85,2.38-1.29l.33.59C264.24,298.11,263.44,298.54,262.64,299Zm-108.8-1.6c-.77-.51-1.52-1-2.24-1.57l.41-.54c.7.52,1.45,1,2.21,1.55Zm-7.68,0c-.73-.54-1.45-1.09-2.17-1.65l.42-.53c.71.55,1.43,1.1,2.16,1.63Zm104.74-.17-.31-.6c.8-.42,1.59-.86,2.37-1.3l.34.58Q252.11,296.56,250.9,297.19Zm16.5-.87-.35-.59c.78-.45,1.55-.92,2.32-1.4l.36.58C269,295.39,268.18,295.86,267.4,296.32Zm-11.76-1.85-.36-.57c.77-.48,1.53-1,2.28-1.45l.37.56C257.17,293.51,256.41,294,255.64,294.47Zm-106.2-.34c-.7-.57-1.4-1.17-2.07-1.78l.45-.5c.67.6,1.36,1.19,2.05,1.76Zm-7.57-.13q-1.05-.87-2.07-1.77l.44-.51c.68.6,1.37,1.18,2.06,1.76ZM272,293.44l-.37-.56c.76-.5,1.51-1,2.25-1.52l.39.56C273.54,292.44,272.78,293,272,293.44Zm-11.82-1.93-.38-.57,2.25-1.52.38.56Zm-114.81-1c-.63-.63-1.27-1.29-1.89-2l.5-.46c.62.67,1.24,1.33,1.87,1.95Zm-7.62-.06c-.67-.61-1.33-1.23-2-1.86l.48-.49c.64.62,1.3,1.24,2,1.85Zm138.74-.06-.4-.55c.72-.53,1.45-1.08,2.16-1.63l.42.54Zm-11.82-1.91-.38-.56,2.23-1.54.39.56ZM280.82,287l-.43-.52c.7-.57,1.39-1.15,2.08-1.74l.44.51C282.22,285.86,281.53,286.44,280.82,287Zm-147-.37-1.9-1.95.49-.47,1.89,1.94Zm7.87-.21c-.57-.68-1.14-1.4-1.7-2.13l.54-.42c.56.73,1.12,1.45,1.68,2.12Zm127.45-1.09-.39-.55,2.21-1.57.39.55C270.64,284.3,269.9,284.82,269.16,285.34ZM285,283.45l-.46-.5,2-1.85.47.48C286.28,282.22,285.62,282.84,285,283.45Zm-154.87-.75c-.62-.66-1.23-1.34-1.83-2l.5-.45c.6.67,1.21,1.34,1.83,2Zm143.5-.53-.41-.55,2.18-1.62.41.54Zm-135.18-.08c-.52-.75-1-1.5-1.52-2.27l.57-.36c.49.75,1,1.5,1.51,2.24Zm150.46-2.43-.48-.48c.63-.64,1.25-1.3,1.86-2l.5.46C290.12,278.35,289.5,279,288.86,279.66Zm-10.95-.79-.42-.53c.71-.55,1.42-1.12,2.12-1.69l.42.52C279.33,277.75,278.62,278.31,277.91,278.87Zm-151.45-.26c-.56-.7-1.1-1.45-1.61-2.22l.57-.37c.5.75,1,1.48,1.57,2.17Zm9-1.1c-.46-.78-.92-1.57-1.36-2.36l.59-.33q.66,1.19,1.35,2.34Zm157.11-1.87-.51-.44q.88-1,1.74-2.07l.52.43C293.73,274.26,293.15,275,292.55,275.64Zm-10.43-.22-.44-.51c.69-.59,1.37-1.18,2-1.79l.45.51C283.5,274.23,282.81,274.83,282.12,275.42ZM123.44,274c-.43-.78-.84-1.6-1.23-2.44l.61-.29c.39.83.79,1.64,1.21,2.4Zm9.34-1.29q-.63-1.2-1.23-2.43l.61-.3c.4.81.8,1.62,1.22,2.42Zm153.39-1-.47-.49c.66-.62,1.3-1.25,1.93-1.89l.48.48C287.47,270.51,286.83,271.15,286.17,271.77Zm9.83-.35-.54-.41c.55-.72,1.08-1.45,1.61-2.18l.55.4Q296.82,270.34,296,271.42Zm-174.87-2.34c-.32-.81-.64-1.68-.94-2.56l.64-.22c.3.87.61,1.73.93,2.53ZM290,267.89l-.51-.46c.62-.66,1.21-1.33,1.8-2l.51.44Q290.91,266.89,290,267.89Zm-159.62,0c-.39-.83-.76-1.65-1.13-2.48l.62-.28c.37.83.74,1.65,1.12,2.47Zm168.8-.88-.56-.38c.5-.75,1-1.5,1.47-2.26l.57.36C300.18,265.47,299.68,266.24,299.18,267Zm-179.84-3.06c-.26-.87-.52-1.74-.76-2.62l.65-.18c.24.87.5,1.74.76,2.6Zm174.19-.19-.53-.42c.56-.71,1.1-1.43,1.63-2.16l.55.4C294.65,262.29,294.1,263,293.53,263.74Zm-165.35-.85c-.36-.84-.7-1.68-1.05-2.52l.63-.26c.34.84.69,1.68,1,2.51Zm173.9-.52-.59-.34c.46-.78.9-1.56,1.33-2.35l.59.32C303,260.8,302.54,261.59,302.08,262.37Zm-5.36-3.06-.57-.37c.48-.75,1-1.52,1.42-2.3l.58.34C297.69,257.77,297.21,258.55,296.72,259.31Zm-178.85-.62c-.21-.78-.41-1.56-.61-2.33l-.08-.3.66-.17.08.3.6,2.32Zm8.26-.85c-.33-.84-.66-1.69-1-2.53l.63-.25c.32.85.65,1.69,1,2.54Zm178.54-.26-.61-.3c.4-.81.79-1.62,1.17-2.44l.61.28C305.47,256,305.07,256.77,304.67,257.58Zm-5.18-3-.63-.25c.44-.84.82-1.64,1.19-2.44l.62.28C300.3,252.94,299.9,253.75,299.49,254.54Zm-183-1.12c-.23-.87-.46-1.75-.71-2.61l.66-.19c.24.87.48,1.75.71,2.63Zm7.69-.66-1-2.55.64-.23c.31.85.63,1.7.94,2.54Zm182.74-.14-.62-.26c.34-.84.67-1.67,1-2.52l.63.24C307.62,250.93,307.28,251.78,306.93,252.62Zm-5.19-3-.63-.25c.32-.82.64-1.67.93-2.53l.64.22C302.39,247.92,302.07,248.78,301.74,249.61ZM115,248.21c-.27-.9-.53-1.76-.79-2.6l.65-.2c.25.84.52,1.7.79,2.6Zm7.27-.55c-.31-.85-.61-1.71-.91-2.56l.64-.22c.3.85.6,1.7.91,2.55Zm186.53-.15-.64-.22c.28-.85.55-1.71.8-2.58l.66.19C309.4,245.78,309.13,246.64,308.84,247.51Zm-5.33-3.06-.65-.19q.39-1.29.72-2.61l.65.17C304,242.7,303.77,243.58,303.51,244.45ZM113.45,243c-.29-.9-.56-1.76-.83-2.59l.65-.2c.26.82.54,1.68.82,2.58Zm7.06-.5c-.3-.86-.58-1.72-.87-2.58l.65-.21c.28.86.57,1.71.86,2.57Zm189.86-.26-.65-.16c.22-.88.42-1.76.61-2.64l.66.14C310.8,240.5,310.6,241.39,310.37,242.27Zm-5.53-3.11-.66-.14c.19-.88.36-1.77.51-2.66l.67.12C305.2,237.38,305,238.27,304.84,239.16Zm-193-1.29-.84-2.58.64-.21.84,2.58Zm7-.51c-.27-.86-.54-1.73-.8-2.6l.65-.19c.26.86.52,1.73.8,2.59Zm192.69-.43-.67-.11.1-.59c.11-.7.22-1.39.31-2.09l.67.09c-.09.7-.2,1.41-.31,2.1Zm-5.72-3.14-.67-.1c.12-.89.24-1.79.34-2.68l.67.07C306,232,305.91,232.89,305.78,233.79Zm-195.67-1.08c-.3-.89-.57-1.75-.83-2.58l.65-.2c.25.82.53,1.68.82,2.57Zm7.13-.56c-.24-.87-.49-1.75-.72-2.62l.65-.18c.24.88.48,1.75.73,2.62Zm195-.63-.67-.06c.08-.9.16-1.8.21-2.7l.68,0C312.38,229.71,312.31,230.62,312.22,231.52Zm-5.84-3.15-.68-.06c.08-.9.14-1.8.19-2.7l.68,0C306.52,226.56,306.45,227.46,306.38,228.37Zm-197.89-.84c-.26-.89-.49-1.75-.71-2.62l.65-.17c.22.86.46,1.72.71,2.6Zm7.35-.64c-.22-.88-.43-1.76-.63-2.65l.66-.15q.3,1.32.63,2.64Zm196.74-.81-.68,0c0-.9.06-1.81.07-2.71h.68C312.64,224.27,312.62,225.18,312.58,226.08Zm-5.88-3.15-.68,0c0-.9.05-1.8.07-2.71l.68,0C306.75,221.11,306.73,222,306.7,222.93Zm-199.54-.68q-.28-1.29-.51-2.67l.67-.12c.15.92.32,1.79.5,2.65Zm7.47-.67c-.18-.88-.36-1.78-.52-2.67l.66-.12c.17.89.34,1.77.52,2.66ZM312,220.64c0-.9,0-1.81-.05-2.71l.68,0c0,.91,0,1.82.05,2.73Zm-5.87-3.16c0-.9,0-1.8,0-2.71h.68c0,.91,0,1.82,0,2.72Zm-199.87-.59c-.11-.86-.21-1.76-.31-2.71l.68-.06c.09.93.19,1.82.31,2.68Zm7.4-.66c-.14-.9-.27-1.8-.4-2.7l.68-.09c.12.9.25,1.79.39,2.68Zm198.2-1,0-.4c0-.77-.07-1.54-.11-2.32l.68,0c0,.77.08,1.55.11,2.32l0,.39ZM306,212.06c0-.9,0-1.81-.09-2.71l.68,0c0,.9.07,1.81.09,2.71Zm-200.33-.58c-.07-.86-.13-1.77-.19-2.71l.68,0c0,.94.12,1.84.18,2.69Zm7.23-.65c-.1-.91-.18-1.81-.26-2.72l.68-.05c.07.9.16,1.8.25,2.69Zm198.62-1c-.06-.91-.13-1.81-.2-2.71l.68,0c.07.9.14,1.81.2,2.71Zm-5.73-3.17c0-.9-.09-1.8-.14-2.71l.67,0c.06.91.1,1.82.15,2.72Zm-200.45-.58c0-.87-.08-1.77-.12-2.72l.68,0c0,.94.07,1.84.11,2.71Zm7.13-.67c0-.9-.08-1.81-.1-2.72h.68c0,.9.05,1.8.09,2.7Zm198.61-1c-.09-.9-.19-1.8-.29-2.69l.68-.08c.1.9.19,1.8.28,2.71Zm-5.6-3.17-.21-2.71.67-.06c.08.91.15,1.81.21,2.72Zm-200.35-.6,0-1.15a15.87,15.87,0,0,1,.08-1.61l.67.06c-.05.57-.07,1.1-.07,1.55l0,1.13Zm7.9-.68h-.68c0-.91,0-1.82.07-2.72l.68,0C113.08,198.14,113.06,199.05,113.05,200ZM310.49,199c-.12-.89-.24-1.79-.37-2.68l.67-.1c.13.9.25,1.8.37,2.7ZM305,195.82l-.3-2.69.67-.08q.16,1.35.3,2.7Zm-198.82-.56-.67-.11c.13-.84.3-1.74.48-2.69l.67.14C106.51,193.53,106.35,194.42,106.22,195.26Zm7.06-.72-.68,0c.07-.9.16-1.81.26-2.71l.67.07C113.43,192.75,113.35,193.65,113.28,194.54Zm196.43-.89q-.21-1.34-.45-2.67l.67-.12c.16.89.31,1.79.45,2.68Zm-5.33-3.21q-.19-1.33-.42-2.67l.67-.12q.22,1.35.42,2.7Zm-197.12-.5-.66-.15c.2-.86.41-1.75.63-2.65l.66.16C107.66,188.2,107.46,189.08,107.26,189.94Zm6.62-.77-.67-.1c.13-.9.28-1.8.45-2.69l.66.12C114.16,187.39,114,188.28,113.88,189.17Zm194.88-.86c-.17-.88-.35-1.77-.54-2.65l.66-.14c.19.88.37,1.77.55,2.66Zm-5.29-3.2c-.17-.89-.36-1.77-.56-2.65l.66-.15q.3,1.32.57,2.67Zm-194.92-.44-.66-.17c.23-.87.46-1.75.7-2.63l.65.17C109,182.92,108.77,183.8,108.55,184.67Zm6.33-.81-.67-.15c.21-.89.43-1.77.67-2.65l.65.18C115.3,182.11,115.08,183,114.88,183.86ZM307.62,183c-.2-.88-.42-1.76-.64-2.64l.66-.16c.22.88.44,1.76.64,2.64Zm-5.36-3.18c-.23-.88-.48-1.74-.75-2.6l.65-.2c.27.87.52,1.74.75,2.62ZM110,179.43l-.65-.19c.25-.88.5-1.75.76-2.61l.65.19C110.48,177.68,110.22,178.55,110,179.43Zm6.33-.78-.65-.21c.28-.86.57-1.73.89-2.58l.63.23C116.86,176.93,116.57,177.79,116.3,178.65Zm190-.88c-.24-.88-.49-1.74-.74-2.61l.65-.19c.25.87.5,1.74.74,2.62Zm-5.62-3.1c-.29-.84-.61-1.69-.95-2.52l.63-.26c.34.85.66,1.71,1,2.56Zm-189.16-.45-.65-.2c.27-.9.54-1.77.8-2.6l.65.2C112.05,172.45,111.78,173.32,111.51,174.22Zm6.65-.64-.62-.26.16-.38c.31-.71.62-1.42,1-2.11l.61.29c-.33.69-.65,1.38-1,2.09Zm186.59-1c-.27-.86-.55-1.72-.85-2.57l.65-.22c.29.86.57,1.72.85,2.58Zm-6.1-2.9c-.38-.84-.78-1.65-1.18-2.43l.6-.31c.41.78.81,1.61,1.2,2.45ZM113.14,169l-.64-.22c.31-.93.6-1.8.87-2.58l.64.22Q113.6,167.63,113.14,169Zm7.34-.34-.6-.31c.42-.81.86-1.61,1.31-2.4l.59.34C121.33,167.11,120.89,167.9,120.48,168.7ZM303,167.45c-.31-.85-.63-1.7-1-2.54l.63-.24c.33.84.66,1.69,1,2.54Zm-6.84-2.56c-.46-.77-.94-1.54-1.44-2.29l.56-.37c.51.75,1,1.53,1.46,2.31Zm-173-.88-.58-.36c.48-.77,1-1.54,1.47-2.3l.56.37C124.12,162.48,123.63,163.24,123.16,164Zm-8.23-.09-.63-.25a23.77,23.77,0,0,1,1.2-2.49l.59.33A21.37,21.37,0,0,0,114.93,163.92ZM301,162.4c-.35-.83-.7-1.66-1.07-2.49l.62-.27c.37.83.73,1.66,1.07,2.5Zm-7.88-2c-.49-.65-1-1.34-1.69-2.11l.52-.43c.65.77,1.21,1.47,1.71,2.13Zm-167-.93-.56-.39c.51-.74,1-1.49,1.57-2.22l.55.39C127.16,158,126.64,158.73,126.13,159.48Zm-8.66-.29-.57-.36q.7-1.12,1.5-2.28l.56.38C118.44,157.7,117.94,158.45,117.47,159.19Zm181.36-1.74c-.39-.81-.78-1.62-1.19-2.43l.61-.31c.41.82.8,1.63,1.19,2.45Zm-9.13-1.21-.38-.44-1.39-1.62.51-.44,1.39,1.61.38.45Zm-160.41-1.16-.54-.41c.54-.73,1.08-1.45,1.63-2.17l.54.41C130.37,153.63,129.83,154.35,129.29,155.08Zm-8.76-.35-.54-.4c.53-.73,1.08-1.46,1.63-2.18l.54.41C121.61,153.27,121.07,154,120.53,154.73Zm175.87-2.12c-.38-.71-.77-1.41-1.17-2.11l-.14-.26.59-.33.15.26c.39.7.78,1.41,1.16,2.12Zm-10.21-.54c-.44-.56-.87-1.13-1.29-1.72l-.33-.48.56-.38.33.47c.41.58.83,1.14,1.27,1.7Zm-153.62-1.31-.53-.42,1.67-2.14.53.41Zm-8.73-.33-.53-.42c.59-.74,1.17-1.44,1.73-2.11l.52.44C125,149,124.42,149.7,123.84,150.43Zm169.88-2.52c-.46-.78-.94-1.54-1.43-2.3l.57-.37q.74,1.15,1.44,2.31Zm-10.63-.34c-.44-.74-.88-1.51-1.35-2.37l.6-.33c.46.86.9,1.62,1.33,2.35Zm-147.18-1.1-.53-.41c.55-.72,1.11-1.43,1.68-2.14l.53.42Zm154.89-3.12q-.76-1.12-1.56-2.22l.56-.4c.53.74,1.05,1.49,1.56,2.24Zm-10.33-.56-1-1.87-.28-.55.6-.31.28.55.95,1.87Zm-141.19-.57-.53-.43c.57-.7,1.14-1.41,1.72-2.11l.52.44C140.42,140.81,139.85,141.52,139.28,142.22Zm-7.61-2.12-.55-.39c.52-.74,1.07-1.47,1.63-2.19l.53.42C132.73,138.65,132.18,139.37,131.67,140.1Zm156-1.14c-.55-.72-1.11-1.43-1.67-2.13l.52-.43c.57.71,1.14,1.42,1.69,2.14ZM142.73,138l-.52-.44c.59-.69,1.18-1.38,1.78-2.06l.51.45C143.9,136.66,143.31,137.34,142.73,138ZM278,138c-.42-.79-.85-1.59-1.29-2.37l.59-.34c.44.79.87,1.59,1.3,2.4Zm-143-2.09-.52-.45c.61-.68,1.23-1.36,1.85-2l.49.47C136.21,134.51,135.6,135.18,135,135.86Zm149.22-1.11c-.59-.69-1.19-1.36-1.79-2l.5-.46c.61.68,1.21,1.36,1.8,2.05ZM146.3,134l-.5-.46c.62-.67,1.24-1.33,1.87-2l.49.47Q147.22,133,146.3,134Zm129-.7-.71-1.09q-.39-.57-.81-1.14l.55-.4c.28.38.55.77.82,1.16s.48.73.72,1.11ZM138.75,132l-.47-.49c.65-.62,1.33-1.23,2-1.83l.44.51C140.06,130.76,139.39,131.36,138.75,132Zm141.84-1.23c-.62-.65-1.26-1.29-1.9-1.92l.47-.49c.65.64,1.29,1.29,1.92,1.94Zm-130.53-.68-.48-.49c.65-.64,1.3-1.27,2-1.88l.46.49C151.35,128.8,150.7,129.42,150.06,130.06Zm122.1-1.15c-.57-.68-1.18-1.36-1.8-2l.49-.47c.63.66,1.24,1.35,1.82,2Zm-129.32-.46-.42-.53c.71-.55,1.44-1.11,2.19-1.64l.39.55C144.27,127.36,143.54,127.9,142.84,128.45ZM276.73,127c-.66-.61-1.33-1.21-2-1.81l.44-.51c.69.6,1.36,1.21,2,1.82ZM154,126.38l-.44-.51c.69-.6,1.39-1.18,2.1-1.75l.42.53C155.4,125.21,154.7,125.79,154,126.38Zm-6.79-1.08-.37-.56c.77-.51,1.54-1,2.31-1.46l.35.58C148.76,124.32,148,124.8,147.23,125.3ZM268.44,125c-.65-.6-1.34-1.2-2-1.77l.43-.52c.7.58,1.4,1.18,2.06,1.79Zm4.21-1.61c-.7-.57-1.41-1.13-2.12-1.68l.41-.54c.72.55,1.44,1.12,2.14,1.69ZM158.24,123l-.4-.54c.75-.55,1.5-1.08,2.24-1.57l.37.56C159.72,121.94,159,122.46,158.24,123Zm-6.38-.49-.33-.59c.82-.45,1.62-.88,2.41-1.28l.31.6C153.47,121.64,152.67,122.06,151.86,122.51Zm112.41-.92c-.71-.52-1.46-1-2.22-1.52l.37-.57c.77.5,1.53,1,2.25,1.55Zm4.09-1.48c-.73-.53-1.48-1-2.22-1.54l.37-.57c.76.51,1.51,1,2.24,1.56ZM156.68,120l-.29-.61c.84-.4,1.67-.78,2.48-1.13l.27.61C158.34,119.27,157.52,119.64,156.68,120Zm6,0-.35-.59,1.17-.68,1.21-.67.32.6c-.4.22-.8.43-1.19.66S163.11,119.77,162.73,120Zm97-1.35c-.77-.44-1.57-.88-2.37-1.29l.31-.6c.81.41,1.62.85,2.4,1.3Zm-98.12-.82-.26-.62.12,0c.78-.33,1.6-.63,2.45-.9l.21.65c-.83.26-1.64.55-2.39.87Zm5.86-.39-.29-.61c.82-.39,1.64-.77,2.48-1.13l.27.63Q168.71,116.87,167.49,117.45Zm96.38-.35c-.77-.48-1.54-.94-2.32-1.39l.34-.59c.78.45,1.56.92,2.33,1.4Zm-97.13-.88-.15-.66c.84-.2,1.71-.37,2.68-.54l.12.67C168.43,115.85,167.57,116,166.74,116.22Zm88.21,0c-.81-.36-1.65-.72-2.49-1.06l.25-.62c.85.33,1.7.7,2.52,1.07Zm-82.5-.87,0-.1-.35,0-.09-.67.71-.09c.69-.27,1.38-.52,2.08-.77l.23.64-.3.1.06.44-1.91.25Zm5-.73-.08-.68,2.7-.33.08.67Zm81.74-.19c-.79-.42-1.6-.83-2.41-1.23l.3-.61c.82.4,1.63.81,2.43,1.24Zm-9.25-.22c-.85-.3-1.7-.58-2.56-.84l.2-.65c.86.27,1.73.55,2.59.85Zm-67.1-.26-.08-.68,2.7-.33.08.67Zm-5.28-.41-.21-.64c.87-.28,1.73-.56,2.6-.82l.2.65C179.27,113,178.41,113.23,177.55,113.51Zm10.68-.26-.09-.68,2.7-.33.08.67Zm56.54-.65c-.88-.22-1.75-.43-2.63-.63l.15-.66c.88.2,1.77.41,2.65.64Zm-51.15,0-.09-.68,2.7-.33.08.67Zm60.7-.55q-1.23-.54-2.49-1l.25-.63c.84.34,1.68.69,2.52,1.06Zm-71.58-.1-.19-.65.83-.24,1.79-.49.18.65-1.78.5Zm16.27,0-.09-.67,2.7-.32.08.67Zm40.48-.47-1.86-.31-.81-.11.09-.68.83.13c.62.09,1.25.19,1.87.31Zm-35.09-.15-.08-.67,2.71-.28.07.67Zm5.4-.53-.06-.67,2.71-.22.05.68Q211.15,110.64,209.8,110.76Zm24.33-.08c-.89-.1-1.79-.18-2.69-.25l.05-.68c.91.07,1.82.16,2.72.25ZM188,110.5l-.17-.65c.88-.23,1.75-.46,2.64-.67l.16.66C189.72,110.05,188.84,110.27,188,110.5Zm27.23-.13,0-.68,2.72-.14,0,.68C217,110.27,216.11,110.31,215.2,110.37Zm13.54-.12c-.9,0-1.8-.08-2.7-.1v-.68l2.73.1Zm-8.12-.1v-.68l2.67,0,.05.68C222.39,110.13,221.51,110.13,220.62,110.15ZM249.3,110c-.85-.3-1.7-.59-2.56-.86l.2-.64c.87.27,1.73.56,2.59.87Zm-56.06-.81-.16-.66,2.66-.59.14.66Zm50.9-.81c-.87-.24-1.74-.46-2.61-.67l.15-.66c.88.21,1.77.43,2.64.67Zm-45.6-.32-.13-.67,2.67-.5.12.67C200.31,107.74,199.42,107.9,198.54,108.08Zm40.34-.92c-.89-.17-1.77-.33-2.66-.48l.11-.66c.89.14,1.79.3,2.68.48Zm-35,0-.11-.67c.9-.14,1.79-.28,2.69-.4l.1.67C205.66,106.85,204.77,107,203.88,107.13Zm5.36-.74-.08-.68c.9-.1,1.81-.2,2.71-.28l.07.67C211,106.18,210.14,106.28,209.24,106.39Zm24.3-.09c-.89-.12-1.79-.22-2.69-.3l.07-.68c.9.09,1.81.19,2.71.3Zm-18.91-.43,0-.67c.9-.07,1.81-.12,2.72-.16l0,.67C216.44,105.75,215.53,105.81,214.63,105.87Zm13.53-.09c-.9,0-1.8-.1-2.7-.13l0-.68c.91,0,1.82.08,2.72.14Zm-8.12-.16v-.68l2.16,0h.56v.68h-.56Z"/><path class="cls-8" d="M127.51,146.06l-.51-.45c.32-.36.62-.7.91-1l.5.46Z"/><path class="cls-9" d="M233.34,203.49c-5,29.43,12.37,57.53,14.36,2.64C247.7,206.13,239,233.28,233.34,203.49Z"/><path class="cls-9" d="M234.38,181.32c1.62-.08,22.25-7.66,14.51-8-4.11,3.68-9.14,6.32-14.64,6C232.11,179.2,232.92,181.75,234.38,181.32Z"/><path class="cls-9" d="M232.46,171.28c6,1.69,11.65,6.78,15.83,11.2.92,1,2.61-.27,1.68-1.24C249.44,178.85,227.84,163.51,232.46,171.28Z"/><path class="cls-9" d="M233.13,164.68c7.4.64,11.85-3,18.64-5.32l.37-2.45c-6.38,2.21-12.49,4.7-19.2,5.24-1.34.11-.93,2.1-.93,2.1Z"/><path class="cls-9" d="M231.62,155.8c2.49,0,23,18.94,20.12,11.09C249.08,167.11,228.63,148,231.62,155.8Z"/><path class="cls-9" d="M179.56,194.65c-.31,6.15.32,21.47.65,27.79-.57,2.46,2.88,17.78-1.51,17.69-4.74-.32-1.39-13.45-2-16.24.06-4.66-1.23-19.46-1.16-24.12,0-3.2.34-12.2-.67-14-1.86.06-6.61,1.51-6.73-1.65,2.29-3.27,12.64-3.7,15.92-2.53a2,2,0,0,1-1.55,3.62,33.12,33.12,0,0,0-3.56-.1A79.11,79.11,0,0,1,179.56,194.65Z"/><path class="cls-9" d="M207.24,205c.65,21.67-3.08,36.4-9.75,35.72-5.2.36-7.45-5.56-8.09-9.56-1.49-11.86-.54-26.95-1.35-40.94,6.37-8.58,3.45,22.31,4.11,23.84-.08,3.22,1.24,13.18,1.16,16.4q0,5.67,4.94,5.65,5.52,0,5.34-41.64c.2-1.63-.52-5.61.35-7,6.3-3,3.41,8.17,3.6,11.06Z"/><path class="cls-9" d="M220.16,238.18c.15-6.11-2.36-39.11-2.47-46.18-5.61.54-9.27-2.86-4.13-4,.76,0,11.29.82,11.76.64,3.62-.25,2.75,4.15-.14,4l-3.55-.52c-2,4.86,6.66,48.76,0,47.06Z"/><g class="cls-10"><path class="cls-11" d="M146.4,188c0,.29-.08.59-.13.88a.53.53,0,0,1-.12.25.41.41,0,0,1-.31.1c-.15,0-.22-.07-.22-.14a3,3,0,0,1,.12-1.3,1,1,0,0,1,.24-.51.33.33,0,0,1,.21-.07c.11,0,.17,0,.17.11,0,.22,0,.45,0,.68Z"/><path class="cls-11" d="M128.71,217.1c0,.28,0,.56,0,.85,0,0-.05.09-.16.11a.41.41,0,0,1-.33-.07.57.57,0,0,1-.23-.45,3.62,3.62,0,0,1,.3-1.31.17.17,0,0,1,.08-.09.33.33,0,0,1,.15,0,.26.26,0,0,1,.14.06,1.43,1.43,0,0,1,.06.68,2.17,2.17,0,0,1,0,.26Z"/><path class="cls-11" d="M132.91,180.74c.26.17.29.31.28.45a12.44,12.44,0,0,1-.1,1.36,1.65,1.65,0,0,1-.26.44c-.47-.37-.33-.76-.32-1.12A1.69,1.69,0,0,1,132.91,180.74Z"/><path class="cls-11" d="M141.63,219.41a4.16,4.16,0,0,1,0,.5c0,.11-.13.2-.35.21s-.41-.08-.43-.22a2,2,0,0,1,.22-1.4.64.64,0,0,1,.14-.06.16.16,0,0,1,.2.07A2.58,2.58,0,0,1,141.63,219.41Z"/><path class="cls-11" d="M147.53,233.66c0,.18,0,.35,0,.53a.35.35,0,0,1-.1.2.41.41,0,0,1-.22.07.36.36,0,0,1-.24-.05.54.54,0,0,1-.2-.45,2,2,0,0,1,.3-.93c0-.09,0-.24.29-.21s.21.17.22.26a5.66,5.66,0,0,1,0,.58Z"/><path class="cls-11" d="M131.42,194.7a1.88,1.88,0,0,1,.43-1.12.25.25,0,0,1,.24,0,.27.27,0,0,1,.12.06.19.19,0,0,1,.06.15l-.24,1.51s0,0,0,.05a.2.2,0,0,1-.12.06.38.38,0,0,1-.16,0A.64.64,0,0,1,131.42,194.7Z"/><path class="cls-11" d="M144.71,206.08a1.87,1.87,0,0,1,.13,1.23.85.85,0,0,1-.13.25.42.42,0,0,1-.32.08.27.27,0,0,1-.26-.12.13.13,0,0,1,0-.1,2.2,2.2,0,0,1,.3-1.23.56.56,0,0,1,.19-.1Z"/><path class="cls-11" d="M129.93,227.41c.3.09.34.21.35.33,0,.44,0,.87,0,1.3,0,.06,0,.15-.18.15a.35.35,0,0,1-.27-.12.38.38,0,0,1-.13-.19A1.81,1.81,0,0,1,129.93,227.41Z"/><path class="cls-11" d="M144.8,196.15a.45.45,0,0,1,.26.39,1.8,1.8,0,0,1-.15,1s-.15.06-.23.07a.21.21,0,0,1-.15-.05c-.12-.08-.2-.18-.17-.29.08-.35.17-.69.27-1C144.64,196.23,144.74,196.19,144.8,196.15Z"/><path class="cls-11" d="M153.62,204.47a5.93,5.93,0,0,1-.17.61s-.1.1-.21.08a.48.48,0,0,1-.22-.07.4.4,0,0,1-.12-.19,1.52,1.52,0,0,1,.3-1.08.23.23,0,0,1,.13-.07.15.15,0,0,1,.17.09C153.65,204,153.61,204.21,153.62,204.47Z"/><path class="cls-11" d="M134.24,207.07a4.46,4.46,0,0,1-.07.51c0,.12-.13.2-.36.2s-.34-.09-.32-.21a5,5,0,0,1,.31-1.29s.09-.05.14-.05a.18.18,0,0,1,.13.06A1.44,1.44,0,0,1,134.24,207.07Z"/><path class="cls-11" d="M157.6,194.81c-.07.23,0,.46-.16.68a.26.26,0,0,1-.2.08.31.31,0,0,1-.2-.09.31.31,0,0,1-.07-.2,2.41,2.41,0,0,1,.18-1.09c0-.05.11-.08.16-.11a1.6,1.6,0,0,1,.19.11A.81.81,0,0,1,157.6,194.81Z"/><path class="cls-11" d="M148.21,147.34c0,.3-.08.6-.13.89a.75.75,0,0,1-.13.25.38.38,0,0,1-.3.1c-.15,0-.22-.07-.23-.14a3.19,3.19,0,0,1,.13-1.3,1,1,0,0,1,.23-.51.31.31,0,0,1,.22-.07c.11,0,.16.05.17.1v.68Z"/><path class="cls-11" d="M143.44,178.73a4,4,0,0,1,0,.5c0,.11-.12.2-.35.2s-.4-.07-.43-.21a2,2,0,0,1,.23-1.4.32.32,0,0,1,.13-.06c.13,0,.18,0,.2.07A2.6,2.6,0,0,1,143.44,178.73Z"/><path class="cls-11" d="M159.66,172.91v.63a.23.23,0,0,1-.12.24l-.23.08a.25.25,0,0,1-.22-.08.44.44,0,0,1-.11-.2,3.2,3.2,0,0,1,.23-1.45.18.18,0,0,1,.23-.11c.13,0,.21.09.21.16,0,.24,0,.49,0,.73Z"/><path class="cls-11" d="M146.51,165.4a1.87,1.87,0,0,1,.14,1.23.79.79,0,0,1-.14.25.39.39,0,0,1-.31.08c-.14,0-.22-.05-.26-.12a.21.21,0,0,1,0-.1,2.19,2.19,0,0,1,.31-1.23.56.56,0,0,1,.19-.1Z"/><path class="cls-11" d="M146.61,155.47a.42.42,0,0,1,.25.39,1.65,1.65,0,0,1-.15,1s-.14.06-.22.07a.24.24,0,0,1-.16-.05c-.11-.08-.19-.18-.17-.29.08-.35.18-.7.28-1C146.45,155.54,146.55,155.51,146.61,155.47Z"/><path class="cls-11" d="M155.43,163.79c0,.16-.1.38-.17.61,0,0-.1.09-.21.08a.57.57,0,0,1-.22-.07.41.41,0,0,1-.13-.2,1.56,1.56,0,0,1,.31-1.07.23.23,0,0,1,.13-.07c.11,0,.13,0,.17.09S155.42,163.53,155.43,163.79Z"/><path class="cls-11" d="M159.4,154.13c-.07.22,0,.46-.16.67a.26.26,0,0,1-.39,0,.31.31,0,0,1-.07-.2,2.47,2.47,0,0,1,.17-1.1s.11-.07.17-.1.15.06.18.11A.81.81,0,0,1,159.4,154.13Z"/><path class="cls-11" d="M171.37,125.73c0,.29-.08.59-.13.88a.6.6,0,0,1-.13.25.38.38,0,0,1-.3.1c-.15,0-.22-.06-.23-.14a3.21,3.21,0,0,1,.13-1.3c.06-.17.06-.35.23-.5a.31.31,0,0,1,.22-.08c.11,0,.16.06.17.11v.68Z"/><path class="cls-11" d="M166.6,157.12a3.88,3.88,0,0,1,0,.49c0,.11-.12.2-.35.21s-.4-.08-.43-.22a2,2,0,0,1,.23-1.39.32.32,0,0,1,.13-.07c.13,0,.18,0,.2.08A2.55,2.55,0,0,1,166.6,157.12Z"/><path class="cls-11" d="M182.82,151.29v.63a.24.24,0,0,1-.12.25.78.78,0,0,1-.23.07.25.25,0,0,1-.22-.07.5.5,0,0,1-.11-.2,3.18,3.18,0,0,1,.23-1.45c0-.06.07-.14.23-.12s.21.09.21.16c0,.25,0,.49,0,.73Z"/><path class="cls-11" d="M169.67,143.78a1.83,1.83,0,0,1,.14,1.23.69.69,0,0,1-.14.25.43.43,0,0,1-.31.09.3.3,0,0,1-.26-.13.21.21,0,0,1,0-.1,2.23,2.23,0,0,1,.31-1.23.56.56,0,0,1,.19-.1Z"/><path class="cls-11" d="M169.77,133.85a.42.42,0,0,1,.25.39,1.68,1.68,0,0,1-.15,1s-.14.05-.22.06a.29.29,0,0,1-.16,0c-.11-.09-.19-.19-.17-.3.08-.34.18-.69.28-1C169.61,133.93,169.71,133.89,169.77,133.85Z"/><path class="cls-11" d="M178.59,142.17c0,.16-.1.39-.17.61,0,.05-.1.1-.21.08a.44.44,0,0,1-.22-.07.38.38,0,0,1-.13-.19,1.58,1.58,0,0,1,.31-1.08.23.23,0,0,1,.13-.07c.11,0,.13.05.17.09S178.58,141.92,178.59,142.17Z"/><path class="cls-11" d="M182.56,132.51c-.07.23,0,.46-.16.68a.31.31,0,0,1-.19.09.37.37,0,0,1-.2-.09.35.35,0,0,1-.07-.21,2.42,2.42,0,0,1,.17-1.09s.11-.07.17-.11.15.07.18.11A.81.81,0,0,1,182.56,132.51Z"/><path class="cls-11" d="M191.38,140.08c0,.3-.07.59-.13.89a.58.58,0,0,1-.12.25.4.4,0,0,1-.31.09c-.15,0-.22-.06-.22-.14a3,3,0,0,1,.12-1.3c.07-.17.07-.35.24-.5a.29.29,0,0,1,.22-.08c.11,0,.16.06.16.11,0,.23,0,.45,0,.68Z"/><path class="cls-11" d="M186.61,171.47a4.17,4.17,0,0,1,0,.5c0,.11-.12.19-.35.2s-.41-.07-.43-.22a2,2,0,0,1,.23-1.39s.08-.05.13-.06a.15.15,0,0,1,.2.07A2.58,2.58,0,0,1,186.61,171.47Z"/><path class="cls-11" d="M202.83,165.65c0,.21,0,.41,0,.62a.24.24,0,0,1-.12.25.88.88,0,0,1-.23.07.24.24,0,0,1-.22-.07.37.37,0,0,1-.11-.2,3.17,3.17,0,0,1,.22-1.45c0-.06.08-.14.24-.11s.2.08.2.16c0,.24,0,.48,0,.73Z"/><path class="cls-11" d="M189.69,158.13a1.84,1.84,0,0,1,.13,1.24.52.52,0,0,1-.13.24.42.42,0,0,1-.32.09c-.14,0-.22,0-.26-.13a.29.29,0,0,1,0-.1,2.22,2.22,0,0,1,.3-1.23.56.56,0,0,1,.19-.1Z"/><path class="cls-11" d="M189.78,148.2a.44.44,0,0,1,.26.39,1.75,1.75,0,0,1-.15,1,.48.48,0,0,1-.23.07.38.38,0,0,1-.15-.05c-.12-.09-.19-.19-.17-.3.08-.34.17-.69.27-1C189.63,148.28,189.72,148.24,189.78,148.2Z"/><path class="cls-11" d="M198.6,156.53c0,.16-.09.38-.16.6a.21.21,0,0,1-.21.09.44.44,0,0,1-.22-.08.3.3,0,0,1-.13-.19,1.52,1.52,0,0,1,.3-1.08.23.23,0,0,1,.14-.06c.11,0,.13,0,.16.08S198.59,156.27,198.6,156.53Z"/><path class="cls-11" d="M202.58,146.86c-.07.23,0,.46-.16.68a.31.31,0,0,1-.19.09.34.34,0,0,1-.21-.09.33.33,0,0,1-.07-.21,2.61,2.61,0,0,1,.18-1.09s.11-.07.16-.11a1.06,1.06,0,0,1,.19.11A.81.81,0,0,1,202.58,146.86Z"/><path class="cls-11" d="M198.45,96.91c0,.29-.08.59-.13.88a.67.67,0,0,1-.13.25.39.39,0,0,1-.31.1c-.14,0-.21-.07-.22-.14a3.19,3.19,0,0,1,.13-1.3c.06-.17.06-.35.23-.5a.31.31,0,0,1,.22-.08c.11,0,.16,0,.17.11v.68Z"/><path class="cls-11" d="M193.67,128.29a2.77,2.77,0,0,1,0,.5c0,.11-.12.2-.35.21s-.41-.08-.43-.22a2,2,0,0,1,.23-1.4s.08,0,.13-.06.18,0,.2.07A2.37,2.37,0,0,1,193.67,128.29Z"/><path class="cls-11" d="M209.9,122.47v.63a.22.22,0,0,1-.12.24.78.78,0,0,1-.23.08.25.25,0,0,1-.22-.07.58.58,0,0,1-.11-.2,3.16,3.16,0,0,1,.23-1.45.18.18,0,0,1,.23-.12c.13,0,.2.09.21.16,0,.25,0,.49,0,.73Z"/><path class="cls-11" d="M196.75,115a1.82,1.82,0,0,1,.13,1.23.55.55,0,0,1-.13.25.39.39,0,0,1-.31.08.27.27,0,0,1-.26-.12.21.21,0,0,1,0-.1,2.21,2.21,0,0,1,.31-1.23.56.56,0,0,1,.19-.1Z"/><path class="cls-11" d="M196.85,105a.42.42,0,0,1,.25.39,1.65,1.65,0,0,1-.15,1s-.14.06-.22.07a.29.29,0,0,1-.16,0c-.12-.09-.19-.19-.17-.3.08-.35.17-.69.28-1C196.69,105.11,196.78,105.07,196.85,105Z"/><path class="cls-11" d="M205.67,113.35c0,.16-.1.39-.17.61a.19.19,0,0,1-.21.08.44.44,0,0,1-.22-.07.36.36,0,0,1-.13-.19,1.53,1.53,0,0,1,.31-1.08s.08-.06.13-.07.13.05.17.09A1,1,0,0,1,205.67,113.35Z"/><path class="cls-11" d="M209.64,103.69c-.07.23,0,.46-.16.68a.26.26,0,0,1-.19.08.27.27,0,0,1-.2-.09.32.32,0,0,1-.08-.2,2.56,2.56,0,0,1,.18-1.09s.11-.08.17-.11.15.07.18.11A.81.81,0,0,1,209.64,103.69Z"/><path class="cls-11" d="M217.65,123.55c0,.29-.08.59-.13.88a.67.67,0,0,1-.13.25.38.38,0,0,1-.3.1c-.15,0-.22-.06-.23-.14a3.21,3.21,0,0,1,.13-1.3c.06-.17.06-.35.23-.5a.31.31,0,0,1,.22-.08c.11,0,.16,0,.17.11v.68Z"/><path class="cls-11" d="M212.88,154.93a4,4,0,0,1,0,.5c0,.11-.12.2-.35.21s-.4-.08-.43-.22a2,2,0,0,1,.23-1.4.53.53,0,0,1,.13-.06c.13,0,.18,0,.2.07A2.66,2.66,0,0,1,212.88,154.93Z"/><path class="cls-11" d="M229.1,149.11v.63a.22.22,0,0,1-.12.24.78.78,0,0,1-.23.08.25.25,0,0,1-.22-.07.5.5,0,0,1-.11-.2,3.18,3.18,0,0,1,.23-1.45.18.18,0,0,1,.23-.12c.13,0,.21.09.21.16,0,.25,0,.49,0,.73Z"/><path class="cls-11" d="M216,141.6a1.83,1.83,0,0,1,.14,1.23.69.69,0,0,1-.14.25.43.43,0,0,1-.31.09.3.3,0,0,1-.26-.13.21.21,0,0,1,0-.1,2.21,2.21,0,0,1,.31-1.23.56.56,0,0,1,.19-.1Z"/><path class="cls-11" d="M216.05,131.67a.42.42,0,0,1,.25.39,1.65,1.65,0,0,1-.15,1s-.14.06-.22.07a.29.29,0,0,1-.16,0c-.11-.09-.19-.19-.17-.3.08-.35.18-.69.28-1C215.89,131.75,216,131.71,216.05,131.67Z"/><path class="cls-11" d="M224.87,140c0,.16-.1.39-.17.61,0,.05-.1.1-.21.08a.44.44,0,0,1-.22-.07.43.43,0,0,1-.13-.19,1.58,1.58,0,0,1,.31-1.08.23.23,0,0,1,.13-.07c.11,0,.13,0,.17.09S224.86,139.74,224.87,140Z"/><path class="cls-11" d="M228.84,130.33c-.07.23,0,.46-.16.68a.31.31,0,0,1-.19.09.32.32,0,0,1-.2-.1.31.31,0,0,1-.07-.2,2.42,2.42,0,0,1,.17-1.09s.11-.08.17-.11.15.07.18.11A.81.81,0,0,1,228.84,130.33Z"/><path class="cls-11" d="M263.51,136.19c0,.3-.08.59-.13.89a.58.58,0,0,1-.12.25.38.38,0,0,1-.31.09c-.15,0-.22-.06-.22-.13a3.08,3.08,0,0,1,.12-1.31.93.93,0,0,1,.24-.5.26.26,0,0,1,.22-.07c.1,0,.16.05.16.1,0,.23,0,.46,0,.68Z"/><path class="cls-11" d="M258.74,167.58a4.16,4.16,0,0,1,0,.5c0,.11-.12.2-.35.2s-.41-.07-.43-.22a2,2,0,0,1,.22-1.39.26.26,0,0,1,.14-.06.15.15,0,0,1,.2.07A2.58,2.58,0,0,1,258.74,167.58Z"/><path class="cls-11" d="M275,161.76c0,.21,0,.42,0,.63a.22.22,0,0,1-.12.24.71.71,0,0,1-.22.07.21.21,0,0,1-.22-.07.31.31,0,0,1-.11-.2,3.19,3.19,0,0,1,.22-1.45.19.19,0,0,1,.24-.11c.12,0,.2.09.2.16,0,.24,0,.49,0,.73Z"/><path class="cls-11" d="M261.82,154.24a1.91,1.91,0,0,1,.13,1.24.52.52,0,0,1-.13.24.39.39,0,0,1-.32.09c-.14,0-.22-.05-.26-.12a.22.22,0,0,1,0-.1,2.18,2.18,0,0,1,.3-1.23c0-.05.12-.07.19-.11Z"/><path class="cls-11" d="M261.91,144.32a.44.44,0,0,1,.26.39,1.8,1.8,0,0,1-.15,1,.52.52,0,0,1-.23.07.27.27,0,0,1-.15,0c-.12-.08-.2-.19-.17-.29.08-.35.17-.7.27-1C261.75,144.39,261.85,144.36,261.91,144.32Z"/><path class="cls-11" d="M270.73,152.64c0,.16-.09.38-.17.61,0,0-.1.09-.2.08a.63.63,0,0,1-.23-.07.39.39,0,0,1-.12-.2,1.49,1.49,0,0,1,.3-1.07.23.23,0,0,1,.13-.07c.12,0,.14,0,.17.09S270.72,152.38,270.73,152.64Z"/><path class="cls-11" d="M274.71,143c-.07.22,0,.46-.16.67a.31.31,0,0,1-.19.09.34.34,0,0,1-.21-.09.32.32,0,0,1-.07-.2,2.63,2.63,0,0,1,.18-1.1s.11-.07.16-.11a.69.69,0,0,1,.19.12A.81.81,0,0,1,274.71,143Z"/><path class="cls-11" d="M137.86,242.83c-.05.29-.08.59-.13.88a.67.67,0,0,1-.13.25.39.39,0,0,1-.31.1c-.14,0-.21-.07-.22-.14a3.19,3.19,0,0,1,.13-1.3,1,1,0,0,1,.23-.51.36.36,0,0,1,.22-.07c.11,0,.16.05.16.11,0,.22,0,.45,0,.68Z"/><path class="cls-11" d="M133.08,274.21a4.16,4.16,0,0,1,0,.5c0,.11-.12.2-.35.21s-.41-.08-.43-.22a2,2,0,0,1,.23-1.4s.08,0,.13-.06.18,0,.2.07A2.58,2.58,0,0,1,133.08,274.21Z"/><path class="cls-11" d="M149.31,268.39V269a.22.22,0,0,1-.12.24.78.78,0,0,1-.23.08.24.24,0,0,1-.22-.08.47.47,0,0,1-.11-.19,3.15,3.15,0,0,1,.22-1.45.19.19,0,0,1,.24-.12c.13,0,.2.09.21.16,0,.25,0,.49,0,.73Z"/><path class="cls-11" d="M136.16,260.88a1.81,1.81,0,0,1,.13,1.23.55.55,0,0,1-.13.25.39.39,0,0,1-.31.08c-.15,0-.23-.05-.26-.12a.21.21,0,0,1,0-.1,2.19,2.19,0,0,1,.31-1.23s.12-.07.19-.1Z"/><path class="cls-11" d="M136.25,251a.41.41,0,0,1,.26.39,1.65,1.65,0,0,1-.15,1s-.14.06-.22.07a.24.24,0,0,1-.16,0,.3.3,0,0,1-.17-.29c.08-.35.17-.69.27-1C136.1,251,136.19,251,136.25,251Z"/><path class="cls-11" d="M145.08,259.27c-.05.16-.1.39-.17.61a.19.19,0,0,1-.21.08.44.44,0,0,1-.22-.07.36.36,0,0,1-.13-.19,1.57,1.57,0,0,1,.3-1.08.26.26,0,0,1,.14-.07c.11,0,.13.05.16.09S145.07,259,145.08,259.27Z"/><path class="cls-11" d="M149.05,249.61c-.07.23,0,.46-.16.68a.26.26,0,0,1-.19.08.31.31,0,0,1-.2-.09.32.32,0,0,1-.08-.2,2.56,2.56,0,0,1,.18-1.09c0-.05.11-.08.17-.11s.15.07.18.11A.81.81,0,0,1,149.05,249.61Z"/><path class="cls-11" d="M159.32,273.63a4.16,4.16,0,0,1,0,.5c0,.11-.12.2-.35.21s-.41-.08-.43-.22a2,2,0,0,1,.23-1.4s.08,0,.13-.06a.16.16,0,0,1,.2.07A2.58,2.58,0,0,1,159.32,273.63Z"/><path class="cls-11" d="M175.54,267.81c0,.21,0,.42,0,.63s0,.18-.13.24a.72.72,0,0,1-.22.08.24.24,0,0,1-.22-.08c0-.06-.11-.13-.11-.19a3.15,3.15,0,0,1,.22-1.45.19.19,0,0,1,.24-.12c.12,0,.2.09.2.16,0,.24,0,.49,0,.73Z"/><path class="cls-11" d="M162.4,260.3a1.87,1.87,0,0,1,.13,1.23.55.55,0,0,1-.13.25.42.42,0,0,1-.32.08.27.27,0,0,1-.26-.12.19.19,0,0,1,0-.1,2.18,2.18,0,0,1,.3-1.23.56.56,0,0,1,.19-.1Z"/><path class="cls-11" d="M178.45,292.61a4,4,0,0,1,0,.49c0,.11-.12.2-.35.21s-.41-.08-.43-.22a2,2,0,0,1,.23-1.39s.08-.05.13-.06.18,0,.2.07A2.52,2.52,0,0,1,178.45,292.61Z"/><path class="cls-11" d="M194.68,286.79v.62a.24.24,0,0,1-.12.25.78.78,0,0,1-.23.07.24.24,0,0,1-.22-.07.44.44,0,0,1-.11-.2,3.17,3.17,0,0,1,.22-1.45.2.2,0,0,1,.24-.12c.13,0,.2.09.21.16,0,.25,0,.49,0,.74Z"/><path class="cls-11" d="M181.53,279.27a1.82,1.82,0,0,1,.13,1.23.5.5,0,0,1-.13.25.43.43,0,0,1-.31.09.29.29,0,0,1-.26-.13.18.18,0,0,1,0-.1,2.23,2.23,0,0,1,.31-1.23s.12-.07.19-.1Z"/><path class="cls-11" d="M181.62,269.34a.41.41,0,0,1,.26.39,1.68,1.68,0,0,1-.15,1s-.14.05-.22.06a.29.29,0,0,1-.16,0c-.12-.09-.19-.19-.17-.3.08-.34.17-.69.28-1C181.47,269.42,181.56,269.38,181.62,269.34Z"/><path class="cls-11" d="M190.45,277.67c0,.15-.1.38-.17.6a.2.2,0,0,1-.21.09.56.56,0,0,1-.22-.08.3.3,0,0,1-.13-.19A1.57,1.57,0,0,1,190,277a.26.26,0,0,1,.14-.07c.11,0,.13.05.16.09S190.44,277.41,190.45,277.67Z"/><path class="cls-11" d="M194.42,268c-.07.23,0,.46-.16.68a.31.31,0,0,1-.19.09.37.37,0,0,1-.2-.09.37.37,0,0,1-.08-.21,2.58,2.58,0,0,1,.18-1.09s.11-.07.17-.11.15.07.18.11A.81.81,0,0,1,194.42,268Z"/><path class="cls-11" d="M202.73,281.85a4.16,4.16,0,0,1,0,.5c0,.11-.12.2-.35.2s-.41-.07-.43-.22a2,2,0,0,1,.23-1.39s.08-.05.13-.06a.15.15,0,0,1,.2.07A2.58,2.58,0,0,1,202.73,281.85Z"/><path class="cls-11" d="M219,276v.63a.23.23,0,0,1-.12.24.78.78,0,0,1-.23.07.21.21,0,0,1-.22-.07.44.44,0,0,1-.11-.2,3.19,3.19,0,0,1,.22-1.45.2.2,0,0,1,.24-.11c.13,0,.2.09.21.16,0,.24,0,.49,0,.73Z"/><path class="cls-11" d="M205.81,268.51a1.84,1.84,0,0,1,.13,1.24.52.52,0,0,1-.13.24.35.35,0,0,1-.31.09c-.15,0-.22-.05-.26-.12a.26.26,0,0,1,0-.1,2.25,2.25,0,0,1,.31-1.24s.12-.06.19-.1Z"/><path class="cls-11" d="M214.73,266.91c0,.16-.1.38-.17.61a.22.22,0,0,1-.21.08.44.44,0,0,1-.22-.08.3.3,0,0,1-.13-.19,1.53,1.53,0,0,1,.3-1.07.26.26,0,0,1,.14-.07c.11,0,.13,0,.16.08C214.75,266.46,214.72,266.65,214.73,266.91Z"/><path class="cls-11" d="M224.63,290.43a2.77,2.77,0,0,1,0,.5c0,.11-.12.2-.35.21s-.41-.08-.43-.22a2,2,0,0,1,.23-1.4s.08,0,.13-.06.18,0,.2.07A2.37,2.37,0,0,1,224.63,290.43Z"/><path class="cls-11" d="M240.86,284.61v.63a.22.22,0,0,1-.12.24.78.78,0,0,1-.23.08.25.25,0,0,1-.22-.08.47.47,0,0,1-.11-.19,3.16,3.16,0,0,1,.23-1.45.18.18,0,0,1,.23-.12c.13,0,.2.09.21.16,0,.24,0,.49,0,.73Z"/><path class="cls-11" d="M227.71,277.1a1.81,1.81,0,0,1,.13,1.23.55.55,0,0,1-.13.25.39.39,0,0,1-.31.08.27.27,0,0,1-.26-.12.21.21,0,0,1,0-.1,2.19,2.19,0,0,1,.31-1.23.56.56,0,0,1,.19-.1Z"/><path class="cls-11" d="M227.81,267.17a.42.42,0,0,1,.25.39,1.65,1.65,0,0,1-.15,1s-.14.06-.22.07a.24.24,0,0,1-.16-.05.3.3,0,0,1-.17-.29c.08-.35.17-.69.28-1C227.65,267.25,227.74,267.21,227.81,267.17Z"/><path class="cls-11" d="M236.63,275.49c0,.16-.1.39-.17.61a.19.19,0,0,1-.21.08.57.57,0,0,1-.22-.07.36.36,0,0,1-.13-.19,1.52,1.52,0,0,1,.31-1.08s.08-.06.13-.07.13.05.17.09S236.62,275.23,236.63,275.49Z"/><path class="cls-11" d="M240.6,265.83c-.07.22,0,.46-.16.67a.26.26,0,0,1-.19.09.31.31,0,0,1-.2-.09.32.32,0,0,1-.08-.2,2.63,2.63,0,0,1,.18-1.1s.11-.07.17-.1a.61.61,0,0,1,.18.11A.81.81,0,0,1,240.6,265.83Z"/><path class="cls-11" d="M248.52,275.75a2.7,2.7,0,0,1,0,.5c0,.11-.12.2-.34.21s-.41-.08-.44-.22a2,2,0,0,1,.23-1.39s.09-.05.14-.07a.16.16,0,0,1,.2.07A2.63,2.63,0,0,1,248.52,275.75Z"/><path class="cls-11" d="M264.74,269.93c0,.21,0,.42,0,.63s0,.18-.12.25a.69.69,0,0,1-.23.07.22.22,0,0,1-.21-.07.43.43,0,0,1-.12-.2,3.18,3.18,0,0,1,.23-1.45c0-.06.08-.14.24-.12s.2.09.2.16c0,.25,0,.49,0,.73Z"/><path class="cls-11" d="M251.6,262.42a1.88,1.88,0,0,1,.13,1.23.85.85,0,0,1-.13.25.47.47,0,0,1-.32.09.3.3,0,0,1-.26-.13.13.13,0,0,1,0-.1,2.12,2.12,0,0,1,.3-1.23.56.56,0,0,1,.19-.1Z"/><path class="cls-11" d="M260.51,260.81a5.93,5.93,0,0,1-.17.61c0,.05-.1.1-.21.08a.48.48,0,0,1-.22-.07.4.4,0,0,1-.12-.19,1.52,1.52,0,0,1,.3-1.08.23.23,0,0,1,.13-.07.15.15,0,0,1,.17.09C260.54,260.36,260.5,260.56,260.51,260.81Z"/><path class="cls-11" d="M264.49,251.15c-.07.23,0,.46-.16.68a.31.31,0,0,1-.2.09.37.37,0,0,1-.2-.09.35.35,0,0,1-.07-.21,2.43,2.43,0,0,1,.18-1.09.41.41,0,0,1,.16-.11,1.6,1.6,0,0,1,.19.11A.81.81,0,0,1,264.49,251.15Z"/><path class="cls-11" d="M272,244.54c-.05.3-.08.59-.13.89a.75.75,0,0,1-.13.25.39.39,0,0,1-.31.1c-.14,0-.21-.07-.22-.14a3.19,3.19,0,0,1,.13-1.3,1,1,0,0,1,.23-.51.31.31,0,0,1,.22-.07c.11,0,.16.05.16.1,0,.23,0,.46,0,.68Z"/><path class="cls-11" d="M267.22,275.93a4.16,4.16,0,0,1,0,.5c0,.11-.12.2-.35.2s-.41-.07-.43-.21a2,2,0,0,1,.23-1.4.26.26,0,0,1,.13-.06.15.15,0,0,1,.2.07A2.58,2.58,0,0,1,267.22,275.93Z"/><path class="cls-11" d="M283.45,270.11v.63a.23.23,0,0,1-.12.24.78.78,0,0,1-.23.07.21.21,0,0,1-.22-.07.44.44,0,0,1-.11-.2,3.19,3.19,0,0,1,.22-1.45.2.2,0,0,1,.24-.11c.13,0,.2.09.21.16,0,.24,0,.49,0,.73Z"/><path class="cls-11" d="M270.3,262.6a1.81,1.81,0,0,1,.13,1.23.6.6,0,0,1-.13.25.39.39,0,0,1-.31.08c-.15,0-.22-.05-.26-.12a.21.21,0,0,1,0-.1,2.19,2.19,0,0,1,.31-1.23s.12-.07.19-.1Z"/><path class="cls-11" d="M270.39,252.67a.41.41,0,0,1,.26.39,1.65,1.65,0,0,1-.15,1,.47.47,0,0,1-.22.07.24.24,0,0,1-.16,0,.31.31,0,0,1-.17-.29c.08-.35.17-.7.28-1C270.24,252.74,270.33,252.71,270.39,252.67Z"/><path class="cls-11" d="M279.22,261c-.05.16-.1.38-.17.61a.22.22,0,0,1-.21.08.57.57,0,0,1-.22-.07.35.35,0,0,1-.13-.2,1.55,1.55,0,0,1,.3-1.07.26.26,0,0,1,.14-.07c.11,0,.13,0,.16.09S279.21,260.73,279.22,261Z"/><path class="cls-11" d="M283.19,251.33c-.07.22,0,.46-.16.67a.26.26,0,0,1-.39,0,.32.32,0,0,1-.08-.2,2.63,2.63,0,0,1,.18-1.1s.11-.07.17-.1.15.06.18.11A.81.81,0,0,1,283.19,251.33Z"/><path class="cls-11" d="M263.77,196.8c0,.21,0,.42,0,.63s0,.18-.12.24a.69.69,0,0,1-.23.08.2.2,0,0,1-.21-.08.4.4,0,0,1-.12-.19,3.16,3.16,0,0,1,.23-1.45c0-.06.07-.15.24-.12s.2.09.2.16c0,.25,0,.49,0,.73Z"/><path class="cls-11" d="M259.54,187.68a5.93,5.93,0,0,1-.17.61c0,.05-.1.1-.21.08a.48.48,0,0,1-.22-.07.4.4,0,0,1-.12-.19,1.52,1.52,0,0,1,.3-1.08.23.23,0,0,1,.13-.07.15.15,0,0,1,.17.09C259.57,187.23,259.53,187.42,259.54,187.68Z"/><path class="cls-11" d="M263.52,178c-.07.23,0,.46-.16.68a.26.26,0,0,1-.2.08.27.27,0,0,1-.2-.09.31.31,0,0,1-.07-.2,2.41,2.41,0,0,1,.18-1.09c0-.05.1-.08.16-.11a1.6,1.6,0,0,1,.19.11A.81.81,0,0,1,263.52,178Z"/><path class="cls-11" d="M271,171.41c0,.3-.08.59-.13.89a.75.75,0,0,1-.13.25.39.39,0,0,1-.31.09c-.14,0-.21-.06-.22-.13a3.24,3.24,0,0,1,.13-1.31,1,1,0,0,1,.23-.5.27.27,0,0,1,.22-.07c.11,0,.16.05.16.1,0,.23,0,.45,0,.68Z"/><path class="cls-11" d="M282.48,197v.63a.23.23,0,0,1-.12.24.78.78,0,0,1-.23.07.21.21,0,0,1-.22-.07.44.44,0,0,1-.11-.2,3.17,3.17,0,0,1,.22-1.45.2.2,0,0,1,.24-.11c.13,0,.2.09.21.16,0,.24,0,.48,0,.73Z"/><path class="cls-11" d="M269.33,189.46a1.84,1.84,0,0,1,.13,1.24.52.52,0,0,1-.13.24.35.35,0,0,1-.31.09c-.15,0-.22-.05-.26-.12a.26.26,0,0,1,0-.1,2.25,2.25,0,0,1,.31-1.24.56.56,0,0,1,.19-.1Z"/><path class="cls-11" d="M269.42,179.54a.4.4,0,0,1,.26.39,1.65,1.65,0,0,1-.15,1,.47.47,0,0,1-.22.07.3.3,0,0,1-.16,0,.31.31,0,0,1-.17-.29c.08-.35.17-.7.28-1C269.27,179.61,269.36,179.58,269.42,179.54Z"/><path class="cls-11" d="M278.25,187.86c-.05.16-.1.38-.17.61a.22.22,0,0,1-.21.08.44.44,0,0,1-.22-.08.3.3,0,0,1-.13-.19,1.53,1.53,0,0,1,.3-1.07.26.26,0,0,1,.14-.07c.11,0,.13,0,.16.08C278.27,187.41,278.24,187.6,278.25,187.86Z"/><path class="cls-11" d="M282.22,178.2c-.07.22,0,.46-.16.67a.26.26,0,0,1-.39,0,.34.34,0,0,1-.08-.2,2.63,2.63,0,0,1,.18-1.1s.11-.07.17-.11.15.07.18.12A.81.81,0,0,1,282.22,178.2Z"/><path class="cls-11" d="M265.81,207.11c-.05.29-.08.59-.14.88a.53.53,0,0,1-.12.25.39.39,0,0,1-.31.1c-.14,0-.22-.07-.22-.14a3,3,0,0,1,.12-1.3c.07-.17.07-.35.24-.51a.34.34,0,0,1,.22-.07c.11,0,.16.05.16.11,0,.22,0,.45,0,.67Z"/><path class="cls-11" d="M277.26,232.67v.63a.22.22,0,0,1-.12.24.9.9,0,0,1-.23.08.24.24,0,0,1-.22-.08c-.05-.06-.11-.13-.11-.19a3.15,3.15,0,0,1,.22-1.45.19.19,0,0,1,.24-.12c.13,0,.2.09.21.16v.73Z"/><path class="cls-11" d="M264.11,225.16a1.81,1.81,0,0,1,.13,1.23.55.55,0,0,1-.13.25.42.42,0,0,1-.32.08c-.14,0-.22-.05-.25-.12a.21.21,0,0,1,0-.1,2.19,2.19,0,0,1,.31-1.23s.12-.07.18-.1Z"/><path class="cls-11" d="M264.2,215.23a.43.43,0,0,1,.26.39,1.72,1.72,0,0,1-.15,1s-.14.06-.23.07a.23.23,0,0,1-.15,0,.3.3,0,0,1-.17-.29c.08-.35.17-.69.27-1C264.05,215.31,264.14,215.27,264.2,215.23Z"/><path class="cls-11" d="M273,223.55c0,.16-.09.39-.16.61a.19.19,0,0,1-.21.08.57.57,0,0,1-.22-.07.36.36,0,0,1-.13-.19,1.51,1.51,0,0,1,.3-1.08.23.23,0,0,1,.14-.07c.11,0,.13,0,.16.09S273,223.29,273,223.55Z"/><path class="cls-11" d="M277,213.89c-.07.23,0,.46-.16.67a.26.26,0,0,1-.19.09.31.31,0,0,1-.2-.09.32.32,0,0,1-.08-.2,2.63,2.63,0,0,1,.18-1.1s.11-.07.17-.1a.78.78,0,0,1,.18.11A.81.81,0,0,1,277,213.89Z"/><path class="cls-11" d="M289.35,227v.63c0,.08,0,.18-.12.24a.78.78,0,0,1-.23.07.22.22,0,0,1-.22-.07.44.44,0,0,1-.11-.2,3.2,3.2,0,0,1,.23-1.45.18.18,0,0,1,.23-.11c.13,0,.21.09.21.16,0,.24,0,.49,0,.73Z"/><path class="cls-11" d="M285.12,217.92c0,.16-.1.38-.17.61,0,0-.1.09-.21.08a.57.57,0,0,1-.22-.07.39.39,0,0,1-.12-.2,1.5,1.5,0,0,1,.3-1.07.23.23,0,0,1,.13-.07c.12,0,.13,0,.17.09S285.11,217.66,285.12,217.92Z"/><path class="cls-11" d="M289.09,208.26c-.07.22,0,.46-.16.67a.26.26,0,0,1-.39,0,.31.31,0,0,1-.07-.2,2.34,2.34,0,0,1,.18-1.1s.1-.07.16-.1.15.06.18.11C289.16,207.84,289.1,208.05,289.09,208.26Z"/><path class="cls-11" d="M296.61,201.65c-.05.29-.08.59-.14.89a.58.58,0,0,1-.12.25.39.39,0,0,1-.31.09c-.14,0-.22-.06-.22-.14a3,3,0,0,1,.12-1.3c.07-.17.07-.35.24-.5a.29.29,0,0,1,.22-.08c.11,0,.16.06.16.11,0,.23,0,.45,0,.68Z"/><path class="cls-11" d="M308.06,227.22v.62a.24.24,0,0,1-.12.25.88.88,0,0,1-.23.07.24.24,0,0,1-.22-.07.37.37,0,0,1-.11-.2,3.17,3.17,0,0,1,.22-1.45.2.2,0,0,1,.24-.12c.13,0,.2.09.21.16v.74Z"/><path class="cls-11" d="M294.91,219.7a1.82,1.82,0,0,1,.13,1.23.5.5,0,0,1-.13.25.47.47,0,0,1-.32.09c-.14,0-.22-.05-.25-.13a.18.18,0,0,1,0-.1,2.31,2.31,0,0,1,.3-1.23s.13-.07.19-.1Z"/><path class="cls-11" d="M295,209.77a.43.43,0,0,1,.26.39,1.75,1.75,0,0,1-.15,1.05.48.48,0,0,1-.23.07.44.44,0,0,1-.15-.05c-.12-.09-.19-.19-.17-.3.08-.34.17-.69.27-1C294.85,209.85,294.94,209.81,295,209.77Z"/><path class="cls-11" d="M303.82,218.1c0,.16-.09.38-.16.6a.21.21,0,0,1-.21.09.56.56,0,0,1-.22-.08.3.3,0,0,1-.13-.19,1.52,1.52,0,0,1,.3-1.08.23.23,0,0,1,.14-.07c.11,0,.13,0,.16.09S303.81,217.84,303.82,218.1Z"/><path class="cls-11" d="M307.8,208.43c-.07.23,0,.46-.16.68a.26.26,0,0,1-.39,0,.37.37,0,0,1-.08-.21,2.58,2.58,0,0,1,.18-1.09s.11-.07.17-.11a1.42,1.42,0,0,1,.18.11A.81.81,0,0,1,307.8,208.43Z"/><path class="cls-11" d="M238.32,143.78v.63a.23.23,0,0,1-.12.24.78.78,0,0,1-.23.07.21.21,0,0,1-.22-.07.44.44,0,0,1-.11-.2,3.19,3.19,0,0,1,.22-1.45.2.2,0,0,1,.24-.11c.13,0,.2.09.21.16,0,.24,0,.49,0,.73Z"/><path class="cls-11" d="M234.09,134.66c-.05.16-.1.38-.17.61a.22.22,0,0,1-.21.08.57.57,0,0,1-.22-.07.35.35,0,0,1-.13-.2,1.53,1.53,0,0,1,.3-1.07.26.26,0,0,1,.14-.07c.11,0,.13,0,.16.09S234.08,134.4,234.09,134.66Z"/><path class="cls-11" d="M238.06,125c-.07.22,0,.46-.16.67a.26.26,0,0,1-.39,0,.32.32,0,0,1-.08-.2,2.63,2.63,0,0,1,.18-1.1s.11-.07.17-.11.15.07.18.12A.81.81,0,0,1,238.06,125Z"/><path class="cls-11" d="M245.57,118.39c0,.29-.08.59-.13.88a.56.56,0,0,1-.12.26.41.41,0,0,1-.31.09c-.15,0-.22-.06-.22-.14a3,3,0,0,1,.12-1.3c.06-.17.06-.35.24-.5a.29.29,0,0,1,.22-.08c.1,0,.16.06.16.11,0,.22,0,.45,0,.68Z"/><path class="cls-11" d="M257,144c0,.2,0,.41,0,.62s0,.18-.12.25a.71.71,0,0,1-.22.07.24.24,0,0,1-.22-.07.31.31,0,0,1-.11-.2,3,3,0,0,1,.22-1.45c0-.06.08-.14.24-.12s.2.09.2.16c0,.25,0,.49,0,.74Z"/><path class="cls-11" d="M243.88,136.44a1.88,1.88,0,0,1,.13,1.23.6.6,0,0,1-.13.25.47.47,0,0,1-.32.09.3.3,0,0,1-.26-.13.17.17,0,0,1,0-.1,2.22,2.22,0,0,1,.3-1.23.56.56,0,0,1,.19-.1Z"/><path class="cls-11" d="M244,126.51a.45.45,0,0,1,.26.39,1.83,1.83,0,0,1-.15,1s-.15,0-.23.06a.26.26,0,0,1-.15,0c-.12-.09-.2-.19-.17-.3.08-.34.17-.69.27-1C243.81,126.59,243.91,126.55,244,126.51Z"/><path class="cls-11" d="M252.79,134.84a5.82,5.82,0,0,1-.17.6c0,.05-.1.1-.2.09a.62.62,0,0,1-.23-.08.33.33,0,0,1-.12-.19,1.52,1.52,0,0,1,.3-1.08.23.23,0,0,1,.13-.07.15.15,0,0,1,.17.09C252.82,134.38,252.78,134.58,252.79,134.84Z"/><path class="cls-11" d="M256.77,125.17c-.07.23,0,.46-.16.68a.31.31,0,0,1-.19.09.41.41,0,0,1-.21-.09.35.35,0,0,1-.07-.21,2.58,2.58,0,0,1,.18-1.09s.11-.07.16-.11a1.06,1.06,0,0,1,.19.11A.81.81,0,0,1,256.77,125.17Z"/><path class="cls-11" d="M154.1,220.07c0,.19,0,.39-.09.58,0,0-.13.08-.2.09a.33.33,0,0,1-.21-.08.57.57,0,0,1-.15-.24,1.09,1.09,0,0,1,.13-.78.27.27,0,0,1,.27-.18c.22,0,.21.11.22.19s0,.28,0,.42Z"/><path class="cls-11" d="M159.1,240.07c0,.19,0,.39-.09.58,0,0-.13.08-.2.09a.33.33,0,0,1-.21-.08.57.57,0,0,1-.15-.24,1.09,1.09,0,0,1,.13-.78.27.27,0,0,1,.27-.18c.22,0,.21.11.22.19s0,.28,0,.42Z"/><polygon class="cls-11" points="133.05 193.08 133.03 193.05 133.07 193.06 133.05 193.08"/></g></g></g></svg>